<?xml version="1.0" encoding="UTF-8"?>
<!DOCTYPE svg PUBLIC "-//W3C//DTD SVG 1.1//EN" "http://www.w3.org/Graphics/SVG/1.1/DTD/svg11.dtd">
<svg xmlns="http://www.w3.org/2000/svg" version="1.1" width="2000px" height="2000px" style="shape-rendering:geometricPrecision; text-rendering:geometricPrecision; image-rendering:optimizeQuality; fill-rule:evenodd; clip-rule:evenodd" xmlns:xlink="http://www.w3.org/1999/xlink">
<g><path style="opacity:0.901" fill="#d53447" d="M 583.5,961.5 C 583.335,964.518 583.502,967.518 584,970.5C 584.2,972.32 585.034,973.653 586.5,974.5C 586.5,974.833 586.5,975.167 586.5,975.5C 586.054,978.01 586.72,980.01 588.5,981.5C 589.482,984.962 589.815,988.629 589.5,992.5C 589.5,992.833 589.5,993.167 589.5,993.5C 586.476,996.882 584.476,1000.88 583.5,1005.5C 555.833,1005.5 528.167,1005.5 500.5,1005.5C 502.753,1021.31 498.42,1034.81 487.5,1046C 483.301,1049.54 478.635,1052.21 473.5,1054C 443.169,1055.99 412.835,1055.99 382.5,1054C 372.104,1049.6 364.271,1042.44 359,1032.5C 358.667,1032.83 358.333,1033.17 358,1033.5C 357.167,1000.16 357.333,966.828 358.5,933.5C 370.171,916.17 386.504,908.837 407.5,911.5C 407.5,771.5 407.5,631.5 407.5,491.5C 389.512,494.425 374.679,489.092 363,475.5C 362.482,472.977 361.148,470.977 359,469.5C 358.667,469.833 358.333,470.167 358,470.5C 357.333,436.833 357.333,403.167 358,369.5C 358.333,369.833 358.667,370.167 359,370.5C 363.308,362.359 369.474,356.026 377.5,351.5C 411.162,350.333 444.828,350.167 478.5,351C 496.516,361.768 503.516,377.434 499.5,398C 585.167,398.333 670.833,398.667 756.5,399C 767.994,400.996 774.661,407.829 776.5,419.5C 774.765,429.816 769.098,436.983 759.5,441C 672.833,441.333 586.167,441.667 499.5,442C 503.17,466.337 493.504,482.67 470.5,491C 463.144,491.169 455.811,491.669 448.5,492.5C 449.833,631.696 449.833,770.863 448.5,910C 457.827,910.918 467.161,912.251 476.5,914C 495.477,923.834 503.144,939.334 499.5,960.5C 527.492,961.5 555.492,961.833 583.5,961.5 Z M 398.5,390.5 C 418.167,390.5 437.833,390.5 457.5,390.5C 457.5,409.833 457.5,429.167 457.5,448.5C 438.164,448.667 418.83,448.5 399.5,448C 399.821,428.936 399.488,409.769 398.5,390.5 Z M 398.5,955.5 C 418.167,955.5 437.833,955.5 457.5,955.5C 457.5,974.5 457.5,993.5 457.5,1012.5C 437.822,1012.83 418.155,1012.5 398.5,1011.5C 399.821,992.833 399.821,974.167 398.5,955.5 Z"/></g>
<g><path style="opacity:0.881" fill="#d53447" d="M 838.5,1005.5 C 838.5,1001.83 838.5,998.167 838.5,994.5C 837.751,983.516 837.417,972.516 837.5,961.5C 865.175,961.833 892.841,961.5 920.5,960.5C 917.356,935.155 928.023,918.989 952.5,912C 958.491,911.501 964.491,911.334 970.5,911.5C 970.5,771.5 970.5,631.5 970.5,491.5C 955.772,493.769 942.772,490.269 931.5,481C 922.32,469.785 918.653,456.952 920.5,442.5C 892.839,441.667 865.173,441.167 837.5,441C 826.38,436.586 820.88,428.42 821,416.5C 822.643,409.03 826.81,403.53 833.5,400C 862.476,398.892 891.476,398.058 920.5,397.5C 916.751,377.157 923.751,361.823 941.5,351.5C 975.162,350.333 1008.83,350.167 1042.5,351C 1054.89,358.386 1062.05,369.219 1064,383.5C 1064.67,407.833 1064.67,432.167 1064,456.5C 1061.26,474.175 1051.43,485.675 1034.5,491C 1027.48,491.169 1020.48,491.669 1013.5,492.5C 1014.83,631.833 1014.83,771.167 1013.5,910.5C 1030.38,909.085 1044.55,914.419 1056,926.5C 1060.85,932.221 1063.52,938.887 1064,946.5C 1064.67,971.167 1064.67,995.833 1064,1020.5C 1061.85,1036.98 1053.01,1048.15 1037.5,1054C 1007.17,1055.99 976.835,1055.99 946.5,1054C 926.086,1044.43 917.086,1028.43 919.5,1006C 892.502,1005.5 865.502,1005.33 838.5,1005.5 Z M 963.5,390.5 C 982.836,390.333 1002.17,390.5 1021.5,391C 1020.51,410.09 1020.17,429.257 1020.5,448.5C 1001.5,448.5 982.5,448.5 963.5,448.5C 963.5,429.167 963.5,409.833 963.5,390.5 Z M 963.5,955.5 C 982.5,955.5 1001.5,955.5 1020.5,955.5C 1020.17,974.41 1020.51,993.243 1021.5,1012C 1002.17,1012.5 982.836,1012.67 963.5,1012.5C 963.5,993.5 963.5,974.5 963.5,955.5 Z"/></g>
<g><path style="opacity:0.909" fill="#515151" d="M 1282.5,885.5 C 1287.4,887.052 1292.57,887.719 1298,887.5C 1301.83,887.333 1305.67,887.167 1309.5,887C 1310.42,886.722 1311.08,886.222 1311.5,885.5C 1371.17,885.667 1430.83,885.5 1490.5,885C 1489.17,810.196 1489.17,735.363 1490.5,660.5C 1415.17,659.5 1339.84,659.167 1264.5,659.5C 1265.64,683.136 1265.8,706.803 1265,730.5C 1262.26,745.425 1253.43,752.592 1238.5,752C 1228.71,748.547 1222.88,741.713 1221,731.5C 1220.33,615.5 1220.33,499.5 1221,383.5C 1221.81,375.734 1224.48,368.734 1229,362.5C 1233.22,358.311 1237.72,354.478 1242.5,351C 1332.5,350.167 1422.5,350.333 1512.5,351.5C 1523.34,357.85 1530.18,367.183 1533,379.5C 1533.67,641.167 1533.67,902.833 1533,1164.5C 1529.7,1179.57 1520.87,1190.07 1506.5,1196C 1424.6,1196.17 1342.76,1196.67 1261,1197.5C 1238.18,1196.01 1224.84,1184.01 1221,1161.5C 1220.33,1046.83 1220.33,932.167 1221,817.5C 1225.99,799.461 1237.15,793.961 1254.5,801C 1257.33,803.167 1259.83,805.667 1262,808.5C 1263,811.833 1264,815.167 1265,818.5C 1265.82,840.543 1265.66,862.543 1264.5,884.5C 1270.46,885.496 1276.46,885.829 1282.5,885.5 Z M 1264.5,390.5 C 1339.84,390.167 1415.17,390.5 1490.5,391.5C 1489.17,466.363 1489.17,541.196 1490.5,616C 1415.31,617.497 1339.98,617.997 1264.5,617.5C 1265.83,541.833 1265.83,466.167 1264.5,390.5 Z M 1402.5,477.5 C 1403.5,494.659 1403.83,511.992 1403.5,529.5C 1386.17,529.5 1368.83,529.5 1351.5,529.5C 1351.5,512.5 1351.5,495.5 1351.5,478.5C 1368.67,478.83 1385.67,478.497 1402.5,477.5 Z"/></g>
<g><path style="opacity:0.889" fill="#d53447" d="M 1382.5,572.5 C 1382.5,571.167 1381.83,570.5 1380.5,570.5C 1379.83,570.5 1379.17,570.5 1378.5,570.5C 1376.99,568.559 1374.99,568.059 1372.5,569C 1371.18,569.816 1370.51,570.983 1370.5,572.5C 1354.83,572.667 1339.16,572.5 1323.5,572C 1317.93,569.46 1313.43,565.627 1310,560.5C 1308.37,524.539 1308.03,488.539 1309,452.5C 1311.35,443.809 1316.85,437.976 1325.5,435C 1360.17,434.333 1394.83,434.333 1429.5,435C 1436.52,437.351 1441.69,441.851 1445,448.5C 1445.83,485.875 1445.66,523.208 1444.5,560.5C 1441.19,565.974 1436.53,569.807 1430.5,572C 1414.5,572.5 1398.5,572.667 1382.5,572.5 Z M 1402.5,477.5 C 1385.67,478.497 1368.67,478.83 1351.5,478.5C 1351.5,495.5 1351.5,512.5 1351.5,529.5C 1368.83,529.5 1386.17,529.5 1403.5,529.5C 1403.83,511.992 1403.5,494.659 1402.5,477.5 Z"/></g>
<g><path style="opacity:0.9" fill="#515151" d="M 836.5,961.5 C 836.5,969.833 836.5,978.167 836.5,986.5C 836.9,992.829 837.233,999.162 837.5,1005.5C 836.503,1025.99 836.169,1046.66 836.5,1067.5C 833.952,1069.3 833.952,1070.96 836.5,1072.5C 836.5,1142.17 836.5,1211.83 836.5,1281.5C 835.24,1265.97 834.24,1250.31 833.5,1234.5C 834.351,1216.21 834.017,1197.54 832.5,1178.5C 831.672,1182.8 831.172,1187.13 831,1191.5C 830.333,1229.83 830.333,1268.17 831,1306.5C 831.374,1307.42 831.874,1308.25 832.5,1309C 948.175,1309.37 1063.84,1309.71 1179.5,1310C 1182.19,1309.23 1184.86,1308.4 1187.5,1307.5C 1182.82,1306.78 1178.15,1306.12 1173.5,1305.5C 1172.91,1305.71 1172.41,1306.04 1172,1306.5C 1161.07,1305.84 1150.24,1305.18 1139.5,1304.5C 1162.17,1304.33 1184.84,1304.5 1207.5,1305C 1226.07,1309.37 1238.57,1320.54 1245,1338.5C 1246.13,1368.81 1246.63,1399.14 1246.5,1429.5C 1246.63,1460.19 1246.13,1490.86 1245,1521.5C 1237.9,1540.6 1224.4,1552.1 1204.5,1556C 1011.5,1556.67 818.5,1556.67 625.5,1556C 603.737,1551.24 590.237,1538.07 585,1516.5C 584.333,1463.5 584.333,1410.5 585,1357.5C 587.104,1348.06 592.937,1342.23 602.5,1340C 612.792,1339.56 620.626,1343.73 626,1352.5C 626.333,1354.17 626.667,1355.83 627,1357.5C 627.333,1408.5 627.667,1459.5 628,1510.5C 629.57,1511.36 631.237,1512.02 633,1512.5C 821.333,1511.17 1009.67,1511.17 1198,1512.5C 1199.76,1512.02 1201.43,1511.36 1203,1510.5C 1203.5,1476.5 1203.67,1442.5 1203.5,1408.5C 1203.83,1407.83 1204.17,1407.17 1204.5,1406.5C 1205.22,1406.08 1205.72,1405.42 1206,1404.5C 1206.67,1385.83 1206.67,1367.17 1206,1348.5C 1204.64,1346.89 1203.14,1345.39 1201.5,1344C 1070.5,1343.67 939.5,1343.33 808.5,1343C 805.761,1341.97 803.428,1340.47 801.5,1338.5C 801.716,1336.32 800.883,1334.65 799,1333.5C 798.667,1089.17 798.333,844.833 798,600.5C 797.583,599.244 796.75,598.577 795.5,598.5C 795.318,595.297 793.652,593.464 790.5,593C 769.167,592.333 747.833,592.333 726.5,593C 725.058,593.377 724.058,594.21 723.5,595.5C 722.833,595.5 722.167,595.5 721.5,595.5C 691.498,595.333 661.498,595.5 631.5,596C 630.069,596.465 628.903,597.299 628,598.5C 627.995,826.201 627.328,1053.87 626,1281.5C 617.037,1295.56 605.537,1298.06 591.5,1289C 588.217,1285.84 586.05,1282 585,1277.5C 584.507,1186.59 584.341,1095.92 584.5,1005.5C 584.328,1004.51 584.662,1003.84 585.5,1003.5C 589.55,1001.06 591.217,997.391 590.5,992.5C 590.666,988.154 590.499,983.821 590,979.5C 589.722,978.584 589.222,977.918 588.5,977.5C 587.949,974.193 587.616,970.86 587.5,967.5C 587.666,960.825 587.5,954.158 587,947.5C 586.329,946.748 585.496,946.414 584.5,946.5C 584.333,828.5 584.5,710.5 585,592.5C 589.472,573.022 601.306,560.189 620.5,554C 680.5,553.333 740.5,553.333 800.5,554C 820.586,560.754 832.419,574.587 836,595.5C 836.496,717.805 836.663,839.805 836.5,961.5 Z"/></g>
<g><path style="opacity:0.596" fill="#95424b" d="M 1378.5,570.5 C 1378.17,570.5 1377.83,570.5 1377.5,570.5C 1375.22,570.077 1373.55,570.744 1372.5,572.5C 1371.83,572.5 1371.17,572.5 1370.5,572.5C 1370.51,570.983 1371.18,569.816 1372.5,569C 1374.99,568.059 1376.99,568.559 1378.5,570.5 Z"/></g>
<g><path style="opacity:0.098" fill="#584f50" d="M 1377.5,570.5 C 1377.83,571.167 1378.17,571.833 1378.5,572.5C 1376.5,572.5 1374.5,572.5 1372.5,572.5C 1373.55,570.744 1375.22,570.077 1377.5,570.5 Z"/></g>
<g><path style="opacity:0.098" fill="#7a484d" d="M 1377.5,570.5 C 1377.83,570.5 1378.17,570.5 1378.5,570.5C 1379.17,570.5 1379.83,570.5 1380.5,570.5C 1380.5,571.167 1380.5,571.833 1380.5,572.5C 1379.83,572.5 1379.17,572.5 1378.5,572.5C 1378.17,571.833 1377.83,571.167 1377.5,570.5 Z"/></g>
<g><path style="opacity:0.098" fill="#aa3d4a" d="M 1380.5,570.5 C 1381.83,570.5 1382.5,571.167 1382.5,572.5C 1381.83,572.5 1381.17,572.5 1380.5,572.5C 1380.5,571.833 1380.5,571.167 1380.5,570.5 Z"/></g>
<g><path style="opacity:0.97" fill="#6e6e6e" d="M 1204.5,1406.5 C 1204.17,1407.17 1203.83,1407.83 1203.5,1408.5C 1191.8,1413.84 1179.46,1415.84 1166.5,1414.5C 1046.66,1411.28 926.829,1407.95 807,1404.5C 786.246,1409.41 767.413,1405.57 750.5,1393C 742.11,1385.6 736.61,1376.43 734,1365.5C 731.756,1351.61 729.256,1337.78 726.5,1324C 726.735,1323.13 727.069,1322.29 727.5,1321.5C 722.989,1090.86 718.656,860.194 714.5,629.5C 713.369,617.372 715.702,606.039 721.5,595.5C 722.167,595.5 722.833,595.5 723.5,595.5C 745.803,594.365 768.136,594.199 790.5,595C 791.354,596.022 792.354,596.855 793.5,597.5C 794.333,842.166 794.833,1086.83 795,1331.5C 797.422,1337.59 801.589,1342.09 807.5,1345C 938.835,1345.17 1070.17,1345.67 1201.5,1346.5C 1202.52,1347.35 1203.36,1348.35 1204,1349.5C 1204.5,1368.5 1204.67,1387.5 1204.5,1406.5 Z"/></g>
<g><path style="opacity:1" fill="#555555" d="M 795.5,598.5 C 796.75,598.577 797.583,599.244 798,600.5C 798.333,844.833 798.667,1089.17 799,1333.5C 800.883,1334.65 801.716,1336.32 801.5,1338.5C 798.619,1336.26 796.952,1333.26 796.5,1329.5C 795.5,1085.83 795.167,842.168 795.5,598.5 Z"/></g>
<g><path style="opacity:0.406" fill="#686868" d="M 1311.5,885.5 C 1311.08,886.222 1310.42,886.722 1309.5,887C 1305.67,887.167 1301.83,887.333 1298,887.5C 1292.57,887.719 1287.4,887.052 1282.5,885.5C 1292.16,884.309 1301.83,884.309 1311.5,885.5 Z"/></g>
<g><path style="opacity:1" fill="#545454" d="M 1486.5,1125.5 C 1487.92,1125.75 1488.92,1126.58 1489.5,1128C 1490.79,1128.49 1492.13,1128.66 1493.5,1128.5C 1493.5,1060.83 1493.5,993.167 1493.5,925.5C 1426.17,925.5 1358.83,925.5 1291.5,925.5C 1358.35,924.827 1425.35,924.16 1492.5,923.5C 1493.17,923.833 1493.83,924.167 1494.5,924.5C 1495.66,993.126 1495.83,1061.79 1495,1130.5C 1492.76,1131.17 1490.59,1130.67 1488.5,1129C 1487.18,1128.18 1486.51,1127.02 1486.5,1125.5 Z"/></g>
<g><path style="opacity:1" fill="#626262" d="M 1291.5,925.5 C 1358.83,925.5 1426.17,925.5 1493.5,925.5C 1493.5,993.167 1493.5,1060.83 1493.5,1128.5C 1492.13,1128.66 1490.79,1128.49 1489.5,1128C 1488.92,1126.58 1487.92,1125.75 1486.5,1125.5C 1421.55,1059.05 1355.88,992.878 1289.5,927C 1289.84,925.97 1290.5,925.47 1291.5,925.5 Z"/></g>
<g><path style="opacity:1" fill="#6e6e6e" d="M 1292.5,926.5 C 1358.74,926.169 1424.9,926.502 1491,927.5C 1492,993.641 1491.66,1059.64 1490,1125.5C 1423.58,1059.58 1357.75,993.25 1292.5,926.5 Z"/></g>
<g><path style="opacity:1" fill="#595959" d="M 1264.5,954.5 C 1263.5,954.5 1262.5,954.5 1261.5,954.5C 1261.5,1021.17 1261.5,1087.83 1261.5,1154.5C 1260.5,1087.67 1260.17,1020.67 1260.5,953.5C 1262.1,953.232 1263.43,953.566 1264.5,954.5 Z"/></g>
<g><path style="opacity:0.999" fill="#606060" d="M 1264.5,954.5 C 1264.5,954.833 1264.5,955.167 1264.5,955.5C 1262.5,1021.82 1261.84,1088.49 1262.5,1155.5C 1261.83,1155.5 1261.5,1155.17 1261.5,1154.5C 1261.5,1087.83 1261.5,1021.17 1261.5,954.5C 1262.5,954.5 1263.5,954.5 1264.5,954.5 Z"/></g>
<g><path style="opacity:0.012" fill="#a73e4a" d="M 584.5,947.5 C 585.117,947.611 585.617,947.944 586,948.5C 586.495,950.473 586.662,952.473 586.5,954.5C 585.549,955.919 585.216,957.585 585.5,959.5C 584.517,955.702 584.183,951.702 584.5,947.5 Z"/></g>
<g><path style="opacity:0.581" fill="#674c4f" d="M 584.5,947.5 C 584.5,947.167 584.5,946.833 584.5,946.5C 585.496,946.414 586.329,946.748 587,947.5C 587.5,954.158 587.666,960.825 587.5,967.5C 586.515,963.366 586.182,959.032 586.5,954.5C 586.662,952.473 586.495,950.473 586,948.5C 585.617,947.944 585.117,947.611 584.5,947.5 Z"/></g>
<g><path style="opacity:0.251" fill="#8c444c" d="M 586.5,954.5 C 586.182,959.032 586.515,963.366 587.5,967.5C 587.616,970.86 587.949,974.193 588.5,977.5C 587.833,976.833 587.167,976.167 586.5,975.5C 586.5,975.167 586.5,974.833 586.5,974.5C 585.8,970.202 585.467,965.869 585.5,961.5C 585.5,960.833 585.5,960.167 585.5,959.5C 585.216,957.585 585.549,955.919 586.5,954.5 Z"/></g>
<g><path style="opacity:1" fill="#646464" d="M 1264.5,955.5 C 1267.09,956.754 1269.43,958.42 1271.5,960.5C 1334.53,1025.19 1398.19,1089.19 1462.5,1152.5C 1462.54,1153.58 1462.87,1154.58 1463.5,1155.5C 1397,1156.83 1330.67,1156.83 1264.5,1155.5C 1330.17,1155.83 1395.84,1155.5 1461.5,1154.5C 1396.01,1088.01 1330.01,1022.34 1263.5,957.5C 1263.5,1023.5 1263.5,1089.5 1263.5,1155.5C 1263.17,1155.5 1262.83,1155.5 1262.5,1155.5C 1261.84,1088.49 1262.5,1021.82 1264.5,955.5 Z"/></g>
<g><path style="opacity:1" fill="#6e6e6e" d="M 1264.5,1155.5 C 1264.17,1155.5 1263.83,1155.5 1263.5,1155.5C 1263.5,1089.5 1263.5,1023.5 1263.5,957.5C 1330.01,1022.34 1396.01,1088.01 1461.5,1154.5C 1395.84,1155.5 1330.17,1155.83 1264.5,1155.5 Z"/></g>
<g><path style="opacity:0.99" fill="#c53748" d="M 583.5,961.5 C 584.167,961.5 584.833,961.5 585.5,961.5C 585.467,965.869 585.8,970.202 586.5,974.5C 585.034,973.653 584.2,972.32 584,970.5C 583.502,967.518 583.335,964.518 583.5,961.5 Z"/></g>
<g><path style="opacity:1" fill="#ba3a49" d="M 586.5,975.5 C 587.167,976.167 587.833,976.833 588.5,977.5C 588.5,978.833 588.5,980.167 588.5,981.5C 586.72,980.01 586.054,978.01 586.5,975.5 Z"/></g>
<g><path style="opacity:1" fill="#89454c" d="M 588.5,977.5 C 589.222,977.918 589.722,978.584 590,979.5C 590.499,983.821 590.666,988.154 590.5,992.5C 590.167,992.5 589.833,992.5 589.5,992.5C 589.815,988.629 589.482,984.962 588.5,981.5C 588.5,980.167 588.5,978.833 588.5,977.5 Z"/></g>
<g><path style="opacity:1" fill="#9a414b" d="M 836.5,961.5 C 836.833,961.5 837.167,961.5 837.5,961.5C 837.417,972.516 837.751,983.516 838.5,994.5C 837.833,991.833 837.167,989.167 836.5,986.5C 836.5,978.167 836.5,969.833 836.5,961.5 Z"/></g>
<g><path style="opacity:1" fill="#9b414b" d="M 589.5,993.5 C 588.613,997.04 587.279,1000.37 585.5,1003.5C 584.662,1003.84 584.328,1004.51 584.5,1005.5C 584.167,1005.5 583.833,1005.5 583.5,1005.5C 584.476,1000.88 586.476,996.882 589.5,993.5 Z"/></g>
<g><path style="opacity:1" fill="#604d4f" d="M 589.5,992.5 C 589.833,992.5 590.167,992.5 590.5,992.5C 591.217,997.391 589.55,1001.06 585.5,1003.5C 587.279,1000.37 588.613,997.04 589.5,993.5C 589.5,993.167 589.5,992.833 589.5,992.5 Z"/></g>
<g><path style="opacity:0.599" fill="#87454c" d="M 836.5,986.5 C 837.167,989.167 837.833,991.833 838.5,994.5C 838.5,998.167 838.5,1001.83 838.5,1005.5C 838.167,1005.5 837.833,1005.5 837.5,1005.5C 837.233,999.162 836.9,992.829 836.5,986.5 Z"/></g>
<g><path style="opacity:1" fill="#555555" d="M 1271.5,960.5 C 1336.75,1024.25 1401.58,1088.58 1466,1153.5C 1466.95,1155.96 1466.45,1157.96 1464.5,1159.5C 1397.37,1158.84 1330.37,1158.17 1263.5,1157.5C 1330.5,1157.67 1397.5,1157.5 1464.5,1157C 1465.61,1154.89 1464.95,1153.39 1462.5,1152.5C 1398.19,1089.19 1334.53,1025.19 1271.5,960.5 Z"/></g>
<g><path style="opacity:0.122" fill="#81464d" d="M 836.5,1067.5 C 836.5,1069.17 836.5,1070.83 836.5,1072.5C 833.952,1070.96 833.952,1069.3 836.5,1067.5 Z"/></g>
<g><path style="opacity:0.999" fill="#5c5c5c" d="M 1462.5,1152.5 C 1464.95,1153.39 1465.61,1154.89 1464.5,1157C 1397.5,1157.5 1330.5,1157.67 1263.5,1157.5C 1263.17,1156.83 1262.83,1156.17 1262.5,1155.5C 1262.83,1155.5 1263.17,1155.5 1263.5,1155.5C 1263.83,1155.5 1264.17,1155.5 1264.5,1155.5C 1330.67,1156.83 1397,1156.83 1463.5,1155.5C 1462.87,1154.58 1462.54,1153.58 1462.5,1152.5 Z"/></g>
<g><path style="opacity:0.845" fill="#545454" d="M 836.5,1281.5 C 836.782,1286.93 836.449,1292.26 835.5,1297.5C 833.758,1300.14 833.091,1303.14 833.5,1306.5C 932.666,1307.67 1032,1307.83 1131.5,1307C 1126.36,1306.16 1121.36,1305.33 1116.5,1304.5C 1124.17,1304.5 1131.83,1304.5 1139.5,1304.5C 1150.24,1305.18 1161.07,1305.84 1172,1306.5C 1172.41,1306.04 1172.91,1305.71 1173.5,1305.5C 1178.15,1306.12 1182.82,1306.78 1187.5,1307.5C 1184.86,1308.4 1182.19,1309.23 1179.5,1310C 1063.84,1309.71 948.175,1309.37 832.5,1309C 831.874,1308.25 831.374,1307.42 831,1306.5C 830.333,1268.17 830.333,1229.83 831,1191.5C 831.172,1187.13 831.672,1182.8 832.5,1178.5C 834.017,1197.54 834.351,1216.21 833.5,1234.5C 834.24,1250.31 835.24,1265.97 836.5,1281.5 Z"/></g>
<g><path style="opacity:0.628" fill="#6e6e6e" d="M 836.5,1297.5 C 913.315,1299.32 989.982,1301.32 1066.5,1303.5C 1063.36,1304.32 1060.03,1304.82 1056.5,1305C 982.501,1305.5 908.501,1305.67 834.5,1305.5C 834.365,1302.58 835.032,1299.92 836.5,1297.5 Z"/></g>
<g><path style="opacity:0.895" fill="#656565" d="M 835.5,1297.5 C 835.833,1297.5 836.167,1297.5 836.5,1297.5C 835.032,1299.92 834.365,1302.58 834.5,1305.5C 908.501,1305.67 982.501,1305.5 1056.5,1305C 1060.03,1304.82 1063.36,1304.32 1066.5,1303.5C 1070.37,1303.19 1074.04,1303.52 1077.5,1304.5C 1075.37,1305.31 1073.04,1305.81 1070.5,1306C 991.501,1306.5 912.501,1306.67 833.5,1306.5C 833.091,1303.14 833.758,1300.14 835.5,1297.5 Z"/></g>
<g><path style="opacity:1" fill="#5d5d5d" d="M 1077.5,1304.5 C 1090.5,1304.5 1103.5,1304.5 1116.5,1304.5C 1121.36,1305.33 1126.36,1306.16 1131.5,1307C 1032,1307.83 932.666,1307.67 833.5,1306.5C 912.501,1306.67 991.501,1306.5 1070.5,1306C 1073.04,1305.81 1075.37,1305.31 1077.5,1304.5 Z"/></g>
<g><path style="opacity:0.887" fill="#d53447" d="M 1609.5,1456.5 C 1609.74,1458.4 1610.74,1459.74 1612.5,1460.5C 1613.17,1460.5 1613.83,1460.5 1614.5,1460.5C 1615.17,1460.83 1615.83,1461.17 1616.5,1461.5C 1616.5,1462.17 1616.5,1462.83 1616.5,1463.5C 1616.97,1464.91 1617.97,1465.57 1619.5,1465.5C 1619.97,1466.91 1620.97,1467.57 1622.5,1467.5C 1623.26,1469.26 1624.6,1470.26 1626.5,1470.5C 1627.17,1471.83 1628.17,1472.83 1629.5,1473.5C 1630.78,1474.93 1632.45,1475.6 1634.5,1475.5C 1636.41,1478.28 1638.57,1480.95 1641,1483.5C 1647.66,1510.09 1638.16,1527.59 1612.5,1536C 1573.44,1536.29 1534.1,1535.96 1494.5,1535C 1475.96,1568.19 1457.46,1601.36 1439,1634.5C 1434.56,1639.44 1429.73,1643.78 1424.5,1647.5C 1413.5,1648.83 1402.5,1648.83 1391.5,1647.5C 1385.89,1643.39 1380.72,1638.72 1376,1633.5C 1374.34,1628.88 1372.67,1624.21 1371,1619.5C 1365.37,1531.62 1359.54,1443.79 1353.5,1356C 1355.53,1332.97 1368.03,1320.14 1391,1317.5C 1396.97,1318.52 1402.8,1320.02 1408.5,1322C 1475.55,1366.85 1542.55,1411.68 1609.5,1456.5 Z M 1585.5,1492.5 C 1551.17,1491.49 1516.84,1491.33 1482.5,1492C 1473.15,1495.34 1465.48,1501.01 1459.5,1509C 1448.07,1530.02 1436.24,1550.85 1424,1571.5C 1420.06,1579.05 1416.39,1586.71 1413,1594.5C 1407.59,1522.88 1402.92,1451.21 1399,1379.5C 1398.26,1375.27 1397.42,1371.11 1396.5,1367C 1460.22,1407.85 1523.22,1449.69 1585.5,1492.5 Z"/></g>
<g><path style="opacity:1" fill="#606060" d="M 795.5,598.5 C 795.167,842.168 795.5,1085.83 796.5,1329.5C 796.952,1333.26 798.619,1336.26 801.5,1338.5C 803.428,1340.47 805.761,1341.97 808.5,1343C 939.5,1343.33 1070.5,1343.67 1201.5,1344C 1203.14,1345.39 1204.64,1346.89 1206,1348.5C 1206.67,1367.17 1206.67,1385.83 1206,1404.5C 1205.72,1405.42 1205.22,1406.08 1204.5,1406.5C 1204.67,1387.5 1204.5,1368.5 1204,1349.5C 1203.36,1348.35 1202.52,1347.35 1201.5,1346.5C 1070.17,1345.67 938.835,1345.17 807.5,1345C 801.589,1342.09 797.422,1337.59 795,1331.5C 794.833,1086.83 794.333,842.166 793.5,597.5C 792.354,596.855 791.354,596.022 790.5,595C 768.136,594.199 745.803,594.365 723.5,595.5C 724.058,594.21 725.058,593.377 726.5,593C 747.833,592.333 769.167,592.333 790.5,593C 793.652,593.464 795.318,595.297 795.5,598.5 Z"/></g>
<g><path style="opacity:0.086" fill="#b43b49" d="M 1609.5,1456.5 C 1610.5,1457.17 1611.5,1457.83 1612.5,1458.5C 1612.5,1459.17 1612.5,1459.83 1612.5,1460.5C 1610.74,1459.74 1609.74,1458.4 1609.5,1456.5 Z"/></g>
<g><path style="opacity:0.09" fill="#89444c" d="M 1612.5,1458.5 C 1613.5,1458.83 1614.17,1459.5 1614.5,1460.5C 1613.83,1460.5 1613.17,1460.5 1612.5,1460.5C 1612.5,1459.83 1612.5,1459.17 1612.5,1458.5 Z"/></g>
<g><path style="opacity:0.045" fill="#79484d" d="M 1616.5,1461.5 C 1617.71,1461.93 1618.71,1462.6 1619.5,1463.5C 1619.5,1463.83 1619.5,1464.17 1619.5,1464.5C 1618.61,1463.89 1617.61,1463.56 1616.5,1463.5C 1616.5,1462.83 1616.5,1462.17 1616.5,1461.5 Z"/></g>
<g><path style="opacity:0.192" fill="#9e404b" d="M 1616.5,1463.5 C 1617.61,1463.56 1618.61,1463.89 1619.5,1464.5C 1619.5,1464.83 1619.5,1465.17 1619.5,1465.5C 1617.97,1465.57 1616.97,1464.91 1616.5,1463.5 Z"/></g>
<g><path style="opacity:0.059" fill="#5d4e4f" d="M 1619.5,1463.5 C 1620.83,1463.5 1621.5,1464.17 1621.5,1465.5C 1620.83,1465.5 1620.17,1465.5 1619.5,1465.5C 1619.5,1465.17 1619.5,1464.83 1619.5,1464.5C 1619.5,1464.17 1619.5,1463.83 1619.5,1463.5 Z"/></g>
<g><path style="opacity:0.208" fill="#85454c" d="M 1619.5,1465.5 C 1620.17,1465.5 1620.83,1465.5 1621.5,1465.5C 1621.83,1466.17 1622.17,1466.83 1622.5,1467.5C 1620.97,1467.57 1619.97,1466.91 1619.5,1465.5 Z"/></g>
<g><path style="opacity:0.047" fill="#574f50" d="M 1621.5,1465.5 C 1624.7,1466.38 1627.37,1468.05 1629.5,1470.5C 1628.8,1471.12 1627.8,1471.12 1626.5,1470.5C 1625.74,1468.74 1624.4,1467.74 1622.5,1467.5C 1622.17,1466.83 1621.83,1466.17 1621.5,1465.5 Z"/></g>
<g><path style="opacity:0.212" fill="#78484d" d="M 1622.5,1467.5 C 1624.4,1467.74 1625.74,1468.74 1626.5,1470.5C 1624.6,1470.26 1623.26,1469.26 1622.5,1467.5 Z"/></g>
<g><path style="opacity:0.114" fill="#85454c" d="M 1626.5,1470.5 C 1627.8,1471.12 1628.8,1471.12 1629.5,1470.5C 1630.5,1470.83 1631.17,1471.5 1631.5,1472.5C 1631.16,1473.34 1630.49,1473.67 1629.5,1473.5C 1628.17,1472.83 1627.17,1471.83 1626.5,1470.5 Z"/></g>
<g><path style="opacity:0.094" fill="#a43f4a" d="M 1631.5,1472.5 C 1632.83,1473.17 1633.83,1474.17 1634.5,1475.5C 1632.45,1475.6 1630.78,1474.93 1629.5,1473.5C 1630.49,1473.67 1631.16,1473.34 1631.5,1472.5 Z"/></g>
</svg>
