<?xml version="1.0" standalone="no"?>
<!DOCTYPE svg PUBLIC "-//W3C//DTD SVG 20010904//EN"
 "http://www.w3.org/TR/2001/REC-SVG-20010904/DTD/svg10.dtd">
<svg version="1.0" xmlns="http://www.w3.org/2000/svg"
 width="1600.000000pt" height="1600.000000pt" viewBox="0 0 1600.000000 1600.000000"
 preserveAspectRatio="xMidYMid meet">

<g transform="translate(0.000000,1600.000000) scale(0.100000,-0.100000)"
fill="#000000" stroke="none">
<path d="M4160 13166 c-100 -26 -142 -45 -232 -103 -118 -77 -214 -196 -268
-333 -56 -140 -52 -5 -61 -2015 -9 -1946 -7 -2121 32 -2272 50 -198 191 -372
374 -464 141 -70 142 -70 630 -80 511 -11 738 -5 787 20 48 25 69 61 78 137 5
38 18 98 29 132 25 76 26 127 5 207 -42 162 -176 279 -350 304 -38 6 -197 18
-354 26 -157 9 -312 19 -345 23 -58 7 -59 8 -68 43 -5 21 -5 814 0 1790 l8
1754 1180 2 c649 2 2253 -1 3565 -5 l2385 -7 -2 -690 c-3 -1019 -24 -2819 -34
-2829 -4 -5 -279 -12 -611 -17 -332 -4 -895 -13 -1253 -19 -357 -5 -963 -15
-1345 -20 -1890 -27 -2104 -31 -2168 -46 -129 -29 -224 -101 -284 -215 -32
-63 -33 -66 -30 -176 4 -184 3 -206 -3 -258 -6 -42 -3 -55 17 -84 13 -19 37
-43 55 -53 30 -18 132 -19 2940 -18 1707 0 2931 4 2963 9 258 43 465 211 557
451 50 130 48 31 48 2190 l0 2025 -23 78 c-39 136 -98 235 -197 332 -95 93
-218 156 -378 194 -34 8 -1064 11 -3805 10 l-3757 -1 -85 -22z"/>
<path d="M4941 11732 c-95 -48 -108 -185 -24 -246 22 -16 52 -21 157 -27 167
-10 295 -25 421 -50 93 -19 278 -69 328 -89 12 -4 60 -23 107 -41 350 -135
719 -398 962 -687 40 -48 76 -89 79 -92 3 -3 36 -48 73 -100 71 -100 117 -174
186 -305 23 -44 58 -95 78 -112 30 -28 43 -33 86 -33 66 0 94 17 150 95 52 72
270 279 366 347 108 77 337 195 453 232 179 59 382 96 530 96 85 0 140 27 168
82 25 49 24 84 -4 132 -39 69 -71 79 -226 71 -488 -23 -965 -227 -1311 -561
-48 -46 -90 -84 -93 -84 -3 0 -44 58 -90 128 -390 589 -990 1014 -1663 1177
-186 45 -216 50 -429 70 -200 20 -262 19 -304 -3z"/>
<path d="M10125 11536 c-308 -60 -567 -294 -653 -591 -98 -336 12 -684 288
-906 71 -57 195 -121 290 -149 92 -28 276 -38 373 -21 410 71 708 424 707 838
-1 377 -254 709 -621 813 -96 27 -285 35 -384 16z m290 -291 c140 -36 285
-143 348 -258 55 -100 71 -164 72 -282 0 -65 -6 -126 -13 -150 -82 -249 -289
-405 -536 -405 -177 0 -314 64 -429 199 -86 101 -127 214 -127 357 0 267 186
491 455 547 48 11 176 6 230 -8z"/>
<path d="M4931 11093 c-65 -37 -89 -122 -53 -193 29 -57 62 -69 223 -80 203
-13 308 -33 489 -92 552 -180 1007 -637 1189 -1194 22 -66 47 -159 57 -205 25
-128 47 -158 127 -180 47 -13 114 14 145 59 24 33 30 122 13 178 -5 16 -14 54
-21 84 -57 257 -227 604 -409 830 -74 93 -243 263 -331 333 -268 215 -621 380
-930 437 -36 6 -84 16 -107 21 -23 5 -113 12 -200 15 -144 5 -161 4 -192 -13z"/>
<path d="M8705 10359 c-22 -5 -71 -17 -110 -25 -90 -20 -235 -75 -322 -121
-332 -177 -570 -457 -688 -808 -33 -100 -35 -113 -25 -151 29 -104 154 -141
235 -71 16 14 38 57 59 117 91 263 241 456 471 607 161 106 335 162 558 178
75 6 105 12 129 29 66 44 85 119 47 186 -35 61 -60 70 -196 69 -65 -1 -136 -5
-158 -10z"/>
<path d="M8033 7456 c-86 -21 -140 -64 -181 -141 l-27 -50 0 -351 0 -351 35
-56 c26 -41 73 -88 175 -172 77 -63 153 -121 168 -128 35 -15 39 -30 35 -142
l-3 -90 -860 -5 c-849 -5 -861 -5 -905 -26 -55 -26 -113 -81 -143 -137 -21
-40 -22 -54 -25 -321 -4 -330 2 -360 79 -438 89 -89 11 -82 989 -88 l865 -5 3
-212 2 -213 -857 -2 -858 -3 -52 -24 c-58 -26 -121 -88 -149 -147 -17 -35 -19
-67 -19 -334 0 -267 2 -299 19 -334 28 -59 91 -121 149 -147 l52 -24 855 -5
855 -5 5 -290 c6 -329 6 -330 87 -378 54 -33 73 -34 122 -3 81 52 80 47 83
377 l3 294 1820 5 c1402 4 1828 8 1854 17 80 29 150 99 181 183 9 24 15 110
18 270 4 241 -3 320 -34 385 -21 44 -87 111 -128 129 -17 8 -40 18 -51 22 -11
5 -839 11 -1840 14 l-1820 5 -3 201 c-2 160 0 204 11 213 10 8 501 11 1838 13
l1824 3 45 27 c61 36 104 83 132 143 22 48 23 59 23 330 l0 280 -27 55 c-37
76 -97 129 -178 157 -27 10 -435 13 -1846 13 -1643 0 -1812 1 -1818 16 -8 20
-8 168 0 188 3 9 21 23 39 32 43 20 271 210 317 263 65 76 69 107 66 468 l-3
319 -30 59 c-33 64 -91 116 -153 136 -55 18 -670 22 -739 5z m625 -547 l2
-267 -111 -92 c-93 -78 -117 -93 -153 -97 -45 -5 -64 7 -223 145 l-63 54 0
252 c0 185 3 255 12 264 9 9 79 12 273 10 l260 -3 3 -266z m-423 -2889 l0
-215 -820 0 -820 0 -3 209 c-2 161 1 211 10 218 7 4 378 7 823 5 l810 -2 0
-215z m1559 214 c14 -5 16 -34 16 -214 0 -180 -2 -209 -16 -214 -9 -3 -294 -6
-634 -6 -554 0 -618 2 -624 16 -12 31 -7 399 6 412 9 9 161 12 624 12 337 0
619 -3 628 -6z m2311 -214 l0 -215 -1000 0 -1000 0 -3 209 c-2 161 1 211 10
218 7 4 459 7 1003 5 l990 -2 0 -215z"/>
<path d="M3773 5940 c-70 -35 -106 -72 -140 -148 -22 -51 -23 -61 -23 -322 0
-188 4 -283 13 -311 17 -58 74 -128 131 -164 l49 -30 846 0 846 0 41 22 c58
31 103 79 130 138 23 49 24 57 24 337 0 267 -1 290 -21 335 -25 60 -80 118
-139 146 -45 22 -46 22 -870 24 l-825 3 -62 -30z m1625 -478 l2 -212 -747 2
-748 3 -3 200 c-1 110 0 205 2 212 4 11 151 13 748 11 l743 -3 3 -213z"/>
<path d="M3825 4517 c-89 -26 -165 -94 -195 -175 -18 -48 -20 -78 -20 -322 0
-336 8 -367 123 -454 75 -57 64 -57 939 -54 792 3 804 3 849 24 63 29 110 74
139 131 25 47 25 53 28 333 2 197 0 297 -8 325 -17 55 -64 121 -110 151 -81
54 -81 54 -925 53 -556 -1 -791 -4 -820 -12z"/>
</g>
</svg>
