<?xml version="1.0" encoding="UTF-8"?>
<!DOCTYPE svg PUBLIC "-//W3C//DTD SVG 1.1//EN" "http://www.w3.org/Graphics/SVG/1.1/DTD/svg11.dtd">
<svg xmlns="http://www.w3.org/2000/svg" version="1.1" width="2000px" height="2000px" style="shape-rendering:geometricPrecision; text-rendering:geometricPrecision; image-rendering:optimizeQuality; fill-rule:evenodd; clip-rule:evenodd" xmlns:xlink="http://www.w3.org/1999/xlink">
<g><path style="opacity:0.933" fill="#515151" d="M 1339.5,359.5 C 1393.21,349.197 1435.37,366.197 1466,410.5C 1480.84,436.735 1485.18,464.735 1479,494.5C 1476.68,504.303 1472.85,513.469 1467.5,522C 1514.3,521.191 1549.13,541.024 1572,581.5C 1574.08,587.981 1576.41,594.314 1579,600.5C 1579.67,832.833 1579.67,1065.17 1579,1297.5C 1565.5,1341 1536.33,1366.83 1491.5,1375C 1357.5,1375.5 1223.5,1375.67 1089.5,1375.5C 1099.27,1415.39 1108.77,1455.39 1118,1495.5C 1141.43,1494.34 1164.93,1494.17 1188.5,1495C 1224.86,1502.03 1247.7,1523.53 1257,1559.5C 1257.82,1568.41 1257.65,1577.24 1256.5,1586C 1257,1586.5 1257.5,1587 1258,1587.5C 1271.09,1586.84 1284.26,1586.5 1297.5,1586.5C 1312.87,1586.39 1328.2,1586.89 1343.5,1588C 1360.1,1596.23 1365.27,1609.06 1359,1626.5C 1355.66,1631.01 1351.82,1635.01 1347.5,1638.5C 1116.17,1639.83 884.833,1639.83 653.5,1638.5C 634.915,1624.02 633.915,1608.52 650.5,1592C 652.67,1590.41 655.004,1589.08 657.5,1588C 672.8,1586.89 688.133,1586.39 703.5,1586.5C 716.74,1586.5 729.907,1586.84 743,1587.5C 739.604,1546.93 756.104,1517.77 792.5,1500C 799.213,1498.49 805.88,1496.83 812.5,1495C 836.073,1494.17 859.573,1494.34 883,1495.5C 892.224,1455.4 901.724,1415.4 911.5,1375.5C 777.5,1375.67 643.5,1375.5 509.5,1375C 463.981,1366.32 434.315,1339.82 420.5,1295.5C 419.333,1064.17 419.167,832.834 420,601.5C 420.333,601.833 420.667,602.167 421,602.5C 435.623,556.543 466.79,530.043 514.5,523C 742.834,522.833 971.167,522.333 1199.5,521.5C 1227.43,479.727 1255.59,438.06 1284,396.5C 1299.71,379.435 1318.21,367.102 1339.5,359.5 Z M 1052.5,741.5 C 1051.66,741.842 1051.33,742.508 1051.5,743.5C 1051.5,743.833 1051.5,744.167 1051.5,744.5C 1050.14,745.685 1048.64,746.685 1047,747.5C 996.485,746.633 953.818,764.633 919,801.5C 895.218,831.504 881.884,865.838 879,904.5C 878.333,920.5 878.333,936.5 879,952.5C 882.249,981.606 887.249,1010.27 894,1038.5C 902.153,1060.83 916.987,1067 938.5,1057C 944.54,1051.29 950.874,1045.96 957.5,1041C 964.912,1037.08 972.579,1033.75 980.5,1031C 1000.34,1027.17 1020.34,1026.17 1040.5,1028C 1058.5,1028.67 1076.5,1028.67 1094.5,1028C 1143.51,1020.66 1177.68,994.156 1197,948.5C 1206.81,917.801 1206.98,887.134 1197.5,856.5C 1198.09,854.258 1199.09,852.258 1200.5,850.5C 1201.17,850.5 1201.5,850.167 1201.5,849.5C 1275.59,759.535 1349.59,669.369 1423.5,579C 1445.5,578.333 1467.5,578.333 1489.5,579C 1510.07,584.903 1522.23,598.403 1526,619.5C 1526.5,780.5 1526.67,941.5 1526.5,1102.5C 1263.5,1102.33 1000.5,1102.5 737.5,1103C 720.242,1108.76 713.242,1120.59 716.5,1138.5C 721.745,1148.91 730.078,1155.41 741.5,1158C 1003.07,1158.83 1264.57,1158.67 1526,1157.5C 1526.5,1173.16 1526.67,1188.83 1526.5,1204.5C 1521.5,1203.73 1516.5,1202.9 1511.5,1202C 1413.17,1201.31 1314.83,1200.64 1216.5,1200C 1143.79,1199.13 1071.13,1197.96 998.5,1196.5C 990.638,1196.78 982.805,1197.11 975,1197.5C 886.905,1196.2 798.738,1195.37 710.5,1195C 699.454,1194.81 688.454,1194.31 677.5,1193.5C 676.914,1193.71 676.414,1194.04 676,1194.5C 613.901,1193.49 551.734,1192.99 489.5,1193C 484.241,1193.4 479.241,1194.57 474.5,1196.5C 474.333,1183.5 474.5,1170.5 475,1157.5C 498.094,1158.66 521.261,1158.83 544.5,1158C 565.136,1153.55 573.302,1141.05 569,1120.5C 564.934,1111.43 558.101,1105.6 548.5,1103C 523.836,1102.5 499.169,1102.33 474.5,1102.5C 474.333,940.833 474.5,779.166 475,617.5C 479.636,597.531 491.802,584.698 511.5,579C 728.167,578.333 944.833,578.333 1161.5,579C 1125.33,633.147 1088.99,687.314 1052.5,741.5 Z M 1166.5,807.5 C 1165.17,807.5 1164.5,808.167 1164.5,809.5C 1163.21,810.29 1162.04,811.29 1161,812.5C 1141.28,797.056 1121.11,782.223 1100.5,768C 1101.66,766.008 1103,764.175 1104.5,762.5C 1104.5,762.167 1104.5,761.833 1104.5,761.5C 1118.42,741.221 1132.42,720.887 1146.5,700.5C 1168.51,716.842 1190.51,733.175 1212.5,749.5C 1196.74,768.583 1181.41,787.917 1166.5,807.5 Z M 1042.5,800.5 C 1046.51,800.334 1050.51,800.501 1054.5,801C 1084,823.167 1113.5,845.333 1143,867.5C 1148.48,884.739 1149.98,902.405 1147.5,920.5C 1140.71,947.451 1124.05,964.618 1097.5,972C 1063.17,972.333 1028.83,972.667 994.5,973C 989.215,974.026 983.882,974.693 978.5,975C 972.647,977.09 966.647,978.756 960.5,980C 953.303,982.398 946.47,985.565 940,989.5C 933.591,954.606 932.924,919.606 938,884.5C 942.361,866.435 950.361,850.101 962,835.5C 972.504,825.316 984.338,817.149 997.5,811C 1002.61,809.649 1007.61,807.982 1012.5,806C 1022.61,804.496 1032.61,802.662 1042.5,800.5 Z M 967.5,1375.5 C 989.5,1375.5 1011.5,1375.5 1033.5,1375.5C 1033.34,1378.19 1033.5,1380.85 1034,1383.5C 1042.66,1418.44 1050.99,1453.44 1059,1488.5C 1059.84,1490.35 1060.67,1492.18 1061.5,1494C 1020.83,1494.83 980.163,1494.67 939.5,1493.5C 949.893,1454.51 959.227,1415.18 967.5,1375.5 Z"/></g>
<g><path style="opacity:1" fill="#5f5f5f" d="M 1392.5,413.5 C 1385.19,411.131 1377.69,409.798 1370,409.5C 1361.29,410.675 1352.79,412.675 1344.5,415.5C 1345.75,413.864 1347.42,412.697 1349.5,412C 1363.48,407.387 1377.48,407.387 1391.5,412C 1392.06,412.383 1392.39,412.883 1392.5,413.5 Z"/></g>
<g><path style="opacity:1" fill="#6e6e6e" d="M 1392.5,413.5 C 1397.88,416.332 1403.21,419.499 1408.5,423C 1412.98,428.832 1417.32,434.665 1421.5,440.5C 1423.15,444.88 1424.99,449.214 1427,453.5C 1427.74,463.352 1427.58,473.185 1426.5,483C 1425.8,486.936 1424.8,490.77 1423.5,494.5C 1422.83,495.833 1421.83,496.833 1420.5,497.5C 1416.34,502.477 1412.68,507.811 1409.5,513.5C 1401.9,520.681 1395.23,528.681 1389.5,537.5C 1384.11,542.56 1379.44,548.226 1375.5,554.5C 1369.22,563.776 1362.22,572.442 1354.5,580.5C 1347.6,588.543 1340.44,596.543 1333,604.5C 1332.21,605.745 1331.71,607.078 1331.5,608.5C 1324.3,618.241 1316.63,627.574 1308.5,636.5C 1300.9,643.681 1294.23,651.681 1288.5,660.5C 1280.72,668.607 1273.72,677.274 1267.5,686.5C 1266.4,688.389 1265.06,690.055 1263.5,691.5C 1257.95,696.38 1252.95,701.88 1248.5,708C 1247.5,708.667 1246.5,708.667 1245.5,708C 1226.09,693.232 1206.76,678.565 1187.5,664C 1185.58,662.878 1183.58,662.044 1181.5,661.5C 1179.45,659.453 1177.12,657.786 1174.5,656.5C 1183.07,642.895 1191.74,629.229 1200.5,615.5C 1200.49,613.692 1200.99,612.025 1202,610.5C 1207.77,602.917 1213.27,595.251 1218.5,587.5C 1221.67,584.497 1224.51,581.163 1227,577.5C 1237.17,561.667 1247.33,546.001 1257.5,530.5C 1260.24,523.361 1264.24,517.028 1269.5,511.5C 1271.07,511.063 1272.24,510.063 1273,508.5C 1277.33,502.167 1281.67,495.833 1286,489.5C 1289.3,485.222 1291.8,480.556 1293.5,475.5C 1299.67,465.169 1306.33,455.169 1313.5,445.5C 1314.64,445.092 1315.64,444.425 1316.5,443.5C 1321.45,435.559 1327.12,428.226 1333.5,421.5C 1336.21,417.807 1339.87,415.807 1344.5,415.5C 1352.79,412.675 1361.29,410.675 1370,409.5C 1377.69,409.798 1385.19,411.131 1392.5,413.5 Z"/></g>
<g><path style="opacity:1" fill="#636363" d="M 1333.5,421.5 C 1327.12,428.226 1321.45,435.559 1316.5,443.5C 1315.64,444.425 1314.64,445.092 1313.5,445.5C 1318.4,435.939 1325.07,427.939 1333.5,421.5 Z"/></g>
<g><path style="opacity:1" fill="#606060" d="M 1421.5,440.5 C 1424.66,443.475 1426.83,447.142 1428,451.5C 1429.97,462.829 1429.97,474.162 1428,485.5C 1426.96,488.823 1425.46,491.823 1423.5,494.5C 1424.8,490.77 1425.8,486.936 1426.5,483C 1427.58,473.185 1427.74,463.352 1427,453.5C 1424.99,449.214 1423.15,444.88 1421.5,440.5 Z"/></g>
<g><path style="opacity:1" fill="#626262" d="M 1293.5,475.5 C 1291.8,480.556 1289.3,485.222 1286,489.5C 1281.67,495.833 1277.33,502.167 1273,508.5C 1272.24,510.063 1271.07,511.063 1269.5,511.5C 1276.51,498.808 1284.51,486.808 1293.5,475.5 Z"/></g>
<g><path style="opacity:1" fill="#606060" d="M 1420.5,497.5 C 1419.17,504.486 1415.51,509.819 1409.5,513.5C 1412.68,507.811 1416.34,502.477 1420.5,497.5 Z"/></g>
<g><path style="opacity:1" fill="#636363" d="M 1409.5,513.5 C 1403.3,521.909 1396.63,529.909 1389.5,537.5C 1395.23,528.681 1401.9,520.681 1409.5,513.5 Z"/></g>
<g><path style="opacity:1" fill="#626262" d="M 1389.5,537.5 C 1388.22,539.799 1386.89,542.132 1385.5,544.5C 1382.09,546.745 1379.59,549.745 1378,553.5C 1377.33,554.252 1376.5,554.586 1375.5,554.5C 1379.44,548.226 1384.11,542.56 1389.5,537.5 Z"/></g>
<g><path style="opacity:1" fill="#626262" d="M 1257.5,530.5 C 1247.33,546.001 1237.17,561.667 1227,577.5C 1224.51,581.163 1221.67,584.497 1218.5,587.5C 1227.13,572.917 1236.3,558.584 1246,544.5C 1249.32,539.353 1253.15,534.686 1257.5,530.5 Z"/></g>
<g><path style="opacity:1" fill="#636363" d="M 1354.5,580.5 C 1350.45,585.219 1346.78,590.219 1343.5,595.5C 1339.47,599.859 1335.47,604.193 1331.5,608.5C 1331.71,607.078 1332.21,605.745 1333,604.5C 1340.44,596.543 1347.6,588.543 1354.5,580.5 Z"/></g>
<g><path style="opacity:1" fill="#616161" d="M 1200.5,615.5 C 1191.74,629.229 1183.07,642.895 1174.5,656.5C 1173.29,654.565 1173.46,652.565 1175,650.5C 1182.33,639.843 1189.66,629.176 1197,618.5C 1197.76,616.937 1198.93,615.937 1200.5,615.5 Z"/></g>
<g><path style="opacity:1" fill="#636363" d="M 1308.5,636.5 C 1303.88,642.957 1299.05,649.29 1294,655.5C 1292.3,657.373 1290.46,659.04 1288.5,660.5C 1294.23,651.681 1300.9,643.681 1308.5,636.5 Z"/></g>
<g><path style="opacity:1" fill="#626262" d="M 1288.5,660.5 C 1286.28,664.736 1283.61,668.736 1280.5,672.5C 1276.15,677.24 1271.82,681.907 1267.5,686.5C 1273.72,677.274 1280.72,668.607 1288.5,660.5 Z"/></g>
<g><path style="opacity:1" fill="#626262" d="M 1181.5,661.5 C 1183.58,662.044 1185.58,662.878 1187.5,664C 1206.76,678.565 1226.09,693.232 1245.5,708C 1246.5,708.667 1247.5,708.667 1248.5,708C 1252.95,701.88 1257.95,696.38 1263.5,691.5C 1258.87,698.438 1253.53,704.772 1247.5,710.5C 1245.93,710.248 1244.59,709.582 1243.5,708.5C 1222.79,692.822 1202.13,677.155 1181.5,661.5 Z"/></g>
<g><path style="opacity:1" fill="#555555" d="M 1343.5,595.5 C 1342.48,598.381 1340.98,601.047 1339,603.5C 1310.02,638.485 1281.02,673.485 1252,708.5C 1251.52,709.448 1251.35,710.448 1251.5,711.5C 1249.03,712.75 1246.7,712.583 1244.5,711C 1243.75,710.329 1243.41,709.496 1243.5,708.5C 1244.59,709.582 1245.93,710.248 1247.5,710.5C 1253.53,704.772 1258.87,698.438 1263.5,691.5C 1265.06,690.055 1266.4,688.389 1267.5,686.5C 1271.82,681.907 1276.15,677.24 1280.5,672.5C 1283.61,668.736 1286.28,664.736 1288.5,660.5C 1290.46,659.04 1292.3,657.373 1294,655.5C 1299.05,649.29 1303.88,642.957 1308.5,636.5C 1316.63,627.574 1324.3,618.241 1331.5,608.5C 1335.47,604.193 1339.47,599.859 1343.5,595.5 Z"/></g>
<g><path style="opacity:1" fill="#664c4f" d="M 1057.5,741.5 C 1062.98,740.348 1068.65,740.182 1074.5,741C 1076.65,741.099 1078.32,741.933 1079.5,743.5C 1078.83,743.5 1078.17,743.5 1077.5,743.5C 1075.56,742.85 1073.56,742.517 1071.5,742.5C 1070.83,742.5 1070.17,742.5 1069.5,742.5C 1065.7,741.517 1061.7,741.183 1057.5,741.5 Z"/></g>
<g><path style="opacity:0.639" fill="#94424c" d="M 1052.5,741.5 C 1054.17,741.5 1055.83,741.5 1057.5,741.5C 1061.7,741.183 1065.7,741.517 1069.5,742.5C 1063.46,742.36 1057.46,742.693 1051.5,743.5C 1051.33,742.508 1051.66,741.842 1052.5,741.5 Z"/></g>
<g><path style="opacity:1" fill="#b83a49" d="M 1069.5,742.5 C 1070.17,742.5 1070.83,742.5 1071.5,742.5C 1071.5,742.833 1071.5,743.167 1071.5,743.5C 1064.8,743.391 1058.14,743.724 1051.5,744.5C 1051.5,744.167 1051.5,743.833 1051.5,743.5C 1057.46,742.693 1063.46,742.36 1069.5,742.5 Z"/></g>
<g><path style="opacity:0.914" fill="#d53447" d="M 1071.5,743.5 C 1073.44,744.15 1075.44,744.483 1077.5,744.5C 1078.83,744.833 1080.17,745.167 1081.5,745.5C 1081.97,746.906 1082.97,747.573 1084.5,747.5C 1085.17,747.5 1085.83,747.5 1086.5,747.5C 1086.97,748.906 1087.97,749.573 1089.5,749.5C 1090.49,749.328 1091.16,749.662 1091.5,750.5C 1091.97,751.906 1092.97,752.573 1094.5,752.5C 1094.83,753.5 1095.5,754.167 1096.5,754.5C 1098.14,758.139 1100.81,760.805 1104.5,762.5C 1103,764.175 1101.66,766.008 1100.5,768C 1121.11,782.223 1141.28,797.056 1161,812.5C 1162.04,811.29 1163.21,810.29 1164.5,809.5C 1164.33,813.514 1164.5,817.514 1165,821.5C 1168.53,823.092 1172.03,824.759 1175.5,826.5C 1176.39,827.11 1177.39,827.443 1178.5,827.5C 1178.97,828.906 1179.97,829.573 1181.5,829.5C 1181.83,830.5 1182.5,831.167 1183.5,831.5C 1183.5,833.5 1184.5,834.5 1186.5,834.5C 1188.51,837.354 1190.34,840.354 1192,843.5C 1192.67,844.252 1193.5,844.586 1194.5,844.5C 1194.83,846.833 1196.17,848.167 1198.5,848.5C 1198.83,849.5 1199.5,850.167 1200.5,850.5C 1199.09,852.258 1198.09,854.258 1197.5,856.5C 1206.98,887.134 1206.81,917.801 1197,948.5C 1177.68,994.156 1143.51,1020.66 1094.5,1028C 1076.5,1028.67 1058.5,1028.67 1040.5,1028C 1020.34,1026.17 1000.34,1027.17 980.5,1031C 972.579,1033.75 964.912,1037.08 957.5,1041C 950.874,1045.96 944.54,1051.29 938.5,1057C 916.987,1067 902.153,1060.83 894,1038.5C 887.249,1010.27 882.249,981.606 879,952.5C 878.333,936.5 878.333,920.5 879,904.5C 881.884,865.838 895.218,831.504 919,801.5C 953.818,764.633 996.485,746.633 1047,747.5C 1048.64,746.685 1050.14,745.685 1051.5,744.5C 1058.14,743.724 1064.8,743.391 1071.5,743.5 Z M 1042.5,800.5 C 1032.61,802.662 1022.61,804.496 1012.5,806C 1007.61,807.982 1002.61,809.649 997.5,811C 984.338,817.149 972.504,825.316 962,835.5C 950.361,850.101 942.361,866.435 938,884.5C 932.924,919.606 933.591,954.606 940,989.5C 946.47,985.565 953.303,982.398 960.5,980C 966.647,978.756 972.647,977.09 978.5,975C 983.882,974.693 989.215,974.026 994.5,973C 1028.83,972.667 1063.17,972.333 1097.5,972C 1124.05,964.618 1140.71,947.451 1147.5,920.5C 1149.98,902.405 1148.48,884.739 1143,867.5C 1113.5,845.333 1084,823.167 1054.5,801C 1050.51,800.501 1046.51,800.334 1042.5,800.5 Z"/></g>
<g><path style="opacity:1" fill="#9c414b" d="M 1071.5,743.5 C 1071.5,743.167 1071.5,742.833 1071.5,742.5C 1073.56,742.517 1075.56,742.85 1077.5,743.5C 1077.5,743.833 1077.5,744.167 1077.5,744.5C 1075.44,744.483 1073.44,744.15 1071.5,743.5 Z"/></g>
<g><path style="opacity:1" fill="#7d474d" d="M 1077.5,744.5 C 1077.5,744.167 1077.5,743.833 1077.5,743.5C 1078.17,743.5 1078.83,743.5 1079.5,743.5C 1081.15,743.66 1082.49,744.326 1083.5,745.5C 1082.83,745.5 1082.17,745.5 1081.5,745.5C 1080.17,745.167 1078.83,744.833 1077.5,744.5 Z"/></g>
<g><path style="opacity:1" fill="#ae3d4a" d="M 1081.5,745.5 C 1082.17,745.5 1082.83,745.5 1083.5,745.5C 1083.83,746.167 1084.17,746.833 1084.5,747.5C 1082.97,747.573 1081.97,746.906 1081.5,745.5 Z"/></g>
<g><path style="opacity:1" fill="#8a444c" d="M 1083.5,745.5 C 1084.17,745.5 1084.83,745.5 1085.5,745.5C 1085.83,746.167 1086.17,746.833 1086.5,747.5C 1085.83,747.5 1085.17,747.5 1084.5,747.5C 1084.17,746.833 1083.83,746.167 1083.5,745.5 Z"/></g>
<g><path style="opacity:1" fill="#614d4f" d="M 1085.5,745.5 C 1089.51,745.163 1092.17,746.83 1093.5,750.5C 1092.83,750.5 1092.17,750.5 1091.5,750.5C 1091.16,749.662 1090.49,749.328 1089.5,749.5C 1089.03,748.094 1088.03,747.427 1086.5,747.5C 1086.17,746.833 1085.83,746.167 1085.5,745.5 Z"/></g>
<g><path style="opacity:1" fill="#9b414b" d="M 1086.5,747.5 C 1088.03,747.427 1089.03,748.094 1089.5,749.5C 1087.97,749.573 1086.97,748.906 1086.5,747.5 Z"/></g>
<g><path style="opacity:1" fill="#95424b" d="M 1091.5,750.5 C 1092.17,750.5 1092.83,750.5 1093.5,750.5C 1093.83,751.167 1094.17,751.833 1094.5,752.5C 1092.97,752.573 1091.97,751.906 1091.5,750.5 Z"/></g>
<g><path style="opacity:1" fill="#8b444c" d="M 1094.5,752.5 C 1096.03,752.427 1097.03,753.094 1097.5,754.5C 1097.17,754.5 1096.83,754.5 1096.5,754.5C 1095.5,754.167 1094.83,753.5 1094.5,752.5 Z"/></g>
<g><path style="opacity:1" fill="#7a484d" d="M 1097.5,754.5 C 1100.5,755.5 1102.5,757.5 1103.5,760.5C 1101.17,758.833 1099.17,756.833 1097.5,754.5 Z"/></g>
<g><path style="opacity:1" fill="#b73b49" d="M 1096.5,754.5 C 1096.83,754.5 1097.17,754.5 1097.5,754.5C 1099.17,756.833 1101.17,758.833 1103.5,760.5C 1103.5,761.167 1103.83,761.5 1104.5,761.5C 1104.5,761.833 1104.5,762.167 1104.5,762.5C 1100.81,760.805 1098.14,758.139 1096.5,754.5 Z"/></g>
<g><path style="opacity:0.886" fill="#b73b49" d="M 1166.5,807.5 C 1166.18,812.032 1166.52,816.366 1167.5,820.5C 1169.57,822.199 1171.9,823.532 1174.5,824.5C 1174.83,825.167 1175.17,825.833 1175.5,826.5C 1172.03,824.759 1168.53,823.092 1165,821.5C 1164.5,817.514 1164.33,813.514 1164.5,809.5C 1164.5,808.167 1165.17,807.5 1166.5,807.5 Z"/></g>
<g><path style="opacity:1" fill="#76494e" d="M 1167.5,820.5 C 1170.55,820.725 1172.88,822.058 1174.5,824.5C 1171.9,823.532 1169.57,822.199 1167.5,820.5 Z"/></g>
<g><path style="opacity:1" fill="#90434c" d="M 1174.5,824.5 C 1175.17,824.5 1175.83,824.5 1176.5,824.5C 1177.17,825.5 1177.83,826.5 1178.5,827.5C 1177.39,827.443 1176.39,827.11 1175.5,826.5C 1175.17,825.833 1174.83,825.167 1174.5,824.5 Z"/></g>
<g><path style="opacity:1" fill="#684b4e" d="M 1176.5,824.5 C 1178.4,824.738 1179.74,825.738 1180.5,827.5C 1179.83,827.5 1179.17,827.5 1178.5,827.5C 1177.83,826.5 1177.17,825.5 1176.5,824.5 Z"/></g>
<g><path style="opacity:1" fill="#694b4f" d="M 1180.5,827.5 C 1182.03,827.427 1183.03,828.094 1183.5,829.5C 1182.83,829.5 1182.17,829.5 1181.5,829.5C 1181.17,828.833 1180.83,828.167 1180.5,827.5 Z"/></g>
<g><path style="opacity:1" fill="#98424b" d="M 1178.5,827.5 C 1179.17,827.5 1179.83,827.5 1180.5,827.5C 1180.83,828.167 1181.17,828.833 1181.5,829.5C 1179.97,829.573 1178.97,828.906 1178.5,827.5 Z"/></g>
<g><path style="opacity:1" fill="#8d444c" d="M 1181.5,829.5 C 1182.17,829.5 1182.83,829.5 1183.5,829.5C 1183.83,830.167 1184.17,830.833 1184.5,831.5C 1184.17,831.5 1183.83,831.5 1183.5,831.5C 1182.5,831.167 1181.83,830.5 1181.5,829.5 Z"/></g>
<g><path style="opacity:1" fill="#7a484d" d="M 1184.5,831.5 C 1187.17,832.167 1188.83,833.833 1189.5,836.5C 1188.5,835.833 1187.5,835.167 1186.5,834.5C 1185.83,833.5 1185.17,832.5 1184.5,831.5 Z"/></g>
<g><path style="opacity:1" fill="#b53b49" d="M 1183.5,831.5 C 1183.83,831.5 1184.17,831.5 1184.5,831.5C 1185.17,832.5 1185.83,833.5 1186.5,834.5C 1184.5,834.5 1183.5,833.5 1183.5,831.5 Z"/></g>
<g><path style="opacity:1" fill="#af3d4a" d="M 1186.5,834.5 C 1187.5,835.167 1188.5,835.833 1189.5,836.5C 1190.83,838.167 1192.17,839.833 1193.5,841.5C 1194.11,842.391 1194.44,843.391 1194.5,844.5C 1193.5,844.586 1192.67,844.252 1192,843.5C 1190.34,840.354 1188.51,837.354 1186.5,834.5 Z"/></g>
<g><path style="opacity:1" fill="#6d4b4f" d="M 1193.5,841.5 C 1195.45,842.035 1196.45,843.368 1196.5,845.5C 1195.83,845.167 1195.17,844.833 1194.5,844.5C 1194.44,843.391 1194.11,842.391 1193.5,841.5 Z"/></g>
<g><path style="opacity:1" fill="#b03c4a" d="M 1194.5,844.5 C 1195.17,844.833 1195.83,845.167 1196.5,845.5C 1197.17,846.5 1197.83,847.5 1198.5,848.5C 1196.17,848.167 1194.83,846.833 1194.5,844.5 Z"/></g>
<g><path style="opacity:1" fill="#714a4e" d="M 1196.5,845.5 C 1198.4,845.738 1199.74,846.738 1200.5,848.5C 1199.83,848.5 1199.17,848.5 1198.5,848.5C 1197.83,847.5 1197.17,846.5 1196.5,845.5 Z"/></g>
<g><path style="opacity:0.016" fill="#b03c49" d="M 1198.5,848.5 C 1199.17,848.5 1199.83,848.5 1200.5,848.5C 1200.5,849.167 1200.83,849.5 1201.5,849.5C 1201.5,850.167 1201.17,850.5 1200.5,850.5C 1199.5,850.167 1198.83,849.5 1198.5,848.5 Z"/></g>
<g><path style="opacity:0.826" fill="#d53446" d="M 637.5,1102.5 C 660.146,1102.64 670.979,1113.98 670,1136.5C 667.413,1144.76 662.246,1150.93 654.5,1155C 637.693,1160.5 625.193,1155.33 617,1139.5C 612.961,1121.06 619.795,1108.73 637.5,1102.5 Z"/></g>
<g><path style="opacity:0.984" fill="#6e6e6e" d="M 1526.5,1204.5 C 1526.56,1205.61 1526.89,1206.61 1527.5,1207.5C 1527.5,1231.83 1527.5,1256.17 1527.5,1280.5C 1527.11,1285.29 1526.11,1289.96 1524.5,1294.5C 1520.17,1299.82 1515.84,1305.16 1511.5,1310.5C 1505.12,1314.35 1498.46,1317.69 1491.5,1320.5C 1489.26,1321.47 1486.92,1321.81 1484.5,1321.5C 1161.5,1321.67 838.5,1321.5 515.5,1321C 511.855,1320.28 508.188,1319.78 504.5,1319.5C 500.732,1316.77 496.732,1314.27 492.5,1312C 487.599,1307.93 483.266,1303.43 479.5,1298.5C 478.596,1297.79 478.263,1296.79 478.5,1295.5C 476.84,1290.88 475.174,1286.21 473.5,1281.5C 473.183,1253.46 473.517,1225.46 474.5,1197.5C 474.5,1197.17 474.5,1196.83 474.5,1196.5C 479.241,1194.57 484.241,1193.4 489.5,1193C 551.734,1192.99 613.901,1193.49 676,1194.5C 676.414,1194.04 676.914,1193.71 677.5,1193.5C 688.454,1194.31 699.454,1194.81 710.5,1195C 798.738,1195.37 886.905,1196.2 975,1197.5C 982.805,1197.11 990.638,1196.78 998.5,1196.5C 1071.13,1197.96 1143.79,1199.13 1216.5,1200C 1314.83,1200.64 1413.17,1201.31 1511.5,1202C 1516.5,1202.9 1521.5,1203.73 1526.5,1204.5 Z"/></g>
<g><path style="opacity:0.994" fill="#666666" d="M 474.5,1197.5 C 473.517,1225.46 473.183,1253.46 473.5,1281.5C 472.683,1279.03 472.183,1276.36 472,1273.5C 471.196,1249.14 471.363,1224.8 472.5,1200.5C 472.427,1198.97 473.094,1197.97 474.5,1197.5 Z"/></g>
<g><path style="opacity:0.998" fill="#5d5d5d" d="M 472.5,1200.5 C 471.363,1224.8 471.196,1249.14 472,1273.5C 472.183,1276.36 472.683,1279.03 473.5,1281.5C 475.174,1286.21 476.84,1290.88 478.5,1295.5C 476.406,1293.44 474.572,1291.11 473,1288.5C 472.654,1285.42 471.988,1282.42 471,1279.5C 470.333,1253.5 470.333,1227.5 471,1201.5C 471.383,1200.94 471.883,1200.61 472.5,1200.5 Z"/></g>
<g><path style="opacity:0.994" fill="#575757" d="M 1526.5,1204.5 C 1528.1,1205.09 1529.43,1206.09 1530.5,1207.5C 1531.67,1231.83 1531.83,1256.16 1531,1280.5C 1528.52,1293.96 1522.02,1305.13 1511.5,1314C 1509.69,1314.76 1508.02,1315.59 1506.5,1316.5C 1505.83,1316.5 1505.17,1316.5 1504.5,1316.5C 1507.02,1314.74 1509.35,1312.74 1511.5,1310.5C 1517.32,1306.35 1521.65,1301.02 1524.5,1294.5C 1526.11,1289.96 1527.11,1285.29 1527.5,1280.5C 1528.12,1280.39 1528.62,1280.06 1529,1279.5C 1529.67,1255.83 1529.67,1232.17 1529,1208.5C 1528.62,1207.94 1528.12,1207.61 1527.5,1207.5C 1526.89,1206.61 1526.56,1205.61 1526.5,1204.5 Z"/></g>
<g><path style="opacity:0.997" fill="#646464" d="M 1527.5,1207.5 C 1528.12,1207.61 1528.62,1207.94 1529,1208.5C 1529.67,1232.17 1529.67,1255.83 1529,1279.5C 1528.62,1280.06 1528.12,1280.39 1527.5,1280.5C 1527.5,1256.17 1527.5,1231.83 1527.5,1207.5 Z"/></g>
<g><path style="opacity:1" fill="#636363" d="M 1524.5,1294.5 C 1521.65,1301.02 1517.32,1306.35 1511.5,1310.5C 1515.84,1305.16 1520.17,1299.82 1524.5,1294.5 Z"/></g>
<g><path style="opacity:1" fill="#616161" d="M 479.5,1298.5 C 483.266,1303.43 487.599,1307.93 492.5,1312C 496.732,1314.27 500.732,1316.77 504.5,1319.5C 503.127,1319.66 501.793,1319.49 500.5,1319C 497.436,1315.81 493.77,1313.65 489.5,1312.5C 486.93,1309.42 484.097,1306.42 481,1303.5C 479.991,1301.98 479.491,1300.31 479.5,1298.5 Z"/></g>
<g><path style="opacity:1" fill="#555555" d="M 489.5,1312.5 C 493.77,1313.65 497.436,1315.81 500.5,1319C 501.793,1319.49 503.127,1319.66 504.5,1319.5C 505.347,1320.97 506.68,1321.8 508.5,1322C 511.146,1322.5 513.813,1322.66 516.5,1322.5C 840,1323.67 1163.67,1323.83 1487.5,1323C 1493.67,1321.9 1499.34,1319.74 1504.5,1316.5C 1505.17,1316.5 1505.83,1316.5 1506.5,1316.5C 1500.51,1320.66 1493.84,1323.49 1486.5,1325C 1162.5,1325.67 838.5,1325.67 514.5,1325C 507.833,1323.69 501.5,1321.36 495.5,1318C 493.237,1316.38 491.237,1314.55 489.5,1312.5 Z"/></g>
<g><path style="opacity:1" fill="#686868" d="M 504.5,1319.5 C 508.188,1319.78 511.855,1320.28 515.5,1321C 838.5,1321.5 1161.5,1321.67 1484.5,1321.5C 1162,1322.5 839.334,1322.83 516.5,1322.5C 513.813,1322.66 511.146,1322.5 508.5,1322C 506.68,1321.8 505.347,1320.97 504.5,1319.5 Z"/></g>
<g><path style="opacity:1" fill="#616161" d="M 1511.5,1310.5 C 1509.35,1312.74 1507.02,1314.74 1504.5,1316.5C 1499.34,1319.74 1493.67,1321.9 1487.5,1323C 1163.67,1323.83 840,1323.67 516.5,1322.5C 839.334,1322.83 1162,1322.5 1484.5,1321.5C 1486.92,1321.81 1489.26,1321.47 1491.5,1320.5C 1498.46,1317.69 1505.12,1314.35 1511.5,1310.5 Z"/></g>
<g><path style="opacity:1" fill="#545454" d="M 1202.5,1558.5 C 1200.03,1555.69 1197.03,1553.69 1193.5,1552.5C 1191.82,1550.17 1189.49,1549.17 1186.5,1549.5C 1186.5,1548.83 1186.17,1548.5 1185.5,1548.5C 1185.39,1547.88 1185.06,1547.38 1184.5,1547C 1061.83,1546.33 939.167,1546.33 816.5,1547C 815.944,1547.38 815.611,1547.88 815.5,1548.5C 812.99,1548.05 810.99,1548.72 809.5,1550.5C 808.5,1550.5 807.5,1550.5 806.5,1550.5C 806.953,1549.54 807.619,1548.71 808.5,1548C 812.249,1547.29 815.916,1546.29 819.5,1545C 940.167,1544.33 1060.83,1544.33 1181.5,1545C 1190.81,1546.18 1197.81,1550.68 1202.5,1558.5 Z"/></g>
<g><path style="opacity:1" fill="#5c5c5c" d="M 1185.5,1548.5 C 1062.17,1547.17 938.833,1547.17 815.5,1548.5C 815.611,1547.88 815.944,1547.38 816.5,1547C 939.167,1546.33 1061.83,1546.33 1184.5,1547C 1185.06,1547.38 1185.39,1547.88 1185.5,1548.5 Z"/></g>
<g><path style="opacity:1" fill="#666666" d="M 1185.5,1548.5 C 1186.17,1548.5 1186.5,1548.83 1186.5,1549.5C 1060.79,1549.17 935.126,1549.5 809.5,1550.5C 810.99,1548.72 812.99,1548.05 815.5,1548.5C 938.833,1547.17 1062.17,1547.17 1185.5,1548.5 Z"/></g>
<g><path style="opacity:1" fill="#6e6e6e" d="M 1186.5,1549.5 C 1189.49,1549.17 1191.82,1550.17 1193.5,1552.5C 1198,1556.24 1201.33,1560.91 1203.5,1566.5C 1204.5,1573.8 1204.83,1581.14 1204.5,1588.5C 1068.5,1588.5 932.5,1588.5 796.5,1588.5C 793.767,1573.02 798.101,1560.35 809.5,1550.5C 935.126,1549.5 1060.79,1549.17 1186.5,1549.5 Z"/></g>
<g><path style="opacity:0.999" fill="#555555" d="M 798.5,1558.5 C 795.739,1568.59 794.739,1578.92 795.5,1589.5C 932.167,1589.5 1068.83,1589.5 1205.5,1589.5C 1205.5,1582.83 1205.5,1576.17 1205.5,1569.5C 1206.49,1576.31 1206.82,1583.31 1206.5,1590.5C 1069.17,1590.67 931.833,1590.5 794.5,1590C 793.353,1582.25 793.186,1574.41 794,1566.5C 794.754,1563.32 796.254,1560.65 798.5,1558.5 Z"/></g>
<g><path style="opacity:1" fill="#5f5f5f" d="M 806.5,1550.5 C 807.5,1550.5 808.5,1550.5 809.5,1550.5C 798.101,1560.35 793.767,1573.02 796.5,1588.5C 932.5,1588.5 1068.5,1588.5 1204.5,1588.5C 1204.83,1581.14 1204.5,1573.8 1203.5,1566.5C 1201.33,1560.91 1198,1556.24 1193.5,1552.5C 1197.03,1553.69 1200.03,1555.69 1202.5,1558.5C 1204.11,1561.99 1205.11,1565.66 1205.5,1569.5C 1205.5,1576.17 1205.5,1582.83 1205.5,1589.5C 1068.83,1589.5 932.167,1589.5 795.5,1589.5C 794.739,1578.92 795.739,1568.59 798.5,1558.5C 801.605,1556.31 804.272,1553.64 806.5,1550.5 Z"/></g>
</svg>
