<?xml version="1.0" encoding="UTF-8"?>
<!DOCTYPE svg PUBLIC "-//W3C//DTD SVG 1.1//EN" "http://www.w3.org/Graphics/SVG/1.1/DTD/svg11.dtd">
<svg xmlns="http://www.w3.org/2000/svg" version="1.1" width="2000px" height="2000px" style="shape-rendering:geometricPrecision; text-rendering:geometricPrecision; image-rendering:optimizeQuality; fill-rule:evenodd; clip-rule:evenodd" xmlns:xlink="http://www.w3.org/1999/xlink">
<g><path style="opacity:0.899" fill="#515151" d="M 527.5,412.5 C 530.762,418.312 533.928,424.312 537,430.5C 537.333,430.167 537.667,429.833 538,429.5C 542.509,441.049 548.509,451.715 556,461.5C 557.327,464.497 558.661,467.497 560,470.5C 560.333,470.167 560.667,469.833 561,469.5C 563.179,473.684 565.179,478.017 567,482.5C 580.622,505.347 594.122,528.014 607.5,550.5C 607.351,551.552 607.517,552.552 608,553.5C 630.739,591.869 653.072,630.202 675,668.5C 708.752,618.118 742.252,568.451 775.5,519.5C 774.502,489.609 774.168,459.609 774.5,429.5C 774.667,428.833 774.833,428.167 775,427.5C 775.359,430.544 776.026,430.878 777,428.5C 778.302,411.596 784.636,396.929 796,384.5C 807.384,371.878 821.217,363.211 837.5,358.5C 940.832,357.333 1044.17,357.167 1147.5,358C 1176.6,367.118 1196.44,385.952 1207,414.5C 1207.09,418.028 1207.76,421.362 1209,424.5C 1209.33,455.167 1209.67,485.833 1210,516.5C 1218.71,529.985 1227.87,542.985 1237.5,555.5C 1272.51,607.349 1308.51,659.349 1345.5,711.5C 1347.01,713.656 1348.01,715.99 1348.5,718.5C 1349.5,718.5 1350.5,718.5 1351.5,718.5C 1353.21,722.27 1354.54,726.27 1355.5,730.5C 1356.5,872.498 1356.83,1014.5 1356.5,1156.5C 1361.32,1157.06 1365.66,1158.89 1369.5,1162C 1384.75,1177.25 1399.91,1192.41 1415,1207.5C 1420.02,1202.65 1424.85,1197.65 1429.5,1192.5C 1451.45,1174.76 1475.45,1171.59 1501.5,1183C 1532.2,1202.01 1542.37,1228.84 1532,1263.5C 1529.38,1268.14 1526.71,1272.81 1524,1277.5C 1517.35,1283.99 1510.85,1290.65 1504.5,1297.5C 1519.16,1312 1533.66,1326 1548,1339.5C 1549.08,1344.34 1549.75,1349.34 1550,1354.5C 1548.48,1358.27 1546.81,1361.94 1545,1365.5C 1519.86,1389.14 1495.69,1413.47 1472.5,1438.5C 1453.54,1455.72 1435.21,1473.89 1417.5,1493C 1414.84,1495.29 1412.17,1497.62 1409.5,1500C 1406.82,1500.25 1404.49,1501.25 1402.5,1503C 1396.38,1503.78 1390.71,1502.45 1385.5,1499C 1375.97,1489.47 1366.47,1479.97 1357,1470.5C 1356.67,1521.83 1356.33,1573.17 1356,1624.5C 1354.73,1628.6 1353.23,1632.6 1351.5,1636.5C 1348.9,1638.07 1346.23,1639.73 1343.5,1641.5C 1111.17,1642.67 878.834,1642.83 646.5,1642C 639.722,1637.95 635.222,1632.12 633,1624.5C 632.667,1379.83 632.333,1135.17 632,890.5C 624.648,878.454 617.315,866.454 610,854.5C 608.409,852.073 607.575,849.407 607.5,846.5C 606.5,846.5 605.5,846.5 604.5,846.5C 603.758,840.595 601.091,835.761 596.5,832C 596.833,831.667 597.167,831.333 597.5,831C 568.612,782.208 540.779,734.041 514,686.5C 513.333,685.167 512.667,685.167 512,686.5C 510.078,680.138 507.578,674.138 504.5,668.5C 503.5,668.5 502.5,668.5 501.5,668.5C 501.425,665.593 500.591,662.927 499,660.5C 480.017,628.965 461.517,597.299 443.5,565.5C 441.323,566.504 440.989,565.838 442.5,563.5C 440.146,561.754 439.146,559.421 439.5,556.5C 438.5,556.5 437.5,556.5 436.5,556.5C 436.425,553.593 435.591,550.927 434,548.5C 417.082,520.333 400.415,491.999 384,463.5C 382.991,461.975 382.491,460.308 382.5,458.5C 381.5,458.5 380.5,458.5 379.5,458.5C 378.982,455.113 378.149,451.779 377,448.5C 376.586,448.043 376.086,447.709 375.5,447.5C 374.501,436.186 374.168,424.853 374.5,413.5C 375.5,413.5 376.5,413.5 377.5,413.5C 377.784,410.368 378.617,407.368 380,404.5C 398.119,382.226 420.952,366.893 448.5,358.5C 459.5,357.167 470.5,357.167 481.5,358.5C 499.505,366.563 511.505,379.896 517.5,398.5C 518.5,398.5 519.5,398.5 520.5,398.5C 520.343,399.873 520.51,401.207 521,402.5C 523.367,405.746 525.534,409.08 527.5,412.5 Z M 540.5,526.5 C 547.672,538.882 555.172,551.215 563,563.5C 565.686,568.844 568.352,574.177 571,579.5C 573.403,580.479 574.236,581.979 573.5,584C 574.328,584.915 575.328,585.581 576.5,586C 576.167,586.333 575.833,586.667 575.5,587C 579.916,594.356 584.416,601.523 589,608.5C 590.591,610.927 591.425,613.593 591.5,616.5C 592.5,616.5 593.5,616.5 594.5,616.5C 594.081,619.325 595.081,621.491 597.5,623C 596.391,624.813 597.058,625.646 599.5,625.5C 599.343,626.873 599.51,628.207 600,629.5C 606.127,640.403 612.794,651.07 620,661.5C 620.195,663.207 620.195,664.874 620,666.5C 620.414,666.043 620.914,665.709 621.5,665.5C 630.033,680.417 638.7,695.417 647.5,710.5C 649.384,713.562 650.551,716.895 651,720.5C 655.397,726.216 659.731,731.883 664,737.5C 665,741.167 666,744.833 667,748.5C 667.667,747.167 668.333,747.167 669,748.5C 670.61,750.939 671.444,753.606 671.5,756.5C 672.5,756.5 673.5,756.5 674.5,756.5C 674.571,759.139 675.571,761.306 677.5,763C 676.813,764.162 676.647,765.328 677,766.5C 677.414,766.043 677.914,765.709 678.5,765.5C 687.727,781.93 697.227,798.263 707,814.5C 707.49,815.793 707.657,817.127 707.5,818.5C 708.5,818.5 709.5,818.5 710.5,818.5C 710.949,821.641 711.949,824.641 713.5,827.5C 720.313,838.449 727.147,849.449 734,860.5C 735.591,862.927 736.425,865.593 736.5,868.5C 737.5,868.5 738.5,868.5 739.5,868.5C 740.217,872.674 741.884,876.341 744.5,879.5C 744.167,880.167 743.833,880.833 743.5,881.5C 738.248,884.284 733.248,887.284 728.5,890.5C 727.508,890.328 726.842,890.662 726.5,891.5C 724.597,891.796 722.93,892.463 721.5,893.5C 717.169,895.33 713.169,897.663 709.5,900.5C 708.29,900.932 707.29,901.599 706.5,902.5C 705.833,902.833 705.167,903.167 704.5,903.5C 700.992,905.715 697.326,907.382 693.5,908.5C 693.657,907.127 693.49,905.793 693,904.5C 692.333,905.833 691.667,905.833 691,904.5C 689.839,901.733 688.673,899.067 687.5,896.5C 680.02,884.216 672.52,871.882 665,859.5C 657.112,843.733 648.279,828.566 638.5,814C 638.833,813.667 639.167,813.333 639.5,813C 637.508,810.567 635.508,808.234 633.5,806C 633.833,805.667 634.167,805.333 634.5,805C 630.084,797.644 625.584,790.477 621,783.5C 619.409,781.073 618.575,778.407 618.5,775.5C 617.5,775.5 616.5,775.5 615.5,775.5C 614.833,772.5 614.167,769.5 613.5,766.5C 612.5,766.5 611.5,766.5 610.5,766.5C 610.657,765.127 610.49,763.793 610,762.5C 588.909,726.653 567.575,690.653 546,654.5C 542.332,646.171 537.832,638.338 532.5,631C 533.517,629.951 533.684,628.784 533,627.5C 532.586,627.957 532.086,628.291 531.5,628.5C 530.299,625.128 528.466,622.128 526,619.5C 520.215,609.309 514.715,598.975 509.5,588.5C 493.27,561.57 477.104,534.57 461,507.5C 459.617,504.632 458.784,501.632 458.5,498.5C 457.5,498.5 456.5,498.5 455.5,498.5C 455.799,495.358 457.466,493.191 460.5,492C 473.559,484.301 486.893,476.968 500.5,470C 502.369,468.499 504.203,466.999 506,465.5C 517.304,485.169 528.804,505.503 540.5,526.5 Z M 762.5,619.5 C 777.744,595.882 793.411,572.382 809.5,549C 921.736,548.832 1033.9,548.332 1146,547.5C 1143.36,551.409 1141.2,555.743 1139.5,560.5C 1138.5,560.5 1137.5,560.5 1136.5,560.5C 1136.74,563.226 1135.9,565.559 1134,567.5C 1111.59,598.652 1089.92,630.319 1069,662.5C 1068.33,663.833 1067.67,663.833 1067,662.5C 1065.86,665.102 1065.03,667.769 1064.5,670.5C 1063.5,670.5 1062.5,670.5 1061.5,670.5C 1060.95,672.901 1060.12,675.235 1059,677.5C 1051.27,688.349 1043.43,699.182 1035.5,710C 1035.83,710.333 1036.17,710.667 1036.5,711C 924.5,711.5 812.5,711.667 700.5,711.5C 700.5,710.5 700.5,709.5 700.5,708.5C 701.5,708.5 702.5,708.5 703.5,708.5C 703.343,707.127 703.51,705.793 704,704.5C 718.366,683.783 732.699,663.116 747,642.5C 749.388,639.057 751.222,635.39 752.5,631.5C 753.5,631.5 754.5,631.5 755.5,631.5C 755.586,629.323 756.253,627.323 757.5,625.5C 759.517,623.716 761.184,621.716 762.5,619.5 Z M 1227.5,621.5 C 1242.29,641.807 1256.95,662.307 1271.5,683C 1271.17,683.333 1270.83,683.667 1270.5,684C 1276.72,692.206 1282.88,700.373 1289,708.5C 1293.98,717.975 1299.98,726.642 1307,734.5C 1308.75,736.49 1309.75,738.823 1310,741.5C 1310.67,891.167 1310.67,1040.83 1310,1190.5C 1275.97,1225.7 1241.47,1260.36 1206.5,1294.5C 1203.57,1300.81 1202.74,1307.47 1204,1314.5C 1205.9,1316.44 1206.74,1318.77 1206.5,1321.5C 1241.04,1354.54 1275.21,1388.21 1309,1422.5C 1310.49,1481.11 1310.99,1539.77 1310.5,1598.5C 1230.5,1598.5 1150.5,1598.5 1070.5,1598.5C 1070.33,1311.83 1070.5,1025.17 1071,738.5C 1110.03,680.719 1149.53,623.053 1189.5,565.5C 1199.1,579.708 1208.93,593.708 1219,607.5C 1220.41,609.652 1221.25,611.986 1221.5,614.5C 1222.5,614.5 1223.5,614.5 1224.5,614.5C 1225.04,617.038 1226.04,619.372 1227.5,621.5 Z M 726.5,756.5 C 826.308,756.002 925.974,756.502 1025.5,758C 1024.17,1037.67 1024.17,1317.33 1025.5,1597C 967.474,1598.17 909.308,1598.67 851,1598.5C 793.167,1598.17 735.333,1597.83 677.5,1597.5C 678.665,1385.46 678.832,1173.46 678,961.5C 710.625,985.418 743.458,1009.25 776.5,1033C 788.781,1037.26 798.781,1034.09 806.5,1023.5C 808.1,1019.64 809.1,1015.64 809.5,1011.5C 805.907,968.501 802.407,925.501 799,882.5C 792.421,869.799 784.754,856.799 776,843.5C 774.409,841.073 773.575,838.407 773.5,835.5C 772.5,835.5 771.5,835.5 770.5,835.5C 770.919,832.675 769.919,830.509 767.5,829C 768.609,827.187 767.942,826.354 765.5,826.5C 765.657,825.127 765.49,823.793 765,822.5C 760.756,816.359 756.756,810.026 753,803.5C 751.409,801.073 750.575,798.407 750.5,795.5C 749.5,795.5 748.5,795.5 747.5,795.5C 747.657,794.127 747.49,792.793 747,791.5C 740.629,779.539 733.795,767.872 726.5,756.5 Z M 1377.5,1233.5 C 1379.3,1235.47 1381.3,1237.3 1383.5,1239C 1365.61,1256.56 1348.11,1274.39 1331,1292.5C 1330.65,1296.13 1329.81,1299.63 1328.5,1303C 1329.17,1305.33 1329.83,1307.67 1330.5,1310C 1330.05,1311.55 1329.88,1313.05 1330,1314.5C 1330.41,1314.04 1330.91,1313.71 1331.5,1313.5C 1342.35,1327.88 1354.68,1329.21 1368.5,1317.5C 1383.85,1301.65 1399.35,1285.99 1415,1270.5C 1427.37,1283.37 1439.87,1296.03 1452.5,1308.5C 1454.17,1310.17 1455.83,1311.83 1457.5,1313.5C 1470.56,1325.89 1483.23,1338.56 1495.5,1351.5C 1464.63,1382.64 1433.63,1413.81 1402.5,1445C 1400.79,1446.32 1399.13,1447.32 1397.5,1448C 1350.89,1401.05 1304.22,1354.05 1257.5,1307C 1289.76,1274.57 1322.09,1242.4 1354.5,1210.5C 1362.52,1217.85 1370.19,1225.52 1377.5,1233.5 Z M 1465.5,1221.5 C 1484.79,1219.87 1492.96,1228.53 1490,1247.5C 1484.69,1253.64 1479.19,1259.64 1473.5,1265.5C 1464.35,1256.85 1455.35,1248.01 1446.5,1239C 1452.4,1232.59 1458.74,1226.76 1465.5,1221.5 Z M 1200.5,1426.5 C 1208.63,1435.27 1215.46,1444.94 1221,1455.5C 1223.09,1475.07 1214.26,1483.57 1194.5,1481C 1185.74,1477.45 1180.74,1471.28 1179.5,1462.5C 1179.88,1460.87 1180.54,1459.37 1181.5,1458C 1181.36,1457.23 1181.02,1456.56 1180.5,1456C 1186.58,1445.76 1193.24,1435.93 1200.5,1426.5 Z"/></g>
<g><path style="opacity:0.951" fill="#515151" d="M 1410.5,382.5 C 1414.35,378.488 1418.69,374.988 1423.5,372C 1485.83,371.333 1548.17,371.333 1610.5,372C 1617,374.5 1621.5,379 1624,385.5C 1624.67,632.5 1624.67,879.5 1624,1126.5C 1621.12,1133.71 1615.96,1138.54 1608.5,1141C 1547.17,1141.67 1485.83,1141.67 1424.5,1141C 1416.57,1137.41 1411.07,1131.57 1408,1123.5C 1407.33,878.833 1407.33,634.167 1408,389.5C 1409.9,387.559 1410.74,385.226 1410.5,382.5 Z"/></g>
<g><path style="opacity:0.004" fill="#505150" d="M 1410.5,382.5 C 1409.47,382.103 1409.31,381.437 1410,380.5C 1410.46,381.094 1410.63,381.761 1410.5,382.5 Z"/></g>
<g><path style="opacity:1" fill="#5c5c5c" d="M 1136.5,399.5 C 1042,399.167 947.665,399.501 853.5,400.5C 848.348,400.864 843.348,401.864 838.5,403.5C 840.93,401.619 843.596,400.285 846.5,399.5C 943.306,398.173 1039.97,398.173 1136.5,399.5 Z"/></g>
<g><path style="opacity:1" fill="#656565" d="M 853.5,400.5 C 947.665,399.501 1042,399.167 1136.5,399.5C 1137.91,400.935 1139.58,401.935 1141.5,402.5C 1138.13,402.326 1134.79,401.826 1131.5,401C 1038.83,400.5 946.167,400.333 853.5,400.5 Z"/></g>
<g><path style="opacity:1" fill="#6e6e6e" d="M 480.5,417.5 C 482.03,421.141 483.196,424.808 484,428.5C 479.1,430.9 474.6,433.9 470.5,437.5C 465.527,438.148 461.861,440.648 459.5,445C 458.167,445.333 456.833,445.667 455.5,446C 448.383,451.554 440.717,456.054 432.5,459.5C 429.321,454.489 425.654,449.823 421.5,445.5C 421.657,444.127 421.49,442.793 421,441.5C 418.619,438.071 416.785,434.404 415.5,430.5C 415.916,426.076 418.25,423.076 422.5,421.5C 431.884,414.144 441.884,407.811 452.5,402.5C 456.844,401.631 461.177,400.631 465.5,399.5C 468.985,400.152 471.819,401.819 474,404.5C 475.666,409.166 477.833,413.499 480.5,417.5 Z"/></g>
<g><path style="opacity:1" fill="#6e6e6e" d="M 853.5,400.5 C 946.167,400.333 1038.83,400.5 1131.5,401C 1134.79,401.826 1138.13,402.326 1141.5,402.5C 1143.76,403.219 1146.1,403.552 1148.5,403.5C 1148.35,404.552 1148.52,405.552 1149,406.5C 1153.36,410.032 1157.53,413.699 1161.5,417.5C 1162.6,421.449 1163.76,425.449 1165,429.5C 1165.5,454.498 1165.67,479.498 1165.5,504.5C 1050.17,504.5 934.833,504.5 819.5,504.5C 819.215,479.478 819.548,454.478 820.5,429.5C 822.159,423.845 824.659,418.512 828,413.5C 831.343,409.99 834.843,406.657 838.5,403.5C 843.348,401.864 848.348,400.864 853.5,400.5 Z"/></g>
<g><path style="opacity:1" fill="#636363" d="M 452.5,402.5 C 441.884,407.811 431.884,414.144 422.5,421.5C 427.28,415.755 432.946,410.921 439.5,407C 443.641,404.84 447.974,403.34 452.5,402.5 Z"/></g>
<g><path style="opacity:0.004" fill="#505150" d="M 527.5,412.5 C 527.369,411.761 527.536,411.094 528,410.5C 528.692,411.437 528.525,412.103 527.5,412.5 Z"/></g>
<g><path style="opacity:1" fill="#535353" d="M 1519.5,1061.5 C 1517.44,1063.59 1515.11,1065.43 1512.5,1067C 1491.48,1066.84 1470.81,1067.68 1450.5,1069.5C 1449.86,1079.56 1450.53,1089.22 1452.5,1098.5C 1495.9,1099.83 1539.4,1099.83 1583,1098.5C 1583.17,984.333 1583.33,870.167 1583.5,756C 1583.5,641.498 1582.83,527.331 1581.5,413.5C 1538.17,413.333 1494.83,413.5 1451.5,414C 1450.17,424 1450.17,434 1451.5,444C 1470.5,444.333 1489.5,444.667 1508.5,445C 1510.06,445.21 1511.39,445.71 1512.5,446.5C 1491.83,446.667 1471.16,446.5 1450.5,446C 1449.17,434.667 1449.17,423.333 1450.5,412C 1494.83,411.333 1539.17,411.333 1583.5,412C 1584.05,412.925 1584.71,413.758 1585.5,414.5C 1586.83,642.167 1586.83,869.833 1585.5,1097.5C 1584.71,1098.24 1584.05,1099.08 1583.5,1100C 1539.17,1100.67 1494.83,1100.67 1450.5,1100C 1449.18,1088.89 1449.18,1077.73 1450.5,1066.5C 1470.79,1065.68 1491.12,1065.18 1511.5,1065C 1514.17,1063.71 1516.83,1062.54 1519.5,1061.5 Z"/></g>
<g><path style="opacity:1" fill="#6e6e6e" d="M 1581.5,414.5 C 1582.83,642.167 1582.83,869.833 1581.5,1097.5C 1538.17,1097.5 1494.83,1097.5 1451.5,1097.5C 1451.33,1088.49 1451.5,1079.49 1452,1070.5C 1452.41,1070.04 1452.91,1069.71 1453.5,1069.5C 1471.12,1070.65 1488.79,1070.82 1506.5,1070C 1508.06,1069.79 1509.39,1069.29 1510.5,1068.5C 1513.23,1068.74 1515.56,1067.9 1517.5,1066C 1529.5,1054.33 1529.5,1042.66 1517.5,1031C 1515.22,1030.77 1513.22,1029.93 1511.5,1028.5C 1491.51,1027.5 1471.51,1027.17 1451.5,1027.5C 1451.18,1017.58 1451.51,1007.75 1452.5,998C 1464.5,997.667 1476.5,997.333 1488.5,997C 1503.15,991.173 1507.65,980.673 1502,965.5C 1499.79,962.436 1496.96,960.436 1493.5,959.5C 1493.5,959.167 1493.5,958.833 1493.5,958.5C 1492.94,957.21 1491.94,956.377 1490.5,956C 1477.5,955.5 1464.5,955.333 1451.5,955.5C 1451.18,944.918 1451.51,934.418 1452.5,924C 1472.17,923.667 1491.83,923.333 1511.5,923C 1518.21,920.793 1522.21,916.293 1523.5,909.5C 1524.12,909.389 1524.62,909.056 1525,908.5C 1528.5,896.938 1525,888.605 1514.5,883.5C 1514.08,882.778 1513.42,882.278 1512.5,882C 1492.5,881.667 1472.5,881.333 1452.5,881C 1451.51,871.25 1451.18,861.416 1451.5,851.5C 1463.84,851.667 1476.17,851.5 1488.5,851C 1492.12,850.328 1494.79,848.494 1496.5,845.5C 1502.85,840.026 1505.02,833.026 1503,824.5C 1501.88,822.58 1501.04,820.58 1500.5,818.5C 1500.14,816.629 1499.14,815.129 1497.5,814C 1494.45,811.806 1491.11,810.139 1487.5,809C 1475.92,808.18 1464.42,808.346 1453,809.5C 1451.52,798.663 1451.02,787.663 1451.5,776.5C 1472.17,776.667 1492.84,776.5 1513.5,776C 1514.94,775.623 1515.94,774.79 1516.5,773.5C 1517.21,771.97 1518.21,770.637 1519.5,769.5C 1520.22,768.449 1521.22,767.782 1522.5,767.5C 1523.93,766.21 1524.93,764.544 1525.5,762.5C 1526.83,758.167 1526.83,753.833 1525.5,749.5C 1524.82,748.757 1524.15,748.091 1523.5,747.5C 1523.65,746.448 1523.48,745.448 1523,744.5C 1519.03,742.353 1515.53,739.687 1512.5,736.5C 1511.39,735.71 1510.06,735.21 1508.5,735C 1489.5,734.5 1470.5,734.333 1451.5,734.5C 1451.5,724.167 1451.5,713.833 1451.5,703.5C 1463.17,703.667 1474.84,703.5 1486.5,703C 1497.87,700.451 1504.21,693.284 1505.5,681.5C 1504.51,673.887 1500.84,668.22 1494.5,664.5C 1492.12,662.08 1489.12,660.913 1485.5,661C 1474.17,660.5 1462.84,660.333 1451.5,660.5C 1451.5,650.833 1451.5,641.167 1451.5,631.5C 1470.5,631.667 1489.5,631.5 1508.5,631C 1525.79,625.247 1530.63,614.08 1523,597.5C 1522.18,596.177 1521.02,595.511 1519.5,595.5C 1518.61,592.539 1516.61,590.706 1513.5,590C 1492.93,589.827 1472.43,589.327 1452,588.5C 1451.33,578.167 1451.33,567.833 1452,557.5C 1464.44,556.842 1476.94,556.176 1489.5,555.5C 1502.13,550.373 1506.63,541.04 1503,527.5C 1502.62,526.058 1501.79,525.058 1500.5,524.5C 1499.17,523.5 1497.83,522.5 1496.5,521.5C 1494.77,520.764 1493.77,519.43 1493.5,517.5C 1492.16,516.207 1490.49,515.374 1488.5,515C 1476.17,514.5 1463.84,514.333 1451.5,514.5C 1451.5,504.5 1451.5,494.5 1451.5,484.5C 1471.84,484.667 1492.17,484.5 1512.5,484C 1515.24,481.98 1518.08,480.147 1521,478.5C 1530.99,462.986 1527.83,451.152 1511.5,443C 1491.5,442.5 1471.5,442.333 1451.5,442.5C 1451.18,433.249 1451.52,424.083 1452.5,415C 1495.5,414.5 1538.5,414.333 1581.5,414.5 Z"/></g>
<g><path style="opacity:1" fill="#5d5d5d" d="M 1581.5,414.5 C 1581.5,414.167 1581.5,413.833 1581.5,413.5C 1582.83,527.331 1583.5,641.498 1583.5,756C 1583.33,870.167 1583.17,984.333 1583,1098.5C 1539.4,1099.83 1495.9,1099.83 1452.5,1098.5C 1495.67,1098.83 1538.67,1098.5 1581.5,1097.5C 1582.83,869.833 1582.83,642.167 1581.5,414.5 Z"/></g>
<g><path style="opacity:1" fill="#545454" d="M 819.5,424.5 C 819.509,426.308 819.009,427.975 818,429.5C 817.17,455.003 817.337,480.337 818.5,505.5C 934.333,506.666 1050.33,506.833 1166.5,506C 1167.66,480.572 1167.83,455.072 1167,429.5C 1165.63,425.137 1163.8,421.137 1161.5,417.5C 1157.53,413.699 1153.36,410.032 1149,406.5C 1148.52,405.552 1148.35,404.552 1148.5,403.5C 1146.1,403.552 1143.76,403.219 1141.5,402.5C 1139.58,401.935 1137.91,400.935 1136.5,399.5C 1039.97,398.173 943.306,398.173 846.5,399.5C 846.611,398.883 846.944,398.383 847.5,398C 944.5,397.333 1041.5,397.333 1138.5,398C 1146.73,400.914 1153.9,405.414 1160,411.5C 1163.15,416.295 1165.81,421.295 1168,426.5C 1168.83,453.739 1168.66,480.905 1167.5,508C 1051.17,508.667 934.833,508.667 818.5,508C 817.176,494.556 816.509,480.889 816.5,467C 816.833,453.5 817.167,440 817.5,426.5C 818.182,425.757 818.849,425.091 819.5,424.5 Z"/></g>
<g><path style="opacity:1" fill="#5d5d5d" d="M 838.5,403.5 C 834.843,406.657 831.343,409.99 828,413.5C 824.659,418.512 822.159,423.845 820.5,429.5C 819.883,429.611 819.383,429.944 819,430.5C 818.5,455.498 818.333,480.498 818.5,505.5C 817.337,480.337 817.17,455.003 818,429.5C 819.009,427.975 819.509,426.308 819.5,424.5C 823.372,415.294 829.705,408.294 838.5,403.5 Z"/></g>
<g><path style="opacity:1" fill="#5f5f5f" d="M 480.5,417.5 C 484.749,420.334 486.582,424.334 486,429.5C 481.063,432.684 475.897,435.351 470.5,437.5C 474.6,433.9 479.1,430.9 484,428.5C 483.196,424.808 482.03,421.141 480.5,417.5 Z"/></g>
<g><path style="opacity:0.994" fill="#575757" d="M 470.5,437.5 C 468.868,439.327 467.201,441.161 465.5,443C 454.17,448.996 443.17,455.496 432.5,462.5C 430.239,461.318 428.405,459.651 427,457.5C 425.237,453.336 423.403,449.336 421.5,445.5C 425.654,449.823 429.321,454.489 432.5,459.5C 440.717,456.054 448.383,451.554 455.5,446C 456.833,445.667 458.167,445.333 459.5,445C 461.861,440.648 465.527,438.148 470.5,437.5 Z"/></g>
<g><path style="opacity:1" fill="#616161" d="M 1581.5,413.5 C 1581.5,413.833 1581.5,414.167 1581.5,414.5C 1538.5,414.333 1495.5,414.5 1452.5,415C 1451.52,424.083 1451.18,433.249 1451.5,442.5C 1471.5,442.333 1491.5,442.5 1511.5,443C 1527.83,451.152 1530.99,462.986 1521,478.5C 1518.08,480.147 1515.24,481.98 1512.5,484C 1492.17,484.5 1471.84,484.667 1451.5,484.5C 1451.5,494.5 1451.5,504.5 1451.5,514.5C 1463.84,514.333 1476.17,514.5 1488.5,515C 1490.49,515.374 1492.16,516.207 1493.5,517.5C 1479.18,516.653 1464.85,516.32 1450.5,516.5C 1450.5,505.5 1450.5,494.5 1450.5,483.5C 1470.17,483.667 1489.84,483.5 1509.5,483C 1513.04,482.335 1515.71,480.502 1517.5,477.5C 1518.5,477.586 1519.33,477.252 1520,476.5C 1525.65,468.506 1525.99,460.173 1521,451.5C 1518.64,448.909 1515.81,447.242 1512.5,446.5C 1511.39,445.71 1510.06,445.21 1508.5,445C 1489.5,444.667 1470.5,444.333 1451.5,444C 1450.17,434 1450.17,424 1451.5,414C 1494.83,413.5 1538.17,413.333 1581.5,413.5 Z"/></g>
<g><path style="opacity:1" fill="#626262" d="M 1161.5,417.5 C 1163.8,421.137 1165.63,425.137 1167,429.5C 1167.83,455.072 1167.66,480.572 1166.5,506C 1050.33,506.833 934.333,506.666 818.5,505.5C 818.333,480.498 818.5,455.498 819,430.5C 819.383,429.944 819.883,429.611 820.5,429.5C 819.548,454.478 819.215,479.478 819.5,504.5C 934.833,504.5 1050.17,504.5 1165.5,504.5C 1165.67,479.498 1165.5,454.498 1165,429.5C 1163.76,425.449 1162.6,421.449 1161.5,417.5 Z"/></g>
<g><path style="opacity:1" fill="#555555" d="M 1517.5,477.5 C 1515.71,480.502 1513.04,482.335 1509.5,483C 1489.84,483.5 1470.17,483.667 1450.5,483.5C 1450.5,494.5 1450.5,505.5 1450.5,516.5C 1464.85,516.32 1479.18,516.653 1493.5,517.5C 1493.77,519.43 1494.77,520.764 1496.5,521.5C 1493.48,520.282 1490.31,519.282 1487,518.5C 1486.23,518.645 1485.56,518.978 1485,519.5C 1473.58,518.678 1462.08,518.178 1450.5,518C 1449.51,505.914 1449.18,493.747 1449.5,481.5C 1469.17,481.667 1488.84,481.5 1508.5,481C 1511.68,480.111 1514.68,478.945 1517.5,477.5 Z"/></g>
<g><path style="opacity:0.004" fill="#505150" d="M 607.5,549.5 C 608.833,550.167 608.833,550.167 607.5,549.5 Z"/></g>
<g><path style="opacity:0.004" fill="#505150" d="M 1237.5,554.5 C 1238.83,555.167 1238.83,555.167 1237.5,554.5 Z"/></g>
<g><path style="opacity:1" fill="#606060" d="M 1500.5,524.5 C 1501.79,525.058 1502.62,526.058 1503,527.5C 1506.63,541.04 1502.13,550.373 1489.5,555.5C 1476.94,556.176 1464.44,556.842 1452,557.5C 1451.33,567.833 1451.33,578.167 1452,588.5C 1472.43,589.327 1492.93,589.827 1513.5,590C 1516.61,590.706 1518.61,592.539 1519.5,595.5C 1517.15,593.662 1514.48,592.162 1511.5,591C 1491.26,590.827 1471.09,590.327 1451,589.5C 1450.33,578.167 1450.33,566.833 1451,555.5C 1463.42,554.677 1475.92,554.177 1488.5,554C 1496.11,552.053 1500.61,547.22 1502,539.5C 1502.91,534.317 1502.41,529.317 1500.5,524.5 Z"/></g>
<g><path style="opacity:1" fill="#646464" d="M 1519.5,595.5 C 1521.02,595.511 1522.18,596.177 1523,597.5C 1530.63,614.08 1525.79,625.247 1508.5,631C 1489.5,631.5 1470.5,631.667 1451.5,631.5C 1451.5,641.167 1451.5,650.833 1451.5,660.5C 1462.84,660.333 1474.17,660.5 1485.5,661C 1489.12,660.913 1492.12,662.08 1494.5,664.5C 1492.69,664.509 1491.02,664.009 1489.5,663C 1476.83,662.667 1464.17,662.333 1451.5,662C 1450.51,651.248 1450.18,640.415 1450.5,629.5C 1469.84,629.667 1489.17,629.5 1508.5,629C 1510.49,628.626 1512.16,627.793 1513.5,626.5C 1519.18,624.981 1522.68,621.314 1524,615.5C 1525.56,608.08 1524.06,601.413 1519.5,595.5 Z"/></g>
<g><path style="opacity:1" fill="#565656" d="M 1513.5,626.5 C 1512.16,627.793 1510.49,628.626 1508.5,629C 1489.17,629.5 1469.84,629.667 1450.5,629.5C 1450.18,640.415 1450.51,651.248 1451.5,662C 1464.17,662.333 1476.83,662.667 1489.5,663C 1491.02,664.009 1492.69,664.509 1494.5,664.5C 1496.75,667.982 1499.25,671.316 1502,674.5C 1503.09,681.537 1502.09,688.204 1499,694.5C 1498.18,695.823 1497.02,696.489 1495.5,696.5C 1496.79,694.195 1498.12,691.862 1499.5,689.5C 1502.77,676.535 1498.1,668.035 1485.5,664C 1473.59,663.179 1461.76,663.346 1450,664.5C 1449.33,652.5 1449.33,640.5 1450,628.5C 1471.11,627.782 1492.28,627.115 1513.5,626.5 Z"/></g>
<g><path style="opacity:1" fill="#575757" d="M 1493.5,698.5 C 1492.32,700.067 1490.65,700.901 1488.5,701C 1475.84,701.5 1463.17,701.667 1450.5,701.5C 1450.5,712.5 1450.5,723.5 1450.5,734.5C 1449.51,723.012 1449.17,711.345 1449.5,699.5C 1464.19,699.727 1478.86,699.394 1493.5,698.5 Z"/></g>
<g><path style="opacity:1" fill="#626262" d="M 1494.5,664.5 C 1500.84,668.22 1504.51,673.887 1505.5,681.5C 1504.21,693.284 1497.87,700.451 1486.5,703C 1474.84,703.5 1463.17,703.667 1451.5,703.5C 1451.5,713.833 1451.5,724.167 1451.5,734.5C 1470.5,734.333 1489.5,734.5 1508.5,735C 1510.06,735.21 1511.39,735.71 1512.5,736.5C 1491.47,737.155 1470.81,736.488 1450.5,734.5C 1450.5,723.5 1450.5,712.5 1450.5,701.5C 1463.17,701.667 1475.84,701.5 1488.5,701C 1490.65,700.901 1492.32,700.067 1493.5,698.5C 1494.5,698.167 1495.17,697.5 1495.5,696.5C 1497.02,696.489 1498.18,695.823 1499,694.5C 1502.09,688.204 1503.09,681.537 1502,674.5C 1499.25,671.316 1496.75,667.982 1494.5,664.5 Z"/></g>
<g><path style="opacity:1" fill="#606060" d="M 1523.5,747.5 C 1524.15,748.091 1524.82,748.757 1525.5,749.5C 1526.83,753.833 1526.83,758.167 1525.5,762.5C 1524.93,764.544 1523.93,766.21 1522.5,767.5C 1523.4,763.742 1524.06,759.909 1524.5,756C 1524.32,753.135 1523.98,750.302 1523.5,747.5 Z"/></g>
<g><path style="opacity:1" fill="#555555" d="M 1519.5,769.5 C 1518.21,770.637 1517.21,771.97 1516.5,773.5C 1514.82,773.892 1513.15,774.392 1511.5,775C 1491.17,775.5 1470.84,775.667 1450.5,775.5C 1450.5,787.167 1450.5,798.833 1450.5,810.5C 1462.84,810.333 1475.17,810.5 1487.5,811C 1489.89,811.739 1491.89,812.905 1493.5,814.5C 1490.94,814.021 1488.44,813.355 1486,812.5C 1473.92,813.766 1462.09,813.766 1450.5,812.5C 1449.33,799.846 1449.17,787.18 1450,774.5C 1470.09,773.673 1490.26,773.173 1510.5,773C 1513.53,771.716 1516.53,770.549 1519.5,769.5 Z"/></g>
<g><path style="opacity:1" fill="#626262" d="M 1516.5,773.5 C 1515.94,774.79 1514.94,775.623 1513.5,776C 1492.84,776.5 1472.17,776.667 1451.5,776.5C 1451.02,787.663 1451.52,798.663 1453,809.5C 1464.42,808.346 1475.92,808.18 1487.5,809C 1491.11,810.139 1494.45,811.806 1497.5,814C 1499.14,815.129 1500.14,816.629 1500.5,818.5C 1498.3,816.902 1495.97,815.569 1493.5,814.5C 1491.89,812.905 1489.89,811.739 1487.5,811C 1475.17,810.5 1462.84,810.333 1450.5,810.5C 1450.5,798.833 1450.5,787.167 1450.5,775.5C 1470.84,775.667 1491.17,775.5 1511.5,775C 1513.15,774.392 1514.82,773.892 1516.5,773.5 Z"/></g>
<g><path style="opacity:0.907" fill="#d53447" d="M 569.5,991.5 C 569.342,994.902 569.676,998.236 570.5,1001.5C 570.723,1005.16 571.723,1008.5 573.5,1011.5C 574.038,1013.12 574.371,1014.78 574.5,1016.5C 575.5,1016.5 576.5,1016.5 577.5,1016.5C 577.388,1021.44 578.055,1026.27 579.5,1031C 578.497,1058.29 568.331,1081.46 549,1100.5C 547.306,1102.24 546.139,1104.24 545.5,1106.5C 543.5,1106.5 542.5,1107.5 542.5,1109.5C 541.833,1109.5 541.5,1109.83 541.5,1110.5C 538.467,1112.02 535.8,1114.02 533.5,1116.5C 532.833,1117.17 532.167,1117.83 531.5,1118.5C 530.167,1118.83 528.833,1119.17 527.5,1119.5C 525.033,1119.75 523.033,1120.75 521.5,1122.5C 521.167,1122.5 520.833,1122.5 520.5,1122.5C 518.708,1122.37 517.042,1122.7 515.5,1123.5C 512.99,1123.05 510.99,1123.72 509.5,1125.5C 509.5,1125.83 509.5,1126.17 509.5,1126.5C 508.833,1126.5 508.167,1126.5 507.5,1126.5C 505.633,1126.05 503.8,1125.38 502,1124.5C 500.93,1124.53 500.097,1124.86 499.5,1125.5C 497.958,1126.3 496.292,1126.63 494.5,1126.5C 484.959,1126.79 475.459,1126.46 466,1125.5C 463.79,1127.11 461.29,1127.78 458.5,1127.5C 457.71,1126.6 456.71,1125.93 455.5,1125.5C 450.082,1122.46 444.416,1119.8 438.5,1117.5C 437.833,1117.5 437.167,1117.5 436.5,1117.5C 432.773,1112.77 428.44,1108.77 423.5,1105.5C 422.833,1104.17 421.833,1103.17 420.5,1102.5C 419.833,1102.5 419.167,1102.5 418.5,1102.5C 418.5,1101.17 417.833,1100.5 416.5,1100.5C 415.833,1100.5 415.5,1100.17 415.5,1099.5C 415.167,1097.17 413.833,1095.83 411.5,1095.5C 410.889,1092.28 409.722,1089.28 408,1086.5C 407.617,1087.06 407.117,1087.39 406.5,1087.5C 405.833,1087.5 405.5,1087.17 405.5,1086.5C 405.649,1085.45 405.483,1084.45 405,1083.5C 404.26,1081.68 403.093,1080.35 401.5,1079.5C 401.885,1074.58 399.885,1071.25 395.5,1069.5C 393.437,1064.69 391.937,1059.69 391,1054.5C 389.823,1038.36 390.49,1022.36 393,1006.5C 393.667,1005.83 394.333,1005.17 395,1004.5C 396.112,997.567 398.946,991.401 403.5,986C 403.167,985.667 402.833,985.333 402.5,985C 404.685,982.756 406.519,980.256 408,977.5C 412.769,966.846 418.103,956.512 424,946.5C 427.485,938.888 430.818,931.221 434,923.5C 435.627,916.958 437.627,910.624 440,904.5C 442.614,902.261 443.114,899.595 441.5,896.5C 441.938,895.494 442.604,895.494 443.5,896.5C 444.314,894.234 444.814,891.9 445,889.5C 445.667,888.833 446.333,888.167 447,887.5C 448.158,882.533 449.158,877.533 450,872.5C 450.667,871.833 451.333,871.167 452,870.5C 453.717,863.637 454.717,856.637 455,849.5C 461.223,833.81 472.389,828.644 488.5,834C 491.656,836.157 494.489,838.657 497,841.5C 500.474,846.342 503.14,851.675 505,857.5C 508.156,862.67 511.489,867.67 515,872.5C 522.149,886.77 529.149,901.103 536,915.5C 536.667,916.833 537.333,916.833 538,915.5C 538.597,918.958 539.597,922.291 541,925.5C 549.441,940.997 557.107,956.997 564,973.5C 565.731,979.625 567.564,985.625 569.5,991.5 Z M 484.5,913.5 C 490.716,925.596 497.216,937.596 504,949.5C 505.454,955.309 507.788,960.643 511,965.5C 511.494,967.134 511.66,968.801 511.5,970.5C 512.5,970.5 513.5,970.5 514.5,970.5C 515.502,974.391 516.335,978.391 517,982.5C 517.667,981.167 518.333,981.167 519,982.5C 521.6,988.203 523.6,994.203 525,1000.5C 538.658,1027.37 535.158,1051.53 514.5,1073C 498.621,1084.98 481.287,1087.65 462.5,1081C 459.18,1078.01 455.513,1075.51 451.5,1073.5C 447.347,1069.69 443.847,1065.35 441,1060.5C 440.506,1058.87 440.34,1057.2 440.5,1055.5C 439.5,1055.5 438.5,1055.5 437.5,1055.5C 435.512,1044.35 435.012,1033.02 436,1021.5C 439.545,1012.95 443.545,1004.62 448,996.5C 449.755,995.33 450.755,993.663 451,991.5C 451.667,990.167 452.333,990.167 453,991.5C 453.684,990.216 453.517,989.049 452.5,988C 456.482,982.14 459.982,975.973 463,969.5C 466.797,959.241 471.131,949.241 476,939.5C 478.376,932.41 481.043,925.41 484,918.5C 484.494,916.866 484.66,915.199 484.5,913.5 Z"/></g>
<g><path style="opacity:1" fill="#565656" d="M 1493.5,814.5 C 1495.97,815.569 1498.3,816.902 1500.5,818.5C 1501.04,820.58 1501.88,822.58 1503,824.5C 1505.02,833.026 1502.85,840.026 1496.5,845.5C 1493.05,847.117 1489.38,848.284 1485.5,849C 1473.84,849.5 1462.17,849.667 1450.5,849.5C 1450.5,860.5 1450.5,871.5 1450.5,882.5C 1471.87,882.2 1493.2,882.533 1514.5,883.5C 1525,888.605 1528.5,896.938 1525,908.5C 1524.62,909.056 1524.12,909.389 1523.5,909.5C 1524.36,905.566 1524.69,901.566 1524.5,897.5C 1523.5,897.5 1522.5,897.5 1521.5,897.5C 1520.4,890.241 1516.07,886.074 1508.5,885C 1488.84,884.5 1469.17,884.333 1449.5,884.5C 1449.17,872.482 1449.5,860.482 1450.5,848.5C 1463.12,847.686 1475.79,847.186 1488.5,847C 1491.54,846.291 1494.37,845.124 1497,843.5C 1499.26,839.344 1500.43,834.844 1500.5,830C 1500.53,823.717 1498.19,818.551 1493.5,814.5 Z"/></g>
<g><path style="opacity:1" fill="#616161" d="M 1496.5,845.5 C 1494.79,848.494 1492.12,850.328 1488.5,851C 1476.17,851.5 1463.84,851.667 1451.5,851.5C 1451.18,861.416 1451.51,871.25 1452.5,881C 1472.5,881.333 1492.5,881.667 1512.5,882C 1513.42,882.278 1514.08,882.778 1514.5,883.5C 1493.2,882.533 1471.87,882.2 1450.5,882.5C 1450.5,871.5 1450.5,860.5 1450.5,849.5C 1462.17,849.667 1473.84,849.5 1485.5,849C 1489.38,848.284 1493.05,847.117 1496.5,845.5 Z"/></g>
<g><path style="opacity:0.589" fill="#5e4e4f" d="M 728.5,890.5 C 729.675,890.281 730.675,890.614 731.5,891.5C 729.703,892.695 728.703,894.362 728.5,896.5C 726.435,896.517 724.435,896.85 722.5,897.5C 723.527,895.806 724.861,894.473 726.5,893.5C 726.5,892.833 726.5,892.167 726.5,891.5C 726.842,890.662 727.508,890.328 728.5,890.5 Z"/></g>
<g><path style="opacity:0.082" fill="#ae3d4a" d="M 726.5,891.5 C 726.5,892.167 726.5,892.833 726.5,893.5C 724.486,893.392 722.82,894.058 721.5,895.5C 721.5,894.833 721.5,894.167 721.5,893.5C 722.93,892.463 724.597,891.796 726.5,891.5 Z"/></g>
<g><path style="opacity:0.124" fill="#cb3647" d="M 721.5,893.5 C 721.5,894.167 721.5,894.833 721.5,895.5C 719.706,896.233 718.039,897.233 716.5,898.5C 714.167,899.167 711.833,899.833 709.5,900.5C 713.169,897.663 717.169,895.33 721.5,893.5 Z"/></g>
<g><path style="opacity:0.953" fill="#8a444c" d="M 726.5,893.5 C 724.861,894.473 723.527,895.806 722.5,897.5C 720.685,898.63 718.685,899.296 716.5,899.5C 716.5,899.167 716.5,898.833 716.5,898.5C 718.039,897.233 719.706,896.233 721.5,895.5C 722.82,894.058 724.486,893.392 726.5,893.5 Z"/></g>
<g><path style="opacity:0.165" fill="#b53b49" d="M 716.5,898.5 C 716.5,898.833 716.5,899.167 716.5,899.5C 714.176,900.656 711.843,901.656 709.5,902.5C 709.5,902.833 709.5,903.167 709.5,903.5C 708.209,903.737 707.209,903.404 706.5,902.5C 707.29,901.599 708.29,900.932 709.5,900.5C 711.833,899.833 714.167,899.167 716.5,898.5 Z"/></g>
<g><path style="opacity:0.547" fill="#8c444c" d="M 716.5,899.5 C 714.964,902.092 712.631,903.092 709.5,902.5C 711.843,901.656 714.176,900.656 716.5,899.5 Z"/></g>
<g><path style="opacity:0.79" fill="#7e474d" d="M 706.5,902.5 C 707.209,903.404 708.209,903.737 709.5,903.5C 709.209,904.649 708.376,905.316 707,905.5C 705.624,905.316 704.791,904.649 704.5,903.5C 705.167,903.167 705.833,902.833 706.5,902.5 Z"/></g>
<g><path style="opacity:1" fill="#565656" d="M 1514.5,918.5 C 1512.92,919.283 1511.59,920.45 1510.5,922C 1490.83,922.333 1471.17,922.667 1451.5,923C 1450.51,934.085 1450.18,945.252 1450.5,956.5C 1462.84,956.333 1475.17,956.5 1487.5,957C 1489.52,957.505 1491.52,958.005 1493.5,958.5C 1493.5,958.833 1493.5,959.167 1493.5,959.5C 1496.95,961.615 1499.28,964.615 1500.5,968.5C 1497.38,963.916 1493.05,960.749 1487.5,959C 1475.17,958.667 1462.83,958.333 1450.5,958C 1449.35,945.576 1449.18,933.076 1450,920.5C 1471.45,919.783 1492.95,919.116 1514.5,918.5 Z"/></g>
<g><path style="opacity:1" fill="#634d4f" d="M 761.5,927.5 C 760.833,926.167 760.167,924.833 759.5,923.5C 758.209,923.263 757.209,923.596 756.5,924.5C 756.167,924.5 755.833,924.5 755.5,924.5C 756.072,921.756 757.738,920.923 760.5,922C 761.406,923.699 761.739,925.533 761.5,927.5 Z"/></g>
<g><path style="opacity:1" fill="#646464" d="M 1523.5,909.5 C 1522.21,916.293 1518.21,920.793 1511.5,923C 1491.83,923.333 1472.17,923.667 1452.5,924C 1451.51,934.418 1451.18,944.918 1451.5,955.5C 1464.5,955.333 1477.5,955.5 1490.5,956C 1491.94,956.377 1492.94,957.21 1493.5,958.5C 1491.52,958.005 1489.52,957.505 1487.5,957C 1475.17,956.5 1462.84,956.333 1450.5,956.5C 1450.18,945.252 1450.51,934.085 1451.5,923C 1471.17,922.667 1490.83,922.333 1510.5,922C 1511.59,920.45 1512.92,919.283 1514.5,918.5C 1516.26,917.928 1517.92,917.094 1519.5,916C 1520.73,913.686 1522.07,911.519 1523.5,909.5 Z"/></g>
<g><path style="opacity:1" fill="#82464d" d="M 755.5,924.5 C 755.5,924.833 755.5,925.167 755.5,925.5C 753.833,926.167 752.167,926.833 750.5,927.5C 751.401,925.273 753.067,924.273 755.5,924.5 Z"/></g>
<g><path style="opacity:1" fill="#d43447" d="M 755.5,925.5 C 757.451,930.735 758.618,936.401 759,942.5C 759.167,946.333 759.333,950.167 759.5,954C 759.49,958.229 758.823,962.062 757.5,965.5C 756.609,964.89 755.609,964.557 754.5,964.5C 754.027,963.094 753.027,962.427 751.5,962.5C 751.027,961.094 750.027,960.427 748.5,960.5C 747.415,958.413 745.749,957.08 743.5,956.5C 743.027,955.094 742.027,954.427 740.5,954.5C 740.027,953.094 739.027,952.427 737.5,952.5C 736.738,950.738 735.404,949.738 733.5,949.5C 732.738,947.738 731.404,946.738 729.5,946.5C 728.524,945.185 727.524,943.852 726.5,942.5C 728.772,941.866 730.439,940.532 731.5,938.5C 733.404,938.262 734.738,937.262 735.5,935.5C 735.833,935.5 736.167,935.5 736.5,935.5C 737.167,935.5 737.833,935.5 738.5,935.5C 742.13,935.299 744.797,933.632 746.5,930.5C 748.801,929.94 751.134,929.44 753.5,929C 754.305,927.887 754.972,926.721 755.5,925.5 Z"/></g>
<g><path style="opacity:1" fill="#be3948" d="M 755.5,925.5 C 754.972,926.721 754.305,927.887 753.5,929C 751.134,929.44 748.801,929.94 746.5,930.5C 747.59,929.143 748.924,928.143 750.5,927.5C 752.167,926.833 753.833,926.167 755.5,925.5 Z"/></g>
<g><path style="opacity:1" fill="#98414b" d="M 756.5,924.5 C 757.209,923.596 758.209,923.263 759.5,923.5C 759.624,928.049 760.291,932.382 761.5,936.5C 761.407,942.863 761.74,949.196 762.5,955.5C 762.5,956.833 762.5,958.167 762.5,959.5C 761.833,957.833 761.167,956.167 760.5,954.5C 760.569,946.798 760.069,939.131 759,931.5C 759.03,928.639 758.197,926.305 756.5,924.5 Z"/></g>
<g><path style="opacity:1" fill="#c53748" d="M 755.5,925.5 C 755.5,925.167 755.5,924.833 755.5,924.5C 755.833,924.5 756.167,924.5 756.5,924.5C 758.197,926.305 759.03,928.639 759,931.5C 760.069,939.131 760.569,946.798 760.5,954.5C 760.372,958.881 760.705,963.215 761.5,967.5C 760.5,967.5 759.5,967.5 758.5,967.5C 758.167,966.833 757.833,966.167 757.5,965.5C 758.823,962.062 759.49,958.229 759.5,954C 759.333,950.167 759.167,946.333 759,942.5C 758.618,936.401 757.451,930.735 755.5,925.5 Z"/></g>
<g><path style="opacity:1" fill="#714a4e" d="M 759.5,923.5 C 760.167,924.833 760.833,926.167 761.5,927.5C 761.5,930.5 761.5,933.5 761.5,936.5C 760.291,932.382 759.624,928.049 759.5,923.5 Z"/></g>
<g><path style="opacity:1" fill="#86454c" d="M 750.5,927.5 C 748.924,928.143 747.59,929.143 746.5,930.5C 743.787,932.172 741.12,933.838 738.5,935.5C 737.833,935.5 737.167,935.5 736.5,935.5C 739.909,933.274 743.242,930.774 746.5,928C 747.793,927.51 749.127,927.343 750.5,927.5 Z"/></g>
<g><path style="opacity:1" fill="#bf3948" d="M 746.5,930.5 C 744.797,933.632 742.13,935.299 738.5,935.5C 741.12,933.838 743.787,932.172 746.5,930.5 Z"/></g>
<g><path style="opacity:1" fill="#7d474d" d="M 735.5,935.5 C 734.738,937.262 733.404,938.262 731.5,938.5C 729.685,939.63 727.685,940.296 725.5,940.5C 728.48,938.243 731.813,936.577 735.5,935.5 Z"/></g>
<g><path style="opacity:1" fill="#6c4b4e" d="M 725.5,940.5 C 724.266,942.398 724.599,944.065 726.5,945.5C 724.516,945.516 723.516,944.516 723.5,942.5C 723.747,941.287 724.414,940.62 725.5,940.5 Z"/></g>
<g><path style="opacity:1" fill="#a23f4b" d="M 731.5,938.5 C 730.439,940.532 728.772,941.866 726.5,942.5C 727.524,943.852 728.524,945.185 729.5,946.5C 728.391,946.443 727.391,946.11 726.5,945.5C 724.599,944.065 724.266,942.398 725.5,940.5C 727.685,940.296 729.685,939.63 731.5,938.5 Z"/></g>
<g><path style="opacity:1" fill="#9f404b" d="M 729.5,946.5 C 731.404,946.738 732.738,947.738 733.5,949.5C 731.596,949.262 730.262,948.262 729.5,946.5 Z"/></g>
<g><path style="opacity:1" fill="#99424b" d="M 733.5,949.5 C 735.404,949.738 736.738,950.738 737.5,952.5C 737.167,952.5 736.833,952.5 736.5,952.5C 735.167,951.833 734.167,950.833 733.5,949.5 Z"/></g>
<g><path style="opacity:1" fill="#99414b" d="M 737.5,952.5 C 739.027,952.427 740.027,953.094 740.5,954.5C 738.973,954.573 737.973,953.906 737.5,952.5 Z"/></g>
<g><path style="opacity:1" fill="#a0404b" d="M 740.5,954.5 C 742.027,954.427 743.027,955.094 743.5,956.5C 741.973,956.573 740.973,955.906 740.5,954.5 Z"/></g>
<g><path style="opacity:1" fill="#9a414b" d="M 743.5,956.5 C 745.749,957.08 747.415,958.413 748.5,960.5C 747.391,960.443 746.391,960.11 745.5,959.5C 744.833,958.5 744.167,957.5 743.5,956.5 Z"/></g>
<g><path style="opacity:1" fill="#624d4f" d="M 736.5,952.5 C 736.833,952.5 737.167,952.5 737.5,952.5C 737.973,953.906 738.973,954.573 740.5,954.5C 740.973,955.906 741.973,956.573 743.5,956.5C 744.167,957.5 744.833,958.5 745.5,959.5C 742.263,958.431 739.263,957.098 736.5,955.5C 736.5,954.5 736.5,953.5 736.5,952.5 Z"/></g>
<g><path style="opacity:1" fill="#94424c" d="M 748.5,960.5 C 750.027,960.427 751.027,961.094 751.5,962.5C 749.973,962.573 748.973,961.906 748.5,960.5 Z"/></g>
<g><path style="opacity:1" fill="#99414b" d="M 751.5,962.5 C 753.027,962.427 754.027,963.094 754.5,964.5C 752.973,964.573 751.973,963.906 751.5,962.5 Z"/></g>
<g><path style="opacity:1" fill="#9e404b" d="M 754.5,964.5 C 755.609,964.557 756.609,964.89 757.5,965.5C 757.833,966.167 758.167,966.833 758.5,967.5C 758.167,967.5 757.833,967.5 757.5,967.5C 756.167,966.833 755.167,965.833 754.5,964.5 Z"/></g>
<g><path style="opacity:1" fill="#ac3d4a" d="M 760.5,954.5 C 761.167,956.167 761.833,957.833 762.5,959.5C 762.5,960.167 762.5,960.833 762.5,961.5C 762.5,963.833 762.5,966.167 762.5,968.5C 761.5,968.5 760.5,968.5 759.5,968.5C 758.833,968.5 758.5,968.167 758.5,967.5C 759.5,967.5 760.5,967.5 761.5,967.5C 760.705,963.215 760.372,958.881 760.5,954.5 Z"/></g>
<g><path style="opacity:1" fill="#8e434c" d="M 762.5,961.5 C 763.473,963.948 763.806,966.615 763.5,969.5C 761.901,969.768 760.568,969.434 759.5,968.5C 760.5,968.5 761.5,968.5 762.5,968.5C 762.5,966.167 762.5,963.833 762.5,961.5 Z"/></g>
<g><path style="opacity:1" fill="#664c4f" d="M 762.5,955.5 C 764.26,960.553 764.927,965.886 764.5,971.5C 762.396,971.799 760.396,971.466 758.5,970.5C 757.873,969.583 757.539,968.583 757.5,967.5C 757.833,967.5 758.167,967.5 758.5,967.5C 758.5,968.167 758.833,968.5 759.5,968.5C 760.568,969.434 761.901,969.768 763.5,969.5C 763.806,966.615 763.473,963.948 762.5,961.5C 762.5,960.833 762.5,960.167 762.5,959.5C 762.5,958.167 762.5,956.833 762.5,955.5 Z"/></g>
<g><path style="opacity:0.008" fill="#91434c" d="M 569.5,991.5 C 571.982,993.503 572.982,996.169 572.5,999.5C 571.662,999.842 571.328,1000.51 571.5,1001.5C 571.167,1001.5 570.833,1001.5 570.5,1001.5C 569.676,998.236 569.342,994.902 569.5,991.5 Z"/></g>
<g><path style="opacity:0.178" fill="#76494e" d="M 572.5,999.5 C 574.181,1002.58 574.848,1005.92 574.5,1009.5C 574.5,1010.17 574.5,1010.83 574.5,1011.5C 574.167,1011.5 573.833,1011.5 573.5,1011.5C 573.041,1008.12 572.374,1004.79 571.5,1001.5C 571.328,1000.51 571.662,999.842 572.5,999.5 Z"/></g>
<g><path style="opacity:0.737" fill="#a53f4a" d="M 570.5,1001.5 C 570.833,1001.5 571.167,1001.5 571.5,1001.5C 572.374,1004.79 573.041,1008.12 573.5,1011.5C 571.723,1008.5 570.723,1005.16 570.5,1001.5 Z"/></g>
<g><path style="opacity:0.043" fill="#614d4f" d="M 574.5,1009.5 C 576.25,1010.66 577.25,1012.33 577.5,1014.5C 575.856,1014.19 574.856,1013.19 574.5,1011.5C 574.5,1010.83 574.5,1010.17 574.5,1009.5 Z"/></g>
<g><path style="opacity:0.02" fill="#8b454c" d="M 573.5,1011.5 C 573.833,1011.5 574.167,1011.5 574.5,1011.5C 574.856,1013.19 575.856,1014.19 577.5,1014.5C 577.5,1015.17 577.5,1015.83 577.5,1016.5C 576.5,1016.5 575.5,1016.5 574.5,1016.5C 574.371,1014.78 574.038,1013.12 573.5,1011.5 Z"/></g>
<g><path style="opacity:0.004" fill="#b33b49" d="M 579.5,1022.5 C 580.525,1022.9 580.692,1023.56 580,1024.5C 579.536,1023.91 579.369,1023.24 579.5,1022.5 Z"/></g>
<g><path style="opacity:1" fill="#606060" d="M 1493.5,959.5 C 1496.96,960.436 1499.79,962.436 1502,965.5C 1507.65,980.673 1503.15,991.173 1488.5,997C 1476.5,997.333 1464.5,997.667 1452.5,998C 1451.51,1007.75 1451.18,1017.58 1451.5,1027.5C 1471.51,1027.17 1491.51,1027.5 1511.5,1028.5C 1513.22,1029.93 1515.22,1030.77 1517.5,1031C 1529.5,1042.66 1529.5,1054.33 1517.5,1066C 1515.56,1067.9 1513.23,1068.74 1510.5,1068.5C 1490.42,1068.18 1470.42,1068.51 1450.5,1069.5C 1470.81,1067.68 1491.48,1066.84 1512.5,1067C 1515.11,1065.43 1517.44,1063.59 1519.5,1061.5C 1525.55,1053.61 1526.05,1045.27 1521,1036.5C 1518.22,1033.19 1514.72,1031.03 1510.5,1030C 1490.5,1029.5 1470.5,1029.33 1450.5,1029.5C 1450.5,1018.17 1450.5,1006.83 1450.5,995.5C 1461.84,995.667 1473.17,995.5 1484.5,995C 1495.76,993.908 1501.76,987.742 1502.5,976.5C 1502.2,973.614 1501.53,970.948 1500.5,968.5C 1499.28,964.615 1496.95,961.615 1493.5,959.5 Z"/></g>
<g><path style="opacity:0.051" fill="#a03f4b" d="M 395.5,1069.5 C 399.885,1071.25 401.885,1074.58 401.5,1079.5C 401.167,1079.5 400.833,1079.5 400.5,1079.5C 400.737,1078.21 400.404,1077.21 399.5,1076.5C 399.715,1074.82 399.048,1073.82 397.5,1073.5C 397.267,1071.94 396.6,1070.6 395.5,1069.5 Z"/></g>
<g><path style="opacity:0.078" fill="#74494e" d="M 397.5,1073.5 C 399.048,1073.82 399.715,1074.82 399.5,1076.5C 398.094,1076.03 397.427,1075.03 397.5,1073.5 Z"/></g>
<g><path style="opacity:0.136" fill="#bc3948" d="M 400.5,1079.5 C 400.833,1079.5 401.167,1079.5 401.5,1079.5C 403.093,1080.35 404.26,1081.68 405,1083.5C 405.483,1084.45 405.649,1085.45 405.5,1086.5C 404.624,1086.63 403.957,1086.3 403.5,1085.5C 402.871,1083.26 401.871,1081.26 400.5,1079.5 Z"/></g>
<g><path style="opacity:0.209" fill="#c63748" d="M 411.5,1095.5 C 409.058,1093.34 407.392,1090.67 406.5,1087.5C 407.117,1087.39 407.617,1087.06 408,1086.5C 409.722,1089.28 410.889,1092.28 411.5,1095.5 Z"/></g>
<g><path style="opacity:0.895" fill="#d53446" d="M 935.5,1194.5 C 931.734,1185.76 926.568,1177.76 920,1170.5C 885.562,1138.23 846.729,1132.4 803.5,1153C 785.759,1164.38 772.259,1178.88 763,1196.5C 762.349,1198.24 762.515,1199.9 763.5,1201.5C 763.062,1202.51 762.396,1202.51 761.5,1201.5C 760.686,1203.77 760.186,1206.1 760,1208.5C 759.333,1209.17 758.667,1209.83 758,1210.5C 755.974,1221.02 754.974,1231.69 755,1242.5C 752.132,1248.71 747.798,1253.71 742,1257.5C 735.667,1260.17 729.333,1260.17 723,1257.5C 717.829,1254.01 713.829,1249.67 711,1244.5C 708.289,1204.74 720.455,1170.58 747.5,1142C 735.5,1141.67 723.5,1141.33 711.5,1141C 693.952,1134.21 689.452,1122.37 698,1105.5C 701.21,1102.29 704.71,1099.45 708.5,1097C 803.833,1096.33 899.167,1096.33 994.5,1097C 999.777,1099.44 1003.44,1103.27 1005.5,1108.5C 1006.5,1108.5 1007.5,1108.5 1008.5,1108.5C 1008.5,1115.17 1008.5,1121.83 1008.5,1128.5C 1007.5,1128.5 1006.5,1128.5 1005.5,1128.5C 1005.69,1131.81 1004.36,1134.31 1001.5,1136C 998.289,1137.85 994.956,1139.52 991.5,1141C 978.82,1141.17 966.154,1141.67 953.5,1142.5C 972.397,1161.52 983.897,1184.19 988,1210.5C 988.667,1211.17 989.333,1211.83 990,1212.5C 990.5,1223.83 990.667,1235.16 990.5,1246.5C 989.5,1246.5 988.5,1246.5 987.5,1246.5C 987.358,1249.62 986.024,1252.12 983.5,1254C 969.714,1262.51 957.881,1260.34 948,1247.5C 945.926,1237.99 944.926,1228.33 945,1218.5C 944.333,1217.83 943.667,1217.17 943,1216.5C 942.419,1208.29 939.919,1200.96 935.5,1194.5 Z"/></g>
<g><path style="opacity:1" fill="#666666" d="M 1510.5,1068.5 C 1509.39,1069.29 1508.06,1069.79 1506.5,1070C 1488.79,1070.82 1471.12,1070.65 1453.5,1069.5C 1452.91,1069.71 1452.41,1070.04 1452,1070.5C 1451.5,1079.49 1451.33,1088.49 1451.5,1097.5C 1494.83,1097.5 1538.17,1097.5 1581.5,1097.5C 1538.67,1098.5 1495.67,1098.83 1452.5,1098.5C 1450.53,1089.22 1449.86,1079.56 1450.5,1069.5C 1470.42,1068.51 1490.42,1068.18 1510.5,1068.5 Z"/></g>
<g><path style="opacity:0.055" fill="#98424c" d="M 411.5,1095.5 C 413.833,1095.83 415.167,1097.17 415.5,1099.5C 413.736,1098.67 412.402,1097.34 411.5,1095.5 Z"/></g>
<g><path style="opacity:0.063" fill="#79484d" d="M 416.5,1100.5 C 417.833,1100.5 418.5,1101.17 418.5,1102.5C 417.167,1102.5 416.5,1101.83 416.5,1100.5 Z"/></g>
<g><path style="opacity:0.004" fill="#72494e" d="M 418.5,1102.5 C 419.167,1102.5 419.833,1102.5 420.5,1102.5C 420.5,1103.5 420.5,1104.5 420.5,1105.5C 419.599,1104.71 418.932,1103.71 418.5,1102.5 Z"/></g>
<g><path style="opacity:0.216" fill="#8d434c" d="M 420.5,1102.5 C 421.833,1103.17 422.833,1104.17 423.5,1105.5C 422.833,1105.5 422.167,1105.5 421.5,1105.5C 421.167,1105.5 420.833,1105.5 420.5,1105.5C 420.5,1104.5 420.5,1103.5 420.5,1102.5 Z"/></g>
<g><path style="opacity:0.69" fill="#a0404a" d="M 423.5,1105.5 C 428.44,1108.77 432.773,1112.77 436.5,1117.5C 434.589,1116.92 432.922,1115.92 431.5,1114.5C 428.833,1111.5 426.167,1108.5 423.5,1105.5 Z"/></g>
<g><path style="opacity:0.102" fill="#694b4f" d="M 421.5,1105.5 C 422.167,1105.5 422.833,1105.5 423.5,1105.5C 426.167,1108.5 428.833,1111.5 431.5,1114.5C 428.569,1112.91 425.902,1110.91 423.5,1108.5C 422.094,1108.03 421.427,1107.03 421.5,1105.5 Z"/></g>
<g><path style="opacity:0.118" fill="#97424c" d="M 545.5,1106.5 C 545.5,1107.17 545.5,1107.83 545.5,1108.5C 544.391,1108.56 543.391,1108.89 542.5,1109.5C 542.5,1107.5 543.5,1106.5 545.5,1106.5 Z"/></g>
<g><path style="opacity:0.93" fill="#515151" d="M 423.5,1108.5 C 425.902,1110.91 428.569,1112.91 431.5,1114.5C 432.922,1115.92 434.589,1116.92 436.5,1117.5C 437.262,1119.26 438.596,1120.26 440.5,1120.5C 443.192,1123.18 446.525,1124.51 450.5,1124.5C 452.216,1124.63 453.883,1124.96 455.5,1125.5C 456.71,1125.93 457.71,1126.6 458.5,1127.5C 459.29,1128.4 460.29,1129.07 461.5,1129.5C 462.472,1130.4 463.138,1131.57 463.5,1133C 461.805,1154.47 460.472,1175.97 459.5,1197.5C 459.5,1198.17 459.5,1198.83 459.5,1199.5C 455.5,1268.17 451.5,1336.83 447.5,1405.5C 446.27,1410.29 445.437,1415.29 445,1420.5C 444.034,1455.06 442.2,1489.56 439.5,1524C 439.667,1528.5 439.833,1533 440,1537.5C 440.414,1537.96 440.914,1538.29 441.5,1538.5C 442.164,1542.7 443.331,1546.7 445,1550.5C 446.129,1552.14 447.629,1553.14 449.5,1553.5C 451.543,1556.54 454.21,1558.88 457.5,1560.5C 458.29,1561.79 459.29,1562.96 460.5,1564C 476.624,1571.44 492.624,1571.11 508.5,1563C 509.305,1561.89 509.972,1560.72 510.5,1559.5C 514.606,1557.73 517.272,1554.73 518.5,1550.5C 519.496,1550.59 520.329,1550.25 521,1549.5C 525.948,1540.9 527.782,1531.57 526.5,1521.5C 520.68,1414.15 514.68,1306.82 508.5,1199.5C 507.294,1176.49 505.961,1153.49 504.5,1130.5C 506.749,1129.92 508.415,1128.59 509.5,1126.5C 511.898,1126.74 513.898,1126.07 515.5,1124.5C 516.167,1124.5 516.833,1124.5 517.5,1124.5C 523.103,1124.2 527.77,1122.2 531.5,1118.5C 532.167,1117.83 532.833,1117.17 533.5,1116.5C 536.891,1115.47 539.557,1113.47 541.5,1110.5C 541.5,1109.83 541.833,1109.5 542.5,1109.5C 543.391,1108.89 544.391,1108.56 545.5,1108.5C 544.857,1125.46 545.857,1142.3 548.5,1159C 549.626,1182.82 550.46,1206.66 551,1230.5C 553.83,1249 555.164,1267.67 555,1286.5C 555.333,1286.17 555.667,1285.83 556,1285.5C 555.906,1304.58 556.906,1323.58 559,1342.5C 562.621,1406.5 565.955,1470.5 569,1534.5C 564.143,1568.03 546.309,1591.86 515.5,1606C 472.399,1619.49 437.566,1608.32 411,1572.5C 409.369,1566.88 406.869,1561.72 403.5,1557C 401.46,1548.01 399.793,1539.01 398.5,1530C 398.921,1527.82 399.421,1525.65 400,1523.5C 400.528,1497.47 401.528,1471.47 403,1445.5C 404.707,1423.94 406.373,1402.28 408,1380.5C 408.333,1366.83 408.667,1353.17 409,1339.5C 409.333,1339.83 409.667,1340.17 410,1340.5C 409.946,1323.42 410.946,1306.42 413,1289.5C 415.298,1232.73 418.131,1175.89 421.5,1119C 421.672,1115.32 422.339,1111.82 423.5,1108.5 Z"/></g>
<g><path style="opacity:1" fill="#97424b" d="M 541.5,1110.5 C 539.557,1113.47 536.891,1115.47 533.5,1116.5C 535.8,1114.02 538.467,1112.02 541.5,1110.5 Z"/></g>
<g><path style="opacity:1" fill="#81474d" d="M 436.5,1117.5 C 437.167,1117.5 437.833,1117.5 438.5,1117.5C 439.167,1118.5 439.833,1119.5 440.5,1120.5C 438.596,1120.26 437.262,1119.26 436.5,1117.5 Z"/></g>
<g><path style="opacity:1" fill="#a83e4a" d="M 438.5,1117.5 C 444.416,1119.8 450.082,1122.46 455.5,1125.5C 453.883,1124.96 452.216,1124.63 450.5,1124.5C 447.46,1122.65 444.127,1121.32 440.5,1120.5C 439.833,1119.5 439.167,1118.5 438.5,1117.5 Z"/></g>
<g><path style="opacity:1" fill="#98424b" d="M 527.5,1119.5 C 525.967,1121.25 523.967,1122.25 521.5,1122.5C 523.033,1120.75 525.033,1119.75 527.5,1119.5 Z"/></g>
<g><path style="opacity:1" fill="#704a4e" d="M 440.5,1120.5 C 444.127,1121.32 447.46,1122.65 450.5,1124.5C 446.525,1124.51 443.192,1123.18 440.5,1120.5 Z"/></g>
<g><path style="opacity:1" fill="#92434c" d="M 520.5,1122.5 C 519.5,1123.17 518.5,1123.83 517.5,1124.5C 516.833,1124.5 516.167,1124.5 515.5,1124.5C 515.5,1124.17 515.5,1123.83 515.5,1123.5C 517.042,1122.7 518.708,1122.37 520.5,1122.5 Z"/></g>
<g><path style="opacity:1" fill="#664c4f" d="M 531.5,1118.5 C 527.77,1122.2 523.103,1124.2 517.5,1124.5C 518.5,1123.83 519.5,1123.17 520.5,1122.5C 520.833,1122.5 521.167,1122.5 521.5,1122.5C 523.967,1122.25 525.967,1121.25 527.5,1119.5C 528.833,1119.17 530.167,1118.83 531.5,1118.5 Z"/></g>
<g><path style="opacity:1" fill="#b03c49" d="M 515.5,1123.5 C 515.5,1123.83 515.5,1124.17 515.5,1124.5C 513.435,1124.52 511.435,1124.85 509.5,1125.5C 510.99,1123.72 512.99,1123.05 515.5,1123.5 Z"/></g>
<g><path style="opacity:1" fill="#6e4b4e" d="M 515.5,1124.5 C 513.898,1126.07 511.898,1126.74 509.5,1126.5C 509.5,1126.17 509.5,1125.83 509.5,1125.5C 511.435,1124.85 513.435,1124.52 515.5,1124.5 Z"/></g>
<g><path style="opacity:1" fill="#98575e" d="M 499.5,1125.5 C 500.791,1125.26 501.791,1125.6 502.5,1126.5C 501.209,1126.26 500.209,1126.6 499.5,1127.5C 497.833,1127.5 496.167,1127.5 494.5,1127.5C 494.5,1127.17 494.5,1126.83 494.5,1126.5C 496.292,1126.63 497.958,1126.3 499.5,1125.5 Z"/></g>
<g><path style="opacity:1" fill="#b8414e" d="M 499.5,1125.5 C 500.097,1124.86 500.93,1124.53 502,1124.5C 503.8,1125.38 505.633,1126.05 507.5,1126.5C 507.5,1127.17 507.167,1127.5 506.5,1127.5C 505.041,1127.57 503.708,1127.23 502.5,1126.5C 501.791,1125.6 500.791,1125.26 499.5,1125.5 Z"/></g>
<g><path style="opacity:1" fill="#a74b55" d="M 494.5,1126.5 C 494.5,1126.83 494.5,1127.17 494.5,1127.5C 485.492,1128.76 476.492,1128.76 467.5,1127.5C 466.833,1127.5 466.167,1127.5 465.5,1127.5C 464.533,1128.81 463.199,1129.47 461.5,1129.5C 460.29,1129.07 459.29,1128.4 458.5,1127.5C 461.29,1127.78 463.79,1127.11 466,1125.5C 475.459,1126.46 484.959,1126.79 494.5,1126.5 Z"/></g>
<g><path style="opacity:1" fill="#6e6e6e" d="M 465.5,1127.5 C 466.167,1127.5 466.833,1127.5 467.5,1127.5C 467.918,1128.22 468.584,1128.72 469.5,1129C 479.721,1129.91 489.721,1129.41 499.5,1127.5C 501.03,1128.21 502.363,1129.21 503.5,1130.5C 504.743,1147.81 505.409,1165.14 505.5,1182.5C 511.654,1297.68 518.32,1412.84 525.5,1528C 524.538,1533.15 523.704,1538.31 523,1543.5C 520.858,1545.43 519.358,1547.77 518.5,1550.5C 517.272,1554.73 514.606,1557.73 510.5,1559.5C 498.382,1567.15 485.049,1569.65 470.5,1567C 466.432,1564.3 462.099,1562.13 457.5,1560.5C 454.21,1558.88 451.543,1556.54 449.5,1553.5C 449.47,1550.15 448.137,1547.48 445.5,1545.5C 444.343,1539.58 443.677,1533.58 443.5,1527.5C 445.054,1497.85 446.221,1468.18 447,1438.5C 448.232,1435.7 448.899,1432.7 449,1429.5C 450.903,1385.47 453.236,1341.47 456,1297.5C 457.265,1264.83 458.432,1232.17 459.5,1199.5C 459.5,1198.83 459.5,1198.17 459.5,1197.5C 460.268,1196.74 460.768,1195.74 461,1194.5C 461.739,1172.1 463.239,1149.77 465.5,1127.5 Z"/></g>
<g><path style="opacity:1" fill="#816467" d="M 467.5,1127.5 C 476.492,1128.76 485.492,1128.76 494.5,1127.5C 496.167,1127.5 497.833,1127.5 499.5,1127.5C 489.721,1129.41 479.721,1129.91 469.5,1129C 468.584,1128.72 467.918,1128.22 467.5,1127.5 Z"/></g>
<g><path style="opacity:1" fill="#6b5557" d="M 499.5,1127.5 C 500.209,1126.6 501.209,1126.26 502.5,1126.5C 502.62,1127.59 503.287,1128.25 504.5,1128.5C 505.416,1128.46 506.083,1128.12 506.5,1127.5C 507.167,1127.5 507.5,1127.17 507.5,1126.5C 508.167,1126.5 508.833,1126.5 509.5,1126.5C 508.415,1128.59 506.749,1129.92 504.5,1130.5C 504.167,1130.5 503.833,1130.5 503.5,1130.5C 502.363,1129.21 501.03,1128.21 499.5,1127.5 Z"/></g>
<g><path style="opacity:1" fill="#984a53" d="M 502.5,1126.5 C 503.708,1127.23 505.041,1127.57 506.5,1127.5C 506.083,1128.12 505.416,1128.46 504.5,1128.5C 503.287,1128.25 502.62,1127.59 502.5,1126.5 Z"/></g>
<g><path style="opacity:1" fill="#5e5d5d" d="M 465.5,1127.5 C 463.239,1149.77 461.739,1172.1 461,1194.5C 460.768,1195.74 460.268,1196.74 459.5,1197.5C 460.472,1175.97 461.805,1154.47 463.5,1133C 463.138,1131.57 462.472,1130.4 461.5,1129.5C 463.199,1129.47 464.533,1128.81 465.5,1127.5 Z"/></g>
<g><path style="opacity:1" fill="#5c5c5c" d="M 503.5,1130.5 C 503.833,1130.5 504.167,1130.5 504.5,1130.5C 505.961,1153.49 507.294,1176.49 508.5,1199.5C 507.117,1193.89 506.117,1188.23 505.5,1182.5C 505.409,1165.14 504.743,1147.81 503.5,1130.5 Z"/></g>
<g><path style="opacity:0.934" fill="#515151" d="M 922.5,1265.5 C 923.957,1267.63 924.957,1269.96 925.5,1272.5C 926.5,1272.5 927.5,1272.5 928.5,1272.5C 930.458,1277.74 932.958,1282.74 936,1287.5C 941.176,1294 946.176,1300.67 951,1307.5C 952.333,1310.17 953.667,1312.83 955,1315.5C 955.333,1315.17 955.667,1314.83 956,1314.5C 957,1316.83 958,1319.17 959,1321.5C 971.741,1338.64 983.741,1356.31 995,1374.5C 995.667,1378.83 995.667,1383.17 995,1387.5C 987.907,1398.02 981.074,1408.69 974.5,1419.5C 960.424,1439.57 949.924,1461.57 943,1485.5C 942.333,1486.17 941.667,1486.83 941,1487.5C 939.336,1499.11 938.169,1510.78 937.5,1522.5C 935.99,1524.32 934.657,1526.32 933.5,1528.5C 930.804,1529.85 928.47,1531.68 926.5,1534C 923.768,1534.41 921.101,1535.08 918.5,1536C 873.833,1536.67 829.167,1536.67 784.5,1536C 781.899,1535.08 779.232,1534.41 776.5,1534C 771.635,1530.76 767.801,1526.59 765,1521.5C 764.917,1510.06 763.917,1498.73 762,1487.5C 761.333,1486.83 760.667,1486.17 760,1485.5C 758.632,1478.33 756.632,1471.33 754,1464.5C 753.333,1463.17 752.667,1463.17 752,1464.5C 751.74,1460.58 750.74,1456.91 749,1453.5C 743.326,1442.8 737.16,1432.3 730.5,1422C 730.833,1421.67 731.167,1421.33 731.5,1421C 730.584,1420.63 729.75,1420.13 729,1419.5C 722.021,1408.85 715.021,1398.18 708,1387.5C 707.333,1383.17 707.333,1378.83 708,1374.5C 717.978,1359.18 728.311,1344.18 739,1329.5C 741.531,1324.72 744.031,1320.06 746.5,1315.5C 747.5,1315.5 748.5,1315.5 749.5,1315.5C 749.681,1312.8 750.681,1310.47 752.5,1308.5C 772.368,1278.74 792.868,1249.4 814,1220.5C 815.411,1218.35 816.245,1216.02 816.5,1213.5C 817.5,1213.5 818.5,1213.5 819.5,1213.5C 822.115,1208.67 824.448,1203.67 826.5,1198.5C 827.5,1198.5 828.5,1198.5 829.5,1198.5C 830.639,1196 831.306,1193.33 831.5,1190.5C 832.5,1190.5 833.5,1190.5 834.5,1190.5C 836.036,1187.61 838.036,1184.94 840.5,1182.5C 856.138,1176.63 867.638,1181.3 875,1196.5C 890.611,1218.98 906.444,1241.98 922.5,1265.5 Z"/></g>
<g><path style="opacity:1" fill="#5a5a5a" d="M 875.5,1271.5 C 874.5,1271.5 873.5,1271.5 872.5,1271.5C 872.667,1298.17 872.5,1324.84 872,1351.5C 870.165,1353.45 868.999,1355.78 868.5,1358.5C 865.357,1360.67 862.024,1362.33 858.5,1363.5C 858.414,1362.5 858.748,1361.67 859.5,1361C 864.735,1359.34 867.735,1355.84 868.5,1350.5C 869.5,1350.5 870.5,1350.5 871.5,1350.5C 871.5,1323.5 871.5,1296.5 871.5,1269.5C 873.483,1269.16 874.817,1269.82 875.5,1271.5 Z"/></g>
<g><path style="opacity:1" fill="#666666" d="M 832.5,1349.5 C 831.698,1348.05 831.198,1346.38 831,1344.5C 830.187,1321.48 830.354,1298.48 831.5,1275.5C 830.637,1273.13 829.471,1273.13 828,1275.5C 824.954,1280.96 821.454,1285.96 817.5,1290.5C 817.238,1289.02 817.571,1287.69 818.5,1286.5C 821.944,1281.25 825.61,1276.25 829.5,1271.5C 830.496,1271.59 831.329,1271.25 832,1270.5C 832.5,1296.83 832.667,1323.16 832.5,1349.5 Z"/></g>
<g><path style="opacity:1" fill="#6e6e6e" d="M 875.5,1271.5 C 876.167,1273.17 876.833,1274.83 877.5,1276.5C 882.083,1284.27 886.916,1291.93 892,1299.5C 893.039,1300.71 894.206,1301.71 895.5,1302.5C 899.662,1306 902.662,1310.33 904.5,1315.5C 904.491,1317.31 904.991,1318.98 906,1320.5C 909.083,1324.66 912.249,1328.66 915.5,1332.5C 916.89,1333.9 917.89,1335.57 918.5,1337.5C 927.164,1351.49 936.33,1365.16 946,1378.5C 946.667,1379.83 946.667,1381.17 946,1382.5C 944.117,1383.65 943.284,1385.32 943.5,1387.5C 937.576,1394.34 932.909,1402 929.5,1410.5C 925.528,1418.8 921.195,1426.8 916.5,1434.5C 914.177,1437.13 912.344,1440.13 911,1443.5C 905.546,1456.23 901.212,1469.23 898,1482.5C 897.502,1485.48 897.335,1488.48 897.5,1491.5C 897.5,1491.83 897.5,1492.17 897.5,1492.5C 867.167,1492.5 836.833,1492.5 806.5,1492.5C 802.714,1468.61 794.714,1446.27 782.5,1425.5C 781.4,1424.4 780.733,1423.06 780.5,1421.5C 776.482,1413.83 772.315,1406.16 768,1398.5C 766.303,1395.98 764.47,1393.65 762.5,1391.5C 762.167,1391.5 761.833,1391.5 761.5,1391.5C 760.411,1387.56 758.744,1383.9 756.5,1380.5C 758.936,1377.96 760.603,1374.96 761.5,1371.5C 770.459,1360.28 778.959,1348.62 787,1336.5C 793.842,1325.48 800.676,1314.48 807.5,1303.5C 809.648,1298.18 812.982,1293.84 817.5,1290.5C 821.454,1285.96 824.954,1280.96 828,1275.5C 829.471,1273.13 830.637,1273.13 831.5,1275.5C 830.354,1298.48 830.187,1321.48 831,1344.5C 831.198,1346.38 831.698,1348.05 832.5,1349.5C 837.45,1361.48 846.117,1366.15 858.5,1363.5C 862.024,1362.33 865.357,1360.67 868.5,1358.5C 868.999,1355.78 870.165,1353.45 872,1351.5C 872.5,1324.84 872.667,1298.17 872.5,1271.5C 873.5,1271.5 874.5,1271.5 875.5,1271.5 Z"/></g>
<g><path style="opacity:1" fill="#5c5c5c" d="M 858.5,1363.5 C 846.117,1366.15 837.45,1361.48 832.5,1349.5C 832.667,1323.16 832.5,1296.83 832,1270.5C 831.329,1271.25 830.496,1271.59 829.5,1271.5C 829.712,1269.62 830.712,1268.28 832.5,1267.5C 833.042,1295.87 833.875,1324.2 835,1352.5C 841.092,1360.14 848.926,1363.8 858.5,1363.5 Z"/></g>
<g><path style="opacity:1" fill="#626262" d="M 877.5,1276.5 C 878.496,1276.41 879.329,1276.75 880,1277.5C 883.58,1284.32 887.914,1290.65 893,1296.5C 893.655,1298.63 894.489,1300.63 895.5,1302.5C 894.206,1301.71 893.039,1300.71 892,1299.5C 886.916,1291.93 882.083,1284.27 877.5,1276.5 Z"/></g>
<g><path style="opacity:1" fill="#606060" d="M 459.5,1199.5 C 458.432,1232.17 457.265,1264.83 456,1297.5C 453.236,1341.47 450.903,1385.47 449,1429.5C 448.899,1432.7 448.232,1435.7 447,1438.5C 446.221,1468.18 445.054,1497.85 443.5,1527.5C 443.677,1533.58 444.343,1539.58 445.5,1545.5C 444.883,1545.39 444.383,1545.06 444,1544.5C 443.089,1538.37 442.589,1532.2 442.5,1526C 444.302,1485.84 445.968,1445.67 447.5,1405.5C 451.5,1336.83 455.5,1268.17 459.5,1199.5 Z"/></g>
<g><path style="opacity:1" fill="#626262" d="M 904.5,1315.5 C 909.298,1320.32 912.965,1325.99 915.5,1332.5C 912.249,1328.66 909.083,1324.66 906,1320.5C 904.991,1318.98 904.491,1317.31 904.5,1315.5 Z"/></g>
<g><path style="opacity:1" fill="#606060" d="M 807.5,1303.5 C 800.676,1314.48 793.842,1325.48 787,1336.5C 778.959,1348.62 770.459,1360.28 761.5,1371.5C 761.351,1370.45 761.517,1369.45 762,1368.5C 776.992,1346.68 792.159,1325.01 807.5,1303.5 Z"/></g>
<g><path style="opacity:1" fill="#5b5b5b" d="M 918.5,1337.5 C 920.861,1338.43 923.028,1339.77 925,1341.5C 930.805,1350.93 936.972,1360.1 943.5,1369C 944.292,1372.91 945.626,1376.57 947.5,1380C 947.223,1383.1 945.89,1385.6 943.5,1387.5C 943.284,1385.32 944.117,1383.65 946,1382.5C 946.667,1381.17 946.667,1379.83 946,1378.5C 936.33,1365.16 927.164,1351.49 918.5,1337.5 Z"/></g>
<g><path style="opacity:0.891" fill="#d53446" d="M 1147.5,1423.5 C 1158.77,1406.38 1171.77,1390.55 1186.5,1376C 1195.04,1369.47 1204.04,1368.8 1213.5,1374C 1223.92,1383.56 1232.92,1394.06 1240.5,1405.5C 1241.5,1405.5 1242.5,1405.5 1243.5,1405.5C 1243.35,1406.55 1243.52,1407.55 1244,1408.5C 1251.91,1418.75 1258.58,1429.75 1264,1441.5C 1269.74,1461.72 1267.58,1480.06 1257.5,1496.5C 1240.45,1520.85 1217.11,1530.68 1187.5,1526C 1163.68,1519.01 1147.02,1504.17 1137.5,1481.5C 1133.54,1468.83 1133.54,1456.16 1137.5,1443.5C 1139.94,1436.4 1143.28,1429.73 1147.5,1423.5 Z M 1200.5,1426.5 C 1193.24,1435.93 1186.58,1445.76 1180.5,1456C 1181.02,1456.56 1181.36,1457.23 1181.5,1458C 1180.54,1459.37 1179.88,1460.87 1179.5,1462.5C 1180.74,1471.28 1185.74,1477.45 1194.5,1481C 1214.26,1483.57 1223.09,1475.07 1221,1455.5C 1215.46,1444.94 1208.63,1435.27 1200.5,1426.5 Z"/></g>
<g><path style="opacity:1" fill="#616161" d="M 761.5,1371.5 C 760.603,1374.96 758.936,1377.96 756.5,1380.5C 758.744,1383.9 760.411,1387.56 761.5,1391.5C 759.06,1388.13 756.727,1384.63 754.5,1381C 756.548,1377.59 758.881,1374.43 761.5,1371.5 Z"/></g>
<g><path style="opacity:1" fill="#616161" d="M 943.5,1387.5 C 939.572,1395.7 934.906,1403.37 929.5,1410.5C 932.909,1402 937.576,1394.34 943.5,1387.5 Z"/></g>
<g><path style="opacity:1" fill="#626262" d="M 762.5,1391.5 C 764.47,1393.65 766.303,1395.98 768,1398.5C 772.315,1406.16 776.482,1413.83 780.5,1421.5C 778.16,1418.99 775.993,1416.32 774,1413.5C 769.886,1406.27 766.053,1398.94 762.5,1391.5 Z"/></g>
<g><path style="opacity:0.004" fill="#505150" d="M 1472.5,1438.5 C 1473.83,1439.17 1473.83,1439.17 1472.5,1438.5 Z"/></g>
<g><path style="opacity:1" fill="#626262" d="M 916.5,1434.5 C 909.064,1453.29 902.731,1472.29 897.5,1491.5C 897.335,1488.48 897.502,1485.48 898,1482.5C 901.212,1469.23 905.546,1456.23 911,1443.5C 912.344,1440.13 914.177,1437.13 916.5,1434.5 Z"/></g>
<g><path style="opacity:1" fill="#5e5e5e" d="M 505.5,1182.5 C 506.117,1188.23 507.117,1193.89 508.5,1199.5C 514.68,1306.82 520.68,1414.15 526.5,1521.5C 527.782,1531.57 525.948,1540.9 521,1549.5C 520.329,1550.25 519.496,1550.59 518.5,1550.5C 519.358,1547.77 520.858,1545.43 523,1543.5C 523.704,1538.31 524.538,1533.15 525.5,1528C 518.32,1412.84 511.654,1297.68 505.5,1182.5 Z"/></g>
<g><path style="opacity:0.975" fill="#565656" d="M 447.5,1405.5 C 445.968,1445.67 444.302,1485.84 442.5,1526C 442.589,1532.2 443.089,1538.37 444,1544.5C 444.383,1545.06 444.883,1545.39 445.5,1545.5C 448.137,1547.48 449.47,1550.15 449.5,1553.5C 447.629,1553.14 446.129,1552.14 445,1550.5C 443.331,1546.7 442.164,1542.7 441.5,1538.5C 440.914,1538.29 440.414,1537.96 440,1537.5C 439.833,1533 439.667,1528.5 439.5,1524C 442.2,1489.56 444.034,1455.06 445,1420.5C 445.437,1415.29 446.27,1410.29 447.5,1405.5 Z"/></g>
<g><path style="opacity:1" fill="#626262" d="M 782.5,1425.5 C 794.714,1446.27 802.714,1468.61 806.5,1492.5C 836.833,1492.5 867.167,1492.5 897.5,1492.5C 866.671,1493.5 835.671,1493.83 804.5,1493.5C 802.096,1471.49 795.263,1451.16 784,1432.5C 783.56,1430.13 783.06,1427.8 782.5,1425.5 Z"/></g>
<g><path style="opacity:1" fill="#606060" d="M 510.5,1559.5 C 509.972,1560.72 509.305,1561.89 508.5,1563C 492.624,1571.11 476.624,1571.44 460.5,1564C 459.29,1562.96 458.29,1561.79 457.5,1560.5C 462.099,1562.13 466.432,1564.3 470.5,1567C 485.049,1569.65 498.382,1567.15 510.5,1559.5 Z"/></g>
</svg>
