<?xml version="1.0" encoding="UTF-8"?>
<!DOCTYPE svg PUBLIC "-//W3C//DTD SVG 1.1//EN" "http://www.w3.org/Graphics/SVG/1.1/DTD/svg11.dtd">
<svg xmlns="http://www.w3.org/2000/svg" version="1.1" width="2000px" height="2000px" style="shape-rendering:geometricPrecision; text-rendering:geometricPrecision; image-rendering:optimizeQuality; fill-rule:evenodd; clip-rule:evenodd" xmlns:xlink="http://www.w3.org/1999/xlink">
<g><path style="opacity:0.952" fill="#515151" d="M 726.5,982.5 C 728.199,982.66 729.866,982.494 731.5,982C 732.257,980.488 733.257,979.154 734.5,978C 738.114,977.055 741.781,976.388 745.5,976C 986.5,975.667 1227.5,975.333 1468.5,975C 1473.13,974.157 1477.47,972.657 1481.5,970.5C 1485.85,968.098 1490.19,965.598 1494.5,963C 1497.34,959.134 1500.5,955.634 1504,952.5C 1506.13,949.182 1507.96,945.849 1509.5,942.5C 1511.72,939.329 1512.88,935.663 1513,931.5C 1513.67,764.5 1513.67,597.5 1513,430.5C 1511.87,424.884 1509.7,419.884 1506.5,415.5C 1504.98,411.798 1502.81,408.464 1500,405.5C 1498.55,403.536 1496.72,402.203 1494.5,401.5C 1492.86,395.554 1488.86,392.72 1482.5,393C 1480.74,391.25 1478.74,390.084 1476.5,389.5C 1475.4,388.442 1474.07,387.608 1472.5,387C 1158.17,386.333 843.833,386.333 529.5,387C 527.509,387.374 525.842,388.207 524.5,389.5C 515.784,392.704 508.118,397.704 501.5,404.5C 500.014,406.302 499.014,408.302 498.5,410.5C 497.504,410.414 496.671,410.748 496,411.5C 494.444,414.598 492.944,417.598 491.5,420.5C 490.833,421.5 490.167,422.5 489.5,423.5C 488.207,424.842 487.374,426.509 487,428.5C 486.824,431.882 486.324,435.215 485.5,438.5C 484.167,600.167 484.167,761.833 485.5,923.5C 486.333,928.5 487.167,933.5 488,938.5C 488.671,939.252 489.504,939.586 490.5,939.5C 494.064,950.417 500.731,959.083 510.5,965.5C 512.674,965.75 514.341,966.75 515.5,968.5C 520.673,971.764 526.339,973.931 532.5,975C 579.499,975.5 626.499,975.667 673.5,975.5C 676.157,975.162 678.49,975.829 680.5,977.5C 684.26,981.25 687.594,985.25 690.5,989.5C 690.179,1006.16 681.513,1015.16 664.5,1016.5C 660.855,1015.88 657.188,1015.55 653.5,1015.5C 654.058,1014.21 655.058,1013.38 656.5,1013C 656.167,1012.67 655.833,1012.33 655.5,1012C 638.49,1011.17 621.49,1011.33 604.5,1012.5C 609.388,1013.11 614.054,1014.11 618.5,1015.5C 592.169,1016.24 565.836,1016.4 539.5,1016C 508.31,1014.25 483.31,1001.08 464.5,976.5C 460.418,970.785 456.918,964.785 454,958.5C 452.789,953.033 451.122,947.7 449,942.5C 448.502,939.518 448.335,936.518 448.5,933.5C 450.442,928.944 451.108,923.944 450.5,918.5C 451.333,756.001 451.833,593.334 452,430.5C 454.31,425.734 454.977,420.734 454,415.5C 453.329,414.748 452.496,414.414 451.5,414.5C 458.386,393.394 471.053,376.228 489.5,363C 497.337,358.614 505.337,354.614 513.5,351C 838.167,350.333 1162.83,350.333 1487.5,351C 1497.92,355.581 1507.92,360.915 1517.5,367C 1524.33,372.971 1530.5,379.471 1536,386.5C 1536.48,387.448 1536.65,388.448 1536.5,389.5C 1537.5,389.5 1538.5,389.5 1539.5,389.5C 1539.34,390.873 1539.51,392.207 1540,393.5C 1543.44,398.89 1546.44,404.556 1549,410.5C 1550.54,419.246 1552.2,427.913 1554,436.5C 1554.83,600.168 1554.67,763.834 1553.5,927.5C 1550.65,958.703 1536.31,983.203 1510.5,1001C 1495.54,1010.01 1479.21,1015.01 1461.5,1016C 1225.83,1016.38 990.161,1016.55 754.5,1016.5C 747.542,1016.93 740.875,1015.76 734.5,1013C 732,1011.83 730.167,1010 729,1007.5C 728.667,1007.83 728.333,1008.17 728,1008.5C 726.548,1004.87 725.215,1001.2 724,997.5C 723.667,997.833 723.333,998.167 723,998.5C 722.833,997 722.667,995.5 722.5,994C 724.468,990.48 725.801,986.646 726.5,982.5 Z M 1340.5,625.5 C 1341.17,626.833 1342.17,627.833 1343.5,628.5C 1343.5,629.167 1343.5,629.833 1343.5,630.5C 1344.45,632.132 1345.45,633.799 1346.5,635.5C 1345.05,637.263 1345.38,638.597 1347.5,639.5C 1351.32,650.11 1352.49,661.11 1351,672.5C 1349.08,675.898 1348.08,679.565 1348,683.5C 1347.08,683.93 1346.25,684.264 1345.5,684.5C 1346.25,685.736 1346.58,687.07 1346.5,688.5C 1345.83,688.5 1345.5,688.833 1345.5,689.5C 1344.09,689.973 1343.43,690.973 1343.5,692.5C 1342.5,694.011 1341.83,695.678 1341.5,697.5C 1340.17,698.167 1339.17,699.167 1338.5,700.5C 1325.34,718.598 1307.5,727.932 1285,728.5C 1244.66,724.326 1222.49,701.993 1218.5,661.5C 1219.43,639.98 1228.09,622.313 1244.5,608.5C 1268.31,592.907 1292.98,591.407 1318.5,604C 1328,609.672 1335.33,616.839 1340.5,625.5 Z"/></g>
<g><path style="opacity:1" fill="#535353" d="M 1476.5,389.5 C 1474.15,389.162 1471.81,388.662 1469.5,388C 1313.17,387.833 1156.83,387.667 1000.5,387.5C 844,387.5 687.666,387.833 531.5,388.5C 529.139,388.674 526.806,389.007 524.5,389.5C 525.842,388.207 527.509,387.374 529.5,387C 843.833,386.333 1158.17,386.333 1472.5,387C 1474.07,387.608 1475.4,388.442 1476.5,389.5 Z"/></g>
<g><path style="opacity:1" fill="#5b5b5b" d="M 531.5,388.5 C 687.666,387.833 844,387.5 1000.5,387.5C 1156.83,387.667 1313.17,387.833 1469.5,388C 1471.81,388.662 1474.15,389.162 1476.5,389.5C 1478.74,390.084 1480.74,391.25 1482.5,393C 1488.86,392.72 1492.86,395.554 1494.5,401.5C 1486.13,395.372 1476.79,391.372 1466.5,389.5C 1155,388.5 843.334,388.167 531.5,388.5 Z"/></g>
<g><path style="opacity:1" fill="#656565" d="M 531.5,388.5 C 843.334,388.167 1155,388.5 1466.5,389.5C 1155.5,389.333 844.5,389.5 533.5,390C 521.999,391.918 511.999,396.751 503.5,404.5C 502.541,407.122 500.875,409.122 498.5,410.5C 499.014,408.302 500.014,406.302 501.5,404.5C 508.118,397.704 515.784,392.704 524.5,389.5C 526.806,389.007 529.139,388.674 531.5,388.5 Z"/></g>
<g><path style="opacity:0.974" fill="#6e6e6e" d="M 1466.5,389.5 C 1476.79,391.372 1486.13,395.372 1494.5,401.5C 1496.72,402.203 1498.55,403.536 1500,405.5C 1502.81,408.464 1504.98,411.798 1506.5,415.5C 1508.02,420.958 1509.86,426.292 1512,431.5C 1512.67,597.833 1512.67,764.167 1512,930.5C 1509.87,934.208 1509.03,938.208 1509.5,942.5C 1507.96,945.849 1506.13,949.182 1504,952.5C 1500.5,955.634 1497.34,959.134 1494.5,963C 1490.19,965.598 1485.85,968.098 1481.5,970.5C 1476.79,971.015 1472.13,971.848 1467.5,973C 1225.17,973.167 982.833,973.667 740.5,974.5C 735.328,976.05 730.661,978.384 726.5,981.5C 717.505,953.652 724.838,931.152 748.5,914C 762.15,907.361 776.483,904.861 791.5,906.5C 1006.8,902.846 1222.13,899.512 1437.5,896.5C 1438.8,751.505 1440.14,606.505 1441.5,461.5C 1146.11,461.182 850.777,460.515 555.5,459.5C 555.576,580.39 554.91,700.89 553.5,821C 553.527,848.182 553.86,875.349 554.5,902.5C 584.813,904.539 615.147,906.372 645.5,908C 673.277,911.122 690.11,926.289 696,953.5C 697.52,966.042 695.687,978.042 690.5,989.5C 687.594,985.25 684.26,981.25 680.5,977.5C 678.49,975.829 676.157,975.162 673.5,975.5C 625.174,973.836 576.507,972.836 527.5,972.5C 523.719,970.554 519.719,969.22 515.5,968.5C 514.341,966.75 512.674,965.75 510.5,965.5C 500.102,956.702 493.269,945.702 490,932.5C 489.5,765.5 489.333,598.5 489.5,431.5C 490.167,427.833 490.833,424.167 491.5,420.5C 492.944,417.598 494.444,414.598 496,411.5C 496.671,410.748 497.504,410.414 498.5,410.5C 500.875,409.122 502.541,407.122 503.5,404.5C 511.999,396.751 521.999,391.918 533.5,390C 844.5,389.5 1155.5,389.333 1466.5,389.5 Z M 1340.5,625.5 C 1341.17,626.833 1342.17,627.833 1343.5,628.5C 1343.5,629.167 1343.5,629.833 1343.5,630.5C 1344.45,632.132 1345.45,633.799 1346.5,635.5C 1345.05,637.263 1345.38,638.597 1347.5,639.5C 1351.32,650.11 1352.49,661.11 1351,672.5C 1349.08,675.898 1348.08,679.565 1348,683.5C 1347.08,683.93 1346.25,684.264 1345.5,684.5C 1346.25,685.736 1346.58,687.07 1346.5,688.5C 1345.83,688.5 1345.5,688.833 1345.5,689.5C 1344.09,689.973 1343.43,690.973 1343.5,692.5C 1342.5,694.011 1341.83,695.678 1341.5,697.5C 1340.17,698.167 1339.17,699.167 1338.5,700.5C 1325.34,718.598 1307.5,727.932 1285,728.5C 1244.66,724.326 1222.49,701.993 1218.5,661.5C 1219.43,639.98 1228.09,622.313 1244.5,608.5C 1268.31,592.907 1292.98,591.407 1318.5,604C 1328,609.672 1335.33,616.839 1340.5,625.5 Z"/></g>
<g><path style="opacity:0.956" fill="#565656" d="M 451.5,414.5 C 452.496,414.414 453.329,414.748 454,415.5C 454.977,420.734 454.31,425.734 452,430.5C 451.833,593.334 451.333,756.001 450.5,918.5C 451.165,753.163 450.499,588.163 448.5,423.5C 449.241,420.366 450.241,417.366 451.5,414.5 Z"/></g>
<g><path style="opacity:1" fill="#535353" d="M 489.5,423.5 C 489.162,425.854 488.662,428.187 488,430.5C 487.167,595.667 487.334,760.667 488.5,925.5C 488.221,930.327 488.887,934.993 490.5,939.5C 489.504,939.586 488.671,939.252 488,938.5C 487.167,933.5 486.333,928.5 485.5,923.5C 484.167,761.833 484.167,600.167 485.5,438.5C 486.324,435.215 486.824,431.882 487,428.5C 487.374,426.509 488.207,424.842 489.5,423.5 Z"/></g>
<g><path style="opacity:0.95" fill="#5f5f5f" d="M 448.5,424.5 C 448.5,424.167 448.5,423.833 448.5,423.5C 450.499,588.163 451.165,753.163 450.5,918.5C 451.108,923.944 450.442,928.944 448.5,933.5C 447.947,928.518 447.613,923.518 447.5,918.5C 448.222,918.082 448.722,917.416 449,916.5C 449.5,755.834 449.667,595.167 449.5,434.5C 449.813,430.958 449.479,427.625 448.5,424.5 Z"/></g>
<g><path style="opacity:0.263" fill="#6d6d6d" d="M 448.5,424.5 C 449.479,427.625 449.813,430.958 449.5,434.5C 447.948,439.401 447.281,444.568 447.5,450C 448.817,606.022 448.817,762.189 447.5,918.5C 445.756,904.354 444.756,890.354 444.5,876.5C 445.167,854.167 445.833,831.833 446.5,809.5C 446.167,808.833 445.833,808.167 445.5,807.5C 446.331,684.207 446.831,560.873 447,437.5C 447.735,433.187 448.235,428.853 448.5,424.5 Z"/></g>
<g><path style="opacity:1" fill="#676767" d="M 489.5,431.5 C 489.333,598.5 489.5,765.5 490,932.5C 493.269,945.702 500.102,956.702 510.5,965.5C 500.731,959.083 494.064,950.417 490.5,939.5C 488.887,934.993 488.221,930.327 488.5,925.5C 488.167,760.666 488.5,595.999 489.5,431.5 Z"/></g>
<g><path style="opacity:0.75" fill="#676767" d="M 449.5,434.5 C 449.667,595.167 449.5,755.834 449,916.5C 448.722,917.416 448.222,918.082 447.5,918.5C 448.817,762.189 448.817,606.022 447.5,450C 447.281,444.568 447.948,439.401 449.5,434.5 Z"/></g>
<g><path style="opacity:1" fill="#5e5e5e" d="M 491.5,420.5 C 490.833,424.167 490.167,427.833 489.5,431.5C 488.5,595.999 488.167,760.666 488.5,925.5C 487.334,760.667 487.167,595.667 488,430.5C 488.662,428.187 489.162,425.854 489.5,423.5C 490.167,422.5 490.833,421.5 491.5,420.5 Z"/></g>
<g><path style="opacity:1" fill="#606060" d="M 1506.5,415.5 C 1509.7,419.884 1511.87,424.884 1513,430.5C 1513.67,597.5 1513.67,764.5 1513,931.5C 1512.88,935.663 1511.72,939.329 1509.5,942.5C 1509.03,938.208 1509.87,934.208 1512,930.5C 1512.67,764.167 1512.67,597.833 1512,431.5C 1509.86,426.292 1508.02,420.958 1506.5,415.5 Z"/></g>
<g><path style="opacity:0.881" fill="#d53446" d="M 1133.5,627.5 C 1133.22,629.346 1133.89,630.68 1135.5,631.5C 1140.18,648.285 1134.18,658.785 1117.5,663C 1060.18,664.014 1010.18,683.347 967.5,721C 960.308,727.362 953.975,734.528 948.5,742.5C 944.246,747.093 939.912,751.76 935.5,756.5C 925.553,761.971 916.553,760.638 908.5,752.5C 906.753,750.059 904.92,747.726 903,745.5C 901.869,742.555 901.036,739.555 900.5,736.5C 899.5,736.5 898.5,736.5 897.5,736.5C 897.216,733.368 896.383,730.368 895,727.5C 831.582,624.414 739.082,571.914 617.5,570C 613.407,568.075 610.074,565.242 607.5,561.5C 606.914,561.709 606.414,562.043 606,562.5C 602.734,554.067 602.734,545.734 606,537.5C 609.369,534.558 612.869,531.724 616.5,529C 620.298,528.228 624.131,527.728 628,527.5C 758.791,532.951 858.958,590.618 928.5,700.5C 981.245,646.37 1045.58,619.537 1121.5,620C 1125.94,621.963 1129.94,624.463 1133.5,627.5 Z"/></g>
<g><path style="opacity:0.889" fill="#d53447" d="M 1389.5,693.5 C 1387.95,693.821 1387.29,694.821 1387.5,696.5C 1386.43,702.474 1384.59,708.141 1382,713.5C 1381.67,713.167 1381.33,712.833 1381,712.5C 1355.81,755.845 1317.98,775.012 1267.5,770C 1218.51,758.968 1188.34,729.134 1177,680.5C 1171.48,621.115 1196.31,579.948 1251.5,557C 1285.37,547.549 1317.04,552.215 1346.5,571C 1385.93,601.442 1400.77,639.942 1391,686.5C 1390.81,689.036 1390.31,691.369 1389.5,693.5 Z M 1340.5,625.5 C 1341.17,626.833 1342.17,627.833 1343.5,628.5C 1343.5,629.167 1343.5,629.833 1343.5,630.5C 1344.45,632.132 1345.45,633.799 1346.5,635.5C 1345.05,637.263 1345.38,638.597 1347.5,639.5C 1351.32,650.11 1352.49,661.11 1351,672.5C 1349.08,675.898 1348.08,679.565 1348,683.5C 1347.08,683.93 1346.25,684.264 1345.5,684.5C 1346.25,685.736 1346.58,687.07 1346.5,688.5C 1345.83,688.5 1345.5,688.833 1345.5,689.5C 1344.09,689.973 1343.43,690.973 1343.5,692.5C 1342.5,694.011 1341.83,695.678 1341.5,697.5C 1340.17,698.167 1339.17,699.167 1338.5,700.5C 1325.34,718.598 1307.5,727.932 1285,728.5C 1244.66,724.326 1222.49,701.993 1218.5,661.5C 1219.43,639.98 1228.09,622.313 1244.5,608.5C 1268.31,592.907 1292.98,591.407 1318.5,604C 1328,609.672 1335.33,616.839 1340.5,625.5 Z"/></g>
<g><path style="opacity:0.875" fill="#d53446" d="M 796.5,727.5 C 787.171,715.838 776.504,705.505 764.5,696.5C 723.872,666.27 677.872,650.77 626.5,650C 608.83,647.77 601.33,638.27 604,621.5C 609.217,610.742 617.884,605.742 630,606.5C 720.05,610.906 792.383,648.906 847,720.5C 854.005,731.552 861.005,742.552 868,753.5C 872.85,765.241 877.85,776.907 883,788.5C 884.178,792.791 885.178,797.124 886,801.5C 886.667,802.167 887.333,802.833 888,803.5C 889.142,809.141 890.142,814.807 891,820.5C 891.915,821.328 892.581,822.328 893,823.5C 893.741,829.219 894.407,834.886 895,840.5C 892.496,852.227 885.329,858.56 873.5,859.5C 867.412,859.872 862.245,857.872 858,853.5C 855.496,850.496 853.496,847.163 852,843.5C 851,837.167 850,830.833 849,824.5C 839.937,793.826 826.271,765.493 808,739.5C 803.904,735.542 800.071,731.542 796.5,727.5 Z"/></g>
<g><path style="opacity:0.004" fill="#d53446" d="M 1133.5,626.5 C 1134.83,627.167 1134.83,627.167 1133.5,626.5 Z"/></g>
<g><path style="opacity:0.129" fill="#77484e" d="M 1340.5,625.5 C 1341.5,625.5 1342.5,625.5 1343.5,625.5C 1343.5,626.5 1343.5,627.5 1343.5,628.5C 1342.17,627.833 1341.17,626.833 1340.5,625.5 Z"/></g>
<g><path style="opacity:0.086" fill="#a33f4a" d="M 1343.5,625.5 C 1345.85,626.916 1345.85,628.583 1343.5,630.5C 1343.5,629.833 1343.5,629.167 1343.5,628.5C 1343.5,627.5 1343.5,626.5 1343.5,625.5 Z"/></g>
<g><path style="opacity:0.004" fill="#d53446" d="M 1138.5,640.5 C 1139.53,640.897 1139.69,641.563 1139,642.5C 1138.54,641.906 1138.37,641.239 1138.5,640.5 Z"/></g>
<g><path style="opacity:0.075" fill="#af3c49" d="M 1346.5,688.5 C 1347.42,691.005 1347.42,693.338 1346.5,695.5C 1346.74,694.209 1346.4,693.209 1345.5,692.5C 1345.5,691.5 1345.5,690.5 1345.5,689.5C 1345.5,688.833 1345.83,688.5 1346.5,688.5 Z"/></g>
<g><path style="opacity:0.145" fill="#7f464d" d="M 1345.5,689.5 C 1345.5,690.5 1345.5,691.5 1345.5,692.5C 1344.83,692.5 1344.17,692.5 1343.5,692.5C 1343.43,690.973 1344.09,689.973 1345.5,689.5 Z"/></g>
<g><path style="opacity:0.084" fill="#6a4b4f" d="M 1343.5,692.5 C 1344.17,692.5 1344.83,692.5 1345.5,692.5C 1346.4,693.209 1346.74,694.209 1346.5,695.5C 1344.83,696.167 1343.17,696.833 1341.5,697.5C 1341.83,695.678 1342.5,694.011 1343.5,692.5 Z"/></g>
<g><path style="opacity:0.016" fill="#a33e4a" d="M 1389.5,693.5 C 1389.57,695.027 1388.91,696.027 1387.5,696.5C 1387.29,694.821 1387.95,693.821 1389.5,693.5 Z"/></g>
<g><path style="opacity:0.872" fill="#d53446" d="M 1102.5,698.5 C 1111.16,697.663 1119.49,698.829 1127.5,702C 1136.26,709.017 1139.09,718.184 1136,729.5C 1133.51,732.99 1130.68,736.157 1127.5,739C 1124.82,739.249 1122.49,740.249 1120.5,742C 1057.82,743.387 1013.32,772.221 987,828.5C 985.03,832.899 984.197,837.565 984.5,842.5C 983.5,842.5 982.5,842.5 981.5,842.5C 981.309,845.983 980.643,849.316 979.5,852.5C 978.448,852.351 977.448,852.517 976.5,853C 974.393,855.227 972.06,857.227 969.5,859C 948.311,861.144 938.811,851.644 941,830.5C 967.68,754.045 1021.51,710.045 1102.5,698.5 Z"/></g>
<g><path style="opacity:0.045" fill="#b93a49" d="M 1346.5,695.5 C 1344.52,698.164 1341.85,699.831 1338.5,700.5C 1339.17,699.167 1340.17,698.167 1341.5,697.5C 1343.17,696.833 1344.83,696.167 1346.5,695.5 Z"/></g>
<g><path style="opacity:0.004" fill="#d53446" d="M 1138.5,718.5 C 1139.6,719.601 1139.76,720.934 1139,722.5C 1138.51,721.207 1138.34,719.873 1138.5,718.5 Z"/></g>
<g><path style="opacity:0.004" fill="#d53446" d="M 796.5,727.5 C 795.833,728.167 795.833,728.167 796.5,727.5 Z"/></g>
<g><path style="opacity:0.004" fill="#d53446" d="M 948.5,742.5 C 949.833,743.167 949.833,743.167 948.5,742.5 Z"/></g>
<g><path style="opacity:0.004" fill="#d53446" d="M 895.5,841.5 C 896.525,841.897 896.692,842.563 896,843.5C 895.536,842.906 895.369,842.239 895.5,841.5 Z"/></g>
<g><path style="opacity:1" fill="#616161" d="M 515.5,968.5 C 519.719,969.22 523.719,970.554 527.5,972.5C 576.507,972.836 625.174,973.836 673.5,975.5C 626.499,975.667 579.499,975.5 532.5,975C 526.339,973.931 520.673,971.764 515.5,968.5 Z"/></g>
<g><path style="opacity:1" fill="#616161" d="M 1481.5,970.5 C 1477.47,972.657 1473.13,974.157 1468.5,975C 1227.5,975.333 986.5,975.667 745.5,976C 741.781,976.388 738.114,977.055 734.5,978C 733.257,979.154 732.257,980.488 731.5,982C 729.866,982.494 728.199,982.66 726.5,982.5C 726.5,982.167 726.5,981.833 726.5,981.5C 730.661,978.384 735.328,976.05 740.5,974.5C 982.833,973.667 1225.17,973.167 1467.5,973C 1472.13,971.848 1476.79,971.015 1481.5,970.5 Z"/></g>
<g><path style="opacity:0.761" fill="#5b5b5b" d="M 653.5,1015.5 C 652.167,1015.83 650.833,1016.17 649.5,1016.5C 649.119,1015.07 648.119,1014.24 646.5,1014C 641.167,1013.33 635.833,1013.33 630.5,1014C 628.881,1014.24 627.881,1015.07 627.5,1016.5C 624.518,1016.04 621.518,1015.7 618.5,1015.5C 614.054,1014.11 609.388,1013.11 604.5,1012.5C 621.49,1011.33 638.49,1011.17 655.5,1012C 655.833,1012.33 656.167,1012.67 656.5,1013C 655.058,1013.38 654.058,1014.21 653.5,1015.5 Z"/></g>
<g><path style="opacity:0.401" fill="#686868" d="M 649.5,1016.5 C 642.167,1016.5 634.833,1016.5 627.5,1016.5C 627.881,1015.07 628.881,1014.24 630.5,1014C 635.833,1013.33 641.167,1013.33 646.5,1014C 648.119,1014.24 649.119,1015.07 649.5,1016.5 Z"/></g>
<g><path style="opacity:0.924" fill="#d53447" d="M 1121.5,1172.5 C 1119.5,1172.5 1118.5,1173.5 1118.5,1175.5C 1117.5,1178.01 1117.5,1180.67 1118.5,1183.5C 1117.97,1186.23 1117.14,1188.9 1116,1191.5C 1113.61,1192.76 1111.78,1194.6 1110.5,1197C 1100.32,1206.34 1089.65,1215.17 1078.5,1223.5C 1075.7,1225.26 1072.86,1226.93 1070,1228.5C 1070.79,1235.14 1070.62,1241.81 1069.5,1248.5C 1070.13,1250.52 1071.13,1250.85 1072.5,1249.5C 1071.58,1262.47 1071.24,1275.47 1071.5,1288.5C 1069.28,1288.18 1067.44,1288.84 1066,1290.5C 1065.33,1307.83 1065.33,1325.17 1066,1342.5C 1066.38,1343.06 1066.88,1343.39 1067.5,1343.5C 1068.21,1344.4 1069.21,1344.74 1070.5,1344.5C 1070.5,1357.5 1070.5,1370.5 1070.5,1383.5C 1070.8,1398.63 1070.47,1413.97 1069.5,1429.5C 1069.96,1430.3 1070.62,1430.63 1071.5,1430.5C 1071.5,1444.5 1071.5,1458.5 1071.5,1472.5C 1070.62,1472.37 1069.96,1472.7 1069.5,1473.5C 1070.83,1489.17 1070.83,1504.83 1069.5,1520.5C 1069.96,1521.3 1070.62,1521.63 1071.5,1521.5C 1071.5,1535.5 1071.5,1549.5 1071.5,1563.5C 1070.62,1563.37 1069.96,1563.7 1069.5,1564.5C 1070.66,1586.46 1070.82,1608.46 1070,1630.5C 1068.42,1637.27 1064.92,1642.94 1059.5,1647.5C 1051.83,1648.83 1044.17,1648.83 1036.5,1647.5C 1034.5,1645.5 1032.5,1643.5 1030.5,1641.5C 1027.08,1636.74 1025.74,1631.41 1026.5,1625.5C 1027.5,1625.59 1028.33,1625.25 1029,1624.5C 1029.33,1622.83 1029.67,1621.17 1030,1619.5C 1030.83,1603.99 1030.66,1588.66 1029.5,1573.5C 1029.5,1570.17 1029.5,1566.83 1029.5,1563.5C 1029.67,1544.16 1029.5,1524.83 1029,1505.5C 1028.95,1503.26 1028.12,1501.59 1026.5,1500.5C 1026.5,1491.17 1026.5,1481.83 1026.5,1472.5C 1026.19,1469.29 1026.52,1466.29 1027.5,1463.5C 1028.4,1462.79 1028.74,1461.79 1028.5,1460.5C 1029.32,1412.5 1029.98,1364.33 1030.5,1316C 1030.5,1306.99 1030.17,1298.16 1029.5,1289.5C 1029.17,1289.5 1028.83,1289.5 1028.5,1289.5C 1028.73,1275.64 1028.07,1261.97 1026.5,1248.5C 1026.5,1242.5 1026.5,1236.5 1026.5,1230.5C 1026.83,1230.5 1027.17,1230.5 1027.5,1230.5C 1029.59,1226.34 1028.25,1224.34 1023.5,1224.5C 1023.03,1223.09 1022.03,1222.43 1020.5,1222.5C 1019.5,1222.5 1018.5,1222.5 1017.5,1222.5C 1005.16,1212.82 993.158,1202.82 981.5,1192.5C 979.848,1190.53 978.681,1188.2 978,1185.5C 977.333,1184.17 976.667,1184.17 976,1185.5C 975.82,1182.04 975.153,1178.71 974,1175.5C 973.5,1149.5 973.333,1123.5 973.5,1097.5C 975.5,1097.5 976.5,1096.5 976.5,1094.5C 978.173,1093.66 979.34,1092.32 980,1090.5C 980.395,1087.79 980.895,1085.13 981.5,1082.5C 981.833,1080.5 982.167,1078.5 982.5,1076.5C 988.309,1069.71 995.642,1065.21 1004.5,1063C 1033.5,1062.33 1062.5,1062.33 1091.5,1063C 1105.75,1066.59 1115.58,1075.09 1121,1088.5C 1121.5,1116.5 1121.67,1144.5 1121.5,1172.5 Z M 1017.5,1105.5 C 1038.51,1105.17 1059.51,1105.5 1080.5,1106.5C 1079.17,1126.7 1079.17,1146.86 1080.5,1167C 1071.16,1174.34 1061.83,1181.67 1052.5,1189C 1049.5,1189.67 1046.5,1189.67 1043.5,1189C 1034.72,1182.19 1026.22,1175.02 1018,1167.5C 1017.5,1146.84 1017.33,1126.17 1017.5,1105.5 Z"/></g>
<g><path style="opacity:0.065" fill="#81464d" d="M 982.5,1076.5 C 982.167,1078.5 981.833,1080.5 981.5,1082.5C 979.922,1085.35 978.588,1088.35 977.5,1091.5C 977.674,1089.14 978.007,1086.81 978.5,1084.5C 978.53,1081.15 979.863,1078.48 982.5,1076.5 Z"/></g>
<g><path style="opacity:0.027" fill="#564f50" d="M 978.5,1084.5 C 978.007,1086.81 977.674,1089.14 977.5,1091.5C 976.89,1092.39 976.557,1093.39 976.5,1094.5C 975.609,1095.11 974.609,1095.44 973.5,1095.5C 975.021,1092.39 975.854,1089.06 976,1085.5C 976.671,1084.75 977.504,1084.41 978.5,1084.5 Z"/></g>
<g><path style="opacity:0.922" fill="#ba3b49" d="M 981.5,1082.5 C 980.895,1085.13 980.395,1087.79 980,1090.5C 979.34,1092.32 978.173,1093.66 976.5,1094.5C 976.557,1093.39 976.89,1092.39 977.5,1091.5C 978.588,1088.35 979.922,1085.35 981.5,1082.5 Z"/></g>
<g><path style="opacity:0.259" fill="#9c414b" d="M 976.5,1094.5 C 976.5,1096.5 975.5,1097.5 973.5,1097.5C 973.5,1096.83 973.5,1096.17 973.5,1095.5C 974.609,1095.44 975.609,1095.11 976.5,1094.5 Z"/></g>
<g><path style="opacity:0.078" fill="#8a454c" d="M 1121.5,1172.5 C 1121.5,1173.17 1121.5,1173.83 1121.5,1174.5C 1119.82,1175.18 1119.16,1176.52 1119.5,1178.5C 1118.6,1177.79 1118.26,1176.79 1118.5,1175.5C 1118.5,1173.5 1119.5,1172.5 1121.5,1172.5 Z"/></g>
<g><path style="opacity:0.263" fill="#5d4e50" d="M 1121.5,1174.5 C 1121.5,1176.5 1121.5,1178.5 1121.5,1180.5C 1120.17,1180.5 1119.5,1179.83 1119.5,1178.5C 1119.16,1176.52 1119.82,1175.18 1121.5,1174.5 Z"/></g>
<g><path style="opacity:0.557" fill="#b43c49" d="M 1118.5,1175.5 C 1118.26,1176.79 1118.6,1177.79 1119.5,1178.5C 1119.5,1179.83 1120.17,1180.5 1121.5,1180.5C 1121.19,1182.14 1120.19,1183.14 1118.5,1183.5C 1117.5,1180.67 1117.5,1178.01 1118.5,1175.5 Z"/></g>
<g><path style="opacity:0.004" fill="#d53446" d="M 981.5,1192.5 C 980.833,1193.17 980.833,1193.17 981.5,1192.5 Z"/></g>
<g><path style="opacity:0.463" fill="#95424c" d="M 1020.5,1222.5 C 1022.03,1222.43 1023.03,1223.09 1023.5,1224.5C 1021.97,1224.57 1020.97,1223.91 1020.5,1222.5 Z"/></g>
<g><path style="opacity:0.016" fill="#624d4f" d="M 1017.5,1222.5 C 1018.5,1222.5 1019.5,1222.5 1020.5,1222.5C 1020.97,1223.91 1021.97,1224.57 1023.5,1224.5C 1026.73,1225.09 1028.07,1227.09 1027.5,1230.5C 1027.17,1230.5 1026.83,1230.5 1026.5,1230.5C 1026.72,1229.32 1026.39,1228.32 1025.5,1227.5C 1022.13,1226.82 1019.46,1225.15 1017.5,1222.5 Z"/></g>
<g><path style="opacity:0.257" fill="#b03d49" d="M 1023.5,1224.5 C 1028.25,1224.34 1029.59,1226.34 1027.5,1230.5C 1028.07,1227.09 1026.73,1225.09 1023.5,1224.5 Z"/></g>
<g><path style="opacity:0.879" fill="#505150" d="M 486.5,1249.5 C 549.501,1249.33 612.501,1249.5 675.5,1250C 687.498,1249.95 697.332,1254.45 705,1263.5C 708.093,1267.59 710.76,1271.92 713,1276.5C 715,1303.17 715,1329.83 713,1356.5C 707.216,1369.96 697.383,1378.79 683.5,1383C 615.167,1383.67 546.833,1383.67 478.5,1383C 465.101,1378.56 455.268,1370.06 449,1357.5C 447.011,1330.5 447.011,1303.5 449,1276.5C 456.372,1260.28 468.872,1251.28 486.5,1249.5 Z M 490.5,1292.5 C 550.833,1292.5 611.167,1292.5 671.5,1292.5C 671.667,1308.5 671.5,1324.5 671,1340.5C 611,1339.17 551,1339.17 491,1340.5C 490.5,1324.5 490.333,1308.5 490.5,1292.5 Z"/></g>
<g><path style="opacity:0.924" fill="#515151" d="M 1026.5,1250.5 C 1026.93,1263.5 1027.26,1276.5 1027.5,1289.5C 959.5,1289.5 891.5,1289.5 823.5,1289.5C 823.5,1307.5 823.5,1325.5 823.5,1343.5C 891.571,1343.83 959.571,1343.5 1027.5,1342.5C 1027.83,1357.01 1027.5,1371.34 1026.5,1385.5C 956.171,1383.83 885.505,1382.83 814.5,1382.5C 799.094,1377.82 789.094,1367.82 784.5,1352.5C 783.334,1328.84 783.167,1305.17 784,1281.5C 786.844,1271.68 792.344,1263.51 800.5,1257C 804.292,1254.06 808.625,1252.06 813.5,1251C 850.144,1249.86 886.811,1249.36 923.5,1249.5C 957.874,1249.51 992.208,1249.84 1026.5,1250.5 Z"/></g>
<g><path style="opacity:0.928" fill="#505050" d="M 1074.5,1249.5 C 1224.19,1249.01 1373.85,1249.51 1523.5,1251C 1535.09,1254.77 1543.76,1261.93 1549.5,1272.5C 1554.02,1286.85 1555.69,1301.69 1554.5,1317C 1555.21,1331.89 1553.55,1346.39 1549.5,1360.5C 1543.63,1372.2 1534.29,1379.7 1521.5,1383C 1372.17,1383.5 1222.83,1383.67 1073.5,1383.5C 1073.17,1370.48 1073.5,1357.48 1074.5,1344.5C 1162.79,1345.66 1251.13,1345.83 1339.5,1345C 1341.48,1326.4 1342.15,1307.57 1341.5,1288.5C 1252.33,1288.17 1163.33,1288.5 1074.5,1289.5C 1074.17,1289.5 1073.83,1289.5 1073.5,1289.5C 1073.36,1276.15 1073.69,1262.82 1074.5,1249.5 Z"/></g>
<g><path style="opacity:1" fill="#91434c" d="M 1026.5,1248.5 C 1028.07,1261.97 1028.73,1275.64 1028.5,1289.5C 1028.17,1289.5 1027.83,1289.5 1027.5,1289.5C 1027.26,1276.5 1026.93,1263.5 1026.5,1250.5C 1026.5,1249.83 1026.5,1249.17 1026.5,1248.5 Z"/></g>
<g><path style="opacity:1" fill="#81474d" d="M 1073.5,1249.5 C 1073.83,1249.5 1074.17,1249.5 1074.5,1249.5C 1073.69,1262.82 1073.36,1276.15 1073.5,1289.5C 1073.17,1289.5 1072.83,1289.5 1072.5,1289.5C 1072.26,1276.14 1072.6,1262.81 1073.5,1249.5 Z"/></g>
<g><path style="opacity:1" fill="#565454" d="M 1074.5,1289.5 C 1163.33,1288.5 1252.33,1288.17 1341.5,1288.5C 1342.15,1307.57 1341.48,1326.4 1339.5,1345C 1251.13,1345.83 1162.79,1345.66 1074.5,1344.5C 1073.5,1357.48 1073.17,1370.48 1073.5,1383.5C 1073.17,1383.5 1072.83,1383.5 1072.5,1383.5C 1072.5,1369.83 1072.5,1356.17 1072.5,1342.5C 1161.6,1343.83 1250.6,1343.83 1339.5,1342.5C 1340.83,1325.1 1340.83,1307.6 1339.5,1290C 1251.17,1289.5 1162.83,1289.33 1074.5,1289.5 Z"/></g>
<g><path style="opacity:1" fill="#565656" d="M 1375.5,1288.5 C 1421.84,1288.17 1468.17,1288.5 1514.5,1289.5C 1515.65,1307.46 1515.82,1325.46 1515,1343.5C 1514.25,1344.13 1513.42,1344.63 1512.5,1345C 1467.5,1345.67 1422.5,1345.67 1377.5,1345C 1376.58,1344.63 1375.75,1344.13 1375,1343.5C 1374.19,1325.12 1374.36,1306.79 1375.5,1288.5 Z"/></g>
<g><path style="opacity:1" fill="#5c5c5c" d="M 1073.5,1289.5 C 1073.83,1289.5 1074.17,1289.5 1074.5,1289.5C 1162.83,1289.33 1251.17,1289.5 1339.5,1290C 1340.83,1307.6 1340.83,1325.1 1339.5,1342.5C 1339.83,1325.66 1339.5,1308.99 1338.5,1292.5C 1338.39,1291.88 1338.06,1291.38 1337.5,1291C 1249.33,1290.83 1161.33,1290.33 1073.5,1289.5 Z"/></g>
<g><path style="opacity:1" fill="#626262" d="M 1027.5,1289.5 C 1027.5,1290.17 1027.5,1290.83 1027.5,1291.5C 959.833,1291.5 892.167,1291.5 824.5,1291.5C 825.131,1308.04 825.797,1324.54 826.5,1341C 893.57,1341.83 960.57,1341.66 1027.5,1340.5C 1027.5,1340.83 1027.5,1341.17 1027.5,1341.5C 1027.5,1341.83 1027.5,1342.17 1027.5,1342.5C 959.571,1343.5 891.571,1343.83 823.5,1343.5C 823.5,1325.5 823.5,1307.5 823.5,1289.5C 891.5,1289.5 959.5,1289.5 1027.5,1289.5 Z"/></g>
<g><path style="opacity:1" fill="#6e6e6e" d="M 1027.5,1291.5 C 1027.5,1307.83 1027.5,1324.17 1027.5,1340.5C 960.57,1341.66 893.57,1341.83 826.5,1341C 825.797,1324.54 825.131,1308.04 824.5,1291.5C 892.167,1291.5 959.833,1291.5 1027.5,1291.5 Z"/></g>
<g><path style="opacity:1" fill="#6e6e6e" d="M 1072.5,1289.5 C 1072.83,1289.5 1073.17,1289.5 1073.5,1289.5C 1161.33,1290.33 1249.33,1290.83 1337.5,1291C 1338.06,1291.38 1338.39,1291.88 1338.5,1292.5C 1338.67,1308.17 1338.5,1323.84 1338,1339.5C 1337.5,1340 1337,1340.5 1336.5,1341C 1248.33,1341.17 1160.33,1341.67 1072.5,1342.5C 1072.17,1342.5 1071.83,1342.5 1071.5,1342.5C 1070.83,1341.73 1069.99,1341.07 1069,1340.5C 1068.5,1324.17 1068.33,1307.84 1068.5,1291.5C 1069.79,1291.74 1070.79,1291.4 1071.5,1290.5C 1072.17,1290.5 1072.5,1290.17 1072.5,1289.5 Z"/></g>
<g><path style="opacity:1" fill="#855f62" d="M 1027.5,1289.5 C 1027.83,1289.5 1028.17,1289.5 1028.5,1289.5C 1028.83,1289.5 1029.17,1289.5 1029.5,1289.5C 1029.83,1307.01 1029.5,1324.34 1028.5,1341.5C 1028.17,1341.5 1027.83,1341.5 1027.5,1341.5C 1027.5,1341.17 1027.5,1340.83 1027.5,1340.5C 1027.5,1324.17 1027.5,1307.83 1027.5,1291.5C 1027.5,1290.83 1027.5,1290.17 1027.5,1289.5 Z"/></g>
<g><path style="opacity:1" fill="#886064" d="M 1071.5,1290.5 C 1070.79,1291.4 1069.79,1291.74 1068.5,1291.5C 1068.33,1307.84 1068.5,1324.17 1069,1340.5C 1069.99,1341.07 1070.83,1341.73 1071.5,1342.5C 1070.17,1342.5 1068.83,1342.5 1067.5,1342.5C 1067.5,1325.17 1067.5,1307.83 1067.5,1290.5C 1068.83,1290.5 1070.17,1290.5 1071.5,1290.5 Z"/></g>
<g><path style="opacity:1" fill="#636363" d="M 1338.5,1292.5 C 1339.5,1308.99 1339.83,1325.66 1339.5,1342.5C 1250.6,1343.83 1161.6,1343.83 1072.5,1342.5C 1160.33,1341.67 1248.33,1341.17 1336.5,1341C 1337,1340.5 1337.5,1340 1338,1339.5C 1338.5,1323.84 1338.67,1308.17 1338.5,1292.5 Z"/></g>
<g><path style="opacity:1" fill="#b74450" d="M 1072.5,1249.5 C 1072.83,1249.5 1073.17,1249.5 1073.5,1249.5C 1072.6,1262.81 1072.26,1276.14 1072.5,1289.5C 1072.5,1290.17 1072.17,1290.5 1071.5,1290.5C 1070.17,1290.5 1068.83,1290.5 1067.5,1290.5C 1067.5,1307.83 1067.5,1325.17 1067.5,1342.5C 1067.5,1342.83 1067.5,1343.17 1067.5,1343.5C 1066.88,1343.39 1066.38,1343.06 1066,1342.5C 1065.33,1325.17 1065.33,1307.83 1066,1290.5C 1067.44,1288.84 1069.28,1288.18 1071.5,1288.5C 1071.24,1275.47 1071.58,1262.47 1072.5,1249.5 Z"/></g>
<g><path style="opacity:1" fill="#5e5e5e" d="M 1377.5,1290.5 C 1377.17,1307.34 1377.5,1324.01 1378.5,1340.5C 1422.82,1342.49 1467.49,1343.16 1512.5,1342.5C 1512.5,1325.17 1512.5,1307.83 1512.5,1290.5C 1513.5,1307.99 1513.83,1325.66 1513.5,1343.5C 1468.17,1343.67 1422.83,1343.5 1377.5,1343C 1376.17,1325.4 1376.17,1307.9 1377.5,1290.5 Z"/></g>
<g><path style="opacity:1" fill="#666666" d="M 1377.5,1290.5 C 1422.5,1290.5 1467.5,1290.5 1512.5,1290.5C 1512.5,1307.83 1512.5,1325.17 1512.5,1342.5C 1467.49,1343.16 1422.82,1342.49 1378.5,1340.5C 1377.5,1324.01 1377.17,1307.34 1377.5,1290.5 Z"/></g>
<g><path style="opacity:1" fill="#6e6e6e" d="M 1378.5,1340.5 C 1378.18,1324.26 1378.51,1308.09 1379.5,1292C 1423.5,1291.5 1467.5,1291.33 1511.5,1291.5C 1511.5,1308.17 1511.5,1324.83 1511.5,1341.5C 1467.09,1341.83 1422.76,1341.49 1378.5,1340.5 Z"/></g>
<g><path style="opacity:0.943" fill="#bd3b4a" d="M 1029.5,1289.5 C 1030.17,1298.16 1030.5,1306.99 1030.5,1316C 1029.98,1364.33 1029.32,1412.5 1028.5,1460.5C 1028.5,1420.83 1028.5,1381.17 1028.5,1341.5C 1029.5,1324.34 1029.83,1307.01 1029.5,1289.5 Z"/></g>
<g><path style="opacity:0.988" fill="#c83748" d="M 1067.5,1343.5 C 1068.83,1343.5 1070.17,1343.5 1071.5,1343.5C 1071.5,1356.83 1071.5,1370.17 1071.5,1383.5C 1071.17,1383.5 1070.83,1383.5 1070.5,1383.5C 1070.5,1370.5 1070.5,1357.5 1070.5,1344.5C 1069.21,1344.74 1068.21,1344.4 1067.5,1343.5 Z"/></g>
<g><path style="opacity:0.908" fill="#a1404b" d="M 1067.5,1343.5 C 1067.5,1343.17 1067.5,1342.83 1067.5,1342.5C 1068.83,1342.5 1070.17,1342.5 1071.5,1342.5C 1071.83,1342.5 1072.17,1342.5 1072.5,1342.5C 1072.5,1356.17 1072.5,1369.83 1072.5,1383.5C 1072.17,1383.5 1071.83,1383.5 1071.5,1383.5C 1071.5,1370.17 1071.5,1356.83 1071.5,1343.5C 1070.17,1343.5 1068.83,1343.5 1067.5,1343.5 Z"/></g>
<g><path style="opacity:0.123" fill="#a23f4a" d="M 1027.5,1341.5 C 1027.83,1341.5 1028.17,1341.5 1028.5,1341.5C 1028.5,1381.17 1028.5,1420.83 1028.5,1460.5C 1028.74,1461.79 1028.4,1462.79 1027.5,1463.5C 1027.5,1452.5 1027.5,1441.5 1027.5,1430.5C 1026.52,1415.58 1026.18,1400.58 1026.5,1385.5C 1027.5,1371.34 1027.83,1357.01 1027.5,1342.5C 1027.5,1342.17 1027.5,1341.83 1027.5,1341.5 Z"/></g>
<g><path style="opacity:0.93" fill="#515151" d="M 477.5,1430.5 C 546.501,1430.33 615.501,1430.5 684.5,1431C 697.515,1435.52 706.848,1444.02 712.5,1456.5C 714.999,1483.14 715.166,1509.8 713,1536.5C 707.702,1549.8 698.202,1558.63 684.5,1563C 615.164,1563.83 545.831,1563.67 476.5,1562.5C 463.707,1558.21 454.54,1549.88 449,1537.5C 447,1510.5 447,1483.5 449,1456.5C 455.243,1444.08 464.743,1435.42 477.5,1430.5 Z"/></g>
<g><path style="opacity:0.899" fill="#515050" d="M 1027.5,1430.5 C 1027.5,1441.5 1027.5,1452.5 1027.5,1463.5C 1026.52,1466.29 1026.19,1469.29 1026.5,1472.5C 959.83,1472.17 893.163,1472.5 826.5,1473.5C 827.833,1489.17 827.833,1504.83 826.5,1520.5C 893.332,1521.83 959.999,1521.83 1026.5,1520.5C 1026.83,1520.5 1027.17,1520.5 1027.5,1520.5C 1027.83,1535.68 1027.5,1550.68 1026.5,1565.5C 955.84,1563.67 884.84,1562.84 813.5,1563C 798.534,1557.7 788.701,1547.54 784,1532.5C 783.333,1508.83 783.333,1485.17 784,1461.5C 788.743,1446.09 798.91,1435.92 814.5,1431C 885.499,1430.5 956.499,1430.33 1027.5,1430.5 Z"/></g>
<g><path style="opacity:0.903" fill="#515050" d="M 1073.5,1430.5 C 1223.17,1430.33 1372.83,1430.5 1522.5,1431C 1540.6,1436.56 1550.94,1448.4 1553.5,1466.5C 1554.83,1486.83 1554.83,1507.17 1553.5,1527.5C 1550.73,1545.49 1540.73,1557.33 1523.5,1563C 1372.83,1563.5 1222.17,1563.67 1071.5,1563.5C 1071.5,1549.5 1071.5,1535.5 1071.5,1521.5C 1121.98,1522 1172.31,1521.5 1222.5,1520C 1221.52,1504.2 1221.19,1488.54 1221.5,1473C 1172.17,1472.5 1122.83,1472.33 1073.5,1472.5C 1073.5,1458.5 1073.5,1444.5 1073.5,1430.5 Z M 1265.5,1472.5 C 1347.17,1472.5 1428.83,1472.5 1510.5,1472.5C 1510.5,1488.83 1510.5,1505.17 1510.5,1521.5C 1428.83,1521.5 1347.17,1521.5 1265.5,1521.5C 1265.5,1505.17 1265.5,1488.83 1265.5,1472.5 Z"/></g>
<g><path style="opacity:0.911" fill="#744a4e" d="M 1071.5,1430.5 C 1072.17,1430.5 1072.83,1430.5 1073.5,1430.5C 1073.5,1444.5 1073.5,1458.5 1073.5,1472.5C 1072.83,1472.5 1072.17,1472.5 1071.5,1472.5C 1071.5,1458.5 1071.5,1444.5 1071.5,1430.5 Z"/></g>
<g><path style="opacity:0.004" fill="#505150" d="M 715.5,1465.5 C 716.525,1465.9 716.692,1466.56 716,1467.5C 715.536,1466.91 715.369,1466.24 715.5,1465.5 Z"/></g>
<g><path style="opacity:1" fill="#6e6e6e" d="M 490.5,1471.5 C 551.167,1471.5 611.833,1471.5 672.5,1471.5C 672.5,1488.5 672.5,1505.5 672.5,1522.5C 611.5,1522.5 550.5,1522.5 489.5,1522.5C 488.834,1514.17 488.5,1505.67 488.5,1497C 488.502,1488.14 489.169,1479.64 490.5,1471.5 Z"/></g>
<g><path style="opacity:0.748" fill="#c33848" d="M 1026.5,1500.5 C 1028.12,1501.59 1028.95,1503.26 1029,1505.5C 1029.5,1524.83 1029.67,1544.16 1029.5,1563.5C 1028.83,1549.17 1028.17,1534.83 1027.5,1520.5C 1027.17,1520.5 1026.83,1520.5 1026.5,1520.5C 1026.5,1513.83 1026.5,1507.17 1026.5,1500.5 Z"/></g>
<g><path style="opacity:1" fill="#646464" d="M 490.5,1471.5 C 551.331,1470.5 612.331,1470.17 673.5,1470.5C 674.833,1488.17 674.833,1505.83 673.5,1523.5C 611.998,1523.83 550.664,1523.5 489.5,1522.5C 550.5,1522.5 611.5,1522.5 672.5,1522.5C 672.5,1505.5 672.5,1488.5 672.5,1471.5C 611.833,1471.5 551.167,1471.5 490.5,1471.5 Z"/></g>
<g><path style="opacity:1" fill="#5a5a5a" d="M 673.5,1470.5 C 612.331,1470.17 551.331,1470.5 490.5,1471.5C 489.169,1479.64 488.502,1488.14 488.5,1497C 488.5,1505.67 488.834,1514.17 489.5,1522.5C 550.664,1523.5 611.998,1523.83 673.5,1523.5C 612.001,1524.67 550.335,1524.83 488.5,1524C 487.84,1515.08 487.507,1506.08 487.5,1497C 487.515,1487.77 488.181,1478.77 489.5,1470C 551.001,1469.17 612.335,1469.33 673.5,1470.5 Z"/></g>
<g><path style="opacity:0.004" fill="#505150" d="M 715.5,1526.5 C 716.525,1526.9 716.692,1527.56 716,1528.5C 715.536,1527.91 715.369,1527.24 715.5,1526.5 Z"/></g>
<g><path style="opacity:0.784" fill="#87454c" d="M 1027.5,1520.5 C 1028.17,1534.83 1028.83,1549.17 1029.5,1563.5C 1029.5,1566.83 1029.5,1570.17 1029.5,1573.5C 1029.5,1576.83 1029.5,1580.17 1029.5,1583.5C 1029.17,1583.5 1028.83,1583.5 1028.5,1583.5C 1029.04,1580.3 1028.37,1577.64 1026.5,1575.5C 1026.5,1572.17 1026.5,1568.83 1026.5,1565.5C 1027.5,1550.68 1027.83,1535.68 1027.5,1520.5 Z"/></g>
<g><path style="opacity:0.123" fill="#5a4f4f" d="M 1026.5,1575.5 C 1028.37,1577.64 1029.04,1580.3 1028.5,1583.5C 1029.14,1594.22 1028.48,1604.55 1026.5,1614.5C 1026.5,1601.5 1026.5,1588.5 1026.5,1575.5 Z"/></g>
<g><path style="opacity:0.494" fill="#7d474d" d="M 1028.5,1583.5 C 1028.83,1583.5 1029.17,1583.5 1029.5,1583.5C 1029.5,1595.17 1029.5,1606.83 1029.5,1618.5C 1028.5,1618.5 1027.5,1618.5 1026.5,1618.5C 1026.5,1617.17 1026.5,1615.83 1026.5,1614.5C 1028.48,1604.55 1029.14,1594.22 1028.5,1583.5 Z"/></g>
<g><path style="opacity:0.248" fill="#bb3a49" d="M 1029.5,1573.5 C 1030.66,1588.66 1030.83,1603.99 1030,1619.5C 1029.67,1621.17 1029.33,1622.83 1029,1624.5C 1028.33,1625.25 1027.5,1625.59 1026.5,1625.5C 1026.5,1623.17 1026.5,1620.83 1026.5,1618.5C 1027.5,1618.5 1028.5,1618.5 1029.5,1618.5C 1029.5,1606.83 1029.5,1595.17 1029.5,1583.5C 1029.5,1580.17 1029.5,1576.83 1029.5,1573.5 Z"/></g>
<g><path style="opacity:0.004" fill="#ba3949" d="M 1070.5,1631.5 C 1071.53,1631.9 1071.69,1632.56 1071,1633.5C 1070.54,1632.91 1070.37,1632.24 1070.5,1631.5 Z"/></g>
</svg>
