<?xml version="1.0" encoding="UTF-8"?>
<!DOCTYPE svg PUBLIC "-//W3C//DTD SVG 1.1//EN" "http://www.w3.org/Graphics/SVG/1.1/DTD/svg11.dtd">
<svg xmlns="http://www.w3.org/2000/svg" version="1.1" width="2000px" height="2000px" style="shape-rendering:geometricPrecision; text-rendering:geometricPrecision; image-rendering:optimizeQuality; fill-rule:evenodd; clip-rule:evenodd" xmlns:xlink="http://www.w3.org/1999/xlink">
<g><path style="opacity:0.899" fill="#515151" d="M 1028.5,1232.5 C 1027.88,1232.39 1027.38,1232.06 1027,1231.5C 1022.91,1234.92 1019.58,1238.92 1017,1243.5C 1009.19,1249.14 1003.02,1256.14 998.5,1264.5C 998.747,1265.71 999.414,1266.38 1000.5,1266.5C 1020.63,1292.28 1029.63,1321.62 1027.5,1354.5C 1027.56,1355.74 1028.06,1356.74 1029,1357.5C 1058.78,1356.19 1088.61,1356.35 1118.5,1358C 1179.28,1372.45 1217.12,1409.95 1232,1470.5C 1234.66,1493.9 1233,1516.9 1227,1539.5C 1222.04,1550.4 1216.71,1561.06 1211,1571.5C 1203.84,1580.32 1196.34,1588.82 1188.5,1597C 1176.22,1607.27 1162.89,1615.94 1148.5,1623C 1141.79,1625.88 1134.79,1627.88 1127.5,1629C 1125.67,1629.75 1124,1630.75 1122.5,1632C 1072.83,1632.67 1023.17,1632.67 973.5,1632C 968.952,1628.95 965.285,1625.12 962.5,1620.5C 958.621,1604.07 964.621,1593.57 980.5,1589C 1023.5,1588.67 1066.5,1588.33 1109.5,1588C 1158.57,1576.57 1185.24,1545.57 1189.5,1495C 1184.51,1440.38 1154.84,1409.05 1100.5,1401C 1023.17,1400.67 945.833,1400.33 868.5,1400C 854.444,1393.67 850.11,1383.17 855.5,1368.5C 860.658,1361.16 867.658,1357 876.5,1356C 912.519,1355.2 948.519,1355.37 984.5,1356.5C 984.916,1338.91 981.416,1322.25 974,1306.5C 970.952,1302.39 968.452,1298.06 966.5,1293.5C 965.127,1293.34 963.793,1293.51 962.5,1294C 912.534,1326.69 857.368,1342.53 797,1341.5C 784.183,1340.73 771.35,1340.23 758.5,1340C 723.657,1335.37 689.657,1327.7 656.5,1317C 648.182,1314.24 640.182,1310.57 632.5,1306C 627.97,1301.27 625.637,1295.6 625.5,1289C 626.141,1283.31 627.474,1277.81 629.5,1272.5C 631.374,1266.91 633.707,1261.41 636.5,1256C 578.833,1255.33 521.167,1255.33 463.5,1256C 453.977,1256.22 444.644,1257.55 435.5,1260C 394.788,1275.76 373.122,1305.42 370.5,1349C 374.118,1396.29 398.452,1426.96 443.5,1441C 450.218,1441.23 456.885,1441.89 463.5,1443C 560.833,1443.33 658.167,1443.67 755.5,1444C 773.058,1452.83 776.224,1465.33 765,1481.5C 762.079,1483.71 758.912,1485.55 755.5,1487C 695.5,1487.33 635.5,1487.67 575.5,1488C 575.336,1532.85 595.669,1564.52 636.5,1583C 642.848,1584.56 649.181,1586.23 655.5,1588C 741.167,1588.33 826.833,1588.67 912.5,1589C 916.469,1589.93 920.135,1591.6 923.5,1594C 935.46,1608.38 933.793,1621.05 918.5,1632C 826.5,1632.67 734.5,1632.67 642.5,1632C 591.348,1617.98 556.181,1586.15 537,1536.5C 535.529,1528.84 533.862,1521.17 532,1513.5C 531.5,1504.84 531.334,1496.17 531.5,1487.5C 503.165,1487.67 474.831,1487.5 446.5,1487C 418.171,1482.1 393.171,1470.1 371.5,1451C 333.425,1413.29 319.258,1367.79 329,1314.5C 329.333,1314.83 329.667,1315.17 330,1315.5C 348.728,1257.46 388.228,1222.62 448.5,1211C 517.166,1210.5 585.833,1210.33 654.5,1210.5C 684.606,1140.84 723.772,1076.51 772,1017.5C 815.047,974.377 866.88,957.544 927.5,967C 941.05,946.065 955.217,925.565 970,905.5C 1036.31,819.498 1108.14,737.998 1185.5,661C 1190.06,658.105 1195.06,656.272 1200.5,655.5C 1211.06,656.857 1218.23,662.524 1222,672.5C 1222.73,677.239 1222.39,681.905 1221,686.5C 1218.97,689.029 1217.14,691.696 1215.5,694.5C 1165.38,744.283 1117.38,795.95 1071.5,849.5C 1109.82,888.32 1148.32,926.986 1187,965.5C 1209.18,945.656 1231.68,926.156 1254.5,907C 1275.14,886.69 1296.14,866.69 1317.5,847C 1368.31,795.855 1417.47,743.021 1465,688.5C 1485.67,662.5 1506.33,636.5 1527,610.5C 1549.24,579.429 1570.58,547.762 1591,515.5C 1595.82,506.041 1600.82,496.707 1606,487.5C 1617.26,465.881 1625.1,443.047 1629.5,419C 1628.74,416.144 1627.91,413.311 1627,410.5C 1624.25,408.21 1621.08,407.21 1617.5,407.5C 1608.47,409.417 1599.47,411.25 1590.5,413C 1564.57,422.962 1539.57,435.129 1515.5,449.5C 1499.45,460.52 1483.12,471.02 1466.5,481C 1402.6,526.881 1341.6,576.548 1283.5,630C 1277.66,634.995 1270.99,638.495 1263.5,640.5C 1247.57,637.098 1240.4,627.431 1242,611.5C 1243.48,607.868 1245.48,604.534 1248,601.5C 1310.21,544.984 1375.37,492.151 1443.5,443C 1476.28,420.759 1510.28,400.759 1545.5,383C 1560.09,377.034 1574.76,371.701 1589.5,367C 1607.18,366.167 1624.84,366.334 1642.5,367.5C 1647.97,370.739 1653.3,374.239 1658.5,378C 1662.81,383.148 1666.48,388.648 1669.5,394.5C 1670.83,413.167 1670.83,431.833 1669.5,450.5C 1666.23,457.419 1663.73,464.752 1662,472.5C 1658.05,480.726 1654.39,489.059 1651,497.5C 1630.2,537.261 1606.7,575.594 1580.5,612.5C 1552.65,649.862 1523.81,686.529 1494,722.5C 1404.12,826.714 1306.62,923.214 1201.5,1012C 1157.26,1048.59 1111.09,1082.43 1063,1113.5C 1066.6,1154.79 1057.1,1192.46 1034.5,1226.5C 1032.81,1228.85 1030.81,1230.85 1028.5,1232.5 Z M 1042.5,884.5 C 1079.15,920.812 1115.81,957.146 1152.5,993.5C 1136.05,1006.9 1119.39,1020.06 1102.5,1033C 1084.9,1045.05 1067.4,1057.21 1050,1069.5C 1033.59,1031.4 1007.09,1002.4 970.5,982.5C 993.326,949.002 1017.33,916.335 1042.5,884.5 Z"/></g>
<g><path style="opacity:0.889" fill="#d53446" d="M 807.5,418.5 C 818.868,417.601 827.702,421.934 834,431.5C 841.966,446.814 849.966,462.147 858,477.5C 866.2,490.744 874.034,504.244 881.5,518C 910.941,534.017 940.274,550.017 969.5,566C 981.44,577.74 981.44,589.407 969.5,601C 939.812,617.669 910.146,634.003 880.5,650C 864.754,679.262 848.754,708.428 832.5,737.5C 824.002,749.144 813.336,751.644 800.5,745C 798.333,742.833 796.167,740.667 794,738.5C 779.667,711.833 765.333,685.167 751,658.5C 749.204,655.073 747.037,651.906 744.5,649C 715.002,633.579 685.669,617.579 656.5,601C 654.333,598.833 652.167,596.667 650,594.5C 649.593,590.716 648.759,587.049 647.5,583.5C 648.759,579.951 649.593,576.284 650,572.5C 652.843,569.325 656.01,566.491 659.5,564C 688.758,548.281 717.925,532.114 747,515.5C 762.806,485.026 779.473,455.026 797,425.5C 800.341,422.759 803.841,420.426 807.5,418.5 Z M 812.5,487.5 C 823.649,506.457 834.316,525.79 844.5,545.5C 848.627,549.729 853.293,553.229 858.5,556C 875.483,565.159 892.483,574.325 909.5,583.5C 892.646,592.95 875.646,602.117 858.5,611C 854.407,613.419 850.573,616.252 847,619.5C 835.216,639.609 823.883,659.942 813,680.5C 802.941,659.997 791.941,639.997 780,620.5C 776.247,616.716 772.081,613.549 767.5,611C 750.348,602.116 733.348,592.949 716.5,583.5C 736.257,572.958 755.924,562.125 775.5,551C 778.704,548.131 781.537,544.965 784,541.5C 793.386,523.324 802.886,505.324 812.5,487.5 Z"/></g>
<g><path style="opacity:0.893" fill="#d53447" d="M 382.5,697.5 C 384.898,697.741 386.898,697.074 388.5,695.5C 389.5,695.5 390.5,695.5 391.5,695.5C 391.5,692.167 391.5,688.833 391.5,685.5C 409.476,674.842 427.81,664.675 446.5,655C 454.332,640.535 462.499,626.368 471,612.5C 474.361,600.475 481.861,592.308 493.5,588C 503.039,587.096 510.539,590.596 516,598.5C 526.89,617.226 537.39,636.059 547.5,655C 564.469,663.995 581.469,672.995 598.5,682C 612.483,690.591 615.65,702.091 608,716.5C 606.167,718.333 604.333,720.167 602.5,722C 584.657,732.228 566.657,741.895 548.5,751C 546.3,753.234 544.467,755.734 543,758.5C 533.88,775.437 524.547,792.437 515,809.5C 503.626,821.081 491.959,821.414 480,810.5C 468.98,790.852 457.813,771.186 446.5,751.5C 431.036,743.525 415.702,735.358 400.5,727C 394.744,724.031 389.578,720.197 385,715.5C 382.304,709.673 381.471,703.673 382.5,697.5 Z M 496.5,656.5 C 502.342,665.976 508.008,675.642 513.5,685.5C 523.278,691.961 533.278,697.961 543.5,703.5C 533.18,708.943 523.18,714.943 513.5,721.5C 512.187,723.968 510.521,726.135 508.5,728C 504.676,735.449 500.843,742.949 497,750.5C 492.865,741.074 487.865,731.74 482,722.5C 479.78,719.979 477.28,717.812 474.5,716C 466.012,712.547 458.012,708.214 450.5,703C 458.406,697.915 466.74,693.582 475.5,690C 477.683,687.65 480.016,685.483 482.5,683.5C 487.93,674.861 492.597,665.861 496.5,656.5 Z"/></g>
<g><path style="opacity:0.081" fill="#555050" d="M 390.5,686.5 C 391.036,689.698 390.369,692.365 388.5,694.5C 387.041,694.567 385.708,694.234 384.5,693.5C 384.351,692.448 384.517,691.448 385,690.5C 386.992,689.335 388.825,688.002 390.5,686.5 Z"/></g>
<g><path style="opacity:0.118" fill="#76494e" d="M 384.5,693.5 C 385.708,694.234 387.041,694.567 388.5,694.5C 388.5,694.833 388.5,695.167 388.5,695.5C 386.435,695.517 384.435,695.85 382.5,696.5C 383.167,695.5 383.833,694.5 384.5,693.5 Z"/></g>
<g><path style="opacity:1" fill="#a3404a" d="M 391.5,685.5 C 391.5,688.833 391.5,692.167 391.5,695.5C 390.5,695.5 389.5,695.5 388.5,695.5C 388.5,695.167 388.5,694.833 388.5,694.5C 390.369,692.365 391.036,689.698 390.5,686.5C 390.5,685.833 390.833,685.5 391.5,685.5 Z"/></g>
<g><path style="opacity:0.588" fill="#bc3a49" d="M 388.5,695.5 C 386.898,697.074 384.898,697.741 382.5,697.5C 382.5,697.167 382.5,696.833 382.5,696.5C 384.435,695.85 386.435,695.517 388.5,695.5 Z"/></g>
<g><path style="opacity:0.893" fill="#d63347" d="M 562.5,888.5 C 562.986,880.842 563.32,873.175 563.5,865.5C 566.996,861.07 571.33,857.57 576.5,855C 595.032,845.492 613.366,835.492 631.5,825C 643.511,804.544 655.011,783.711 666,762.5C 674.641,751.8 685.141,749.634 697.5,756C 700.045,758.376 702.378,760.876 704.5,763.5C 715.902,784.112 726.902,804.778 737.5,825.5C 759.17,836.328 780.504,847.828 801.5,860C 811.545,869.159 813.211,879.659 806.5,891.5C 804.676,893.489 802.676,895.323 800.5,897C 778.825,908.028 757.658,919.861 737,932.5C 726.017,952.726 715.017,973.059 704,993.5C 699.002,1000.16 692.335,1003.82 684,1004.5C 681.404,1002.98 678.571,1002.15 675.5,1002C 672.72,1000.19 670.22,998.021 668,995.5C 663.337,988.674 659.004,981.674 655,974.5C 648.712,962.193 642.379,949.86 636,937.5C 634.439,934.217 632.273,931.383 629.5,929C 609.261,918.704 589.261,908.038 569.5,897C 566.553,894.564 564.22,891.731 562.5,888.5 Z M 684.5,820.5 C 691.198,832.668 698.198,844.834 705.5,857C 717.392,864.745 729.725,871.745 742.5,878C 730.958,883.856 719.625,890.189 708.5,897C 705.628,899.537 703.128,902.37 701,905.5C 695.624,915.525 690.291,925.525 685,935.5C 678.333,923.5 671.667,911.5 665,899.5C 652.78,891.768 640.28,884.601 627.5,878C 640.813,871.505 653.48,864.005 665.5,855.5C 672.657,844.179 678.991,832.512 684.5,820.5 Z"/></g>
<g><path style="opacity:0.022" fill="#7a484e" d="M 561.5,868.5 C 561.5,870.833 561.5,873.167 561.5,875.5C 560.833,875.833 560.167,876.167 559.5,876.5C 559.802,873.627 560.469,870.961 561.5,868.5 Z"/></g>
<g><path style="opacity:0.127" fill="#96424b" d="M 561.5,875.5 C 561.88,877.698 561.213,879.365 559.5,880.5C 559.5,879.167 559.5,877.833 559.5,876.5C 560.167,876.167 560.833,875.833 561.5,875.5 Z"/></g>
<g><path style="opacity:0.433" fill="#b83b49" d="M 563.5,865.5 C 563.32,873.175 562.986,880.842 562.5,888.5C 560.661,886.347 559.661,883.68 559.5,880.5C 561.213,879.365 561.88,877.698 561.5,875.5C 561.5,873.167 561.5,870.833 561.5,868.5C 561.932,867.29 562.599,866.29 563.5,865.5 Z"/></g>
<g><path style="opacity:1" fill="#606060" d="M 960.5,1026.5 C 949.681,1021.26 938.681,1016.26 927.5,1011.5C 923.46,1010.86 919.46,1010.03 915.5,1009C 902.504,1008.5 889.504,1008.33 876.5,1008.5C 876.918,1007.78 877.584,1007.28 878.5,1007C 896.408,1005.44 914.075,1006.78 931.5,1011C 939.153,1015.11 947.153,1018.44 955.5,1021C 958.056,1022.05 959.723,1023.89 960.5,1026.5 Z"/></g>
<g><path style="opacity:1" fill="#6e6e6e" d="M 874.5,1008.5 C 875.167,1008.5 875.833,1008.5 876.5,1008.5C 889.504,1008.33 902.504,1008.5 915.5,1009C 919.46,1010.03 923.46,1010.86 927.5,1011.5C 938.681,1016.26 949.681,1021.26 960.5,1026.5C 963.996,1027.8 967.329,1029.47 970.5,1031.5C 971.425,1032.36 972.092,1033.36 972.5,1034.5C 978.636,1041.16 985.136,1047.5 992,1053.5C 995.605,1060.1 999.605,1066.43 1004,1072.5C 1007.22,1079.59 1010.38,1086.59 1013.5,1093.5C 1016.9,1106.62 1018.9,1119.96 1019.5,1133.5C 1019.13,1144.3 1017.8,1154.96 1015.5,1165.5C 1015.5,1167.17 1015.5,1168.83 1015.5,1170.5C 1012.14,1174.55 1009.81,1179.22 1008.5,1184.5C 1005.54,1190.77 1002.21,1196.77 998.5,1202.5C 997.335,1205.69 995.669,1208.69 993.5,1211.5C 977.954,1229.62 960.287,1245.45 940.5,1259C 939.552,1259.48 938.552,1259.65 937.5,1259.5C 933.703,1261.79 930.036,1264.29 926.5,1267C 917.617,1271.61 908.617,1275.94 899.5,1280C 890.703,1282.57 882.036,1285.41 873.5,1288.5C 873.167,1288.5 872.833,1288.5 872.5,1288.5C 828.286,1299.54 783.619,1301.37 738.5,1294C 726.111,1291.63 713.778,1288.96 701.5,1286C 693.033,1282.91 684.366,1280.24 675.5,1278C 674.978,1277.44 674.645,1276.77 674.5,1276C 675.563,1271.04 677.063,1266.21 679,1261.5C 685.315,1248.89 690.648,1235.89 695,1222.5C 699.693,1216.45 703.36,1209.78 706,1202.5C 706.49,1201.21 706.657,1199.87 706.5,1198.5C 706.5,1197.83 706.833,1197.5 707.5,1197.5C 711.155,1188.53 715.655,1179.86 721,1171.5C 721.813,1169.56 722.313,1167.56 722.5,1165.5C 724.685,1157.78 728.852,1151.45 735,1146.5C 736.921,1141.66 739.088,1136.99 741.5,1132.5C 745.361,1129.45 747.861,1125.45 749,1120.5C 756.414,1112.01 762.581,1102.68 767.5,1092.5C 777.724,1080.04 787.558,1067.04 797,1053.5C 801.37,1049.3 805.537,1044.96 809.5,1040.5C 811.167,1039.5 812.5,1038.17 813.5,1036.5C 821.133,1032.66 828.133,1027.83 834.5,1022C 839.665,1020.72 844.665,1019.06 849.5,1017C 852.729,1015.71 855.729,1014.04 858.5,1012C 864.058,1011.26 869.392,1010.09 874.5,1008.5 Z"/></g>
<g><path style="opacity:1" fill="#616161" d="M 874.5,1008.5 C 869.392,1010.09 864.058,1011.26 858.5,1012C 855.729,1014.04 852.729,1015.71 849.5,1017C 844.665,1019.06 839.665,1020.72 834.5,1022C 828.133,1027.83 821.133,1032.66 813.5,1036.5C 814.909,1034.58 816.576,1032.75 818.5,1031C 823.772,1028.06 828.772,1024.73 833.5,1021C 841.738,1018.27 849.738,1014.94 857.5,1011C 863.062,1009.42 868.728,1008.59 874.5,1008.5 Z"/></g>
<g><path style="opacity:1" fill="#626262" d="M 972.5,1034.5 C 973.552,1034.35 974.552,1034.52 975.5,1035C 992.396,1049.53 1004.9,1067.03 1013,1087.5C 1013.5,1089.47 1013.66,1091.47 1013.5,1093.5C 1010.38,1086.59 1007.22,1079.59 1004,1072.5C 999.605,1066.43 995.605,1060.1 992,1053.5C 985.136,1047.5 978.636,1041.16 972.5,1034.5 Z"/></g>
<g><path style="opacity:1" fill="#616161" d="M 809.5,1040.5 C 805.537,1044.96 801.37,1049.3 797,1053.5C 787.558,1067.04 777.724,1080.04 767.5,1092.5C 768.893,1089.38 770.559,1086.38 772.5,1083.5C 780.113,1073.7 787.613,1063.7 795,1053.5C 799.426,1048.57 804.26,1044.23 809.5,1040.5 Z"/></g>
<g><path style="opacity:1" fill="#616161" d="M 767.5,1092.5 C 762.581,1102.68 756.414,1112.01 749,1120.5C 747.861,1125.45 745.361,1129.45 741.5,1132.5C 743.406,1128.08 745.572,1123.74 748,1119.5C 753.33,1111.54 758.663,1103.54 764,1095.5C 764.759,1093.94 765.926,1092.94 767.5,1092.5 Z"/></g>
<g><path style="opacity:1" fill="#606060" d="M 1013.5,1093.5 C 1014.5,1093.47 1015.16,1093.97 1015.5,1095C 1020.97,1113.12 1022.64,1131.62 1020.5,1150.5C 1019.36,1155.83 1017.69,1160.83 1015.5,1165.5C 1017.8,1154.96 1019.13,1144.3 1019.5,1133.5C 1018.9,1119.96 1016.9,1106.62 1013.5,1093.5 Z"/></g>
<g><path style="opacity:1" fill="#626262" d="M 1015.5,1170.5 C 1012.48,1177.71 1009.64,1185.05 1007,1192.5C 1004.65,1196.34 1001.81,1199.68 998.5,1202.5C 1002.21,1196.77 1005.54,1190.77 1008.5,1184.5C 1009.81,1179.22 1012.14,1174.55 1015.5,1170.5 Z"/></g>
<g><path style="opacity:1" fill="#5e5e5e" d="M 722.5,1165.5 C 722.313,1167.56 721.813,1169.56 721,1171.5C 715.655,1179.86 711.155,1188.53 707.5,1197.5C 708.609,1190.94 711.109,1184.94 715,1179.5C 715.497,1177.19 715.663,1174.86 715.5,1172.5C 716.675,1172.72 717.675,1172.39 718.5,1171.5C 719.5,1169.19 720.834,1167.19 722.5,1165.5 Z"/></g>
<g><path style="opacity:0.409" fill="#6d6d6d" d="M 1028.5,1233.5 C 1023.35,1247.98 1014.01,1258.64 1000.5,1265.5C 999.957,1265.44 999.624,1265.11 999.5,1264.5C 1005.47,1255.7 1012.63,1248.03 1021,1241.5C 1022.32,1237.68 1024.82,1235.01 1028.5,1233.5 Z"/></g>
<g><path style="opacity:1" fill="#626262" d="M 1028.5,1232.5 C 1028.5,1232.83 1028.5,1233.17 1028.5,1233.5C 1024.82,1235.01 1022.32,1237.68 1021,1241.5C 1012.63,1248.03 1005.47,1255.7 999.5,1264.5C 999.624,1265.11 999.957,1265.44 1000.5,1265.5C 1000.5,1265.83 1000.5,1266.17 1000.5,1266.5C 999.414,1266.38 998.747,1265.71 998.5,1264.5C 1003.02,1256.14 1009.19,1249.14 1017,1243.5C 1019.58,1238.92 1022.91,1234.92 1027,1231.5C 1027.38,1232.06 1027.88,1232.39 1028.5,1232.5 Z"/></g>
<g><path style="opacity:1" fill="#616161" d="M 937.5,1259.5 C 934.836,1263.02 931.503,1265.85 927.5,1268C 912.374,1276.6 896.374,1283.27 879.5,1288C 877.527,1288.5 875.527,1288.66 873.5,1288.5C 882.036,1285.41 890.703,1282.57 899.5,1280C 908.617,1275.94 917.617,1271.61 926.5,1267C 930.036,1264.29 933.703,1261.79 937.5,1259.5 Z"/></g>
<g><path style="opacity:1" fill="#606060" d="M 706.5,1198.5 C 706.657,1199.87 706.49,1201.21 706,1202.5C 703.36,1209.78 699.693,1216.45 695,1222.5C 690.648,1235.89 685.315,1248.89 679,1261.5C 677.063,1266.21 675.563,1271.04 674.5,1276C 674.645,1276.77 674.978,1277.44 675.5,1278C 684.366,1280.24 693.033,1282.91 701.5,1286C 713.778,1288.96 726.111,1291.63 738.5,1294C 783.619,1301.37 828.286,1299.54 872.5,1288.5C 867.57,1291.01 862.237,1292.84 856.5,1294C 794.522,1305.45 733.855,1300.45 674.5,1279C 673.398,1276.6 673.231,1274.1 674,1271.5C 682.613,1248.99 691.613,1226.66 701,1204.5C 703.074,1202.66 704.907,1200.66 706.5,1198.5 Z"/></g>
</svg>
