<?xml version="1.0" encoding="UTF-8"?>
<!DOCTYPE svg PUBLIC "-//W3C//DTD SVG 1.1//EN" "http://www.w3.org/Graphics/SVG/1.1/DTD/svg11.dtd">
<svg xmlns="http://www.w3.org/2000/svg" version="1.1" width="2000px" height="2000px" style="shape-rendering:geometricPrecision; text-rendering:geometricPrecision; image-rendering:optimizeQuality; fill-rule:evenodd; clip-rule:evenodd" xmlns:xlink="http://www.w3.org/1999/xlink">
<g><path style="opacity:0.886" fill="#505150" d="M 553.5,358.5 C 591.839,358.167 630.172,358.5 668.5,359.5C 743.199,379.627 799.366,423.627 837,491.5C 840.912,499.706 844.578,508.04 848,516.5C 853.885,513.861 860.052,511.695 866.5,510C 962.757,485.033 1058.42,486.866 1153.5,515.5C 1188.73,434.414 1248.73,382.248 1333.5,359C 1420.63,342.303 1496.97,362.636 1562.5,420C 1601.34,456.69 1627.18,500.524 1640,551.5C 1658.53,659.539 1625.36,747.039 1540.5,814C 1522.23,826.429 1502.9,836.929 1482.5,845.5C 1484.92,851.352 1487.09,857.352 1489,863.5C 1494.27,883.907 1498.6,904.574 1502,925.5C 1510.47,988.421 1507.81,1050.75 1494,1112.5C 1491.22,1125.82 1487.38,1138.82 1482.5,1151.5C 1564.24,1186.22 1616.57,1246.22 1639.5,1331.5C 1640.67,1369.16 1640.83,1406.83 1640,1444.5C 1619.48,1523.62 1572.65,1581.79 1499.5,1619C 1488.49,1623.35 1477.49,1627.68 1466.5,1632C 1381.23,1655.44 1303.56,1640.77 1233.5,1588C 1197.24,1558.78 1170.74,1522.61 1154,1479.5C 1144.3,1483.04 1134.47,1486.2 1124.5,1489C 1083.98,1498.25 1042.81,1503.41 1001,1504.5C 959.203,1503.41 918.037,1498.25 877.5,1489C 867.713,1486.26 858.046,1483.09 848.5,1479.5C 811.784,1565.68 747.784,1619.18 656.5,1640C 572.077,1652.13 498.577,1629.97 436,1573.5C 432.382,1566.61 431.549,1559.27 433.5,1551.5C 441.947,1538.02 452.947,1535.35 466.5,1543.5C 521.606,1592.44 585.606,1609.6 658.5,1595C 739.445,1572.72 791.945,1521.55 816,1441.5C 832.252,1365.48 814.585,1298.81 763,1241.5C 701.399,1182.57 629.233,1164.41 546.5,1187C 471.437,1213.72 423.937,1265.56 404,1342.5C 395.681,1385.26 399.015,1426.92 414,1467.5C 416.333,1472.17 418.667,1476.83 421,1481.5C 422.902,1489.76 421.235,1497.1 416,1503.5C 409.282,1509.31 401.448,1511.14 392.5,1509C 387,1506.17 382.833,1502 380,1496.5C 376.362,1488.6 373.029,1480.6 370,1472.5C 366.395,1459.89 362.895,1447.22 359.5,1434.5C 345.49,1328.73 380.823,1243.9 465.5,1180C 482.744,1168.88 500.744,1159.38 519.5,1151.5C 510.494,1125.83 503.994,1099.5 500,1072.5C 490.346,1004.36 494.013,937.027 511,870.5C 513.438,861.854 516.271,853.354 519.5,845C 433.609,808.392 380.275,744.559 359.5,653.5C 346.166,561.253 373.166,483.087 440.5,419C 472.74,390.396 509.74,371.062 551.5,361C 552.381,360.292 553.047,359.458 553.5,358.5 Z M 596.5,396.5 C 675.717,393.864 738.551,424.198 785,487.5C 826.126,550.985 833.126,618.318 806,689.5C 797.485,709.52 786.152,727.854 772,744.5C 766.911,758.793 771.077,769.293 784.5,776C 792.745,777.9 799.912,776.067 806,770.5C 856.679,707.945 874.512,636.611 859.5,556.5C 871.166,553.379 882.832,550.213 894.5,547C 965.477,531.684 1036.48,531.684 1107.5,547C 1119.17,550.213 1130.83,553.379 1142.5,556.5C 1124.75,666.107 1160.42,753.607 1249.5,819C 1297.71,850.006 1350.71,864.339 1408.5,862C 1418.5,860.302 1428.5,858.802 1438.5,857.5C 1440.39,857.436 1442.06,857.936 1443.5,859C 1443.17,859.333 1442.83,859.667 1442.5,860C 1464.69,930.019 1469.86,1001.52 1458,1074.5C 1453.58,1096.02 1448.41,1117.35 1442.5,1138.5C 1337.67,1122.6 1252.17,1155.94 1186,1238.5C 1143.21,1298.89 1128.37,1365.89 1141.5,1439.5C 1061.65,1463.64 980.65,1467.14 898.5,1450C 885.686,1447 873.019,1443.5 860.5,1439.5C 874.59,1358.26 855.756,1286.26 804,1223.5C 746.848,1160.44 675.681,1130.94 590.5,1135C 580.033,1135.92 569.7,1137.42 559.5,1139.5C 536.244,1062.39 532.077,984.052 547,904.5C 550.501,889.374 554.668,874.541 559.5,860C 559.167,859.667 558.833,859.333 558.5,859C 559.944,857.936 561.611,857.436 563.5,857.5C 573.811,858.906 584.145,860.406 594.5,862C 605.5,862.667 616.5,862.667 627.5,862C 635.375,860.074 643.375,859.074 651.5,859C 682.61,853.976 711.61,843.309 738.5,827C 748.131,815.708 747.798,804.708 737.5,794C 729.319,788.725 720.986,788.392 712.5,793C 668.797,816.834 621.964,824.334 572,815.5C 502.015,801.225 451.015,761.892 419,697.5C 389.49,629.437 392.823,563.104 429,498.5C 468.291,437.274 524.124,403.274 596.5,396.5 Z M 1376.5,396.5 C 1459.65,394.195 1524.49,427.195 1571,495.5C 1601.66,547.415 1609.99,603.082 1596,662.5C 1570.6,744.892 1515.77,796.058 1431.5,816C 1348.95,828.426 1280.45,803.259 1226,740.5C 1181.74,681.478 1169.41,616.145 1189,544.5C 1213.4,473.438 1261.56,426.604 1333.5,404C 1347.87,400.764 1362.2,398.264 1376.5,396.5 Z M 867.5,927.5 C 889.5,927.5 911.5,927.5 933.5,927.5C 933.5,958.833 933.5,990.167 933.5,1021.5C 911.5,1021.5 889.5,1021.5 867.5,1021.5C 867.5,990.167 867.5,958.833 867.5,927.5 Z M 1377.5,1177.5 C 1460.11,1175.39 1524.61,1208.39 1571,1276.5C 1607.01,1339.36 1612.01,1404.69 1586,1472.5C 1553.57,1542.32 1499.41,1584.15 1423.5,1598C 1341.24,1607.64 1274.07,1580.48 1222,1516.5C 1177.77,1453.02 1168.44,1384.68 1194,1311.5C 1221.75,1246.42 1269.58,1203.92 1337.5,1184C 1350.91,1181.27 1364.24,1179.1 1377.5,1177.5 Z M 1388.5,1371.5 C 1393.42,1372.08 1398.09,1373.58 1402.5,1376C 1412.23,1388.36 1409.89,1398.03 1395.5,1405C 1388.09,1406.38 1381.93,1404.21 1377,1398.5C 1372.01,1385.63 1375.84,1376.63 1388.5,1371.5 Z"/></g>
<g><path style="opacity:0.871" fill="#505150" d="M 1414.5,459.5 C 1428.5,459.333 1442.5,459.5 1456.5,460C 1471.12,466.668 1475.28,477.502 1469,492.5C 1464.54,498.311 1458.71,501.477 1451.5,502C 1439.46,502.162 1427.46,502.829 1415.5,504C 1406.02,507.764 1399.85,514.597 1397,524.5C 1396.83,543.74 1396.33,562.907 1395.5,582C 1406.5,582.333 1417.5,582.667 1428.5,583C 1442.96,590.058 1447.13,600.891 1441,615.5C 1436.73,620.882 1431.23,624.048 1424.5,625C 1415.17,625.5 1405.84,625.666 1396.5,625.5C 1396.67,663.501 1396.5,701.501 1396,739.5C 1389.64,754.797 1378.81,759.297 1363.5,753C 1359.18,749.687 1356.02,745.521 1354,740.5C 1353.5,702.168 1353.33,663.835 1353.5,625.5C 1344.83,625.666 1336.16,625.5 1327.5,625C 1315.87,622.733 1309.2,615.733 1307.5,604C 1308.64,593.856 1313.97,586.856 1323.5,583C 1333.49,582.5 1343.49,582.334 1353.5,582.5C 1353.33,562.497 1353.5,542.497 1354,522.5C 1358.91,496.209 1373.41,477.042 1397.5,465C 1403.37,463.587 1409.04,461.753 1414.5,459.5 Z"/></g>
<g><path style="opacity:0.927" fill="#515151" d="M 469.5,561.5 C 470.467,562.806 471.801,563.473 473.5,563.5C 475.118,554.912 476.785,546.412 478.5,538C 478.507,536.188 477.84,534.688 476.5,533.5C 475.735,534.612 474.735,535.279 473.5,535.5C 475.292,523.414 480.625,513.247 489.5,505C 498.487,500.967 506.821,501.967 514.5,508C 530.738,531.408 552.738,546.241 580.5,552.5C 583.187,552.462 583.854,551.462 582.5,549.5C 588.606,523.559 603.94,505.393 628.5,495C 636.826,492.995 645.326,491.495 654,490.5C 660.102,491.76 666.268,492.594 672.5,493C 681.348,495.789 689.682,499.623 697.5,504.5C 705.014,501.741 712.014,497.907 718.5,493C 732.684,488.311 742.851,492.811 749,506.5C 749.667,510.5 749.667,514.5 749,518.5C 744.293,534.015 736.96,548.015 727,560.5C 727.817,610.957 711.317,654.457 677.5,691C 644.649,721.87 605.482,738.037 560,739.5C 546.155,737.596 532.322,735.762 518.5,734C 500.629,729.219 483.629,722.552 467.5,714C 462.067,710.256 458.234,705.422 456,699.5C 455.023,685.441 461.523,676.608 475.5,673C 484.5,672.667 493.5,672.333 502.5,672C 505.833,671 509.167,670 512.5,669C 483.056,644.77 468.389,613.437 468.5,575C 468.641,570.474 468.975,565.974 469.5,561.5 Z"/></g>
<g><path style="opacity:1" fill="#535353" d="M 669.5,533.5 C 667.079,533.122 664.746,532.455 662.5,531.5C 662.167,531.5 661.833,531.5 661.5,531.5C 659.022,530.836 656.355,530.503 653.5,530.5C 649.531,530.294 645.865,530.961 642.5,532.5C 641.833,532.5 641.167,532.5 640.5,532.5C 640.62,531.414 641.287,530.747 642.5,530.5C 649.454,528.118 656.454,527.951 663.5,530C 665.91,530.6 667.91,531.766 669.5,533.5 Z"/></g>
<g><path style="opacity:1" fill="#5b5b5b" d="M 661.5,531.5 C 656.637,531.181 651.97,531.514 647.5,532.5C 645.833,532.5 644.167,532.5 642.5,532.5C 645.865,530.961 649.531,530.294 653.5,530.5C 656.355,530.503 659.022,530.836 661.5,531.5 Z"/></g>
<g><path style="opacity:1" fill="#656565" d="M 647.5,532.5 C 651.97,531.514 656.637,531.181 661.5,531.5C 661.833,531.5 662.167,531.5 662.5,531.5C 662.833,532.167 663.167,532.833 663.5,533.5C 658.213,532.658 652.88,532.324 647.5,532.5 Z"/></g>
<g><path style="opacity:1" fill="#6e6e6e" d="M 647.5,532.5 C 652.88,532.324 658.213,532.658 663.5,533.5C 665.5,534.5 667.5,535.5 669.5,536.5C 671.223,538.218 673.223,539.551 675.5,540.5C 676.911,542.914 678.911,544.581 681.5,545.5C 681.973,546.906 682.973,547.573 684.5,547.5C 684.833,548.167 685.167,548.833 685.5,549.5C 684.505,560.321 684.172,571.321 684.5,582.5C 684.5,582.833 684.5,583.167 684.5,583.5C 683.383,587.295 682.717,591.295 682.5,595.5C 682.702,597.95 682.369,600.283 681.5,602.5C 679.926,604.102 679.259,606.102 679.5,608.5C 677.899,611.55 676.899,614.884 676.5,618.5C 676.672,619.492 676.338,620.158 675.5,620.5C 672.597,625.977 669.93,631.643 667.5,637.5C 665.336,639.822 663.669,642.489 662.5,645.5C 659.102,648.627 656.435,652.293 654.5,656.5C 653.761,656.369 653.094,656.536 652.5,657C 649.109,660.364 646.109,663.864 643.5,667.5C 640.222,668.809 637.222,670.642 634.5,673C 632.808,674.307 631.475,675.807 630.5,677.5C 627.085,678.195 624.418,679.862 622.5,682.5C 620.901,682.232 619.568,682.566 618.5,683.5C 614.935,684.442 611.935,686.109 609.5,688.5C 600.07,690.874 590.736,693.207 581.5,695.5C 579.435,695.517 577.435,695.85 575.5,696.5C 569.158,696.666 562.825,696.5 556.5,696C 557.056,695.617 557.389,695.117 557.5,694.5C 557.5,694.167 557.5,693.833 557.5,693.5C 558.873,693.657 560.207,693.49 561.5,693C 566.17,690.084 570.336,686.584 574,682.5C 574.352,680.753 574.852,679.086 575.5,677.5C 578.167,673.833 578.167,670.167 575.5,666.5C 575.737,665.209 575.404,664.209 574.5,663.5C 573.052,658.93 570.052,655.93 565.5,654.5C 564.486,653.326 563.153,652.66 561.5,652.5C 560.486,651.326 559.153,650.66 557.5,650.5C 556.713,648.896 555.38,648.229 553.5,648.5C 551.882,646.684 549.882,645.351 547.5,644.5C 546.391,644.443 545.391,644.11 544.5,643.5C 538.573,637.911 532.573,632.244 526.5,626.5C 526.262,624.596 525.262,623.262 523.5,622.5C 523.573,620.973 522.906,619.973 521.5,619.5C 521.13,616.733 519.796,614.733 517.5,613.5C 516.669,610.341 515.669,607.341 514.5,604.5C 514.204,602.597 513.537,600.93 512.5,599.5C 512.5,599.167 512.5,598.833 512.5,598.5C 512.706,595.505 512.04,592.838 510.5,590.5C 509.53,581.918 509.197,573.251 509.5,564.5C 510.5,564.5 511.5,564.5 512.5,564.5C 513.585,566.587 515.251,567.92 517.5,568.5C 517.973,569.906 518.973,570.573 520.5,570.5C 520.973,571.906 521.973,572.573 523.5,572.5C 524.659,574.25 526.326,575.25 528.5,575.5C 531.675,578.328 535.342,580.328 539.5,581.5C 540.5,581.5 541.5,581.5 542.5,581.5C 542.944,583.113 543.944,584.28 545.5,585C 551.656,587.329 557.99,589.162 564.5,590.5C 566.838,592.04 569.505,592.706 572.5,592.5C 572.833,592.5 573.167,592.5 573.5,592.5C 576.89,593.552 580.39,594.552 584,595.5C 584.383,594.944 584.883,594.611 585.5,594.5C 592.833,594.5 600.167,594.5 607.5,594.5C 612.911,593.259 617.078,590.259 620,585.5C 621.009,583.975 621.509,582.308 621.5,580.5C 622.268,579.737 622.768,578.737 623,577.5C 623.5,569.841 623.666,562.174 623.5,554.5C 625.4,551.482 626.733,548.149 627.5,544.5C 629.446,543.965 630.446,542.632 630.5,540.5C 635.905,537.082 641.572,534.415 647.5,532.5 Z"/></g>
<g><path style="opacity:0.688" fill="#535353" d="M 469.5,561.5 C 469.5,560.167 469.5,558.833 469.5,557.5C 473.431,555.99 475.097,552.99 474.5,548.5C 474.5,548.167 474.5,547.833 474.5,547.5C 475.254,544.977 475.92,542.311 476.5,539.5C 475.3,538.708 473.967,538.708 472.5,539.5C 472.833,538.167 473.167,536.833 473.5,535.5C 474.735,535.279 475.735,534.612 476.5,533.5C 477.84,534.688 478.507,536.188 478.5,538C 476.785,546.412 475.118,554.912 473.5,563.5C 471.801,563.473 470.467,562.806 469.5,561.5 Z"/></g>
<g><path style="opacity:1" fill="#5d5d5d" d="M 640.5,532.5 C 641.167,532.5 641.833,532.5 642.5,532.5C 641.713,534.104 640.38,534.771 638.5,534.5C 639.167,533.833 639.833,533.167 640.5,532.5 Z"/></g>
<g><path style="opacity:1" fill="#606060" d="M 662.5,531.5 C 664.746,532.455 667.079,533.122 669.5,533.5C 670.167,534.5 670.833,535.5 671.5,536.5C 670.833,536.5 670.167,536.5 669.5,536.5C 667.5,535.5 665.5,534.5 663.5,533.5C 663.167,532.833 662.833,532.167 662.5,531.5 Z"/></g>
<g><path style="opacity:1" fill="#5b5b5b" d="M 672.5,536.5 C 674.749,537.08 676.415,538.413 677.5,540.5C 676.833,540.5 676.167,540.5 675.5,540.5C 674.5,539.167 673.5,537.833 672.5,536.5 Z"/></g>
<g><path style="opacity:1" fill="#666666" d="M 669.5,536.5 C 670.167,536.5 670.833,536.5 671.5,536.5C 671.833,536.5 672.167,536.5 672.5,536.5C 673.5,537.833 674.5,539.167 675.5,540.5C 673.223,539.551 671.223,538.218 669.5,536.5 Z"/></g>
<g><path style="opacity:0.741" fill="#595959" d="M 474.5,547.5 C 475.01,544.612 474.344,542.279 472.5,540.5C 472.5,540.167 472.5,539.833 472.5,539.5C 473.967,538.708 475.3,538.708 476.5,539.5C 475.92,542.311 475.254,544.977 474.5,547.5 Z"/></g>
<g><path style="opacity:1" fill="#636363" d="M 642.5,532.5 C 644.167,532.5 645.833,532.5 647.5,532.5C 641.572,534.415 635.905,537.082 630.5,540.5C 632.878,538.122 635.545,536.122 638.5,534.5C 640.38,534.771 641.713,534.104 642.5,532.5 Z"/></g>
<g><path style="opacity:0.456" fill="#5f5f5f" d="M 472.5,541.5 C 472.5,541.167 472.5,540.833 472.5,540.5C 474.344,542.279 475.01,544.612 474.5,547.5C 474.5,547.833 474.5,548.167 474.5,548.5C 473.71,549.609 473.21,550.942 473,552.5C 471.989,553.337 470.822,553.67 469.5,553.5C 469.833,551.5 470.167,549.5 470.5,547.5C 471.5,547.5 472.5,547.5 473.5,547.5C 473.795,545.265 473.461,543.265 472.5,541.5 Z"/></g>
<g><path style="opacity:1" fill="#636363" d="M 675.5,540.5 C 676.167,540.5 676.833,540.5 677.5,540.5C 678.916,542.179 680.25,543.846 681.5,545.5C 678.911,544.581 676.911,542.914 675.5,540.5 Z"/></g>
<g><path style="opacity:1" fill="#545454" d="M 677.5,540.5 C 678.552,540.351 679.552,540.517 680.5,541C 683.538,543.179 686.538,545.345 689.5,547.5C 689.138,556.354 689.138,565.188 689.5,574C 687.437,584.467 685.604,594.967 684,605.5C 682.154,608.569 681.154,611.902 681,615.5C 680.617,616.056 680.117,616.389 679.5,616.5C 680.092,613.873 680.425,611.206 680.5,608.5C 680.833,607.833 681.167,607.167 681.5,606.5C 684.667,598.937 686.001,590.937 685.5,582.5C 685.5,581.5 685.5,580.5 685.5,579.5C 686.117,579.389 686.617,579.056 687,578.5C 687.32,568.775 687.487,559.108 687.5,549.5C 687.152,547.152 685.818,545.818 683.5,545.5C 682.833,545.5 682.167,545.5 681.5,545.5C 680.25,543.846 678.916,542.179 677.5,540.5 Z"/></g>
<g><path style="opacity:0.298" fill="#676767" d="M 472.5,541.5 C 473.461,543.265 473.795,545.265 473.5,547.5C 472.5,547.5 471.5,547.5 470.5,547.5C 471.167,545.5 471.833,543.5 472.5,541.5 Z"/></g>
<g><path style="opacity:1" fill="#606060" d="M 630.5,540.5 C 630.446,542.632 629.446,543.965 627.5,544.5C 627.738,542.596 628.738,541.262 630.5,540.5 Z"/></g>
<g><path style="opacity:1" fill="#646464" d="M 681.5,545.5 C 682.167,545.5 682.833,545.5 683.5,545.5C 683.833,546.167 684.167,546.833 684.5,547.5C 682.973,547.573 681.973,546.906 681.5,545.5 Z"/></g>
<g><path style="opacity:0.547" fill="#5a5a5a" d="M 474.5,548.5 C 475.097,552.99 473.431,555.99 469.5,557.5C 469.5,556.167 469.5,554.833 469.5,553.5C 470.822,553.67 471.989,553.337 473,552.5C 473.21,550.942 473.71,549.609 474.5,548.5 Z"/></g>
<g><path style="opacity:1" fill="#545454" d="M 640.5,532.5 C 639.833,533.167 639.167,533.833 638.5,534.5C 635.545,536.122 632.878,538.122 630.5,540.5C 628.738,541.262 627.738,542.596 627.5,544.5C 626.542,544.953 625.708,545.619 625,546.5C 623.472,550.475 622.306,554.475 621.5,558.5C 620.736,566.021 620.069,573.688 619.5,581.5C 619.737,582.791 619.404,583.791 618.5,584.5C 617.647,572.59 618.813,560.924 622,549.5C 625.811,541.186 631.978,535.519 640.5,532.5 Z"/></g>
<g><path style="opacity:1" fill="#676767" d="M 685.5,549.5 C 686.703,559.507 686.703,569.507 685.5,579.5C 685.5,580.5 685.5,581.5 685.5,582.5C 685.167,582.5 684.833,582.5 684.5,582.5C 684.172,571.321 684.505,560.321 685.5,549.5 Z"/></g>
<g><path style="opacity:1" fill="#5e5e5e" d="M 683.5,545.5 C 685.818,545.818 687.152,547.152 687.5,549.5C 687.487,559.108 687.32,568.775 687,578.5C 686.617,579.056 686.117,579.389 685.5,579.5C 686.703,569.507 686.703,559.507 685.5,549.5C 685.167,548.833 684.833,548.167 684.5,547.5C 684.167,546.833 683.833,546.167 683.5,545.5 Z"/></g>
<g><path style="opacity:1" fill="#686868" d="M 623.5,554.5 C 623.666,562.174 623.5,569.841 623,577.5C 622.768,578.737 622.268,579.737 621.5,580.5C 621.5,579.167 621.5,577.833 621.5,576.5C 622.167,569.167 622.833,561.833 623.5,554.5 Z"/></g>
<g><path style="opacity:1" fill="#626262" d="M 627.5,544.5 C 626.733,548.149 625.4,551.482 623.5,554.5C 622.833,561.833 622.167,569.167 621.5,576.5C 621.5,570.5 621.5,564.5 621.5,558.5C 622.306,554.475 623.472,550.475 625,546.5C 625.708,545.619 626.542,544.953 627.5,544.5 Z"/></g>
<g><path style="opacity:1" fill="#5b5b5b" d="M 621.5,558.5 C 621.5,564.5 621.5,570.5 621.5,576.5C 621.5,577.833 621.5,579.167 621.5,580.5C 620.833,580.833 620.167,581.167 619.5,581.5C 620.069,573.688 620.736,566.021 621.5,558.5 Z"/></g>
<g><path style="opacity:1" fill="#555555" d="M 527.5,573.5 C 526.167,573.167 524.833,572.833 523.5,572.5C 523.027,571.094 522.027,570.427 520.5,570.5C 520.027,569.094 519.027,568.427 517.5,568.5C 516.461,566.469 514.795,565.136 512.5,564.5C 511.817,562.824 510.483,562.157 508.5,562.5C 508.334,572.172 508.5,581.839 509,591.5C 509.278,592.416 509.778,593.082 510.5,593.5C 510.5,594.5 510.5,595.5 510.5,596.5C 510.721,599.067 511.388,601.401 512.5,603.5C 513.038,605.117 513.371,606.784 513.5,608.5C 512.685,607.571 511.852,606.571 511,605.5C 506.544,591.047 505.544,576.38 508,561.5C 509.388,560.446 510.888,560.28 512.5,561C 516.61,565.109 521.277,568.443 526.5,571C 527.252,571.671 527.586,572.504 527.5,573.5 Z"/></g>
<g><path style="opacity:1" fill="#636363" d="M 512.5,564.5 C 514.795,565.136 516.461,566.469 517.5,568.5C 515.251,567.92 513.585,566.587 512.5,564.5 Z"/></g>
<g><path style="opacity:1" fill="#5e5e5e" d="M 512.5,564.5 C 511.5,564.5 510.5,564.5 509.5,564.5C 509.197,573.251 509.53,581.918 510.5,590.5C 510.5,591.5 510.5,592.5 510.5,593.5C 509.778,593.082 509.278,592.416 509,591.5C 508.5,581.839 508.334,572.172 508.5,562.5C 510.483,562.157 511.817,562.824 512.5,564.5 Z"/></g>
<g><path style="opacity:1" fill="#646464" d="M 517.5,568.5 C 519.027,568.427 520.027,569.094 520.5,570.5C 518.973,570.573 517.973,569.906 517.5,568.5 Z"/></g>
<g><path style="opacity:1" fill="#646464" d="M 520.5,570.5 C 522.027,570.427 523.027,571.094 523.5,572.5C 521.973,572.573 520.973,571.906 520.5,570.5 Z"/></g>
<g><path style="opacity:1" fill="#666666" d="M 523.5,572.5 C 524.833,572.833 526.167,573.167 527.5,573.5C 527.833,574.167 528.167,574.833 528.5,575.5C 526.326,575.25 524.659,574.25 523.5,572.5 Z"/></g>
<g><path style="opacity:1" fill="#5b5b5b" d="M 527.5,573.5 C 529.027,573.427 530.027,574.094 530.5,575.5C 529.833,575.5 529.167,575.5 528.5,575.5C 528.167,574.833 527.833,574.167 527.5,573.5 Z"/></g>
<g><path style="opacity:1" fill="#575757" d="M 530.5,575.5 C 534.307,574.774 536.974,576.107 538.5,579.5C 535.558,578.696 532.891,577.362 530.5,575.5 Z"/></g>
<g><path style="opacity:1" fill="#656565" d="M 528.5,575.5 C 529.167,575.5 529.833,575.5 530.5,575.5C 532.891,577.362 535.558,578.696 538.5,579.5C 538.833,580.167 539.167,580.833 539.5,581.5C 535.342,580.328 531.675,578.328 528.5,575.5 Z"/></g>
<g><path style="opacity:1" fill="#636363" d="M 542.5,581.5 C 548.691,584.916 555.357,587.249 562.5,588.5C 563.167,589.167 563.833,589.833 564.5,590.5C 557.99,589.162 551.656,587.329 545.5,585C 543.944,584.28 542.944,583.113 542.5,581.5 Z"/></g>
<g><path style="opacity:1" fill="#676767" d="M 684.5,583.5 C 684.802,587.79 684.136,591.79 682.5,595.5C 682.717,591.295 683.383,587.295 684.5,583.5 Z"/></g>
<g><path style="opacity:1" fill="#545454" d="M 538.5,579.5 C 550.713,583.47 563.047,586.97 575.5,590C 583.709,590.426 591.876,591.26 600,592.5C 603.6,592.119 607.1,591.285 610.5,590C 612.734,588.25 615.068,586.75 617.5,585.5C 615.408,588.917 612.408,591.25 608.5,592.5C 595.767,593.66 583.1,592.994 570.5,590.5C 568.095,589.232 565.428,588.565 562.5,588.5C 555.357,587.249 548.691,584.916 542.5,581.5C 541.5,581.5 540.5,581.5 539.5,581.5C 539.167,580.833 538.833,580.167 538.5,579.5 Z"/></g>
<g><path style="opacity:1" fill="#5b5b5b" d="M 562.5,588.5 C 565.428,588.565 568.095,589.232 570.5,590.5C 568.5,590.5 566.5,590.5 564.5,590.5C 563.833,589.833 563.167,589.167 562.5,588.5 Z"/></g>
<g><path style="opacity:1" fill="#666666" d="M 510.5,590.5 C 512.04,592.838 512.706,595.505 512.5,598.5C 511.833,597.833 511.167,597.167 510.5,596.5C 510.5,595.5 510.5,594.5 510.5,593.5C 510.5,592.5 510.5,591.5 510.5,590.5 Z"/></g>
<g><path style="opacity:1" fill="#5c5c5c" d="M 684.5,582.5 C 684.833,582.5 685.167,582.5 685.5,582.5C 686.001,590.937 684.667,598.937 681.5,606.5C 681.5,605.167 681.5,603.833 681.5,602.5C 682.369,600.283 682.702,597.95 682.5,595.5C 684.136,591.79 684.802,587.79 684.5,583.5C 684.5,583.167 684.5,582.833 684.5,582.5 Z"/></g>
<g><path style="opacity:1" fill="#656565" d="M 564.5,590.5 C 566.5,590.5 568.5,590.5 570.5,590.5C 571.167,591.167 571.833,591.833 572.5,592.5C 569.505,592.706 566.838,592.04 564.5,590.5 Z"/></g>
<g><path style="opacity:1" fill="#636363" d="M 621.5,580.5 C 621.509,582.308 621.009,583.975 620,585.5C 617.078,590.259 612.911,593.259 607.5,594.5C 607.833,593.833 608.167,593.167 608.5,592.5C 612.408,591.25 615.408,588.917 617.5,585.5C 618.167,585.5 618.5,585.167 618.5,584.5C 619.404,583.791 619.737,582.791 619.5,581.5C 620.167,581.167 620.833,580.833 621.5,580.5 Z"/></g>
<g><path style="opacity:1" fill="#676767" d="M 573.5,592.5 C 577.733,592.539 581.733,593.205 585.5,594.5C 584.883,594.611 584.383,594.944 584,595.5C 580.39,594.552 576.89,593.552 573.5,592.5 Z"/></g>
<g><path style="opacity:1" fill="#5e5e5e" d="M 570.5,590.5 C 583.1,592.994 595.767,593.66 608.5,592.5C 608.167,593.167 607.833,593.833 607.5,594.5C 600.167,594.5 592.833,594.5 585.5,594.5C 581.733,593.205 577.733,592.539 573.5,592.5C 573.167,592.5 572.833,592.5 572.5,592.5C 571.833,591.833 571.167,591.167 570.5,590.5 Z"/></g>
<g><path style="opacity:1" fill="#5d5d5d" d="M 510.5,596.5 C 511.167,597.167 511.833,597.833 512.5,598.5C 512.5,598.833 512.5,599.167 512.5,599.5C 512.5,600.833 512.5,602.167 512.5,603.5C 511.388,601.401 510.721,599.067 510.5,596.5 Z"/></g>
<g><path style="opacity:1" fill="#656565" d="M 512.5,599.5 C 513.537,600.93 514.204,602.597 514.5,604.5C 513.833,604.167 513.167,603.833 512.5,603.5C 512.5,602.167 512.5,600.833 512.5,599.5 Z"/></g>
<g><path style="opacity:1" fill="#636363" d="M 681.5,602.5 C 681.5,603.833 681.5,605.167 681.5,606.5C 681.167,607.167 680.833,607.833 680.5,608.5C 680.167,608.5 679.833,608.5 679.5,608.5C 679.259,606.102 679.926,604.102 681.5,602.5 Z"/></g>
<g><path style="opacity:1" fill="#606060" d="M 512.5,603.5 C 513.167,603.833 513.833,604.167 514.5,604.5C 515.669,607.341 516.669,610.341 517.5,613.5C 515.926,612.016 514.593,610.349 513.5,608.5C 513.371,606.784 513.038,605.117 512.5,603.5 Z"/></g>
<g><path style="opacity:1" fill="#5c5c5c" d="M 679.5,608.5 C 679.833,608.5 680.167,608.5 680.5,608.5C 680.425,611.206 680.092,613.873 679.5,616.5C 679.167,616.5 678.833,616.5 678.5,616.5C 678.833,613.833 679.167,611.167 679.5,608.5 Z"/></g>
<g><path style="opacity:1" fill="#565656" d="M 513.5,608.5 C 514.593,610.349 515.926,612.016 517.5,613.5C 518.34,615.853 519.674,617.853 521.5,619.5C 521.5,620.167 521.5,620.833 521.5,621.5C 517.079,618.34 514.413,614.007 513.5,608.5 Z"/></g>
<g><path style="opacity:1" fill="#656565" d="M 517.5,613.5 C 519.796,614.733 521.13,616.733 521.5,619.5C 519.674,617.853 518.34,615.853 517.5,613.5 Z"/></g>
<g><path style="opacity:1" fill="#666666" d="M 679.5,608.5 C 679.167,611.167 678.833,613.833 678.5,616.5C 677.833,617.167 677.167,617.833 676.5,618.5C 676.899,614.884 677.899,611.55 679.5,608.5 Z"/></g>
<g><path style="opacity:1" fill="#5c5c5c" d="M 678.5,616.5 C 678.122,618.921 677.455,621.254 676.5,623.5C 676.167,623.5 675.833,623.5 675.5,623.5C 675.5,622.5 675.5,621.5 675.5,620.5C 676.338,620.158 676.672,619.492 676.5,618.5C 677.167,617.833 677.833,617.167 678.5,616.5 Z"/></g>
<g><path style="opacity:1" fill="#656565" d="M 521.5,619.5 C 522.906,619.973 523.573,620.973 523.5,622.5C 522.833,622.167 522.167,621.833 521.5,621.5C 521.5,620.833 521.5,620.167 521.5,619.5 Z"/></g>
<g><path style="opacity:1" fill="#5b5b5b" d="M 521.5,621.5 C 522.167,621.833 522.833,622.167 523.5,622.5C 523.5,623.167 523.5,623.833 523.5,624.5C 522.094,624.027 521.427,623.027 521.5,621.5 Z"/></g>
<g><path style="opacity:1" fill="#555555" d="M 675.5,623.5 C 675.833,623.5 676.167,623.5 676.5,623.5C 676.163,627.836 674.496,631.503 671.5,634.5C 672.682,630.766 674.016,627.1 675.5,623.5 Z"/></g>
<g><path style="opacity:1" fill="#646464" d="M 523.5,622.5 C 525.262,623.262 526.262,624.596 526.5,626.5C 525.833,626.167 525.167,625.833 524.5,625.5C 524.5,624.833 524.167,624.5 523.5,624.5C 523.5,623.833 523.5,623.167 523.5,622.5 Z"/></g>
<g><path style="opacity:1" fill="#636363" d="M 675.5,620.5 C 675.5,621.5 675.5,622.5 675.5,623.5C 674.016,627.1 672.682,630.766 671.5,634.5C 670.833,635.167 670.167,635.833 669.5,636.5C 668.833,636.833 668.167,637.167 667.5,637.5C 669.93,631.643 672.597,625.977 675.5,620.5 Z"/></g>
<g><path style="opacity:1" fill="#636363" d="M 526.5,626.5 C 532.573,632.244 538.573,637.911 544.5,643.5C 541.525,642.345 538.858,640.678 536.5,638.5C 532.767,634.773 529.434,630.773 526.5,626.5 Z"/></g>
<g><path style="opacity:1" fill="#565656" d="M 524.5,625.5 C 525.167,625.833 525.833,626.167 526.5,626.5C 529.434,630.773 532.767,634.773 536.5,638.5C 530.407,636.075 526.407,631.741 524.5,625.5 Z"/></g>
<g><path style="opacity:1" fill="#636363" d="M 667.5,637.5 C 666.805,640.915 665.138,643.582 662.5,645.5C 663.669,642.489 665.336,639.822 667.5,637.5 Z"/></g>
<g><path style="opacity:1" fill="#565656" d="M 536.5,638.5 C 538.858,640.678 541.525,642.345 544.5,643.5C 545.391,644.11 546.391,644.443 547.5,644.5C 548.733,646.796 550.733,648.13 553.5,648.5C 554.287,650.104 555.62,650.771 557.5,650.5C 558.287,652.104 559.62,652.771 561.5,652.5C 561.833,653.167 562.167,653.833 562.5,654.5C 557.158,653.526 552.158,651.526 547.5,648.5C 546.614,647.675 546.281,646.675 546.5,645.5C 541.751,645.13 538.418,642.797 536.5,638.5 Z"/></g>
<g><path style="opacity:1" fill="#656565" d="M 547.5,644.5 C 549.882,645.351 551.882,646.684 553.5,648.5C 550.733,648.13 548.733,646.796 547.5,644.5 Z"/></g>
<g><path style="opacity:1" fill="#636363" d="M 553.5,648.5 C 555.38,648.229 556.713,648.896 557.5,650.5C 555.62,650.771 554.287,650.104 553.5,648.5 Z"/></g>
<g><path style="opacity:1" fill="#636363" d="M 662.5,645.5 C 661.054,650.061 658.387,653.728 654.5,656.5C 656.435,652.293 659.102,648.627 662.5,645.5 Z"/></g>
<g><path style="opacity:1" fill="#656565" d="M 557.5,650.5 C 559.153,650.66 560.486,651.326 561.5,652.5C 559.62,652.771 558.287,652.104 557.5,650.5 Z"/></g>
<g><path style="opacity:1" fill="#656565" d="M 561.5,652.5 C 563.153,652.66 564.486,653.326 565.5,654.5C 564.5,654.5 563.5,654.5 562.5,654.5C 562.167,653.833 561.833,653.167 561.5,652.5 Z"/></g>
<g><path style="opacity:1" fill="#646464" d="M 565.5,654.5 C 570.052,655.93 573.052,658.93 574.5,663.5C 571.14,660.806 568.14,657.806 565.5,654.5 Z"/></g>
<g><path style="opacity:1" fill="#555555" d="M 669.5,636.5 C 669.657,637.873 669.49,639.207 669,640.5C 662.021,651.161 653.855,660.995 644.5,670C 642.473,671.879 640.14,673.046 637.5,673.5C 639.806,671.861 641.806,669.861 643.5,667.5C 647.446,664.221 651.112,660.554 654.5,656.5C 658.387,653.728 661.054,650.061 662.5,645.5C 665.138,643.582 666.805,640.915 667.5,637.5C 668.167,637.167 668.833,636.833 669.5,636.5 Z"/></g>
<g><path style="opacity:1" fill="#636363" d="M 654.5,656.5 C 651.112,660.554 647.446,664.221 643.5,667.5C 646.109,663.864 649.109,660.364 652.5,657C 653.094,656.536 653.761,656.369 654.5,656.5 Z"/></g>
<g><path style="opacity:1" fill="#565656" d="M 562.5,654.5 C 563.5,654.5 564.5,654.5 565.5,654.5C 568.14,657.806 571.14,660.806 574.5,663.5C 574.819,668.363 574.486,673.03 573.5,677.5C 574.387,667.61 570.721,659.943 562.5,654.5 Z"/></g>
<g><path style="opacity:1" fill="#666666" d="M 575.5,666.5 C 578.167,670.167 578.167,673.833 575.5,677.5C 575.5,673.833 575.5,670.167 575.5,666.5 Z"/></g>
<g><path style="opacity:1" fill="#636363" d="M 643.5,667.5 C 641.806,669.861 639.806,671.861 637.5,673.5C 635.33,675.086 632.996,676.42 630.5,677.5C 631.475,675.807 632.808,674.307 634.5,673C 637.222,670.642 640.222,668.809 643.5,667.5 Z"/></g>
<g><path style="opacity:1" fill="#616161" d="M 630.5,677.5 C 628.157,679.672 625.49,681.339 622.5,682.5C 624.418,679.862 627.085,678.195 630.5,677.5 Z"/></g>
<g><path style="opacity:1" fill="#5f5f5f" d="M 622.5,682.5 C 621.341,684.25 619.674,685.25 617.5,685.5C 617.833,684.833 618.167,684.167 618.5,683.5C 619.568,682.566 620.901,682.232 622.5,682.5 Z"/></g>
<g><path style="opacity:1" fill="#606060" d="M 574.5,663.5 C 575.404,664.209 575.737,665.209 575.5,666.5C 575.5,670.167 575.5,673.833 575.5,677.5C 574.852,679.086 574.352,680.753 574,682.5C 570.336,686.584 566.17,690.084 561.5,693C 560.207,693.49 558.873,693.657 557.5,693.5C 559.751,692.182 561.751,690.516 563.5,688.5C 568.933,686.734 572.266,683.067 573.5,677.5C 574.486,673.03 574.819,668.363 574.5,663.5 Z"/></g>
<g><path style="opacity:1" fill="#626262" d="M 618.5,683.5 C 618.167,684.167 617.833,684.833 617.5,685.5C 615.078,687.04 612.411,688.04 609.5,688.5C 611.935,686.109 614.935,684.442 618.5,683.5 Z"/></g>
<g><path style="opacity:1" fill="#535353" d="M 563.5,688.5 C 561.751,690.516 559.751,692.182 557.5,693.5C 553.571,693.421 551.904,695.088 552.5,698.5C 557.63,699.804 562.63,699.804 567.5,698.5C 575.319,698.526 582.985,697.526 590.5,695.5C 591.833,695.5 593.167,695.5 594.5,695.5C 590.686,696.884 586.686,698.05 582.5,699C 571.941,699.818 561.441,700.651 551,701.5C 549.842,701.002 549.009,700.169 548.5,699C 549.317,697.51 550.15,696.01 551,694.5C 555.079,692.237 559.246,690.237 563.5,688.5 Z"/></g>
<g><path style="opacity:1" fill="#555555" d="M 637.5,673.5 C 637.586,674.496 637.252,675.329 636.5,676C 623.884,685.441 609.884,691.941 594.5,695.5C 593.167,695.5 591.833,695.5 590.5,695.5C 590.5,695.167 590.5,694.833 590.5,694.5C 597.313,693.555 603.647,691.555 609.5,688.5C 612.411,688.04 615.078,687.04 617.5,685.5C 619.674,685.25 621.341,684.25 622.5,682.5C 625.49,681.339 628.157,679.672 630.5,677.5C 632.996,676.42 635.33,675.086 637.5,673.5 Z"/></g>
<g><path style="opacity:1" fill="#636363" d="M 609.5,688.5 C 603.647,691.555 597.313,693.555 590.5,694.5C 587.518,694.963 584.518,695.296 581.5,695.5C 590.736,693.207 600.07,690.874 609.5,688.5 Z"/></g>
<g><path style="opacity:1" fill="#595959" d="M 557.5,693.5 C 557.5,693.833 557.5,694.167 557.5,694.5C 556.417,694.539 555.417,694.873 554.5,695.5C 553.227,696.257 553.227,696.923 554.5,697.5C 558.634,698.485 562.968,698.818 567.5,698.5C 562.63,699.804 557.63,699.804 552.5,698.5C 551.904,695.088 553.571,693.421 557.5,693.5 Z"/></g>
<g><path style="opacity:1" fill="#676767" d="M 557.5,694.5 C 557.389,695.117 557.056,695.617 556.5,696C 562.825,696.5 569.158,696.666 575.5,696.5C 568.687,697.491 561.687,697.825 554.5,697.5C 553.227,696.923 553.227,696.257 554.5,695.5C 555.417,694.873 556.417,694.539 557.5,694.5 Z"/></g>
<g><path style="opacity:1" fill="#5f5f5f" d="M 590.5,694.5 C 590.5,694.833 590.5,695.167 590.5,695.5C 582.985,697.526 575.319,698.526 567.5,698.5C 562.968,698.818 558.634,698.485 554.5,697.5C 561.687,697.825 568.687,697.491 575.5,696.5C 577.435,695.85 579.435,695.517 581.5,695.5C 584.518,695.296 587.518,694.963 590.5,694.5 Z"/></g>
<g><path style="opacity:0.884" fill="#d53446" d="M 1131.5,800.5 C 1144.67,798.829 1153.5,804.163 1158,816.5C 1158.67,922.167 1158.67,1027.83 1158,1133.5C 1150.92,1148.19 1139.92,1152.19 1125,1145.5C 1117.75,1138.93 1114.25,1130.59 1114.5,1120.5C 1107.37,1116.53 1100.37,1112.37 1093.5,1108C 1087.5,1105.33 1081.5,1102.67 1075.5,1100C 1064.04,1092.06 1061.2,1081.56 1067,1068.5C 1073.44,1060.73 1081.61,1057.9 1091.5,1060C 1099.15,1064.5 1107.15,1068.33 1115.5,1071.5C 1115.17,1006.93 1115.5,942.429 1116.5,878C 1103.28,884.327 1089.94,890.66 1076.5,897C 1049.01,908.241 1021.01,918.241 992.5,927C 987.167,928 981.833,929 976.5,930C 975.833,959.333 975.167,988.667 974.5,1018C 991.287,1022.38 1007.95,1027.38 1024.5,1033C 1040.14,1043.79 1041.47,1056.12 1028.5,1070C 1024.44,1071.94 1020.1,1073.11 1015.5,1073.5C 999.01,1069.48 982.677,1065.15 966.5,1060.5C 961.745,1061.69 957.078,1063.19 952.5,1065C 942.462,1065.45 932.629,1065.61 923,1065.5C 924.595,1105.47 926.762,1145.47 929.5,1185.5C 928.39,1198.78 921.224,1206.44 908,1208.5C 897.99,1207.01 890.99,1201.67 887,1192.5C 884.467,1150.17 882.134,1107.84 880,1065.5C 875.035,1065.56 869.869,1065.39 864.5,1065C 841.819,1061.99 828.653,1049.15 825,1026.5C 824.333,992.167 824.333,957.833 825,923.5C 826.891,905.931 836.058,893.765 852.5,887C 870.807,885.899 889.14,885.399 907.5,885.5C 922.833,885.667 938.167,885.833 953.5,886C 959.355,887.926 965.355,888.592 971.5,888C 1021.49,874.892 1069.16,855.559 1114.5,830C 1113.65,816.18 1119.32,806.347 1131.5,800.5 Z M 867.5,927.5 C 867.5,958.833 867.5,990.167 867.5,1021.5C 889.5,1021.5 911.5,1021.5 933.5,1021.5C 933.5,990.167 933.5,958.833 933.5,927.5C 911.5,927.5 889.5,927.5 867.5,927.5 Z"/></g>
<g><path style="opacity:0.916" fill="#505050" d="M 1303.5,1252.5 C 1362.17,1252.33 1420.83,1252.5 1479.5,1253C 1505.98,1258.15 1521.82,1273.98 1527,1300.5C 1527.67,1359.5 1527.67,1418.5 1527,1477.5C 1521.77,1501.73 1507.27,1517.23 1483.5,1524C 1422.17,1524.67 1360.83,1524.67 1299.5,1524C 1273.69,1516.86 1258.86,1500.03 1255,1473.5C 1254.04,1414.48 1254.37,1355.48 1256,1296.5C 1263.12,1272.2 1278.96,1257.53 1303.5,1252.5 Z M 1388.5,1371.5 C 1375.84,1376.63 1372.01,1385.63 1377,1398.5C 1381.93,1404.21 1388.09,1406.38 1395.5,1405C 1409.89,1398.03 1412.23,1388.36 1402.5,1376C 1398.09,1373.58 1393.42,1372.08 1388.5,1371.5 Z"/></g>
<g><path style="opacity:0.919" fill="#515151" d="M 558.5,1284.5 C 565.615,1284.08 572.615,1284.58 579.5,1286C 622.82,1310.99 666.153,1335.99 709.5,1361C 724.245,1370.99 728.078,1384.16 721,1400.5C 717.473,1404.03 713.973,1407.53 710.5,1411C 668.595,1434.49 626.928,1458.49 585.5,1483C 579.752,1485.77 573.752,1487.94 567.5,1489.5C 555.401,1487.55 546.568,1481.21 541,1470.5C 540.667,1468.83 540.333,1467.17 540,1465.5C 539.333,1412.5 539.333,1359.5 540,1306.5C 541.554,1302.39 543.387,1298.39 545.5,1294.5C 549.693,1290.91 554.026,1287.58 558.5,1284.5 Z"/></g>
<g><path style="opacity:0.999" fill="#555555" d="M 1477.5,1292.5 C 1419.83,1292.5 1362.17,1292.5 1304.5,1292.5C 1304.61,1291.88 1304.94,1291.38 1305.5,1291C 1362.17,1290.33 1418.83,1290.33 1475.5,1291C 1476.42,1291.28 1477.08,1291.78 1477.5,1292.5 Z"/></g>
<g><path style="opacity:1" fill="#616161" d="M 1304.5,1292.5 C 1362.17,1292.5 1419.83,1292.5 1477.5,1292.5C 1478.17,1293.17 1478.83,1293.83 1479.5,1294.5C 1421.83,1294.33 1364.17,1294.5 1306.5,1295C 1304.85,1295.61 1303.18,1296.11 1301.5,1296.5C 1302.15,1294.86 1303.15,1293.53 1304.5,1292.5 Z"/></g>
<g><path style="opacity:1" fill="#6e6e6e" d="M 1479.5,1294.5 C 1479.5,1294.83 1479.5,1295.17 1479.5,1295.5C 1482.37,1297.87 1484.21,1300.87 1485,1304.5C 1485.82,1361.86 1485.65,1419.2 1484.5,1476.5C 1482.13,1480.02 1478.79,1482.19 1474.5,1483C 1419.17,1483.67 1363.83,1483.67 1308.5,1483C 1306.56,1482.19 1304.56,1481.69 1302.5,1481.5C 1300.87,1479.37 1299.04,1477.37 1297,1475.5C 1296.5,1418.17 1296.33,1360.83 1296.5,1303.5C 1296.5,1303.17 1296.5,1302.83 1296.5,1302.5C 1298.63,1300.91 1300.3,1298.91 1301.5,1296.5C 1303.18,1296.11 1304.85,1295.61 1306.5,1295C 1364.17,1294.5 1421.83,1294.33 1479.5,1294.5 Z M 1388.5,1371.5 C 1375.84,1376.63 1372.01,1385.63 1377,1398.5C 1381.93,1404.21 1388.09,1406.38 1395.5,1405C 1409.89,1398.03 1412.23,1388.36 1402.5,1376C 1398.09,1373.58 1393.42,1372.08 1388.5,1371.5 Z"/></g>
<g><path style="opacity:1" fill="#555555" d="M 1304.5,1292.5 C 1303.15,1293.53 1302.15,1294.86 1301.5,1296.5C 1298.44,1297.27 1296.77,1299.27 1296.5,1302.5C 1296.5,1302.83 1296.5,1303.17 1296.5,1303.5C 1295.17,1331.49 1294.5,1359.83 1294.5,1388.5C 1294.51,1417.86 1294.85,1447.2 1295.5,1476.5C 1294.78,1476.08 1294.28,1475.42 1294,1474.5C 1293.33,1417.17 1293.33,1359.83 1294,1302.5C 1295.78,1297.22 1299.28,1293.88 1304.5,1292.5 Z"/></g>
<g><path style="opacity:1" fill="#646464" d="M 1301.5,1296.5 C 1300.3,1298.91 1298.63,1300.91 1296.5,1302.5C 1296.77,1299.27 1298.44,1297.27 1301.5,1296.5 Z"/></g>
<g><path style="opacity:1" fill="#545454" d="M 1477.5,1292.5 C 1479.31,1292.49 1480.98,1292.99 1482.5,1294C 1484.55,1296.59 1486.72,1299.09 1489,1301.5C 1489.67,1358.83 1489.67,1416.17 1489,1473.5C 1488.39,1475.07 1487.56,1476.4 1486.5,1477.5C 1487.65,1419.2 1487.82,1360.86 1487,1302.5C 1485.26,1299.26 1482.76,1296.93 1479.5,1295.5C 1479.5,1295.17 1479.5,1294.83 1479.5,1294.5C 1478.83,1293.83 1478.17,1293.17 1477.5,1292.5 Z"/></g>
<g><path style="opacity:1" fill="#606060" d="M 1296.5,1303.5 C 1296.33,1360.83 1296.5,1418.17 1297,1475.5C 1299.04,1477.37 1300.87,1479.37 1302.5,1481.5C 1303.69,1482.27 1304.69,1483.27 1305.5,1484.5C 1301.34,1482.82 1298.01,1480.15 1295.5,1476.5C 1294.85,1447.2 1294.51,1417.86 1294.5,1388.5C 1294.5,1359.83 1295.17,1331.49 1296.5,1303.5 Z"/></g>
<g><path style="opacity:1" fill="#626262" d="M 1479.5,1295.5 C 1482.76,1296.93 1485.26,1299.26 1487,1302.5C 1487.82,1360.86 1487.65,1419.2 1486.5,1477.5C 1485.6,1478.29 1484.93,1479.29 1484.5,1480.5C 1484.17,1480.5 1483.83,1480.5 1483.5,1480.5C 1483.83,1479.17 1484.17,1477.83 1484.5,1476.5C 1485.65,1419.2 1485.82,1361.86 1485,1304.5C 1484.21,1300.87 1482.37,1297.87 1479.5,1295.5 Z"/></g>
<g><path style="opacity:1" fill="#666666" d="M 1398.5,1331.5 C 1401.83,1331.22 1404.83,1331.88 1407.5,1333.5C 1404.27,1333.32 1401.27,1332.66 1398.5,1331.5 Z"/></g>
<g><path style="opacity:1" fill="#636363" d="M 1383.5,1331.5 C 1382.83,1332.17 1382.17,1332.83 1381.5,1333.5C 1374.66,1335.13 1367.99,1337.13 1361.5,1339.5C 1367.95,1334.71 1375.28,1332.04 1383.5,1331.5 Z"/></g>
<g><path style="opacity:0.968" fill="#515151" d="M 1431.5,1350.5 C 1432.83,1351.17 1434.17,1351.83 1435.5,1352.5C 1436.75,1356.57 1438.75,1360.24 1441.5,1363.5C 1442.17,1365.83 1442.83,1368.17 1443.5,1370.5C 1447.44,1386.83 1445.77,1402.49 1438.5,1417.5C 1436.36,1422.78 1433.03,1427.12 1428.5,1430.5C 1422.75,1433.88 1416.75,1437.04 1410.5,1440C 1400.36,1443.12 1390.03,1443.78 1379.5,1442C 1372.4,1439.8 1365.4,1437.3 1358.5,1434.5C 1357.07,1430.74 1354.41,1428.41 1350.5,1427.5C 1349.83,1426.17 1348.83,1425.17 1347.5,1424.5C 1347.44,1423.39 1347.11,1422.39 1346.5,1421.5C 1330.39,1393.68 1333.72,1368.51 1356.5,1346C 1382.61,1329.02 1407.61,1330.52 1431.5,1350.5 Z M 1388.5,1371.5 C 1375.84,1376.63 1372.01,1385.63 1377,1398.5C 1381.93,1404.21 1388.09,1406.38 1395.5,1405C 1409.89,1398.03 1412.23,1388.36 1402.5,1376C 1398.09,1373.58 1393.42,1372.08 1388.5,1371.5 Z"/></g>
<g><path style="opacity:1" fill="#5d5d5d" d="M 1383.5,1331.5 C 1388.5,1331.5 1393.5,1331.5 1398.5,1331.5C 1401.27,1332.66 1404.27,1333.32 1407.5,1333.5C 1409.17,1334.17 1410.83,1334.83 1412.5,1335.5C 1413.17,1336.17 1413.83,1336.83 1414.5,1337.5C 1403.84,1333.45 1392.84,1332.11 1381.5,1333.5C 1382.17,1332.83 1382.83,1332.17 1383.5,1331.5 Z"/></g>
<g><path style="opacity:1" fill="#626262" d="M 599.5,1342.5 C 599.833,1343.5 600.5,1344.17 601.5,1344.5C 601.833,1345.17 602.167,1345.83 602.5,1346.5C 595.394,1342.96 588.561,1338.96 582,1334.5C 581.667,1334.83 581.333,1335.17 581,1335.5C 580.167,1369.5 580.333,1403.5 581.5,1437.5C 585.096,1435.53 588.763,1433.87 592.5,1432.5C 592.047,1433.46 591.381,1434.29 590.5,1435C 586.93,1436.8 583.264,1438.3 579.5,1439.5C 579.333,1404.5 579.5,1369.5 580,1334.5C 581.049,1333.48 582.216,1333.32 583.5,1334C 586.127,1335.31 588.46,1336.98 590.5,1339C 593.602,1339.94 596.602,1341.11 599.5,1342.5 Z"/></g>
<g><path style="opacity:1" fill="#6e6e6e" d="M 602.5,1346.5 C 605.008,1348.92 608.008,1350.59 611.5,1351.5C 611.973,1352.91 612.973,1353.57 614.5,1353.5C 615.391,1354.11 616.391,1354.44 617.5,1354.5C 618.802,1356.82 620.802,1358.16 623.5,1358.5C 624.659,1360.25 626.326,1361.25 628.5,1361.5C 629.492,1361.33 630.158,1361.66 630.5,1362.5C 630.973,1363.91 631.973,1364.57 633.5,1364.5C 634.492,1364.33 635.158,1364.66 635.5,1365.5C 639.268,1368.2 643.268,1370.54 647.5,1372.5C 648.492,1372.33 649.158,1372.66 649.5,1373.5C 650.659,1375.25 652.326,1376.25 654.5,1376.5C 655.659,1378.25 657.326,1379.25 659.5,1379.5C 660.492,1379.33 661.158,1379.66 661.5,1380.5C 663.579,1382.87 666.246,1384.21 669.5,1384.5C 669.5,1385.5 669.5,1386.5 669.5,1387.5C 668.486,1388.67 667.153,1389.34 665.5,1389.5C 662.996,1390.58 660.663,1391.92 658.5,1393.5C 656.973,1393.43 655.973,1394.09 655.5,1395.5C 650.167,1398.5 644.833,1401.5 639.5,1404.5C 637.434,1406.2 635.1,1407.53 632.5,1408.5C 630.566,1409.11 628.899,1410.11 627.5,1411.5C 625.596,1411.74 624.262,1412.74 623.5,1414.5C 621.973,1414.43 620.973,1415.09 620.5,1416.5C 619.508,1416.33 618.842,1416.66 618.5,1417.5C 615.279,1417.9 612.612,1419.23 610.5,1421.5C 607.982,1422.92 605.649,1424.59 603.5,1426.5C 602.833,1426.5 602.167,1426.5 601.5,1426.5C 599.456,1427.51 597.456,1428.51 595.5,1429.5C 594.694,1430.73 593.694,1431.73 592.5,1432.5C 588.763,1433.87 585.096,1435.53 581.5,1437.5C 580.333,1403.5 580.167,1369.5 581,1335.5C 581.333,1335.17 581.667,1334.83 582,1334.5C 588.561,1338.96 595.394,1342.96 602.5,1346.5 Z"/></g>
<g><path style="opacity:1" fill="#575757" d="M 599.5,1342.5 C 596.602,1341.11 593.602,1339.94 590.5,1339C 588.46,1336.98 586.127,1335.31 583.5,1334C 582.216,1333.32 581.049,1333.48 580,1334.5C 579.5,1369.5 579.333,1404.5 579.5,1439.5C 583.264,1438.3 586.93,1436.8 590.5,1435C 591.381,1434.29 592.047,1433.46 592.5,1432.5C 594.97,1432.35 596.97,1431.35 598.5,1429.5C 599.833,1428.83 600.833,1427.83 601.5,1426.5C 602.167,1426.5 602.833,1426.5 603.5,1426.5C 602.972,1427.72 602.305,1428.89 601.5,1430C 594.85,1434.21 588.017,1438.04 581,1441.5C 580.228,1441.36 579.561,1441.02 579,1440.5C 578.167,1404.16 578.333,1367.83 579.5,1331.5C 580.451,1330.67 581.451,1330.51 582.5,1331C 588.37,1334.73 594.037,1338.57 599.5,1342.5 Z"/></g>
<g><path style="opacity:1" fill="#656565" d="M 1412.5,1335.5 C 1415.24,1335.71 1417.57,1336.71 1419.5,1338.5C 1418.5,1338.5 1417.5,1338.5 1416.5,1338.5C 1416.16,1337.66 1415.49,1337.33 1414.5,1337.5C 1413.83,1336.83 1413.17,1336.17 1412.5,1335.5 Z"/></g>
<g><path style="opacity:1" fill="#5f5f5f" d="M 1416.5,1338.5 C 1417.5,1338.5 1418.5,1338.5 1419.5,1338.5C 1421.94,1339.71 1423.94,1341.38 1425.5,1343.5C 1422.33,1342.08 1419.33,1340.42 1416.5,1338.5 Z"/></g>
<g><path style="opacity:1" fill="#565656" d="M 601.5,1344.5 C 605.604,1344.88 609.271,1346.38 612.5,1349C 613.252,1349.67 613.586,1350.5 613.5,1351.5C 612.833,1351.5 612.167,1351.5 611.5,1351.5C 609.212,1348.54 606.212,1346.88 602.5,1346.5C 602.167,1345.83 601.833,1345.17 601.5,1344.5 Z"/></g>
<g><path style="opacity:1" fill="#646464" d="M 602.5,1346.5 C 606.212,1346.88 609.212,1348.54 611.5,1351.5C 608.008,1350.59 605.008,1348.92 602.5,1346.5 Z"/></g>
<g><path style="opacity:1" fill="#616161" d="M 1425.5,1343.5 C 1426.92,1343.71 1428.26,1344.21 1429.5,1345C 1432.09,1347.08 1434.09,1349.58 1435.5,1352.5C 1434.17,1351.83 1432.83,1351.17 1431.5,1350.5C 1429.73,1347.94 1427.73,1345.61 1425.5,1343.5 Z"/></g>
<g><path style="opacity:1" fill="#666666" d="M 611.5,1351.5 C 612.167,1351.5 612.833,1351.5 613.5,1351.5C 613.833,1352.17 614.167,1352.83 614.5,1353.5C 612.973,1353.57 611.973,1352.91 611.5,1351.5 Z"/></g>
<g><path style="opacity:1" fill="#626262" d="M 1358.5,1341.5 C 1351.42,1348.24 1345.09,1355.58 1339.5,1363.5C 1343.68,1354.32 1350.01,1346.99 1358.5,1341.5 Z"/></g>
<g><path style="opacity:1" fill="#656565" d="M 617.5,1354.5 C 619.853,1355.34 621.853,1356.67 623.5,1358.5C 620.802,1358.16 618.802,1356.82 617.5,1354.5 Z"/></g>
<g><path style="opacity:1" fill="#626262" d="M 1435.5,1352.5 C 1439.16,1355.8 1441.82,1359.8 1443.5,1364.5C 1442.83,1364.17 1442.17,1363.83 1441.5,1363.5C 1438.75,1360.24 1436.75,1356.57 1435.5,1352.5 Z"/></g>
<g><path style="opacity:1" fill="#656565" d="M 623.5,1358.5 C 625.674,1358.75 627.341,1359.75 628.5,1361.5C 626.326,1361.25 624.659,1360.25 623.5,1358.5 Z"/></g>
<g><path style="opacity:1" fill="#666666" d="M 630.5,1362.5 C 632.027,1362.43 633.027,1363.09 633.5,1364.5C 631.973,1364.57 630.973,1363.91 630.5,1362.5 Z"/></g>
<g><path style="opacity:1" fill="#565656" d="M 613.5,1351.5 C 617.541,1352.81 621.541,1354.31 625.5,1356C 640.709,1365.77 656.376,1374.77 672.5,1383C 674.922,1385.11 674.922,1387.11 672.5,1389C 668.355,1390.24 664.688,1392.24 661.5,1395C 660.207,1395.49 658.873,1395.66 657.5,1395.5C 657.833,1394.83 658.167,1394.17 658.5,1393.5C 661.614,1393.45 663.948,1392.11 665.5,1389.5C 667.153,1389.34 668.486,1388.67 669.5,1387.5C 672.167,1386.5 672.167,1385.5 669.5,1384.5C 667.211,1382.61 664.545,1381.28 661.5,1380.5C 661.158,1379.66 660.492,1379.33 659.5,1379.5C 658.599,1377.27 656.933,1376.27 654.5,1376.5C 653.341,1374.75 651.674,1373.75 649.5,1373.5C 649.158,1372.66 648.492,1372.33 647.5,1372.5C 644.44,1368.69 640.44,1366.36 635.5,1365.5C 635.158,1364.66 634.492,1364.33 633.5,1364.5C 633.027,1363.09 632.027,1362.43 630.5,1362.5C 630.158,1361.66 629.492,1361.33 628.5,1361.5C 627.341,1359.75 625.674,1358.75 623.5,1358.5C 621.853,1356.67 619.853,1355.34 617.5,1354.5C 616.391,1354.44 615.391,1354.11 614.5,1353.5C 614.167,1352.83 613.833,1352.17 613.5,1351.5 Z"/></g>
<g><path style="opacity:1" fill="#555555" d="M 1414.5,1337.5 C 1415.49,1337.33 1416.16,1337.66 1416.5,1338.5C 1419.33,1340.42 1422.33,1342.08 1425.5,1343.5C 1427.73,1345.61 1429.73,1347.94 1431.5,1350.5C 1407.61,1330.52 1382.61,1329.02 1356.5,1346C 1333.72,1368.51 1330.39,1393.68 1346.5,1421.5C 1346.17,1421.5 1345.83,1421.5 1345.5,1421.5C 1339.46,1414.05 1336.12,1405.38 1335.5,1395.5C 1335.38,1388.47 1335.71,1381.47 1336.5,1374.5C 1338.03,1370.97 1339.03,1367.31 1339.5,1363.5C 1345.09,1355.58 1351.42,1348.24 1358.5,1341.5C 1360.03,1341.57 1361.03,1340.91 1361.5,1339.5C 1367.99,1337.13 1374.66,1335.13 1381.5,1333.5C 1392.84,1332.11 1403.84,1333.45 1414.5,1337.5 Z"/></g>
<g><path style="opacity:1" fill="#5b5b5b" d="M 1441.5,1363.5 C 1442.17,1363.83 1442.83,1364.17 1443.5,1364.5C 1444.69,1368.26 1446.02,1371.93 1447.5,1375.5C 1447.83,1383.35 1447.49,1391.02 1446.5,1398.5C 1446.67,1391.49 1446.5,1384.49 1446,1377.5C 1445.3,1375 1444.47,1372.66 1443.5,1370.5C 1442.83,1368.17 1442.17,1365.83 1441.5,1363.5 Z"/></g>
<g><path style="opacity:1" fill="#636363" d="M 635.5,1365.5 C 640.44,1366.36 644.44,1368.69 647.5,1372.5C 643.268,1370.54 639.268,1368.2 635.5,1365.5 Z"/></g>
<g><path style="opacity:1" fill="#636363" d="M 1339.5,1363.5 C 1339.03,1367.31 1338.03,1370.97 1336.5,1374.5C 1335.83,1375.5 1335.17,1376.5 1334.5,1377.5C 1335.26,1372.43 1336.93,1367.76 1339.5,1363.5 Z"/></g>
<g><path style="opacity:1" fill="#535353" d="M 1443.5,1370.5 C 1444.47,1372.66 1445.3,1375 1446,1377.5C 1446.5,1384.49 1446.67,1391.49 1446.5,1398.5C 1446.5,1398.83 1446.5,1399.17 1446.5,1399.5C 1445.18,1403.41 1443.85,1407.41 1442.5,1411.5C 1442.5,1412.17 1442.5,1412.83 1442.5,1413.5C 1440.74,1414.26 1439.74,1415.6 1439.5,1417.5C 1439.17,1417.5 1438.83,1417.5 1438.5,1417.5C 1445.77,1402.49 1447.44,1386.83 1443.5,1370.5 Z"/></g>
<g><path style="opacity:1" fill="#656565" d="M 649.5,1373.5 C 651.674,1373.75 653.341,1374.75 654.5,1376.5C 652.326,1376.25 650.659,1375.25 649.5,1373.5 Z"/></g>
<g><path style="opacity:1" fill="#666666" d="M 654.5,1376.5 C 656.933,1376.27 658.599,1377.27 659.5,1379.5C 657.326,1379.25 655.659,1378.25 654.5,1376.5 Z"/></g>
<g><path style="opacity:1" fill="#636363" d="M 1447.5,1375.5 C 1448.66,1383.99 1448.82,1392.66 1448,1401.5C 1447.77,1402.74 1447.27,1403.74 1446.5,1404.5C 1446.5,1402.83 1446.5,1401.17 1446.5,1399.5C 1446.5,1399.17 1446.5,1398.83 1446.5,1398.5C 1447.49,1391.02 1447.83,1383.35 1447.5,1375.5 Z"/></g>
<g><path style="opacity:1" fill="#646464" d="M 661.5,1380.5 C 664.545,1381.28 667.211,1382.61 669.5,1384.5C 666.246,1384.21 663.579,1382.87 661.5,1380.5 Z"/></g>
<g><path style="opacity:1" fill="#5c5c5c" d="M 1336.5,1374.5 C 1335.71,1381.47 1335.38,1388.47 1335.5,1395.5C 1334.51,1389.69 1334.18,1383.69 1334.5,1377.5C 1335.17,1376.5 1335.83,1375.5 1336.5,1374.5 Z"/></g>
<g><path style="opacity:1" fill="#616161" d="M 669.5,1384.5 C 672.167,1385.5 672.167,1386.5 669.5,1387.5C 669.5,1386.5 669.5,1385.5 669.5,1384.5 Z"/></g>
<g><path style="opacity:1" fill="#636363" d="M 665.5,1389.5 C 663.948,1392.11 661.614,1393.45 658.5,1393.5C 660.663,1391.92 662.996,1390.58 665.5,1389.5 Z"/></g>
<g><path style="opacity:1" fill="#646464" d="M 658.5,1393.5 C 658.167,1394.17 657.833,1394.83 657.5,1395.5C 656.833,1395.5 656.167,1395.5 655.5,1395.5C 655.973,1394.09 656.973,1393.43 658.5,1393.5 Z"/></g>
<g><path style="opacity:1" fill="#5f5f5f" d="M 655.5,1395.5 C 656.167,1395.5 656.833,1395.5 657.5,1395.5C 653.249,1397.74 649.249,1400.41 645.5,1403.5C 643.5,1403.83 641.5,1404.17 639.5,1404.5C 644.833,1401.5 650.167,1398.5 655.5,1395.5 Z"/></g>
<g><path style="opacity:1" fill="#5d5d5d" d="M 1446.5,1399.5 C 1446.5,1401.17 1446.5,1402.83 1446.5,1404.5C 1445.57,1405.57 1445.23,1406.9 1445.5,1408.5C 1444.73,1409.69 1443.73,1410.69 1442.5,1411.5C 1443.85,1407.41 1445.18,1403.41 1446.5,1399.5 Z"/></g>
<g><path style="opacity:1" fill="#575757" d="M 645.5,1403.5 C 641.683,1407.41 637.016,1409.74 631.5,1410.5C 631.833,1409.83 632.167,1409.17 632.5,1408.5C 635.1,1407.53 637.434,1406.2 639.5,1404.5C 641.5,1404.17 643.5,1403.83 645.5,1403.5 Z"/></g>
<g><path style="opacity:1" fill="#666666" d="M 1445.5,1408.5 C 1444.91,1411.06 1443.91,1413.4 1442.5,1415.5C 1442.5,1414.83 1442.5,1414.17 1442.5,1413.5C 1442.5,1412.83 1442.5,1412.17 1442.5,1411.5C 1443.73,1410.69 1444.73,1409.69 1445.5,1408.5 Z"/></g>
<g><path style="opacity:1" fill="#646464" d="M 632.5,1408.5 C 632.167,1409.17 631.833,1409.83 631.5,1410.5C 630.833,1410.5 630.5,1410.83 630.5,1411.5C 629.5,1411.5 628.5,1411.5 627.5,1411.5C 628.899,1410.11 630.566,1409.11 632.5,1408.5 Z"/></g>
<g><path style="opacity:1" fill="#646464" d="M 1334.5,1377.5 C 1334.18,1383.69 1334.51,1389.69 1335.5,1395.5C 1336.12,1405.38 1339.46,1414.05 1345.5,1421.5C 1345.5,1422.17 1345.5,1422.83 1345.5,1423.5C 1334.43,1409.95 1330.76,1394.62 1334.5,1377.5 Z"/></g>
<g><path style="opacity:1" fill="#636363" d="M 627.5,1411.5 C 626.738,1413.26 625.404,1414.26 623.5,1414.5C 624.262,1412.74 625.596,1411.74 627.5,1411.5 Z"/></g>
<g><path style="opacity:1" fill="#565656" d="M 627.5,1411.5 C 628.5,1411.5 629.5,1411.5 630.5,1411.5C 628.494,1414.35 625.828,1416.52 622.5,1418C 617.073,1421.46 611.407,1424.29 605.5,1426.5C 608.009,1425.08 610.343,1423.41 612.5,1421.5C 614.636,1420.35 616.636,1419.01 618.5,1417.5C 618.842,1416.66 619.508,1416.33 620.5,1416.5C 622.027,1416.57 623.027,1415.91 623.5,1414.5C 625.404,1414.26 626.738,1413.26 627.5,1411.5 Z"/></g>
<g><path style="opacity:1" fill="#5e5e5e" d="M 623.5,1414.5 C 623.027,1415.91 622.027,1416.57 620.5,1416.5C 620.973,1415.09 621.973,1414.43 623.5,1414.5 Z"/></g>
<g><path style="opacity:1" fill="#5e5e5e" d="M 1442.5,1413.5 C 1442.5,1414.17 1442.5,1414.83 1442.5,1415.5C 1441.5,1416.17 1440.5,1416.83 1439.5,1417.5C 1439.74,1415.6 1440.74,1414.26 1442.5,1413.5 Z"/></g>
<g><path style="opacity:1" fill="#646464" d="M 618.5,1417.5 C 616.636,1419.01 614.636,1420.35 612.5,1421.5C 611.833,1421.5 611.167,1421.5 610.5,1421.5C 612.612,1419.23 615.279,1417.9 618.5,1417.5 Z"/></g>
<g><path style="opacity:1" fill="#5e5e5e" d="M 610.5,1421.5 C 611.167,1421.5 611.833,1421.5 612.5,1421.5C 610.343,1423.41 608.009,1425.08 605.5,1426.5C 604.833,1426.5 604.167,1426.5 603.5,1426.5C 605.649,1424.59 607.982,1422.92 610.5,1421.5 Z"/></g>
<g><path style="opacity:1" fill="#5c5c5c" d="M 1345.5,1421.5 C 1345.83,1421.5 1346.17,1421.5 1346.5,1421.5C 1347.11,1422.39 1347.44,1423.39 1347.5,1424.5C 1346.83,1424.17 1346.17,1423.83 1345.5,1423.5C 1345.5,1422.83 1345.5,1422.17 1345.5,1421.5 Z"/></g>
<g><path style="opacity:1" fill="#636363" d="M 1345.5,1423.5 C 1346.17,1423.83 1346.83,1424.17 1347.5,1424.5C 1348.83,1425.17 1349.83,1426.17 1350.5,1427.5C 1350.5,1427.83 1350.5,1428.17 1350.5,1428.5C 1347.83,1427.83 1346.17,1426.17 1345.5,1423.5 Z"/></g>
<g><path style="opacity:1" fill="#646464" d="M 601.5,1426.5 C 600.833,1427.83 599.833,1428.83 598.5,1429.5C 597.5,1429.5 596.5,1429.5 595.5,1429.5C 597.456,1428.51 599.456,1427.51 601.5,1426.5 Z"/></g>
<g><path style="opacity:1" fill="#575757" d="M 1350.5,1428.5 C 1350.5,1428.17 1350.5,1427.83 1350.5,1427.5C 1354.41,1428.41 1357.07,1430.74 1358.5,1434.5C 1357.83,1434.5 1357.17,1434.5 1356.5,1434.5C 1354.83,1432.17 1352.83,1430.17 1350.5,1428.5 Z"/></g>
<g><path style="opacity:1" fill="#5d5d5d" d="M 595.5,1429.5 C 596.5,1429.5 597.5,1429.5 598.5,1429.5C 596.97,1431.35 594.97,1432.35 592.5,1432.5C 593.694,1431.73 594.694,1430.73 595.5,1429.5 Z"/></g>
<g><path style="opacity:1" fill="#626262" d="M 1438.5,1417.5 C 1438.83,1417.5 1439.17,1417.5 1439.5,1417.5C 1436.84,1425.5 1431.84,1431.5 1424.5,1435.5C 1425.48,1433.52 1426.82,1431.85 1428.5,1430.5C 1433.03,1427.12 1436.36,1422.78 1438.5,1417.5 Z"/></g>
<g><path style="opacity:1" fill="#666666" d="M 1350.5,1428.5 C 1352.83,1430.17 1354.83,1432.17 1356.5,1434.5C 1353.5,1433.5 1351.5,1431.5 1350.5,1428.5 Z"/></g>
<g><path style="opacity:1" fill="#555555" d="M 1428.5,1430.5 C 1426.82,1431.85 1425.48,1433.52 1424.5,1435.5C 1420.17,1436.94 1416.17,1438.94 1412.5,1441.5C 1400.24,1444.93 1387.9,1445.26 1375.5,1442.5C 1373.83,1442.5 1372.17,1442.5 1370.5,1442.5C 1368.42,1440.13 1365.75,1438.79 1362.5,1438.5C 1362.03,1437.09 1361.03,1436.43 1359.5,1436.5C 1359.17,1435.83 1358.83,1435.17 1358.5,1434.5C 1365.4,1437.3 1372.4,1439.8 1379.5,1442C 1390.03,1443.78 1400.36,1443.12 1410.5,1440C 1416.75,1437.04 1422.75,1433.88 1428.5,1430.5 Z"/></g>
<g><path style="opacity:1" fill="#656565" d="M 1356.5,1434.5 C 1357.17,1434.5 1357.83,1434.5 1358.5,1434.5C 1358.83,1435.17 1359.17,1435.83 1359.5,1436.5C 1357.97,1436.57 1356.97,1435.91 1356.5,1434.5 Z"/></g>
<g><path style="opacity:1" fill="#656565" d="M 1359.5,1436.5 C 1361.03,1436.43 1362.03,1437.09 1362.5,1438.5C 1360.97,1438.57 1359.97,1437.91 1359.5,1436.5 Z"/></g>
<g><path style="opacity:1" fill="#656565" d="M 1362.5,1438.5 C 1365.75,1438.79 1368.42,1440.13 1370.5,1442.5C 1367.5,1441.73 1364.84,1440.4 1362.5,1438.5 Z"/></g>
<g><path style="opacity:1" fill="#636363" d="M 1424.5,1435.5 C 1421.17,1438.84 1417.17,1441.17 1412.5,1442.5C 1412.5,1442.17 1412.5,1441.83 1412.5,1441.5C 1416.17,1438.94 1420.17,1436.94 1424.5,1435.5 Z"/></g>
<g><path style="opacity:1" fill="#656565" d="M 1370.5,1442.5 C 1372.17,1442.5 1373.83,1442.5 1375.5,1442.5C 1376.91,1443.93 1378.58,1444.93 1380.5,1445.5C 1376.74,1445.6 1373.41,1444.6 1370.5,1442.5 Z"/></g>
<g><path style="opacity:1" fill="#5d5d5d" d="M 1412.5,1441.5 C 1412.5,1441.83 1412.5,1442.17 1412.5,1442.5C 1408.21,1443.62 1403.88,1444.62 1399.5,1445.5C 1393.83,1445.5 1388.17,1445.5 1382.5,1445.5C 1381.83,1445.5 1381.17,1445.5 1380.5,1445.5C 1378.58,1444.93 1376.91,1443.93 1375.5,1442.5C 1387.9,1445.26 1400.24,1444.93 1412.5,1441.5 Z"/></g>
<g><path style="opacity:1" fill="#676767" d="M 1382.5,1445.5 C 1388.17,1445.5 1393.83,1445.5 1399.5,1445.5C 1393.87,1447.87 1388.21,1447.87 1382.5,1445.5 Z"/></g>
<g><path style="opacity:0.987" fill="#555555" d="M 1483.5,1480.5 C 1483.83,1480.5 1484.17,1480.5 1484.5,1480.5C 1483,1483.27 1480.67,1485.1 1477.5,1486C 1448.83,1486.17 1420.17,1486.33 1391.5,1486.5C 1362.49,1486.5 1333.83,1485.83 1305.5,1484.5C 1363.17,1484.67 1420.83,1484.5 1478.5,1484C 1480.32,1483 1481.99,1481.84 1483.5,1480.5 Z"/></g>
<g><path style="opacity:0.987" fill="#646464" d="M 1484.5,1476.5 C 1484.17,1477.83 1483.83,1479.17 1483.5,1480.5C 1481.99,1481.84 1480.32,1483 1478.5,1484C 1420.83,1484.5 1363.17,1484.67 1305.5,1484.5C 1304.69,1483.27 1303.69,1482.27 1302.5,1481.5C 1304.56,1481.69 1306.56,1482.19 1308.5,1483C 1363.83,1483.67 1419.17,1483.67 1474.5,1483C 1478.79,1482.19 1482.13,1480.02 1484.5,1476.5 Z"/></g>
</svg>
