<?xml version="1.0" encoding="UTF-8"?>
<!DOCTYPE svg PUBLIC "-//W3C//DTD SVG 1.1//EN" "http://www.w3.org/Graphics/SVG/1.1/DTD/svg11.dtd">
<svg xmlns="http://www.w3.org/2000/svg" version="1.1" width="2000px" height="2000px" style="shape-rendering:geometricPrecision; text-rendering:geometricPrecision; image-rendering:optimizeQuality; fill-rule:evenodd; clip-rule:evenodd" xmlns:xlink="http://www.w3.org/1999/xlink">
<g><path style="opacity:0.923" fill="#d83447" d="M 858.5,572.5 C 844.784,572.202 831.118,572.535 817.5,573.5C 723.332,573.167 629.332,573.501 535.5,574.5C 534.596,575.209 534.263,576.209 534.5,577.5C 520.167,577.5 505.833,577.5 491.5,577.5C 485.69,576.51 479.69,576.177 473.5,576.5C 473.5,575.5 473.5,574.5 473.5,573.5C 467.824,573.334 462.157,573.501 456.5,574C 455.244,574.417 454.577,575.25 454.5,576.5C 442.162,576.667 429.829,576.5 417.5,576C 414.861,574.054 411.861,573.054 408.5,573C 372.235,554.209 360.901,525.042 374.5,485.5C 384.652,467.749 399.652,456.249 419.5,451C 454.171,450.833 488.838,450.333 523.5,449.5C 551.825,409.84 589.492,384.174 636.5,372.5C 718.218,360.06 782.885,387.06 830.5,453.5C 832.549,458.211 835.049,462.544 838,466.5C 838.49,467.793 838.657,469.127 838.5,470.5C 839.5,470.5 840.5,470.5 841.5,470.5C 841.34,472.199 841.506,473.866 842,475.5C 845.264,482.017 848.097,488.683 850.5,495.5C 852.347,503.316 854.514,510.983 857,518.5C 858.366,536.468 858.866,554.468 858.5,572.5 Z M 785.5,470.5 C 787.032,471.677 788.532,473.011 790,474.5C 790.483,475.448 790.649,476.448 790.5,477.5C 791.976,479.062 793.476,480.729 795,482.5C 803.639,498.22 809.473,514.887 812.5,532.5C 764.5,532.5 716.5,532.5 668.5,532.5C 665.412,526.857 662.912,520.857 661,514.5C 658.145,509.437 655.145,504.437 652,499.5C 651.51,498.207 651.343,496.873 651.5,495.5C 650.5,495.5 649.5,495.5 648.5,495.5C 646.483,491.13 643.816,487.13 640.5,483.5C 623.479,466.303 603.479,455.637 580.5,451.5C 623.945,414.458 672.778,405.458 727,424.5C 744.17,431.747 759.503,441.747 773,454.5C 777.756,459.417 781.923,464.75 785.5,470.5 Z M 428.5,495.5 C 475.501,495.333 522.501,495.5 569.5,496C 592.218,499.025 608.551,510.859 618.5,531.5C 556.169,532.667 493.836,532.833 431.5,532C 416.019,528.475 410.852,519.308 416,504.5C 419.26,500.049 423.427,497.049 428.5,495.5 Z"/></g>
<g><path style="opacity:0.917" fill="#d83447" d="M 1254.5,471.5 C 1251.39,471.555 1249.05,472.888 1247.5,475.5C 1246.83,475.5 1246.5,475.833 1246.5,476.5C 1240.18,481.157 1234.51,486.49 1229.5,492.5C 1227.25,493.08 1225.58,494.413 1224.5,496.5C 1222.5,494.083 1221.5,494.75 1221.5,498.5C 1218.17,498.5 1216.5,500.167 1216.5,503.5C 1215.5,503.5 1214.5,503.5 1213.5,503.5C 1213.5,504.833 1213.5,506.167 1213.5,507.5C 1203.5,517.833 1193.5,528.167 1183.5,538.5C 1176.44,544.556 1170.11,551.222 1164.5,558.5C 1162.83,559.5 1161.5,560.833 1160.5,562.5C 1158.1,564.296 1156.43,566.63 1155.5,569.5C 1154.5,570.683 1153.66,572.016 1153,573.5C 1117.83,608.995 1082.5,643.995 1047,678.5C 1044.85,683.514 1041.01,685.514 1035.5,684.5C 1035.76,683.022 1035.43,681.689 1034.5,680.5C 1032.8,679.636 1031.64,678.303 1031,676.5C 1015.48,661.412 999.983,646.412 984.5,631.5C 984.5,629.5 984.5,627.5 984.5,625.5C 992.599,617.006 1000.93,608.673 1009.5,600.5C 1010.39,599.675 1010.72,598.675 1010.5,597.5C 1012.99,597.298 1015.32,597.798 1017.5,599C 1024.66,607.163 1032.16,614.996 1040,622.5C 1072.73,589.036 1105.89,556.036 1139.5,523.5C 1141.87,522.706 1144.21,521.706 1146.5,520.5C 1147.3,520.043 1147.63,519.376 1147.5,518.5C 1149.93,517.25 1152.27,515.75 1154.5,514C 1173.73,495.269 1192.4,476.103 1210.5,456.5C 1216.56,451.443 1221.89,445.776 1226.5,439.5C 1228.5,438.167 1230.17,436.5 1231.5,434.5C 1231.66,432.847 1232.33,431.514 1233.5,430.5C 1236.28,429.391 1237.95,427.391 1238.5,424.5C 1247.54,414.631 1256.7,404.964 1266,395.5C 1267.56,396.029 1269.06,396.696 1270.5,397.5C 1279.22,406.221 1287.89,414.887 1296.5,423.5C 1297.64,425.421 1297.81,427.421 1297,429.5C 1282.59,443.382 1268.42,457.382 1254.5,471.5 Z"/></g>
<g><path style="opacity:0.192" fill="#b93b48" d="M 1238.5,424.5 C 1237.95,427.391 1236.28,429.391 1233.5,430.5C 1233.5,430.167 1233.5,429.833 1233.5,429.5C 1234.88,427.451 1236.55,425.785 1238.5,424.5 Z"/></g>
<g><path style="opacity:0.18" fill="#85464d" d="M 1233.5,429.5 C 1233.5,429.833 1233.5,430.167 1233.5,430.5C 1232.33,431.514 1231.66,432.847 1231.5,434.5C 1230.83,434.5 1230.17,434.5 1229.5,434.5C 1229.5,434.167 1229.5,433.833 1229.5,433.5C 1230.4,431.659 1231.74,430.326 1233.5,429.5 Z"/></g>
<g><path style="opacity:0.18" fill="#644d4f" d="M 1229.5,433.5 C 1229.5,433.833 1229.5,434.167 1229.5,434.5C 1228.08,435.922 1227.08,437.589 1226.5,439.5C 1221.83,443.833 1217.17,448.167 1212.5,452.5C 1212.5,451.833 1212.5,451.167 1212.5,450.5C 1217.86,444.473 1223.53,438.806 1229.5,433.5 Z"/></g>
<g><path style="opacity:0.627" fill="#a73f4a" d="M 1229.5,434.5 C 1230.17,434.5 1230.83,434.5 1231.5,434.5C 1230.17,436.5 1228.5,438.167 1226.5,439.5C 1227.08,437.589 1228.08,435.922 1229.5,434.5 Z"/></g>
<g><path style="opacity:0.847" fill="#b83b49" d="M 1226.5,439.5 C 1221.89,445.776 1216.56,451.443 1210.5,456.5C 1210.5,456.167 1210.5,455.833 1210.5,455.5C 1211.17,454.5 1211.83,453.5 1212.5,452.5C 1217.17,448.167 1221.83,443.833 1226.5,439.5 Z"/></g>
<g><path style="opacity:0.915" fill="#515050" d="M 1212.5,450.5 C 1212.5,451.167 1212.5,451.833 1212.5,452.5C 1211.83,453.5 1211.17,454.5 1210.5,455.5C 1189.83,476.833 1168.83,497.833 1147.5,518.5C 1146.17,518.833 1144.83,519.167 1143.5,519.5C 1150.63,511.204 1158.3,503.37 1166.5,496C 1104.5,495.5 1042.5,495.333 980.5,495.5C 980.5,561.5 980.5,627.5 980.5,693.5C 1047.17,693.5 1113.83,693.5 1180.5,693.5C 1180.67,644.166 1180.5,594.832 1180,545.5C 1175.6,551.403 1170.43,556.403 1164.5,560.5C 1164.5,559.833 1164.5,559.167 1164.5,558.5C 1171.17,552.5 1177.5,546.167 1183.5,539.5C 1197.55,526.448 1210.89,512.782 1223.5,498.5C 1223.5,497.833 1223.83,497.5 1224.5,497.5C 1226.5,496.167 1228.17,494.5 1229.5,492.5C 1234.8,488.54 1239.8,484.207 1244.5,479.5C 1245.17,479.5 1245.5,479.833 1245.5,480.5C 1238.86,487.968 1231.7,494.968 1224,501.5C 1223.5,580.499 1223.33,659.499 1223.5,738.5C 1127.93,738.832 1032.43,738.499 937,737.5C 936.333,642.167 936.333,546.833 937,451.5C 1028.76,450.501 1120.6,450.168 1212.5,450.5 Z M 1143.5,519.5 C 1141.66,520.402 1140.33,521.736 1139.5,523.5C 1105.89,556.036 1072.73,589.036 1040,622.5C 1032.16,614.996 1024.66,607.163 1017.5,599C 1015.32,597.798 1012.99,597.298 1010.5,597.5C 1010.72,598.675 1010.39,599.675 1009.5,600.5C 1000.93,608.673 992.599,617.006 984.5,625.5C 981.833,627.5 981.833,629.5 984.5,631.5C 999.983,646.412 1015.48,661.412 1031,676.5C 1031.64,678.303 1032.8,679.636 1034.5,680.5C 1035.43,681.689 1035.76,683.022 1035.5,684.5C 1041.01,685.514 1044.85,683.514 1047,678.5C 1082.5,643.995 1117.83,608.995 1153,573.5C 1153.66,572.016 1154.5,570.683 1155.5,569.5C 1157.57,568.7 1159.24,567.367 1160.5,565.5C 1162.26,564.738 1163.26,563.404 1163.5,561.5C 1164.17,561.5 1164.5,561.167 1164.5,560.5C 1170.43,556.403 1175.6,551.403 1180,545.5C 1180.5,594.832 1180.67,644.166 1180.5,693.5C 1113.83,693.5 1047.17,693.5 980.5,693.5C 980.5,627.5 980.5,561.5 980.5,495.5C 1042.5,495.333 1104.5,495.5 1166.5,496C 1158.3,503.37 1150.63,511.204 1143.5,519.5 Z"/></g>
<g><path style="opacity:0.892" fill="#505150" d="M 1302.5,450.5 C 1397.83,450.5 1493.17,450.5 1588.5,450.5C 1588.5,465.5 1588.5,480.5 1588.5,495.5C 1493.17,495.667 1397.83,495.5 1302.5,495C 1301.17,480.167 1301.17,465.333 1302.5,450.5 Z"/></g>
<g><path style="opacity:0.037" fill="#ac3e4a" d="M 1254.5,471.5 C 1252.83,472.87 1251.16,474.203 1249.5,475.5C 1248.83,475.5 1248.17,475.5 1247.5,475.5C 1249.05,472.888 1251.39,471.555 1254.5,471.5 Z"/></g>
<g><path style="opacity:0.037" fill="#714a4e" d="M 1247.5,475.5 C 1248.17,475.5 1248.83,475.5 1249.5,475.5C 1248.2,477.161 1246.87,478.828 1245.5,480.5C 1245.5,479.833 1245.17,479.5 1244.5,479.5C 1245.17,478.5 1245.83,477.5 1246.5,476.5C 1246.5,475.833 1246.83,475.5 1247.5,475.5 Z"/></g>
<g><path style="opacity:0.447" fill="#7e484d" d="M 1246.5,476.5 C 1245.83,477.5 1245.17,478.5 1244.5,479.5C 1239.8,484.207 1234.8,488.54 1229.5,492.5C 1234.51,486.49 1240.18,481.157 1246.5,476.5 Z"/></g>
<g><path style="opacity:0.682" fill="#90444c" d="M 1229.5,492.5 C 1228.17,494.5 1226.5,496.167 1224.5,497.5C 1224.5,497.167 1224.5,496.833 1224.5,496.5C 1225.58,494.413 1227.25,493.08 1229.5,492.5 Z"/></g>
<g><path style="opacity:0.973" fill="#a3404a" d="M 1210.5,455.5 C 1210.5,455.833 1210.5,456.167 1210.5,456.5C 1192.4,476.103 1173.73,495.269 1154.5,514C 1152.27,515.75 1149.93,517.25 1147.5,518.5C 1168.83,497.833 1189.83,476.833 1210.5,455.5 Z"/></g>
<g><path style="opacity:1" fill="#c93848" d="M 1224.5,496.5 C 1224.5,496.833 1224.5,497.167 1224.5,497.5C 1223.83,497.5 1223.5,497.833 1223.5,498.5C 1220.17,501.5 1216.83,504.5 1213.5,507.5C 1213.5,506.167 1213.5,504.833 1213.5,503.5C 1214.5,503.5 1215.5,503.5 1216.5,503.5C 1216.5,500.167 1218.17,498.5 1221.5,498.5C 1221.5,494.75 1222.5,494.083 1224.5,496.5 Z"/></g>
<g><path style="opacity:0.09" fill="#bb3b49" d="M 1147.5,518.5 C 1147.63,519.376 1147.3,520.043 1146.5,520.5C 1144.21,521.706 1141.87,522.706 1139.5,523.5C 1140.33,521.736 1141.66,520.402 1143.5,519.5C 1144.83,519.167 1146.17,518.833 1147.5,518.5 Z"/></g>
<g><path style="opacity:0.91" fill="#505150" d="M 1301.5,532.5 C 1397.17,532.5 1492.83,532.5 1588.5,532.5C 1588.5,547.167 1588.5,561.833 1588.5,576.5C 1493.17,576.667 1397.83,576.5 1302.5,576C 1301.51,561.579 1301.18,547.079 1301.5,532.5 Z"/></g>
<g><path style="opacity:1" fill="#78494e" d="M 1223.5,498.5 C 1210.89,512.782 1197.55,526.448 1183.5,539.5C 1183.5,539.167 1183.5,538.833 1183.5,538.5C 1193.5,528.167 1203.5,517.833 1213.5,507.5C 1216.83,504.5 1220.17,501.5 1223.5,498.5 Z"/></g>
<g><path style="opacity:0.349" fill="#84464d" d="M 1183.5,538.5 C 1183.5,538.833 1183.5,539.167 1183.5,539.5C 1177.5,546.167 1171.17,552.5 1164.5,558.5C 1170.11,551.222 1176.44,544.556 1183.5,538.5 Z"/></g>
<g><path style="opacity:0.224" fill="#9c414b" d="M 1164.5,558.5 C 1164.5,559.167 1164.5,559.833 1164.5,560.5C 1164.5,561.167 1164.17,561.5 1163.5,561.5C 1162.5,562.167 1161.5,562.833 1160.5,563.5C 1160.5,563.167 1160.5,562.833 1160.5,562.5C 1161.5,560.833 1162.83,559.5 1164.5,558.5 Z"/></g>
<g><path style="opacity:0.008" fill="#74494e" d="M 1163.5,561.5 C 1163.26,563.404 1162.26,564.738 1160.5,565.5C 1160.5,564.833 1160.5,564.167 1160.5,563.5C 1161.5,562.833 1162.5,562.167 1163.5,561.5 Z"/></g>
<g><path style="opacity:0.067" fill="#c13948" d="M 1160.5,562.5 C 1160.5,562.833 1160.5,563.167 1160.5,563.5C 1160.5,564.167 1160.5,564.833 1160.5,565.5C 1159.24,567.367 1157.57,568.7 1155.5,569.5C 1156.43,566.63 1158.1,564.296 1160.5,562.5 Z"/></g>
<g><path style="opacity:0.794" fill="#c53f4e" d="M 473.5,576.5 C 472.167,576.5 470.833,576.5 469.5,576.5C 468.129,575.213 466.295,574.547 464,574.5C 462.167,574.667 460.333,574.833 458.5,575C 457.944,575.383 457.611,575.883 457.5,576.5C 456.5,576.5 455.5,576.5 454.5,576.5C 454.577,575.25 455.244,574.417 456.5,574C 462.157,573.501 467.824,573.334 473.5,573.5C 473.5,574.5 473.5,575.5 473.5,576.5 Z"/></g>
<g><path style="opacity:0.302" fill="#b64753" d="M 469.5,576.5 C 465.5,576.5 461.5,576.5 457.5,576.5C 457.611,575.883 457.944,575.383 458.5,575C 460.333,574.833 462.167,574.667 464,574.5C 466.295,574.547 468.129,575.213 469.5,576.5 Z"/></g>
<g><path style="opacity:1" fill="#94575d" d="M 817.5,573.5 C 814.5,574.167 811.5,574.833 808.5,575.5C 717.833,575.5 627.167,575.5 536.5,575.5C 536.768,577.099 536.434,578.432 535.5,579.5C 528.313,579.825 521.313,579.491 514.5,578.5C 521.5,578.5 528.5,578.5 535.5,578.5C 535.5,577.167 535.5,575.833 535.5,574.5C 629.332,573.501 723.332,573.167 817.5,573.5 Z"/></g>
<g><path style="opacity:0.934" fill="#515151" d="M 858.5,572.5 C 858.216,579.893 857.382,587.226 856,594.5C 855.333,595.167 854.667,595.833 854,596.5C 853.594,601.966 852.594,607.299 851,612.5C 850.333,613.167 849.667,613.833 849,614.5C 847.778,620.993 845.445,626.993 842,632.5C 841.506,634.134 841.34,635.801 841.5,637.5C 840.5,637.5 839.5,637.5 838.5,637.5C 838.044,640.644 837.044,643.644 835.5,646.5C 819.502,672.001 798.835,693.167 773.5,710C 844.423,735.555 899.089,779.721 937.5,842.5C 940.167,846.833 942.833,851.167 945.5,855.5C 1083.5,856.167 1221.5,856.833 1359.5,857.5C 1382.55,864.056 1397.39,878.722 1404,901.5C 1404.67,902.167 1405.33,902.833 1406,903.5C 1406.67,1008.17 1406.67,1112.83 1406,1217.5C 1404.98,1218.35 1404.14,1219.35 1403.5,1220.5C 1463.17,1221.17 1522.83,1221.83 1582.5,1222.5C 1588.47,1224.78 1594.47,1227.12 1600.5,1229.5C 1603.09,1232.47 1606.09,1234.97 1609.5,1237C 1612.92,1240 1615.76,1243.5 1618,1247.5C 1618.33,1247.17 1618.67,1246.83 1619,1246.5C 1621.25,1252.07 1623.92,1257.41 1627,1262.5C 1627.67,1371.5 1627.67,1480.5 1627,1589.5C 1620.31,1606.45 1608.15,1618.78 1590.5,1626.5C 1453.5,1627.67 1316.5,1627.83 1179.5,1627C 1172.78,1624.36 1166.78,1620.53 1161.5,1615.5C 1156.19,1620.53 1150.19,1624.37 1143.5,1627C 1004.5,1627.67 865.5,1627.67 726.5,1627C 706.028,1619.92 688.695,1608.08 674.5,1591.5C 661.088,1608.5 644.088,1620.33 623.5,1627C 569.721,1638.5 528.887,1621 501,1574.5C 499.778,1570.61 498.112,1566.94 496,1563.5C 494.735,1557.72 493.068,1552.05 491,1546.5C 490.5,1412.17 490.333,1277.83 490.5,1143.5C 471.83,1143.67 453.164,1143.5 434.5,1143C 404.083,1134.57 383.249,1115.74 372,1086.5C 371.333,1041.17 371.333,995.833 372,950.5C 389.503,856.725 440.336,784.225 524.5,733C 536.752,726.707 549.085,720.707 561.5,715C 566.668,713.793 571.668,712.126 576.5,710C 528.937,678.953 500.603,635.453 491.5,579.5C 506.152,580.303 520.819,580.637 535.5,580.5C 538.366,591.661 541.866,602.661 546,613.5C 551.396,621.326 556.063,629.66 560,638.5C 562.363,640.366 564.53,642.366 566.5,644.5C 567.699,651.025 571.366,655.358 577.5,657.5C 577.351,658.552 577.517,659.552 578,660.5C 582.006,663.676 585.84,667.009 589.5,670.5C 592.884,671.839 596.217,673.172 599.5,674.5C 602.64,676.777 605.974,678.944 609.5,681C 612.104,681.39 614.438,682.224 616.5,683.5C 634.675,692.914 654.175,697.247 675,696.5C 692.833,696.952 709.999,693.786 726.5,687C 728.544,686.502 729.878,685.335 730.5,683.5C 737.26,681.614 743.593,678.947 749.5,675.5C 752.986,672.867 756.652,670.367 760.5,668C 763.515,663.32 767.515,659.654 772.5,657C 781.092,649.55 788.092,641.05 793.5,631.5C 796.557,627.742 799.39,623.742 802,619.5C 805.364,613.115 807.864,606.448 809.5,599.5C 812.89,591.969 814.89,583.969 815.5,575.5C 813.167,575.5 810.833,575.5 808.5,575.5C 811.5,574.833 814.5,574.167 817.5,573.5C 831.118,572.535 844.784,572.202 858.5,572.5 Z M 691.5,818.5 C 698.659,817.238 705.326,814.905 711.5,811.5C 736.235,799.129 750.902,779.463 755.5,752.5C 820.098,773.604 869.265,813.604 903,872.5C 910.078,885.58 916.245,899.08 921.5,913C 922.383,919.128 924.383,924.795 927.5,930C 927.167,930.333 926.833,930.667 926.5,931C 931.696,949.01 934.696,967.51 935.5,986.5C 936.667,1012.83 936.833,1039.16 936,1065.5C 932.544,1084.62 921.044,1095.79 901.5,1099C 858.5,1099.67 815.5,1099.67 772.5,1099C 751.796,1095.28 740.129,1082.61 737.5,1061C 739.701,1040.13 751.034,1027.47 771.5,1023C 814.165,1022.5 856.832,1022.33 899.5,1022.5C 900.801,1007.82 900.801,993.154 899.5,978.5C 887.518,977.501 875.518,977.168 863.5,977.5C 862.167,977.833 860.833,978.167 859.5,978.5C 859.5,977.833 859.167,977.5 858.5,977.5C 858.5,977.167 858.5,976.833 858.5,976.5C 858.5,937.167 858.5,897.833 858.5,858.5C 858.179,856.952 857.179,856.285 855.5,856.5C 761.164,856.167 666.831,856.5 572.5,857.5C 571.364,873.843 571.197,890.176 572,906.5C 557.645,890.812 542.645,875.812 527,861.5C 516.054,871.278 505.554,881.611 495.5,892.5C 521.441,918.273 547.107,944.107 572.5,970C 571.477,972.774 571.477,975.607 572.5,978.5C 572.167,978.5 571.833,978.5 571.5,978.5C 571.167,978.5 570.833,978.5 570.5,978.5C 530.904,977.34 491.238,977.173 451.5,978C 450.509,992.755 450.176,1007.59 450.5,1022.5C 490.833,1022.5 531.167,1022.5 571.5,1022.5C 571.833,1022.5 572.167,1022.5 572.5,1022.5C 571.167,1048.17 571.167,1073.83 572.5,1099.5C 571.833,1099.5 571.5,1099.83 571.5,1100.5C 571.167,1100.5 570.833,1100.5 570.5,1100.5C 530.002,1099.67 489.335,1099.17 448.5,1099C 435.824,1097.32 425.991,1091.15 419,1080.5C 416.664,1076.18 414.998,1071.52 414,1066.5C 412.867,1031.77 413.534,997.108 416,962.5C 416.419,961.328 417.085,960.328 418,959.5C 418.287,951.702 419.287,944.036 421,936.5C 421.667,935.833 422.333,935.167 423,934.5C 423.704,929.431 424.704,924.431 426,919.5C 426.667,918.833 427.333,918.167 428,917.5C 429.728,909.136 432.394,901.136 436,893.5C 437.781,891.261 439.281,888.928 440.5,886.5C 467.024,831.572 509.358,790.072 567.5,762C 575.627,758.381 583.96,755.214 592.5,752.5C 599.586,780.454 616.253,800.954 642.5,814C 647.664,816.251 652.997,817.918 658.5,819C 669.674,819.826 680.674,819.659 691.5,818.5 Z M 815.5,976.5 C 815.5,976.833 815.5,977.167 815.5,977.5C 796.713,977.082 777.713,977.582 758.5,979C 724.281,988.22 702.781,1010.05 694,1044.5C 688.572,1087.49 705.072,1118.65 743.5,1138C 748.543,1140.49 753.876,1142.15 759.5,1143C 778.164,1143.5 796.83,1143.67 815.5,1143.5C 815.5,1143.83 815.5,1144.17 815.5,1144.5C 815.5,1156.5 815.5,1168.5 815.5,1180.5C 748.833,1180.5 682.167,1180.5 615.5,1180.5C 615.5,1087.17 615.5,993.833 615.5,900.5C 682.167,900.5 748.833,900.5 815.5,900.5C 815.5,925.833 815.5,951.167 815.5,976.5 Z M 964.5,900.5 C 1002.5,900.5 1040.5,900.5 1078.5,900.5C 1078.33,940.835 1078.5,981.168 1079,1021.5C 1106.43,1022.16 1133.93,1022.5 1161.5,1022.5C 1189.07,1022.5 1216.57,1022.16 1244,1021.5C 1244.5,981.168 1244.67,940.835 1244.5,900.5C 1278.5,900.333 1312.5,900.5 1346.5,901C 1352.13,902.647 1356.63,905.814 1360,910.5C 1360.22,912.384 1360.88,914.051 1362,915.5C 1362.67,1012.17 1362.67,1108.83 1362,1205.5C 1359.56,1214.99 1353.4,1220.15 1343.5,1221C 1310.5,1221.5 1277.5,1221.67 1244.5,1221.5C 1244.83,1180.93 1244.5,1140.43 1243.5,1100C 1188.5,1099.5 1133.5,1099.33 1078.5,1099.5C 1078.5,1140.17 1078.5,1180.83 1078.5,1221.5C 1045.5,1221.67 1012.5,1221.5 979.5,1221C 974.837,1219.92 970.503,1218.09 966.5,1215.5C 964.488,1212.25 962.654,1208.91 961,1205.5C 960.167,1175.16 960.333,1144.83 961.5,1114.5C 970.998,1103.75 977.164,1091.42 980,1077.5C 980.667,1040.83 980.667,1004.17 980,967.5C 977.181,953.636 974.848,939.636 973,925.5C 972.333,924.833 971.667,924.167 971,923.5C 969.704,918.569 968.704,913.569 968,908.5C 965.935,906.263 964.769,903.597 964.5,900.5 Z M 858.5,1219.5 C 858.5,1218.17 858.5,1216.83 858.5,1215.5C 858.5,1214.5 858.5,1213.5 858.5,1212.5C 858.5,1201.5 858.5,1190.5 858.5,1179.5C 859.805,1170.15 859.805,1160.82 858.5,1151.5C 858.5,1148.83 858.5,1146.17 858.5,1143.5C 864.167,1143.5 869.833,1143.5 875.5,1143.5C 888.171,1143.67 900.838,1143.5 913.5,1143C 914.416,1142.63 915.25,1142.13 916,1141.5C 916.333,1166.5 916.667,1191.5 917,1216.5C 918.02,1217.89 918.853,1219.39 919.5,1221C 909.333,1221.17 899.167,1221.33 889,1221.5C 878.477,1221.5 868.311,1220.83 858.5,1219.5 Z M 570.5,1143.5 C 570.833,1143.5 571.167,1143.5 571.5,1143.5C 572.167,1143.5 572.5,1143.83 572.5,1144.5C 571.183,1171.46 571.183,1198.46 572.5,1225.5C 597.833,1225.5 623.167,1225.5 648.5,1225.5C 649.5,1225.5 650.5,1225.5 651.5,1225.5C 652.167,1225.5 652.833,1225.5 653.5,1225.5C 653.667,1326.17 653.5,1426.83 653,1527.5C 650.661,1554.71 636.827,1573.21 611.5,1583C 580.251,1590.35 556.751,1580.19 541,1552.5C 538.722,1546.73 537.056,1540.73 536,1534.5C 535.832,1404.6 535.332,1274.76 534.5,1145C 546.339,1143.52 558.339,1143.02 570.5,1143.5 Z M 811.5,1225.5 C 811.833,1225.5 812.167,1225.5 812.5,1225.5C 813.5,1225.5 814.5,1225.5 815.5,1225.5C 815.5,1225.83 815.5,1226.17 815.5,1226.5C 815.667,1328.5 815.5,1430.5 815,1532.5C 811.23,1556.75 797.73,1573.59 774.5,1583C 744.622,1589.74 721.456,1580.9 705,1556.5C 703.546,1552.36 701.879,1548.36 700,1544.5C 699.921,1540.64 699.254,1536.98 698,1533.5C 697.5,1431.17 697.333,1328.83 697.5,1226.5C 735.33,1225.5 773.33,1225.17 811.5,1225.5 Z M 858.5,1265.5 C 871.167,1265.5 883.833,1265.5 896.5,1265.5C 896.5,1306.17 896.5,1346.83 896.5,1387.5C 951.501,1387.67 1006.5,1387.5 1061.5,1387C 1062.83,1346.67 1062.83,1306.33 1061.5,1266C 1082.17,1265.33 1102.83,1265.33 1123.5,1266C 1132,1267.83 1137.17,1273 1139,1281.5C 1139.67,1377.83 1139.67,1474.17 1139,1570.5C 1137.43,1575.53 1134.6,1579.7 1130.5,1583C 1127.17,1584 1123.83,1585 1120.5,1586C 1100.64,1586.61 1080.97,1586.61 1061.5,1586C 1062.5,1545.57 1062.83,1505.07 1062.5,1464.5C 1007.17,1464.5 951.833,1464.5 896.5,1464.5C 896.5,1505.17 896.5,1545.83 896.5,1586.5C 878.333,1586.44 860,1586.44 841.5,1586.5C 844.812,1580.55 848.146,1574.55 851.5,1568.5C 853.941,1561.23 856.108,1553.9 858,1546.5C 858.5,1452.83 858.667,1359.17 858.5,1265.5 Z M 1301.5,1534.5 C 1301.5,1542.5 1301.5,1550.5 1301.5,1558.5C 1301.5,1567.83 1301.5,1577.17 1301.5,1586.5C 1268.66,1586.63 1235.66,1586.47 1202.5,1586C 1195.53,1585.38 1190.03,1582.22 1186,1576.5C 1185.41,1575.1 1185.57,1573.77 1186.5,1572.5C 1185.28,1572.89 1184.45,1572.22 1184,1570.5C 1183.17,1473.83 1183.33,1377.16 1184.5,1280.5C 1185.09,1280.71 1185.59,1281.04 1186,1281.5C 1186.31,1279.44 1186.31,1277.44 1186,1275.5C 1189.37,1270.81 1193.87,1267.65 1199.5,1266C 1233.84,1265.17 1268.17,1265.33 1302.5,1266.5C 1301.17,1306.7 1301.17,1346.86 1302.5,1387C 1357.17,1387.67 1411.83,1387.67 1466.5,1387C 1467.5,1346.57 1467.83,1306.07 1467.5,1265.5C 1501.5,1265.33 1535.5,1265.5 1569.5,1266C 1577.58,1267.78 1582.74,1272.61 1585,1280.5C 1585.67,1377.17 1585.67,1473.83 1585,1570.5C 1582.52,1580 1576.35,1585.17 1566.5,1586C 1533.34,1586.47 1500.34,1586.63 1467.5,1586.5C 1467.83,1545.93 1467.5,1505.43 1466.5,1465C 1411.5,1464.5 1356.5,1464.33 1301.5,1464.5C 1301.5,1487.83 1301.5,1511.17 1301.5,1534.5 Z"/></g>
<g><path style="opacity:1" fill="#6e6e6e" d="M 808.5,575.5 C 810.833,575.5 813.167,575.5 815.5,575.5C 814.89,583.969 812.89,591.969 809.5,599.5C 804.181,610.137 798.848,620.804 793.5,631.5C 788.092,641.05 781.092,649.55 772.5,657C 767.515,659.654 763.515,663.32 760.5,668C 756.652,670.367 752.986,672.867 749.5,675.5C 743.593,678.947 737.26,681.614 730.5,683.5C 721.037,686.404 711.703,689.571 702.5,693C 684.167,696.333 665.833,696.333 647.5,693C 637.305,689.368 626.972,686.202 616.5,683.5C 614.438,682.224 612.104,681.39 609.5,681C 605.974,678.944 602.64,676.777 599.5,674.5C 598.972,673.279 598.305,672.113 597.5,671C 585.475,664.011 575.141,655.177 566.5,644.5C 564.53,642.366 562.363,640.366 560,638.5C 556.063,629.66 551.396,621.326 546,613.5C 541.866,602.661 538.366,591.661 535.5,580.5C 535.5,580.167 535.5,579.833 535.5,579.5C 536.434,578.432 536.768,577.099 536.5,575.5C 627.167,575.5 717.833,575.5 808.5,575.5 Z"/></g>
<g><path style="opacity:1" fill="#b83c4a" d="M 535.5,574.5 C 535.5,575.833 535.5,577.167 535.5,578.5C 528.5,578.5 521.5,578.5 514.5,578.5C 506.833,578.5 499.167,578.5 491.5,578.5C 491.5,578.167 491.5,577.833 491.5,577.5C 505.833,577.5 520.167,577.5 534.5,577.5C 534.263,576.209 534.596,575.209 535.5,574.5 Z"/></g>
<g><path style="opacity:1" fill="#6a4c4f" d="M 491.5,579.5 C 491.5,579.167 491.5,578.833 491.5,578.5C 499.167,578.5 506.833,578.5 514.5,578.5C 521.313,579.491 528.313,579.825 535.5,579.5C 535.5,579.833 535.5,580.167 535.5,580.5C 520.819,580.637 506.152,580.303 491.5,579.5 Z"/></g>
<g><path style="opacity:0.891" fill="#505150" d="M 1303.5,612.5 C 1398.17,612.333 1492.83,612.5 1587.5,613C 1588.49,627.755 1588.82,642.588 1588.5,657.5C 1493.17,657.667 1397.83,657.5 1302.5,657C 1301.34,642.908 1301.18,628.742 1302,614.5C 1302.72,613.956 1303.22,613.289 1303.5,612.5 Z"/></g>
<g><path style="opacity:1" fill="#606060" d="M 809.5,599.5 C 807.864,606.448 805.364,613.115 802,619.5C 799.39,623.742 796.557,627.742 793.5,631.5C 798.848,620.804 804.181,610.137 809.5,599.5 Z"/></g>
<g><path style="opacity:0.047" fill="#90434c" d="M 984.5,625.5 C 984.5,627.5 984.5,629.5 984.5,631.5C 981.833,629.5 981.833,627.5 984.5,625.5 Z"/></g>
<g><path style="opacity:1" fill="#595959" d="M 566.5,644.5 C 575.141,655.177 585.475,664.011 597.5,671C 598.305,672.113 598.972,673.279 599.5,674.5C 596.217,673.172 592.884,671.839 589.5,670.5C 585.84,667.009 582.006,663.676 578,660.5C 577.517,659.552 577.351,658.552 577.5,657.5C 571.366,655.358 567.699,651.025 566.5,644.5 Z"/></g>
<g><path style="opacity:1" fill="#5f5f5f" d="M 616.5,683.5 C 626.972,686.202 637.305,689.368 647.5,693C 665.833,696.333 684.167,696.333 702.5,693C 711.703,689.571 721.037,686.404 730.5,683.5C 729.878,685.335 728.544,686.502 726.5,687C 709.999,693.786 692.833,696.952 675,696.5C 654.175,697.247 634.675,692.914 616.5,683.5 Z"/></g>
<g><path style="opacity:0.872" fill="#505150" d="M 1302.5,693.5 C 1343.83,693.333 1385.17,693.5 1426.5,694C 1427.66,708.425 1427.82,722.925 1427,737.5C 1385.57,738.663 1344.07,738.83 1302.5,738C 1301.17,723.167 1301.17,708.333 1302.5,693.5 Z"/></g>
<g><path style="opacity:0.816" fill="#505150" d="M 1464.5,693.5 C 1478.84,693.333 1493.17,693.5 1507.5,694C 1508.16,701.257 1508.49,708.59 1508.5,716C 1508.49,723.41 1508.16,730.743 1507.5,738C 1492.84,738.5 1478.17,738.667 1463.5,738.5C 1463.18,723.422 1463.52,708.422 1464.5,693.5 Z"/></g>
<g><path style="opacity:0.85" fill="#505150" d="M 1545.5,693.5 C 1559.83,693.5 1574.17,693.5 1588.5,693.5C 1588.5,708.5 1588.5,723.5 1588.5,738.5C 1574.17,738.5 1559.83,738.5 1545.5,738.5C 1545.5,723.5 1545.5,708.5 1545.5,693.5 Z"/></g>
<g><path style="opacity:1" fill="#616161" d="M 704.5,763.5 C 708.75,757.26 711.75,750.427 713.5,743C 713.265,742.127 712.931,741.293 712.5,740.5C 699.844,739.335 687.177,738.335 674.5,737.5C 661.492,738.418 648.492,739.418 635.5,740.5C 636.029,744.949 637.029,749.282 638.5,753.5C 634.954,749.323 633.954,744.489 635.5,739C 661.833,735.667 688.167,735.667 714.5,739C 715.731,748.965 712.397,757.131 704.5,763.5 Z"/></g>
<g><path style="opacity:1" fill="#6e6e6e" d="M 704.5,763.5 C 702.706,766.745 700.039,769.079 696.5,770.5C 692.821,771.425 689.321,772.758 686,774.5C 682.333,775.167 678.667,775.833 675,776.5C 667.372,774.885 659.872,772.885 652.5,770.5C 648.806,767.527 645.306,764.194 642,760.5C 640.121,758.473 638.954,756.14 638.5,753.5C 637.029,749.282 636.029,744.949 635.5,740.5C 648.492,739.418 661.492,738.418 674.5,737.5C 687.177,738.335 699.844,739.335 712.5,740.5C 712.931,741.293 713.265,742.127 713.5,743C 711.75,750.427 708.75,757.26 704.5,763.5 Z"/></g>
<g><path style="opacity:1" fill="#616161" d="M 652.5,770.5 C 659.872,772.885 667.372,774.885 675,776.5C 678.667,775.833 682.333,775.167 686,774.5C 689.321,772.758 692.821,771.425 696.5,770.5C 690.371,775.502 683.204,777.835 675,777.5C 671.833,777.333 668.667,777.167 665.5,777C 660.844,775.294 656.51,773.127 652.5,770.5 Z"/></g>
<g><path style="opacity:0.582" fill="#5d5d5d" d="M 711.5,811.5 C 705.326,814.905 698.659,817.238 691.5,818.5C 688.982,817.306 688.982,816.14 691.5,815C 698.404,813.443 705.071,811.277 711.5,808.5C 712.087,809.233 712.087,810.233 711.5,811.5 Z"/></g>
<g><path style="opacity:0.928" fill="#d83447" d="M 855.5,856.5 C 855.973,857.906 856.973,858.573 858.5,858.5C 858.5,897.833 858.5,937.167 858.5,976.5C 856.958,977.301 855.292,977.634 853.5,977.5C 841.484,977.61 829.484,977.277 817.5,976.5C 816.833,976.5 816.167,976.5 815.5,976.5C 815.5,951.167 815.5,925.833 815.5,900.5C 748.833,900.5 682.167,900.5 615.5,900.5C 615.5,993.833 615.5,1087.17 615.5,1180.5C 682.167,1180.5 748.833,1180.5 815.5,1180.5C 815.5,1168.5 815.5,1156.5 815.5,1144.5C 816.167,1143.83 816.833,1143.17 817.5,1142.5C 831.344,1142.17 845.01,1142.5 858.5,1143.5C 858.5,1146.17 858.5,1148.83 858.5,1151.5C 857.167,1160.83 857.167,1170.17 858.5,1179.5C 858.5,1190.5 858.5,1201.5 858.5,1212.5C 857.222,1212.78 856.222,1213.45 855.5,1214.5C 854.566,1215.57 854.232,1216.9 854.5,1218.5C 847.825,1218.33 841.158,1218.5 834.5,1219C 833.263,1219.23 832.263,1219.73 831.5,1220.5C 829.283,1221.37 826.95,1221.7 824.5,1221.5C 820.131,1221.47 815.798,1221.8 811.5,1222.5C 811.5,1223.5 811.5,1224.5 811.5,1225.5C 773.33,1225.17 735.33,1225.5 697.5,1226.5C 696.833,1226.5 696.5,1226.17 696.5,1225.5C 689.913,1223.54 682.913,1222.87 675.5,1223.5C 673.735,1222.54 671.735,1222.21 669.5,1222.5C 663.287,1221.22 656.954,1221.39 650.5,1223C 649.619,1223.71 648.953,1224.54 648.5,1225.5C 623.167,1225.5 597.833,1225.5 572.5,1225.5C 571.183,1198.46 571.183,1171.46 572.5,1144.5C 574.974,1132.08 575.807,1119.41 575,1106.5C 574.768,1105.26 574.268,1104.26 573.5,1103.5C 573.167,1102.17 572.833,1100.83 572.5,1099.5C 571.167,1073.83 571.167,1048.17 572.5,1022.5C 573.473,1020.05 573.806,1017.39 573.5,1014.5C 573.5,1014.17 573.5,1013.83 573.5,1013.5C 575.022,1008.25 575.689,1002.75 575.5,997C 575.499,992.985 575.165,989.151 574.5,985.5C 574.606,982.921 573.939,980.588 572.5,978.5C 571.477,975.607 571.477,972.774 572.5,970C 547.107,944.107 521.441,918.273 495.5,892.5C 505.554,881.611 516.054,871.278 527,861.5C 542.645,875.812 557.645,890.812 572,906.5C 571.197,890.176 571.364,873.843 572.5,857.5C 666.831,856.5 761.164,856.167 855.5,856.5 Z"/></g>
<g><path style="opacity:0.114" fill="#81474c" d="M 855.5,856.5 C 857.179,856.285 858.179,856.952 858.5,858.5C 856.973,858.573 855.973,857.906 855.5,856.5 Z"/></g>
<g><path style="opacity:1" fill="#565656" d="M 1119.5,897.5 C 1147.5,897.5 1175.5,897.5 1203.5,897.5C 1203.67,925.169 1203.5,952.835 1203,980.5C 1175.24,981.495 1147.41,981.828 1119.5,981.5C 1119.5,953.5 1119.5,925.5 1119.5,897.5 Z"/></g>
<g><path style="opacity:0.89" fill="#515050" d="M 570.5,978.5 C 572.364,990.366 573.03,1002.37 572.5,1014.5C 571.908,1017.13 571.575,1019.79 571.5,1022.5C 531.167,1022.5 490.833,1022.5 450.5,1022.5C 450.176,1007.59 450.509,992.755 451.5,978C 491.238,977.173 530.904,977.34 570.5,978.5 Z"/></g>
<g><path style="opacity:1" fill="#ca3748" d="M 817.5,976.5 C 829.484,977.277 841.484,977.61 853.5,977.5C 848.36,978.488 843.026,978.821 837.5,978.5C 830.595,978.793 823.928,978.126 817.5,976.5 Z"/></g>
<g><path style="opacity:1" fill="#92434c" d="M 815.5,977.5 C 815.5,977.167 815.5,976.833 815.5,976.5C 816.167,976.5 816.833,976.5 817.5,976.5C 823.928,978.126 830.595,978.793 837.5,978.5C 837.5,978.833 837.5,979.167 837.5,979.5C 833.5,979.5 829.5,979.5 825.5,979.5C 822.012,979.46 818.679,978.793 815.5,977.5 Z"/></g>
<g><path style="opacity:1" fill="#b43c49" d="M 858.5,976.5 C 858.5,976.833 858.5,977.167 858.5,977.5C 857.391,978.29 856.058,978.79 854.5,979C 848.843,979.499 843.176,979.666 837.5,979.5C 837.5,979.167 837.5,978.833 837.5,978.5C 843.026,978.821 848.36,978.488 853.5,977.5C 855.292,977.634 856.958,977.301 858.5,976.5 Z"/></g>
<g><path style="opacity:1" fill="#7e474d" d="M 858.5,977.5 C 859.167,977.5 859.5,977.833 859.5,978.5C 854.447,980.26 849.114,980.927 843.5,980.5C 837.31,980.823 831.31,980.49 825.5,979.5C 829.5,979.5 833.5,979.5 837.5,979.5C 843.176,979.666 848.843,979.499 854.5,979C 856.058,978.79 857.391,978.29 858.5,977.5 Z"/></g>
<g><path style="opacity:1" fill="#606060" d="M 1121.5,898.5 C 1148.41,898.172 1175.24,898.505 1202,899.5C 1202.83,926.405 1202.66,953.239 1201.5,980C 1174.59,980.828 1147.76,980.661 1121,979.5C 1120.18,952.428 1120.34,925.428 1121.5,898.5 Z"/></g>
<g><path style="opacity:1" fill="#6e6e6e" d="M 1122.5,899.5 C 1148.74,899.172 1174.91,899.505 1201,900.5C 1201.83,926.739 1201.66,952.906 1200.5,979C 1174.26,979.828 1148.09,979.661 1122,978.5C 1121.18,952.095 1121.34,925.761 1122.5,899.5 Z"/></g>
<g><path style="opacity:1" fill="#634d4f" d="M 863.5,977.5 C 862.264,979.828 860.264,980.994 857.5,981C 852.648,981.815 847.981,981.648 843.5,980.5C 849.114,980.927 854.447,980.26 859.5,978.5C 860.833,978.167 862.167,977.833 863.5,977.5 Z"/></g>
<g><path style="opacity:1" fill="#b33c49" d="M 571.5,978.5 C 571.833,978.5 572.167,978.5 572.5,978.5C 573.939,980.588 574.606,982.921 574.5,985.5C 572.935,983.491 571.935,981.157 571.5,978.5 Z"/></g>
<g><path style="opacity:1" fill="#724a4e" d="M 570.5,978.5 C 570.833,978.5 571.167,978.5 571.5,978.5C 571.935,981.157 572.935,983.491 574.5,985.5C 574.566,994.852 574.232,1004.18 573.5,1013.5C 573.5,1013.83 573.5,1014.17 573.5,1014.5C 573.167,1014.5 572.833,1014.5 572.5,1014.5C 573.03,1002.37 572.364,990.366 570.5,978.5 Z"/></g>
<g><path style="opacity:1" fill="#b53b49" d="M 574.5,985.5 C 575.165,989.151 575.499,992.985 575.5,997C 575.689,1002.75 575.022,1008.25 573.5,1013.5C 574.232,1004.18 574.566,994.852 574.5,985.5 Z"/></g>
<g><path style="opacity:0.461" fill="#8c454c" d="M 572.5,1014.5 C 572.833,1014.5 573.167,1014.5 573.5,1014.5C 573.806,1017.39 573.473,1020.05 572.5,1022.5C 572.167,1022.5 571.833,1022.5 571.5,1022.5C 571.575,1019.79 571.908,1017.13 572.5,1014.5 Z"/></g>
<g><path style="opacity:1" fill="#ae3d4a" d="M 572.5,1099.5 C 572.833,1100.83 573.167,1102.17 573.5,1103.5C 573.5,1104.17 573.5,1104.83 573.5,1105.5C 572.069,1104.22 571.402,1102.55 571.5,1100.5C 571.5,1099.83 571.833,1099.5 572.5,1099.5 Z"/></g>
<g><path style="opacity:1" fill="#c13948" d="M 573.5,1103.5 C 574.268,1104.26 574.768,1105.26 575,1106.5C 575.807,1119.41 574.974,1132.08 572.5,1144.5C 572.5,1143.83 572.167,1143.5 571.5,1143.5C 572.053,1138.52 572.387,1133.52 572.5,1128.5C 572.5,1127.17 572.5,1125.83 572.5,1124.5C 573.49,1118.36 573.823,1112.02 573.5,1105.5C 573.5,1104.83 573.5,1104.17 573.5,1103.5 Z"/></g>
<g><path style="opacity:1" fill="#82464d" d="M 570.5,1100.5 C 570.833,1100.5 571.167,1100.5 571.5,1100.5C 571.402,1102.55 572.069,1104.22 573.5,1105.5C 573.823,1112.02 573.49,1118.36 572.5,1124.5C 572.886,1116.38 572.219,1108.38 570.5,1100.5 Z"/></g>
<g><path style="opacity:1" fill="#88454c" d="M 572.5,1128.5 C 572.387,1133.52 572.053,1138.52 571.5,1143.5C 571.167,1143.5 570.833,1143.5 570.5,1143.5C 570.608,1138.29 571.275,1133.29 572.5,1128.5 Z"/></g>
<g><path style="opacity:1" fill="#8c444c" d="M 874.5,1141.5 C 855.326,1141.17 836.326,1141.5 817.5,1142.5C 816.833,1143.17 816.167,1143.83 815.5,1144.5C 815.5,1144.17 815.5,1143.83 815.5,1143.5C 815.414,1142.5 815.748,1141.67 816.5,1141C 836.004,1140.17 855.338,1140.34 874.5,1141.5 Z"/></g>
<g><path style="opacity:0.193" fill="#b73b49" d="M 817.5,1142.5 C 836.326,1141.5 855.326,1141.17 874.5,1141.5C 875.338,1141.84 875.672,1142.51 875.5,1143.5C 869.833,1143.5 864.167,1143.5 858.5,1143.5C 845.01,1142.5 831.344,1142.17 817.5,1142.5 Z"/></g>
<g><path style="opacity:1" fill="#606060" d="M 1121.5,1142.5 C 1148.33,1141.5 1175.33,1141.17 1202.5,1141.5C 1202.83,1168.67 1202.5,1195.67 1201.5,1222.5C 1201.5,1195.83 1201.5,1169.17 1201.5,1142.5C 1174.83,1142.5 1148.17,1142.5 1121.5,1142.5 Z"/></g>
<g><path style="opacity:1" fill="#6e6e6e" d="M 1121.5,1142.5 C 1148.17,1142.5 1174.83,1142.5 1201.5,1142.5C 1201.5,1169.17 1201.5,1195.83 1201.5,1222.5C 1202.5,1195.67 1202.83,1168.67 1202.5,1141.5C 1175.33,1141.17 1148.33,1141.5 1121.5,1142.5 Z"/></g>
<g><path style="opacity:0.424" fill="#8b6064" d="M 858.5,1151.5 C 859.805,1160.82 859.805,1170.15 858.5,1179.5C 857.167,1170.17 857.167,1160.83 858.5,1151.5 Z"/></g>
<g><path style="opacity:0.286" fill="#a2404b" d="M 858.5,1212.5 C 858.5,1213.5 858.5,1214.5 858.5,1215.5C 857.143,1216.59 856.143,1217.92 855.5,1219.5C 855.5,1217.83 855.5,1216.17 855.5,1214.5C 856.222,1213.45 857.222,1212.78 858.5,1212.5 Z"/></g>
<g><path style="opacity:1" fill="#c33948" d="M 855.5,1214.5 C 855.5,1216.17 855.5,1217.83 855.5,1219.5C 854.833,1219.83 854.167,1220.17 853.5,1220.5C 846.167,1220.5 838.833,1220.5 831.5,1220.5C 832.263,1219.73 833.263,1219.23 834.5,1219C 841.158,1218.5 847.825,1218.33 854.5,1218.5C 854.232,1216.9 854.566,1215.57 855.5,1214.5 Z"/></g>
<g><path style="opacity:1" fill="#c63848" d="M 824.5,1221.5 C 821.833,1222.17 819.167,1222.83 816.5,1223.5C 814.517,1223.16 813.183,1223.82 812.5,1225.5C 812.167,1225.5 811.833,1225.5 811.5,1225.5C 811.5,1224.5 811.5,1223.5 811.5,1222.5C 815.798,1221.8 820.131,1221.47 824.5,1221.5 Z"/></g>
<g><path style="opacity:1" fill="#92434c" d="M 831.5,1220.5 C 838.833,1220.5 846.167,1220.5 853.5,1220.5C 841.3,1221.34 828.967,1222.34 816.5,1223.5C 819.167,1222.83 821.833,1222.17 824.5,1221.5C 826.95,1221.7 829.283,1221.37 831.5,1220.5 Z"/></g>
<g><path style="opacity:1" fill="#624d4f" d="M 858.5,1215.5 C 858.5,1216.83 858.5,1218.17 858.5,1219.5C 857.466,1220.69 856.133,1221.52 854.5,1222C 841.24,1221.75 828.24,1223.25 815.5,1226.5C 815.5,1226.17 815.5,1225.83 815.5,1225.5C 816.338,1225.16 816.672,1224.49 816.5,1223.5C 828.967,1222.34 841.3,1221.34 853.5,1220.5C 854.167,1220.17 854.833,1219.83 855.5,1219.5C 856.143,1217.92 857.143,1216.59 858.5,1215.5 Z"/></g>
<g><path style="opacity:1" fill="#9d414b" d="M 669.5,1222.5 C 671.735,1222.21 673.735,1222.54 675.5,1223.5C 669.491,1223.33 663.491,1223.5 657.5,1224C 655.942,1224.21 654.609,1224.71 653.5,1225.5C 652.833,1225.5 652.167,1225.5 651.5,1225.5C 652.589,1223.88 654.256,1223.05 656.5,1223C 660.821,1222.5 665.154,1222.33 669.5,1222.5 Z"/></g>
<g><path style="opacity:0.999" fill="#616161" d="M 1121.5,1142.5 C 1121.33,1168.84 1121.5,1195.17 1122,1221.5C 1148.43,1222.49 1174.93,1222.83 1201.5,1222.5C 1175,1223.66 1148.34,1223.83 1121.5,1223C 1120.17,1196.07 1120.17,1169.24 1121.5,1142.5 Z"/></g>
<g><path style="opacity:0.106" fill="#c63848" d="M 669.5,1222.5 C 665.154,1222.33 660.821,1222.5 656.5,1223C 654.256,1223.05 652.589,1223.88 651.5,1225.5C 650.5,1225.5 649.5,1225.5 648.5,1225.5C 648.953,1224.54 649.619,1223.71 650.5,1223C 656.954,1221.39 663.287,1221.22 669.5,1222.5 Z"/></g>
<g><path style="opacity:1" fill="#724a4e" d="M 675.5,1223.5 C 682.167,1224.17 688.833,1224.83 695.5,1225.5C 681.48,1224.83 667.48,1224.83 653.5,1225.5C 654.609,1224.71 655.942,1224.21 657.5,1224C 663.491,1223.5 669.491,1223.33 675.5,1223.5 Z"/></g>
<g><path style="opacity:0.99" fill="#bf3948" d="M 675.5,1223.5 C 682.913,1222.87 689.913,1223.54 696.5,1225.5C 696.167,1225.5 695.833,1225.5 695.5,1225.5C 688.833,1224.83 682.167,1224.17 675.5,1223.5 Z"/></g>
<g><path style="opacity:0.027" fill="#ab3e4a" d="M 816.5,1223.5 C 816.672,1224.49 816.338,1225.16 815.5,1225.5C 814.5,1225.5 813.5,1225.5 812.5,1225.5C 813.183,1223.82 814.517,1223.16 816.5,1223.5 Z"/></g>
<g><path style="opacity:1" fill="#565656" d="M 1342.5,1262.5 C 1370.5,1262.5 1398.5,1262.5 1426.5,1262.5C 1426.5,1290.5 1426.5,1318.5 1426.5,1346.5C 1398.5,1346.5 1370.5,1346.5 1342.5,1346.5C 1342.5,1318.5 1342.5,1290.5 1342.5,1262.5 Z"/></g>
<g><path style="opacity:1" fill="#595959" d="M 1019.5,1344.5 C 1019.83,1317.66 1019.5,1290.99 1018.5,1264.5C 992.005,1263.5 965.339,1263.17 938.5,1263.5C 938.5,1290.17 938.5,1316.83 938.5,1343.5C 937.502,1316.67 937.169,1289.67 937.5,1262.5C 965.167,1262.5 992.833,1262.5 1020.5,1262.5C 1020.83,1290.01 1020.5,1317.34 1019.5,1344.5 Z"/></g>
<g><path style="opacity:1" fill="#6e6e6e" d="M 1018.5,1264.5 C 1019.5,1290.99 1019.83,1317.66 1019.5,1344.5C 992.833,1344.5 966.167,1344.5 939.5,1344.5C 939.5,1317.83 939.5,1291.17 939.5,1264.5C 965.833,1264.5 992.167,1264.5 1018.5,1264.5 Z"/></g>
<g><path style="opacity:1" fill="#606060" d="M 1424.5,1264.5 C 1398.16,1264.33 1371.83,1264.5 1345.5,1265C 1344.51,1291.43 1344.17,1317.93 1344.5,1344.5C 1343.34,1318 1343.17,1291.34 1344,1264.5C 1370.93,1263.17 1397.76,1263.17 1424.5,1264.5 Z"/></g>
<g><path style="opacity:1" fill="#6e6e6e" d="M 1424.5,1264.5 C 1424.5,1291.17 1424.5,1317.83 1424.5,1344.5C 1397.83,1344.5 1371.17,1344.5 1344.5,1344.5C 1344.17,1317.93 1344.51,1291.43 1345.5,1265C 1371.83,1264.5 1398.16,1264.33 1424.5,1264.5 Z"/></g>
<g><path style="opacity:1" fill="#626262" d="M 1018.5,1264.5 C 992.167,1264.5 965.833,1264.5 939.5,1264.5C 939.5,1291.17 939.5,1317.83 939.5,1344.5C 966.167,1344.5 992.833,1344.5 1019.5,1344.5C 1006.17,1345.17 992.671,1345.5 979,1345.5C 965.15,1345.5 951.65,1344.83 938.5,1343.5C 938.5,1316.83 938.5,1290.17 938.5,1263.5C 965.339,1263.17 992.005,1263.5 1018.5,1264.5 Z"/></g>
<g><path style="opacity:1" fill="#5f5f5f" d="M 1424.5,1264.5 C 1425.5,1291.33 1425.83,1318.33 1425.5,1345.5C 1398.33,1345.83 1371.33,1345.5 1344.5,1344.5C 1371.17,1344.5 1397.83,1344.5 1424.5,1344.5C 1424.5,1317.83 1424.5,1291.17 1424.5,1264.5 Z"/></g>
<g><path style="opacity:1" fill="#555555" d="M 937.5,1505.5 C 965.169,1505.33 992.835,1505.5 1020.5,1506C 1021.66,1533.43 1021.83,1560.93 1021,1588.5C 1020.25,1589.13 1019.42,1589.63 1018.5,1590C 991.833,1590.67 965.167,1590.67 938.5,1590C 937.505,1561.91 937.172,1533.74 937.5,1505.5 Z"/></g>
<g><path style="opacity:1" fill="#6e6e6e" d="M 1019.5,1507.5 C 1019.5,1534.17 1019.5,1560.83 1019.5,1587.5C 992.833,1587.5 966.167,1587.5 939.5,1587.5C 939.5,1560.83 939.5,1534.17 939.5,1507.5C 966.167,1507.5 992.833,1507.5 1019.5,1507.5 Z"/></g>
<g><path style="opacity:1" fill="#6e6e6e" d="M 1424.5,1587.5 C 1397.76,1587.82 1371.09,1587.49 1344.5,1586.5C 1344.5,1560.17 1344.5,1533.83 1344.5,1507.5C 1370.84,1507.33 1397.17,1507.5 1423.5,1508C 1424.49,1534.43 1424.83,1560.93 1424.5,1587.5 Z"/></g>
<g><path style="opacity:1" fill="#616161" d="M 1019.5,1507.5 C 992.833,1507.5 966.167,1507.5 939.5,1507.5C 939.5,1534.17 939.5,1560.83 939.5,1587.5C 966.167,1587.5 992.833,1587.5 1019.5,1587.5C 992.672,1588.5 965.672,1588.83 938.5,1588.5C 938.5,1561.17 938.5,1533.83 938.5,1506.5C 965.672,1506.17 992.672,1506.5 1019.5,1507.5 Z"/></g>
<g><path style="opacity:1" fill="#606060" d="M 1424.5,1587.5 C 1424.83,1560.93 1424.49,1534.43 1423.5,1508C 1397.17,1507.5 1370.84,1507.33 1344.5,1507.5C 1344.5,1533.83 1344.5,1560.17 1344.5,1586.5C 1343.5,1560.01 1343.17,1533.34 1343.5,1506.5C 1370.5,1506.33 1397.5,1506.5 1424.5,1507C 1425.83,1533.93 1425.83,1560.76 1424.5,1587.5 Z"/></g>
<g><path style="opacity:0.369" fill="#646464" d="M 1301.5,1534.5 C 1302.82,1538.11 1303.49,1542.11 1303.5,1546.5C 1303.49,1550.89 1302.82,1554.89 1301.5,1558.5C 1301.5,1550.5 1301.5,1542.5 1301.5,1534.5 Z"/></g>
<g><path style="opacity:1" fill="#616161" d="M 1344.5,1586.5 C 1371.09,1587.49 1397.76,1587.82 1424.5,1587.5C 1411.34,1588.17 1398,1588.5 1384.5,1588.5C 1370.82,1588.5 1357.48,1587.83 1344.5,1586.5 Z"/></g>
</svg>
