<?xml version="1.0" encoding="UTF-8"?>
<!DOCTYPE svg PUBLIC "-//W3C//DTD SVG 1.1//EN" "http://www.w3.org/Graphics/SVG/1.1/DTD/svg11.dtd">
<svg xmlns="http://www.w3.org/2000/svg" version="1.1" width="2000px" height="2000px" style="shape-rendering:geometricPrecision; text-rendering:geometricPrecision; image-rendering:optimizeQuality; fill-rule:evenodd; clip-rule:evenodd" xmlns:xlink="http://www.w3.org/1999/xlink">
<g><path style="opacity:0.899" fill="#d53447" d="M 1447.5,729.5 C 1443.23,731.933 1439.73,735.266 1437,739.5C 1432.94,744.204 1430.1,749.537 1428.5,755.5C 1428.17,756.833 1427.83,758.167 1427.5,759.5C 1425.18,760.802 1423.84,762.802 1423.5,765.5C 1421.17,767.167 1419.17,769.167 1417.5,771.5C 1410.88,775.73 1405.88,781.397 1402.5,788.5C 1402.34,790.153 1401.67,791.486 1400.5,792.5C 1398.79,793.635 1398.12,795.302 1398.5,797.5C 1342.65,869.863 1286.32,941.863 1229.5,1013.5C 1228.05,1012.11 1227.05,1012.45 1226.5,1014.5C 1155.64,925.806 1085.47,836.472 1016,746.5C 973.832,677.37 964.998,604.036 989.5,526.5C 990.5,526.5 991.5,526.5 992.5,526.5C 992.629,524.784 992.962,523.117 993.5,521.5C 994.376,521.631 995.043,521.298 995.5,520.5C 997.193,517.634 998.527,514.634 999.5,511.5C 1000.68,508.619 1001.68,505.619 1002.5,502.5C 1004.07,500.898 1004.74,498.898 1004.5,496.5C 1005.34,496.158 1005.67,495.492 1005.5,494.5C 1006.91,494.027 1007.57,493.027 1007.5,491.5C 1008.91,491.027 1009.57,490.027 1009.5,488.5C 1011.41,487.514 1012.41,485.848 1012.5,483.5C 1014.07,481.491 1015.07,479.157 1015.5,476.5C 1015.5,476.167 1015.5,475.833 1015.5,475.5C 1016.54,474.07 1017.2,472.403 1017.5,470.5C 1040.91,433.592 1071.91,404.758 1110.5,384C 1132.26,372.617 1155.26,364.617 1179.5,360C 1276.67,344.538 1357.5,373.705 1422,447.5C 1474.63,515.199 1490.63,591.532 1470,676.5C 1464.46,694.948 1456.96,712.614 1447.5,729.5 Z M 1216.5,401.5 C 1297.97,400.478 1360.47,434.144 1404,502.5C 1435.21,560.19 1440.21,620.19 1419,682.5C 1411.1,701.686 1401.1,719.686 1389,736.5C 1334.76,804.651 1280.76,872.985 1227,941.5C 1170.09,869.348 1113.43,797.015 1057,724.5C 1018.56,661.389 1012.56,595.056 1039,525.5C 1074.54,450.85 1133.71,409.516 1216.5,401.5 Z"/></g>
<g><path style="opacity:0.936" fill="#515151" d="M 1060.5,579.5 C 1061.83,579.5 1062.5,578.833 1062.5,577.5C 1063.63,574.426 1064.63,571.426 1065.5,568.5C 1065.5,567.833 1065.5,567.167 1065.5,566.5C 1066.9,563.091 1067.57,559.425 1067.5,555.5C 1077.14,524.612 1094.47,498.446 1119.5,477C 1177.14,432.839 1239.14,426.172 1305.5,457C 1371.14,495.772 1400.64,553.272 1394,629.5C 1382.54,692.245 1347.7,736.745 1289.5,763C 1235.87,781.981 1184.87,776.981 1136.5,748C 1078.28,706.903 1052.95,650.737 1060.5,579.5 Z"/></g>
<g><path style="opacity:0.141" fill="#aa3d4a" d="M 1017.5,470.5 C 1017.2,472.403 1016.54,474.07 1015.5,475.5C 1015.5,474.833 1015.5,474.167 1015.5,473.5C 1015.29,471.821 1015.95,470.821 1017.5,470.5 Z"/></g>
<g><path style="opacity:0.909" fill="#515151" d="M 1011.5,479.5 C 1011.37,481.216 1011.04,482.883 1010.5,484.5C 1010.67,485.492 1010.34,486.158 1009.5,486.5C 1008.46,487.93 1007.8,489.597 1007.5,491.5C 1006.09,491.973 1005.43,492.973 1005.5,494.5C 1005.67,495.492 1005.34,496.158 1004.5,496.5C 1002.93,498.102 1002.26,500.102 1002.5,502.5C 1000.47,505.22 998.807,508.22 997.5,511.5C 996.674,514.485 995.341,517.151 993.5,519.5C 992.094,519.973 991.427,520.973 991.5,522.5C 991.573,524.027 990.906,525.027 989.5,525.5C 969.495,526.727 949.495,528.56 929.5,531C 899.193,536.223 869.526,543.556 840.5,553C 828.313,558.293 815.98,563.126 803.5,567.5C 822.811,616.073 818.978,662.74 792,707.5C 751.631,760.872 711.631,814.539 672,868.5C 669.174,870.598 666.341,870.765 663.5,869C 664.28,867.927 664.113,866.76 663,865.5C 637.641,832.308 612.475,798.975 587.5,765.5C 550.544,830.652 530.211,900.985 526.5,976.5C 680.863,976.009 835.196,976.509 989.5,978C 1004.92,982.48 1015.42,992.313 1021,1007.5C 1022.44,1038.47 1022.94,1069.47 1022.5,1100.5C 1089.83,1100.33 1157.17,1100.5 1224.5,1101C 1252.49,1106.66 1270.66,1123.16 1279,1150.5C 1294.59,1214.79 1310.59,1278.79 1327,1342.5C 1350.68,1320.01 1371.51,1295.34 1389.5,1268.5C 1377.61,1254.03 1367.77,1238.36 1360,1221.5C 1337.04,1155.43 1351.2,1098.93 1402.5,1052C 1418.46,1039.28 1436.13,1029.94 1455.5,1024C 1461.06,1022.31 1466.73,1021.15 1472.5,1020.5C 1476.26,933.122 1457.59,851.455 1416.5,775.5C 1413.49,779.836 1410.16,783.836 1406.5,787.5C 1407.17,785.833 1407.83,784.167 1408.5,782.5C 1410.79,778.544 1413.79,775.211 1417.5,772.5C 1420.17,770.5 1422.5,768.167 1424.5,765.5C 1425.53,763.483 1426.53,761.483 1427.5,759.5C 1427.83,758.167 1428.17,756.833 1428.5,755.5C 1429.5,755.167 1430.17,754.5 1430.5,753.5C 1431.91,753.027 1432.57,752.027 1432.5,750.5C 1432.5,750.167 1432.5,749.833 1432.5,749.5C 1434.26,748.738 1435.26,747.404 1435.5,745.5C 1438.07,740.591 1441.41,736.258 1445.5,732.5C 1498.57,820.615 1522.9,916.615 1518.5,1020.5C 1521.52,1020.34 1524.52,1020.5 1527.5,1021C 1586.34,1036.51 1624.18,1073.67 1641,1132.5C 1648.95,1173 1641.95,1211 1620,1246.5C 1579.59,1299.9 1539.59,1353.57 1500,1407.5C 1497.29,1408.93 1494.79,1408.59 1492.5,1406.5C 1468.08,1373.32 1443.41,1340.32 1418.5,1307.5C 1395.35,1338.49 1369.18,1366.82 1340,1392.5C 1339.33,1394.5 1339.33,1396.5 1340,1398.5C 1345.4,1416.9 1350.07,1435.56 1354,1454.5C 1354.67,1477.5 1354.67,1500.5 1354,1523.5C 1349.63,1543.54 1337.46,1556.04 1317.5,1561C 1296.83,1561.33 1276.17,1561.67 1255.5,1562C 1235.07,1601.78 1203.4,1627.45 1160.5,1639C 1103.35,1652.29 1054.52,1637.79 1014,1595.5C 1008.62,1589.12 1003.62,1582.45 999,1575.5C 996.012,1571.19 993.845,1566.52 992.5,1561.5C 914.499,1561.33 836.499,1561.5 758.5,1562C 742.72,1592.78 719.387,1615.78 688.5,1631C 623.66,1656.75 566.827,1645.25 518,1596.5C 513.562,1590.61 508.895,1584.94 504,1579.5C 500.833,1573.67 497.667,1567.83 494.5,1562C 459.833,1561.67 425.167,1561.33 390.5,1561C 375.931,1557.45 365.098,1548.95 358,1535.5C 357.333,1509.83 357.333,1484.17 358,1458.5C 363.889,1448.28 372.056,1440.44 382.5,1435C 387.279,1434.07 391.946,1432.74 396.5,1431C 395.334,1292.57 395.168,1154.07 396,1015.5C 400.318,993.514 413.485,980.681 435.5,977C 450.496,976.5 465.496,976.333 480.5,976.5C 484.757,885.539 510.423,801.873 557.5,725.5C 516.873,674.344 510.04,618.678 537,558.5C 573.561,497.639 627.061,472.139 697.5,482C 715.944,486.551 733.278,493.885 749.5,504C 759.686,511.863 769.519,520.029 779,528.5C 852.33,495.182 929.83,478.849 1011.5,479.5 Z M 663.5,525.5 C 715.369,527.165 749.536,552.499 766,601.5C 771.946,629.418 767.946,655.751 754,680.5C 725.09,718.655 696.423,756.988 668,795.5C 638.667,756.167 609.333,716.833 580,677.5C 565.239,647.976 563.573,617.642 575,586.5C 593.347,549.605 622.847,529.272 663.5,525.5 Z M 665.5,608.5 C 683.201,610.349 689.368,619.683 684,636.5C 677.443,644.5 669.277,646.667 659.5,643C 646.544,632.731 646.211,622.064 658.5,611C 661.191,610.844 663.524,610.011 665.5,608.5 Z M 441.5,1023.5 C 495.5,1023.5 549.5,1023.5 603.5,1023.5C 603.333,1075.5 603.5,1127.5 604,1179.5C 604.725,1180.06 605.558,1180.39 606.5,1180.5C 640.781,1163.3 675.115,1146.3 709.5,1129.5C 743.162,1146.33 776.828,1163.16 810.5,1180C 811.833,1180.67 813.167,1180.67 814.5,1180C 815.497,1127.91 815.831,1075.74 815.5,1023.5C 869.171,1023.17 922.837,1023.5 976.5,1024.5C 975.167,1159.83 975.167,1295.17 976.5,1430.5C 903.503,1431.5 830.503,1431.83 757.5,1431.5C 741.959,1400.13 718.292,1376.96 686.5,1362C 621.859,1337.11 565.359,1349.27 517,1398.5C 508.582,1408.34 501.416,1419 495.5,1430.5C 477.5,1431.83 459.5,1431.83 441.5,1430.5C 442.832,1294.83 442.832,1159.17 441.5,1023.5 Z M 1484.5,1064.5 C 1532.73,1061.64 1567.57,1081.64 1589,1124.5C 1602.12,1158.24 1599.46,1190.57 1581,1221.5C 1552.99,1259 1524.83,1296.33 1496.5,1333.5C 1467.19,1295.57 1438.36,1257.24 1410,1218.5C 1387.97,1177.74 1390.64,1138.74 1418,1101.5C 1435.85,1080.98 1458.02,1068.64 1484.5,1064.5 Z M 1022.5,1146.5 C 1088.87,1146.02 1155.2,1146.52 1221.5,1148C 1223.93,1149.14 1226.26,1150.48 1228.5,1152C 1230.37,1154.29 1231.87,1156.79 1233,1159.5C 1235.2,1167.44 1237.03,1175.44 1238.5,1183.5C 1204.5,1183.33 1170.5,1183.5 1136.5,1184C 1118.81,1189.03 1106.97,1200.2 1101,1217.5C 1100.33,1237.83 1100.33,1258.17 1101,1278.5C 1106.08,1295.25 1116.92,1306.42 1133.5,1312C 1179.5,1312.5 1225.5,1312.67 1271.5,1312.5C 1278.14,1336.85 1283.97,1361.51 1289,1386.5C 1289.91,1387.33 1290.58,1388.33 1291,1389.5C 1292,1395.17 1293,1400.83 1294,1406.5C 1294.42,1407.67 1295.09,1408.67 1296,1409.5C 1297,1414.83 1298,1420.17 1299,1425.5C 1299.36,1427.42 1300.19,1429.09 1301.5,1430.5C 1285.85,1431.5 1270.18,1431.83 1254.5,1431.5C 1254.66,1430.13 1254.49,1428.79 1254,1427.5C 1220.83,1372.21 1172,1346.38 1107.5,1350C 1075.38,1354.23 1047.38,1367.39 1023.5,1389.5C 1022.5,1308.5 1022.17,1227.5 1022.5,1146.5 Z M 1493.5,1146.5 C 1511.47,1148.34 1517.63,1158.01 1512,1175.5C 1504.97,1183.91 1496.47,1185.74 1486.5,1181C 1478.16,1174.01 1476.33,1165.51 1481,1155.5C 1482.17,1153.67 1483.67,1152.17 1485.5,1151C 1488.63,1150.14 1491.3,1148.64 1493.5,1146.5 Z M 401.5,1478.5 C 428.175,1478.17 454.842,1478.5 481.5,1479.5C 477.521,1491.02 477.521,1502.52 481.5,1514C 481,1514.5 480.5,1515 480,1515.5C 454.196,1514.17 428.363,1514.17 402.5,1515.5C 401.501,1503.18 401.168,1490.85 401.5,1478.5 Z M 622.5,1478.5 C 640.454,1479.08 647.287,1488.08 643,1505.5C 637.412,1514.09 629.579,1516.92 619.5,1514C 609.401,1508.29 606.234,1499.79 610,1488.5C 613.462,1484.2 617.629,1480.86 622.5,1478.5 Z M 772.5,1478.5 C 841.167,1478.33 909.834,1478.5 978.5,1479C 977.412,1484.94 976.412,1490.94 975.5,1497C 976.787,1503.12 977.287,1509.29 977,1515.5C 909.333,1514.17 841.667,1514.17 774,1515.5C 773.5,1515 773,1514.5 772.5,1514C 773.805,1502.2 773.805,1490.36 772.5,1478.5 Z M 1119.5,1478.5 C 1137.48,1478.98 1144.31,1487.98 1140,1505.5C 1134.41,1514.09 1126.58,1516.92 1116.5,1514C 1112.36,1512.36 1109.36,1509.53 1107.5,1505.5C 1103.19,1492.48 1107.19,1483.48 1119.5,1478.5 Z M 1269.5,1478.5 C 1282.52,1478.17 1295.52,1478.5 1308.5,1479.5C 1307.36,1491.2 1307.19,1502.87 1308,1514.5C 1295.66,1514.19 1283.16,1514.52 1270.5,1515.5C 1270.17,1514.67 1269.83,1513.83 1269.5,1513C 1272.11,1501.49 1272.11,1489.99 1269.5,1478.5 Z"/></g>
<g><path style="opacity:0.149" fill="#6e4b4e" d="M 1015.5,473.5 C 1015.5,474.167 1015.5,474.833 1015.5,475.5C 1015.5,475.833 1015.5,476.167 1015.5,476.5C 1013.17,478.176 1012.17,480.509 1012.5,483.5C 1011.83,483.833 1011.17,484.167 1010.5,484.5C 1011.04,482.883 1011.37,481.216 1011.5,479.5C 1012.35,477.118 1013.68,475.118 1015.5,473.5 Z"/></g>
<g><path style="opacity:0.765" fill="#ad3e49" d="M 1015.5,476.5 C 1015.07,479.157 1014.07,481.491 1012.5,483.5C 1012.17,480.509 1013.17,478.176 1015.5,476.5 Z"/></g>
<g><path style="opacity:1" fill="#626262" d="M 1287.5,498.5 C 1254.82,482 1220.82,479 1185.5,489.5C 1185.5,488.833 1185.5,488.167 1185.5,487.5C 1220.09,477.25 1253.42,479.917 1285.5,495.5C 1286.43,496.357 1287.09,497.357 1287.5,498.5 Z"/></g>
<g><path style="opacity:1" fill="#6e6e6e" d="M 1287.5,498.5 C 1290.59,499.739 1293.59,501.239 1296.5,503C 1299.29,506.891 1302.95,509.558 1307.5,511C 1319.11,521.064 1328.44,532.564 1335.5,545.5C 1338.32,552.902 1341.32,560.235 1344.5,567.5C 1349.09,585.859 1350.76,604.525 1349.5,623.5C 1348.81,630.288 1347.48,636.954 1345.5,643.5C 1341.07,651.778 1337.4,660.444 1334.5,669.5C 1331.53,674.303 1328.36,678.97 1325,683.5C 1314.07,694.104 1302.57,703.938 1290.5,713C 1282.8,715.565 1275.47,718.898 1268.5,723C 1262.64,725.131 1256.64,726.631 1250.5,727.5C 1237.19,728.548 1223.85,728.715 1210.5,728C 1202.48,726.386 1194.48,724.886 1186.5,723.5C 1185.83,723.5 1185.17,723.5 1184.5,723.5C 1173.56,717.268 1162.56,710.935 1151.5,704.5C 1145.37,700.67 1139.87,696.003 1135,690.5C 1130.44,682.106 1125.27,674.106 1119.5,666.5C 1109.87,647.945 1104.87,628.111 1104.5,607C 1105,599.5 1105.5,592 1106,584.5C 1108.41,575.11 1110.91,565.777 1113.5,556.5C 1114.65,551.712 1116.65,547.379 1119.5,543.5C 1124.57,538.926 1128.73,533.593 1132,527.5C 1137.83,521.667 1143.67,515.833 1149.5,510C 1154.97,506.513 1160.3,502.846 1165.5,499C 1172.35,495.901 1179.02,492.734 1185.5,489.5C 1220.82,479 1254.82,482 1287.5,498.5 Z"/></g>
<g><path style="opacity:1" fill="#be3948" d="M 1012.5,483.5 C 1012.41,485.848 1011.41,487.514 1009.5,488.5C 1009.5,487.833 1009.5,487.167 1009.5,486.5C 1010.34,486.158 1010.67,485.492 1010.5,484.5C 1011.17,484.167 1011.83,483.833 1012.5,483.5 Z"/></g>
<g><path style="opacity:1" fill="#9d414b" d="M 1009.5,486.5 C 1009.5,487.167 1009.5,487.833 1009.5,488.5C 1009.57,490.027 1008.91,491.027 1007.5,491.5C 1007.8,489.597 1008.46,487.93 1009.5,486.5 Z"/></g>
<g><path style="opacity:1" fill="#8d444c" d="M 1007.5,491.5 C 1007.57,493.027 1006.91,494.027 1005.5,494.5C 1005.43,492.973 1006.09,491.973 1007.5,491.5 Z"/></g>
<g><path style="opacity:1" fill="#5b5b5b" d="M 1185.5,487.5 C 1185.5,488.167 1185.5,488.833 1185.5,489.5C 1179.02,492.734 1172.35,495.901 1165.5,499C 1160.3,502.846 1154.97,506.513 1149.5,510C 1143.67,515.833 1137.83,521.667 1132,527.5C 1128.73,533.593 1124.57,538.926 1119.5,543.5C 1124.65,534.178 1131.15,525.845 1139,518.5C 1139.49,517.207 1139.66,515.873 1139.5,514.5C 1140.55,514.649 1141.55,514.483 1142.5,514C 1145.17,510 1148.5,506.667 1152.5,504C 1160.93,498.568 1169.6,493.568 1178.5,489C 1180.81,488.338 1183.15,487.838 1185.5,487.5 Z"/></g>
<g><path style="opacity:1" fill="#92444b" d="M 1004.5,496.5 C 1004.74,498.898 1004.07,500.898 1002.5,502.5C 1002.26,500.102 1002.93,498.102 1004.5,496.5 Z"/></g>
<g><path style="opacity:1" fill="#92434c" d="M 1002.5,502.5 C 1001.68,505.619 1000.68,508.619 999.5,511.5C 998.833,511.5 998.167,511.5 997.5,511.5C 998.807,508.22 1000.47,505.22 1002.5,502.5 Z"/></g>
<g><path style="opacity:1" fill="#c43847" d="M 997.5,511.5 C 998.167,511.5 998.833,511.5 999.5,511.5C 998.527,514.634 997.193,517.634 995.5,520.5C 995.043,521.298 994.376,521.631 993.5,521.5C 993.5,520.833 993.5,520.167 993.5,519.5C 995.341,517.151 996.674,514.485 997.5,511.5 Z"/></g>
<g><path style="opacity:0.949" fill="#81464d" d="M 993.5,519.5 C 993.5,520.167 993.5,520.833 993.5,521.5C 992.833,521.833 992.167,522.167 991.5,522.5C 991.427,520.973 992.094,519.973 993.5,519.5 Z"/></g>
<g><path style="opacity:0.416" fill="#c03948" d="M 993.5,521.5 C 992.962,523.117 992.629,524.784 992.5,526.5C 991.5,526.5 990.5,526.5 989.5,526.5C 989.5,526.167 989.5,525.833 989.5,525.5C 990.906,525.027 991.573,524.027 991.5,522.5C 992.167,522.167 992.833,521.833 993.5,521.5 Z"/></g>
<g><path style="opacity:1" fill="#606060" d="M 1113.5,556.5 C 1110.91,565.777 1108.41,575.11 1106,584.5C 1105.5,592 1105,599.5 1104.5,607C 1104.87,628.111 1109.87,647.945 1119.5,666.5C 1115.09,662.024 1111.92,656.691 1110,650.5C 1101.2,624.054 1100.2,597.387 1107,570.5C 1108.52,565.399 1110.69,560.732 1113.5,556.5 Z"/></g>
<g><path style="opacity:0.168" fill="#5f4d4f" d="M 1067.5,555.5 C 1067.57,559.425 1066.9,563.091 1065.5,566.5C 1065.5,565.167 1065.5,563.833 1065.5,562.5C 1065.34,560.473 1065.5,558.473 1066,556.5C 1066.38,555.944 1066.88,555.611 1067.5,555.5 Z"/></g>
<g><path style="opacity:1" fill="#636363" d="M 1335.5,545.5 C 1337.62,546.986 1339.12,548.986 1340,551.5C 1346.38,564.803 1349.88,578.803 1350.5,593.5C 1350.83,603.681 1350.49,613.681 1349.5,623.5C 1350.76,604.525 1349.09,585.859 1344.5,567.5C 1341.32,560.235 1338.32,552.902 1335.5,545.5 Z"/></g>
<g><path style="opacity:0.894" fill="#d53447" d="M 616.5,588.5 C 619.453,587.213 621.786,585.213 623.5,582.5C 625.367,581.24 626.7,579.573 627.5,577.5C 651.039,558.613 676.039,556.78 702.5,572C 731.403,593.246 739.57,620.746 727,654.5C 708.505,686.246 681.338,697.412 645.5,688C 610.071,670.639 597.238,642.806 607,604.5C 609.711,598.827 612.878,593.494 616.5,588.5 Z M 665.5,608.5 C 663.524,610.011 661.191,610.844 658.5,611C 646.211,622.064 646.544,632.731 659.5,643C 669.277,646.667 677.443,644.5 684,636.5C 689.368,619.683 683.201,610.349 665.5,608.5 Z"/></g>
<g><path style="opacity:0.243" fill="#7a484e" d="M 1065.5,562.5 C 1065.5,563.833 1065.5,565.167 1065.5,566.5C 1065.5,567.167 1065.5,567.833 1065.5,568.5C 1064.83,568.833 1064.17,569.167 1063.5,569.5C 1063.41,566.848 1064.08,564.515 1065.5,562.5 Z"/></g>
<g><path style="opacity:0.298" fill="#604e50" d="M 1065.5,568.5 C 1064.63,571.426 1063.63,574.426 1062.5,577.5C 1062.5,576.833 1062.5,576.167 1062.5,575.5C 1062.21,573.265 1062.54,571.265 1063.5,569.5C 1064.17,569.167 1064.83,568.833 1065.5,568.5 Z"/></g>
<g><path style="opacity:0.037" fill="#89454c" d="M 1062.5,575.5 C 1062.5,576.167 1062.5,576.833 1062.5,577.5C 1062.5,578.833 1061.83,579.5 1060.5,579.5C 1060.66,577.847 1061.33,576.514 1062.5,575.5 Z"/></g>
<g><path style="opacity:0.067" fill="#b83a49" d="M 627.5,577.5 C 626.7,579.573 625.367,581.24 623.5,582.5C 623.5,581.833 623.5,581.167 623.5,580.5C 624.795,579.512 626.128,578.512 627.5,577.5 Z"/></g>
<g><path style="opacity:0.165" fill="#a33f4a" d="M 623.5,580.5 C 623.5,581.167 623.5,581.833 623.5,582.5C 621.786,585.213 619.453,587.213 616.5,588.5C 618.843,585.793 621.177,583.126 623.5,580.5 Z"/></g>
<g><path style="opacity:1" fill="#5b5b5b" d="M 1350.5,593.5 C 1352.01,597.391 1352.67,601.558 1352.5,606C 1352.14,612.843 1351.64,619.677 1351,626.5C 1348.66,636.188 1346.32,645.855 1344,655.5C 1339.08,665.15 1333.58,674.483 1327.5,683.5C 1320.04,689.785 1312.71,696.285 1305.5,703C 1304.83,704.333 1304.17,705.667 1303.5,707C 1298.66,710.585 1293.66,713.918 1288.5,717C 1275.38,722.865 1261.71,727.032 1247.5,729.5C 1248.5,728.833 1249.5,728.167 1250.5,727.5C 1256.64,726.631 1262.64,725.131 1268.5,723C 1275.47,718.898 1282.8,715.565 1290.5,713C 1302.57,703.938 1314.07,694.104 1325,683.5C 1328.36,678.97 1331.53,674.303 1334.5,669.5C 1337.4,660.444 1341.07,651.778 1345.5,643.5C 1347.48,636.954 1348.81,630.288 1349.5,623.5C 1350.49,613.681 1350.83,603.681 1350.5,593.5 Z"/></g>
<g><path style="opacity:1" fill="#626262" d="M 1151.5,704.5 C 1162.56,710.935 1173.56,717.268 1184.5,723.5C 1172.22,719.189 1161.22,712.855 1151.5,704.5 Z"/></g>
<g><path style="opacity:1" fill="#626262" d="M 1186.5,723.5 C 1194.48,724.886 1202.48,726.386 1210.5,728C 1223.85,728.715 1237.19,728.548 1250.5,727.5C 1249.5,728.167 1248.5,728.833 1247.5,729.5C 1232.15,730.955 1216.82,730.788 1201.5,729C 1196.31,727.487 1191.31,725.654 1186.5,723.5 Z"/></g>
<g><path style="opacity:1" fill="#6e4a4f" d="M 1435.5,745.5 C 1435.26,747.404 1434.26,748.738 1432.5,749.5C 1432.74,747.596 1433.74,746.262 1435.5,745.5 Z"/></g>
<g><path style="opacity:1" fill="#9e404b" d="M 1447.5,729.5 C 1447.57,731.027 1446.91,732.027 1445.5,732.5C 1441.41,736.258 1438.07,740.591 1435.5,745.5C 1433.74,746.262 1432.74,747.596 1432.5,749.5C 1432.5,749.833 1432.5,750.167 1432.5,750.5C 1431.09,750.973 1430.43,751.973 1430.5,753.5C 1430.17,754.5 1429.5,755.167 1428.5,755.5C 1430.1,749.537 1432.94,744.204 1437,739.5C 1439.73,735.266 1443.23,731.933 1447.5,729.5 Z"/></g>
<g><path style="opacity:1" fill="#714a4d" d="M 1432.5,750.5 C 1432.57,752.027 1431.91,753.027 1430.5,753.5C 1430.43,751.973 1431.09,750.973 1432.5,750.5 Z"/></g>
<g><path style="opacity:1" fill="#94434b" d="M 1427.5,759.5 C 1426.53,761.483 1425.53,763.483 1424.5,765.5C 1424.17,765.5 1423.83,765.5 1423.5,765.5C 1423.84,762.802 1425.18,760.802 1427.5,759.5 Z"/></g>
<g><path style="opacity:1" fill="#7e484d" d="M 1423.5,765.5 C 1423.83,765.5 1424.17,765.5 1424.5,765.5C 1422.5,768.167 1420.17,770.5 1417.5,772.5C 1417.5,772.167 1417.5,771.833 1417.5,771.5C 1419.17,769.167 1421.17,767.167 1423.5,765.5 Z"/></g>
<g><path style="opacity:0.376" fill="#98424b" d="M 1417.5,771.5 C 1417.5,771.833 1417.5,772.167 1417.5,772.5C 1413.79,775.211 1410.79,778.544 1408.5,782.5C 1406.5,784.5 1404.5,786.5 1402.5,788.5C 1405.88,781.397 1410.88,775.73 1417.5,771.5 Z"/></g>
<g><path style="opacity:0.025" fill="#614e4f" d="M 1408.5,782.5 C 1407.83,784.167 1407.17,785.833 1406.5,787.5C 1404.98,790.533 1402.98,793.2 1400.5,795.5C 1400.5,794.5 1400.5,793.5 1400.5,792.5C 1401.67,791.486 1402.34,790.153 1402.5,788.5C 1404.5,786.5 1406.5,784.5 1408.5,782.5 Z"/></g>
<g><path style="opacity:0.302" fill="#af3d49" d="M 1400.5,792.5 C 1400.5,793.5 1400.5,794.5 1400.5,795.5C 1400.17,796.5 1399.5,797.167 1398.5,797.5C 1398.12,795.302 1398.79,793.635 1400.5,792.5 Z"/></g>
<g><path style="opacity:0.78" fill="#d53446" d="M 852.5,893.5 C 867.745,893.176 882.911,893.509 898,894.5C 898.824,909.741 898.657,924.908 897.5,940C 882.455,940.817 867.455,940.65 852.5,939.5C 851.214,924.146 851.214,908.812 852.5,893.5 Z"/></g>
<g><path style="opacity:0.78" fill="#d53446" d="M 935.5,893.5 C 950.745,893.176 965.911,893.509 981,894.5C 981.824,909.741 981.657,924.908 980.5,940C 965.259,940.824 950.092,940.657 935,939.5C 934.184,924.092 934.351,908.759 935.5,893.5 Z"/></g>
<g><path style="opacity:0.78" fill="#d53446" d="M 1018.5,893.5 C 1033.74,893.176 1048.91,893.509 1064,894.5C 1064.67,909.167 1064.67,923.833 1064,938.5C 1063.5,939 1063,939.5 1062.5,940C 1047.59,940.823 1032.76,940.657 1018,939.5C 1017.18,924.092 1017.35,908.759 1018.5,893.5 Z"/></g>
<g><path style="opacity:0.098" fill="#a73e4a" d="M 1229.5,1013.5 C 1228.61,1014.11 1227.61,1014.44 1226.5,1014.5C 1227.05,1012.45 1228.05,1012.11 1229.5,1013.5 Z"/></g>
<g><path style="opacity:1" fill="#565656" d="M 730.5,1092.5 C 734.658,1094.34 738.992,1096 743.5,1097.5C 744.429,1098.31 745.429,1099.15 746.5,1100C 750.256,1100.93 753.923,1102.1 757.5,1103.5C 760.24,1105.05 762.907,1106.89 765.5,1109C 767.345,1110.13 769.345,1110.63 771.5,1110.5C 771.5,1080.5 771.5,1050.5 771.5,1020.5C 729.833,1020.5 688.167,1020.5 646.5,1020.5C 646.5,1050.5 646.5,1080.5 646.5,1110.5C 650.36,1110.95 653.36,1109.61 655.5,1106.5C 655.833,1106.5 656.167,1106.5 656.5,1106.5C 660.686,1105.63 664.686,1104.3 668.5,1102.5C 661.723,1106.74 654.556,1110.41 647,1113.5C 646.586,1113.04 646.086,1112.71 645.5,1112.5C 644.189,1081.14 644.189,1049.81 645.5,1018.5C 687.835,1018.33 730.168,1018.5 772.5,1019C 773.496,1050.09 773.829,1081.26 773.5,1112.5C 771.473,1112.66 769.473,1112.5 767.5,1112C 755.105,1105.47 742.772,1098.97 730.5,1092.5 Z"/></g>
<g><path style="opacity:1" fill="#626262" d="M 757.5,1103.5 C 761.673,1104.84 765.507,1106.84 769,1109.5C 769.333,1109.17 769.667,1108.83 770,1108.5C 770.828,1079.59 770.662,1050.76 769.5,1022C 729.168,1021.5 688.835,1021.33 648.5,1021.5C 648.5,1050.5 648.5,1079.5 648.5,1108.5C 650.833,1107.83 653.167,1107.17 655.5,1106.5C 653.36,1109.61 650.36,1110.95 646.5,1110.5C 646.5,1080.5 646.5,1050.5 646.5,1020.5C 688.167,1020.5 729.833,1020.5 771.5,1020.5C 771.5,1050.5 771.5,1080.5 771.5,1110.5C 769.345,1110.63 767.345,1110.13 765.5,1109C 762.907,1106.89 760.24,1105.05 757.5,1103.5 Z"/></g>
<g><path style="opacity:1" fill="#6e6e6e" d="M 757.5,1103.5 C 753.923,1102.1 750.256,1100.93 746.5,1100C 745.429,1099.15 744.429,1098.31 743.5,1097.5C 741.744,1095.06 739.411,1093.22 736.5,1092C 727.794,1087.46 718.794,1083.62 709.5,1080.5C 703.171,1081.5 697.838,1084.33 693.5,1089C 689.833,1090.1 686.5,1091.77 683.5,1094C 679.943,1095.41 676.276,1096.41 672.5,1097C 666.786,1099.88 661.453,1103.04 656.5,1106.5C 656.167,1106.5 655.833,1106.5 655.5,1106.5C 653.167,1107.17 650.833,1107.83 648.5,1108.5C 648.5,1079.5 648.5,1050.5 648.5,1021.5C 688.835,1021.33 729.168,1021.5 769.5,1022C 770.662,1050.76 770.828,1079.59 770,1108.5C 769.667,1108.83 769.333,1109.17 769,1109.5C 765.507,1106.84 761.673,1104.84 757.5,1103.5 Z"/></g>
<g><path style="opacity:1" fill="#5b5b5b" d="M 743.5,1097.5 C 738.992,1096 734.658,1094.34 730.5,1092.5C 728.526,1091.09 726.526,1089.59 724.5,1088C 719.704,1085.56 714.704,1083.39 709.5,1081.5C 706.246,1083.03 702.913,1084.36 699.5,1085.5C 698.738,1086.63 698.071,1087.79 697.5,1089C 688.056,1093.98 678.389,1098.48 668.5,1102.5C 664.686,1104.3 660.686,1105.63 656.5,1106.5C 661.453,1103.04 666.786,1099.88 672.5,1097C 676.276,1096.41 679.943,1095.41 683.5,1094C 686.5,1091.77 689.833,1090.1 693.5,1089C 697.838,1084.33 703.171,1081.5 709.5,1080.5C 718.794,1083.62 727.794,1087.46 736.5,1092C 739.411,1093.22 741.744,1095.06 743.5,1097.5 Z"/></g>
<g><path style="opacity:0.892" fill="#d53447" d="M 1487.5,1100.5 C 1511.19,1099.04 1531.02,1107.04 1547,1124.5C 1552.96,1132.41 1557.29,1141.08 1560,1150.5C 1564.78,1181.17 1554.28,1205.01 1528.5,1222C 1499.63,1236.41 1473.47,1232.57 1450,1210.5C 1424.95,1179.6 1425.45,1149.1 1451.5,1119C 1460.48,1110.8 1470.81,1105.47 1482.5,1103C 1484.17,1102.01 1485.84,1101.18 1487.5,1100.5 Z M 1493.5,1146.5 C 1491.3,1148.64 1488.63,1150.14 1485.5,1151C 1483.67,1152.17 1482.17,1153.67 1481,1155.5C 1476.33,1165.51 1478.16,1174.01 1486.5,1181C 1496.47,1185.74 1504.97,1183.91 1512,1175.5C 1517.63,1158.01 1511.47,1148.34 1493.5,1146.5 Z"/></g>
<g><path style="opacity:1" fill="#555555" d="M 1254.5,1229.5 C 1235.98,1228.19 1217.32,1227.53 1198.5,1227.5C 1180.5,1227.67 1162.5,1227.83 1144.5,1228C 1143.34,1241.42 1143.18,1254.92 1144,1268.5C 1183.43,1269.66 1222.93,1269.83 1262.5,1269C 1263.06,1268.28 1263.39,1267.44 1263.5,1266.5C 1259.36,1257.33 1257.02,1247.67 1256.5,1237.5C 1258.55,1243.22 1260.55,1249.05 1262.5,1255C 1262.04,1255.41 1261.71,1255.91 1261.5,1256.5C 1264.34,1261.1 1265.01,1265.93 1263.5,1271C 1223.26,1271.83 1183.1,1271.66 1143,1270.5C 1142.18,1255.59 1142.34,1240.76 1143.5,1226C 1179.83,1225.33 1216.17,1225.33 1252.5,1226C 1253.97,1226.71 1254.64,1227.88 1254.5,1229.5 Z"/></g>
<g><path style="opacity:1" fill="#636363" d="M 1254.5,1229.5 C 1254.8,1232.37 1255.47,1235.04 1256.5,1237.5C 1257.02,1247.67 1259.36,1257.33 1263.5,1266.5C 1263.39,1267.44 1263.06,1268.28 1262.5,1269C 1222.93,1269.83 1183.43,1269.66 1144,1268.5C 1143.18,1254.92 1143.34,1241.42 1144.5,1228C 1162.5,1227.83 1180.5,1227.67 1198.5,1227.5C 1217.32,1227.53 1235.98,1228.19 1254.5,1229.5 Z"/></g>
<g><path style="opacity:1" fill="#6e6e6e" d="M 1146.5,1228.5 C 1181.51,1228.17 1216.51,1228.5 1251.5,1229.5C 1254.6,1241.73 1257.93,1253.9 1261.5,1266C 1223.31,1267.66 1184.98,1267.99 1146.5,1267C 1145.18,1254.17 1145.18,1241.33 1146.5,1228.5 Z"/></g>
<g><path style="opacity:1" fill="#6e6e6e" d="M 669.5,1402.5 C 685.795,1410.28 699.629,1421.28 711,1435.5C 713.12,1438.59 714.62,1441.92 715.5,1445.5C 724.239,1461.13 728.572,1478.13 728.5,1496.5C 728.745,1510.3 726.578,1523.63 722,1536.5C 716.395,1546.06 710.562,1555.39 704.5,1564.5C 697.276,1573.22 688.943,1580.72 679.5,1587C 677.35,1588.41 675.016,1589.24 672.5,1589.5C 663.982,1591.88 655.649,1594.71 647.5,1598C 635.539,1599.5 623.539,1599.84 611.5,1599C 602.865,1597.51 594.531,1595.01 586.5,1591.5C 585.5,1591.5 584.5,1591.5 583.5,1591.5C 575.348,1585.73 567.014,1579.89 558.5,1574C 553.663,1568.33 548.663,1562.83 543.5,1557.5C 540.458,1554.46 537.624,1551.13 535,1547.5C 533.409,1545.07 532.575,1542.41 532.5,1539.5C 529.73,1529.15 526.897,1518.82 524,1508.5C 521.811,1471.3 534.645,1440.63 562.5,1416.5C 563.338,1416.16 563.672,1415.49 563.5,1414.5C 576.067,1407.25 589.234,1401.25 603,1396.5C 620.583,1393.62 638.083,1394.12 655.5,1398C 659.864,1400.34 664.53,1401.84 669.5,1402.5 Z M 622.5,1478.5 C 617.629,1480.86 613.462,1484.2 610,1488.5C 606.234,1499.79 609.401,1508.29 619.5,1514C 629.579,1516.92 637.412,1514.09 643,1505.5C 647.287,1488.08 640.454,1479.08 622.5,1478.5 Z"/></g>
<g><path style="opacity:1" fill="#6e6e6e" d="M 1165.5,1401.5 C 1172.11,1405.48 1178.78,1409.48 1185.5,1413.5C 1197.66,1422.53 1207.49,1433.53 1215,1446.5C 1216.62,1453.63 1219.12,1460.3 1222.5,1466.5C 1224.76,1476.71 1225.92,1487.05 1226,1497.5C 1225.71,1512.67 1222.38,1527 1216,1540.5C 1215.51,1541.79 1215.34,1543.13 1215.5,1544.5C 1214.68,1548.15 1213.18,1551.48 1211,1554.5C 1203.06,1563.9 1194.56,1572.73 1185.5,1581C 1179.09,1585.07 1172.42,1588.73 1165.5,1592C 1162.38,1593.61 1159.05,1594.44 1155.5,1594.5C 1137.39,1598.67 1119.06,1599.67 1100.5,1597.5C 1094.41,1594.97 1088.07,1592.64 1081.5,1590.5C 1072.65,1587.59 1064.99,1582.92 1058.5,1576.5C 1053.17,1571.83 1048.17,1566.83 1043.5,1561.5C 1038.34,1556.53 1034.67,1550.53 1032.5,1543.5C 1029.67,1537.53 1026.84,1531.53 1024,1525.5C 1023.08,1521.21 1022.58,1516.88 1022.5,1512.5C 1021.01,1495.96 1022.18,1479.63 1026,1463.5C 1029.14,1456.89 1031.97,1450.23 1034.5,1443.5C 1039.13,1438.26 1043.3,1432.59 1047,1426.5C 1051.21,1421.98 1055.71,1417.82 1060.5,1414C 1062.42,1412.88 1064.42,1412.04 1066.5,1411.5C 1070.2,1409.98 1073.54,1407.81 1076.5,1405C 1098.16,1395.68 1120.82,1392.68 1144.5,1396C 1151.45,1397.88 1158.45,1399.71 1165.5,1401.5 Z M 1119.5,1478.5 C 1107.19,1483.48 1103.19,1492.48 1107.5,1505.5C 1109.36,1509.53 1112.36,1512.36 1116.5,1514C 1126.58,1516.92 1134.41,1514.09 1140,1505.5C 1144.31,1487.98 1137.48,1478.98 1119.5,1478.5 Z"/></g>
<g><path style="opacity:1" fill="#606060" d="M 1165.5,1401.5 C 1158.45,1399.71 1151.45,1397.88 1144.5,1396C 1120.82,1392.68 1098.16,1395.68 1076.5,1405C 1073.54,1407.81 1070.2,1409.98 1066.5,1411.5C 1069.06,1408.54 1072.06,1406.04 1075.5,1404C 1096.67,1393.86 1119,1390.52 1142.5,1394C 1150.62,1395.43 1158.29,1397.93 1165.5,1401.5 Z"/></g>
<g><path style="opacity:1" fill="#606060" d="M 669.5,1402.5 C 664.53,1401.84 659.864,1400.34 655.5,1398C 638.083,1394.12 620.583,1393.62 603,1396.5C 589.234,1401.25 576.067,1407.25 563.5,1414.5C 578.697,1402.51 596.03,1395.35 615.5,1393C 628.707,1391.8 641.707,1392.8 654.5,1396C 659.996,1397.32 664.996,1399.49 669.5,1402.5 Z"/></g>
<g><path style="opacity:1" fill="#626262" d="M 650.5,1439.5 C 639.512,1435.81 628.178,1434.65 616.5,1436C 610.055,1437.73 603.722,1439.73 597.5,1442C 596.748,1442.67 596.414,1443.5 596.5,1444.5C 592.38,1445.73 588.713,1447.73 585.5,1450.5C 585.511,1448.98 586.177,1447.82 587.5,1447C 604.649,1434.37 623.649,1430.7 644.5,1436C 647.019,1436.59 649.019,1437.75 650.5,1439.5 Z"/></g>
<g><path style="opacity:0.971" fill="#515151" d="M 681.5,1522.5 C 679.221,1527.72 676.387,1532.72 673,1537.5C 668.232,1542.77 663.066,1547.44 657.5,1551.5C 653.239,1552.25 649.239,1553.75 645.5,1556C 639.949,1557.64 634.283,1558.47 628.5,1558.5C 618.636,1557.73 608.97,1556.06 599.5,1553.5C 598.41,1552.14 597.076,1551.14 595.5,1550.5C 584.629,1541.61 576.129,1530.61 570,1517.5C 566.857,1503.87 566.691,1490.2 569.5,1476.5C 570.532,1472.36 571.866,1468.36 573.5,1464.5C 577.126,1459.54 581.126,1454.87 585.5,1450.5C 588.713,1447.73 592.38,1445.73 596.5,1444.5C 620.368,1434 643.368,1435.67 665.5,1449.5C 670.175,1455.53 674.842,1461.53 679.5,1467.5C 685.183,1479.57 687.35,1492.23 686,1505.5C 684.918,1511.38 683.418,1517.05 681.5,1522.5 Z M 622.5,1478.5 C 617.629,1480.86 613.462,1484.2 610,1488.5C 606.234,1499.79 609.401,1508.29 619.5,1514C 629.579,1516.92 637.412,1514.09 643,1505.5C 647.287,1488.08 640.454,1479.08 622.5,1478.5 Z"/></g>
<g><path style="opacity:1" fill="#616161" d="M 1147.5,1439.5 C 1138.18,1437.24 1128.68,1435.91 1119,1435.5C 1110.02,1436.33 1101.52,1438.66 1093.5,1442.5C 1094.35,1440.91 1095.68,1439.74 1097.5,1439C 1113.28,1433.51 1129.28,1433.01 1145.5,1437.5C 1146.71,1437.75 1147.38,1438.41 1147.5,1439.5 Z"/></g>
<g><path style="opacity:0.97" fill="#515151" d="M 1147.5,1439.5 C 1155.65,1444.42 1163.32,1450.09 1170.5,1456.5C 1174.57,1460.33 1177.9,1464.66 1180.5,1469.5C 1181.09,1474.95 1182.26,1480.28 1184,1485.5C 1187.43,1514.46 1176.93,1536.46 1152.5,1551.5C 1138.14,1558.5 1123.14,1560 1107.5,1556C 1102.28,1554.93 1097.28,1553.43 1092.5,1551.5C 1091.82,1548.32 1089.82,1546.82 1086.5,1547C 1082.8,1543.63 1079.46,1539.97 1076.5,1536C 1075.91,1535.54 1075.24,1535.37 1074.5,1535.5C 1069.89,1527.27 1066.06,1518.6 1063,1509.5C 1062.33,1502.5 1062.33,1495.5 1063,1488.5C 1063.58,1482.17 1065.08,1476.17 1067.5,1470.5C 1073.66,1459 1082.32,1449.67 1093.5,1442.5C 1101.52,1438.66 1110.02,1436.33 1119,1435.5C 1128.68,1435.91 1138.18,1437.24 1147.5,1439.5 Z M 1119.5,1478.5 C 1107.19,1483.48 1103.19,1492.48 1107.5,1505.5C 1109.36,1509.53 1112.36,1512.36 1116.5,1514C 1126.58,1516.92 1134.41,1514.09 1140,1505.5C 1144.31,1487.98 1137.48,1478.98 1119.5,1478.5 Z"/></g>
<g><path style="opacity:1" fill="#616161" d="M 1147.5,1439.5 C 1154.7,1441.85 1161.2,1445.52 1167,1450.5C 1168.42,1452.4 1169.59,1454.4 1170.5,1456.5C 1163.32,1450.09 1155.65,1444.42 1147.5,1439.5 Z"/></g>
<g><path style="opacity:1" fill="#616161" d="M 562.5,1416.5 C 534.645,1440.63 521.811,1471.3 524,1508.5C 526.897,1518.82 529.73,1529.15 532.5,1539.5C 531.25,1539.42 530.417,1538.76 530,1537.5C 513.864,1491.8 523.031,1452.3 557.5,1419C 559.078,1417.91 560.745,1417.07 562.5,1416.5 Z"/></g>
<g><path style="opacity:1" fill="#606060" d="M 715.5,1445.5 C 716.643,1445.91 717.643,1446.57 718.5,1447.5C 737.466,1485.17 735.299,1521.51 712,1556.5C 710,1559.67 707.5,1562.33 704.5,1564.5C 710.562,1555.39 716.395,1546.06 722,1536.5C 726.578,1523.63 728.745,1510.3 728.5,1496.5C 728.572,1478.13 724.239,1461.13 715.5,1445.5 Z"/></g>
<g><path style="opacity:1" fill="#565656" d="M 650.5,1439.5 C 655.503,1440.83 660.17,1443 664.5,1446C 669.662,1452.49 675.162,1458.66 681,1464.5C 682.128,1466.35 682.628,1468.35 682.5,1470.5C 689.431,1485.75 690.265,1501.41 685,1517.5C 683.97,1519.35 682.804,1521.01 681.5,1522.5C 683.418,1517.05 684.918,1511.38 686,1505.5C 687.35,1492.23 685.183,1479.57 679.5,1467.5C 674.842,1461.53 670.175,1455.53 665.5,1449.5C 643.368,1435.67 620.368,1434 596.5,1444.5C 596.414,1443.5 596.748,1442.67 597.5,1442C 603.722,1439.73 610.055,1437.73 616.5,1436C 628.178,1434.65 639.512,1435.81 650.5,1439.5 Z"/></g>
<g><path style="opacity:1" fill="#585858" d="M 1022.5,1469.5 C 1021.02,1478.43 1020.02,1487.43 1019.5,1496.5C 1019.67,1500.83 1019.83,1505.17 1020,1509.5C 1020.38,1510.94 1021.21,1511.94 1022.5,1512.5C 1022.58,1516.88 1023.08,1521.21 1024,1525.5C 1026.84,1531.53 1029.67,1537.53 1032.5,1543.5C 1029.19,1540.21 1026.36,1536.55 1024,1532.5C 1017.88,1512.12 1016.88,1491.46 1021,1470.5C 1021.38,1469.94 1021.88,1469.61 1022.5,1469.5 Z"/></g>
<g><path style="opacity:0.996" fill="#575757" d="M 569.5,1476.5 C 566.691,1490.2 566.857,1503.87 570,1517.5C 576.129,1530.61 584.629,1541.61 595.5,1550.5C 589.285,1548.46 584.119,1544.8 580,1539.5C 575.191,1534.21 571.691,1528.21 569.5,1521.5C 565.912,1509.44 564.745,1497.11 566,1484.5C 566.322,1481.33 567.489,1478.67 569.5,1476.5 Z"/></g>
<g><path style="opacity:1" fill="#626262" d="M 1034.5,1443.5 C 1031.97,1450.23 1029.14,1456.89 1026,1463.5C 1022.18,1479.63 1021.01,1495.96 1022.5,1512.5C 1021.21,1511.94 1020.38,1510.94 1020,1509.5C 1019.83,1505.17 1019.67,1500.83 1019.5,1496.5C 1020.02,1487.43 1021.02,1478.43 1022.5,1469.5C 1025.16,1460.19 1029.16,1451.52 1034.5,1443.5 Z"/></g>
<g><path style="opacity:1" fill="#606060" d="M 1067.5,1470.5 C 1065.08,1476.17 1063.58,1482.17 1063,1488.5C 1062.33,1495.5 1062.33,1502.5 1063,1509.5C 1066.06,1518.6 1069.89,1527.27 1074.5,1535.5C 1071.41,1532.58 1068.91,1529.25 1067,1525.5C 1065.65,1521.01 1063.98,1516.67 1062,1512.5C 1061.33,1502.17 1061.33,1491.83 1062,1481.5C 1063.09,1478.31 1064.26,1475.14 1065.5,1472C 1065.84,1470.97 1066.5,1470.47 1067.5,1470.5 Z"/></g>
<g><path style="opacity:1" fill="#606060" d="M 573.5,1464.5 C 571.866,1468.36 570.532,1472.36 569.5,1476.5C 567.489,1478.67 566.322,1481.33 566,1484.5C 564.745,1497.11 565.912,1509.44 569.5,1521.5C 561.22,1503.26 561.72,1484.93 571,1466.5C 571.708,1465.62 572.542,1464.95 573.5,1464.5 Z"/></g>
<g><path style="opacity:1" fill="#636363" d="M 682.5,1470.5 C 685.853,1474.5 688.02,1479.16 689,1484.5C 692.956,1509.89 685.122,1530.73 665.5,1547C 662.671,1548.36 660.004,1549.86 657.5,1551.5C 663.066,1547.44 668.232,1542.77 673,1537.5C 676.387,1532.72 679.221,1527.72 681.5,1522.5C 682.804,1521.01 683.97,1519.35 685,1517.5C 690.265,1501.41 689.431,1485.75 682.5,1470.5 Z"/></g>
<g><path style="opacity:1" fill="#616161" d="M 1180.5,1469.5 C 1192.94,1499.7 1186.94,1525.53 1162.5,1547C 1159.46,1549.22 1156.13,1550.72 1152.5,1551.5C 1176.93,1536.46 1187.43,1514.46 1184,1485.5C 1182.26,1480.28 1181.09,1474.95 1180.5,1469.5 Z"/></g>
<g><path style="opacity:1" fill="#616161" d="M 1222.5,1466.5 C 1223.56,1467.6 1224.39,1468.93 1225,1470.5C 1228.84,1490.67 1228.18,1510.67 1223,1530.5C 1221.08,1535.56 1218.58,1540.22 1215.5,1544.5C 1215.34,1543.13 1215.51,1541.79 1216,1540.5C 1222.38,1527 1225.71,1512.67 1226,1497.5C 1225.92,1487.05 1224.76,1476.71 1222.5,1466.5 Z"/></g>
<g><path style="opacity:1" fill="#606060" d="M 1092.5,1551.5 C 1097.28,1553.43 1102.28,1554.93 1107.5,1556C 1123.14,1560 1138.14,1558.5 1152.5,1551.5C 1144.28,1558.07 1134.78,1560.73 1124,1559.5C 1116.75,1559.27 1109.59,1558.43 1102.5,1557C 1098.98,1555.41 1095.64,1553.57 1092.5,1551.5 Z"/></g>
<g><path style="opacity:1" fill="#626262" d="M 657.5,1551.5 C 648.139,1557.45 637.805,1560.11 626.5,1559.5C 621.833,1559.33 617.167,1559.17 612.5,1559C 608.249,1556.74 603.916,1554.9 599.5,1553.5C 608.97,1556.06 618.636,1557.73 628.5,1558.5C 634.283,1558.47 639.949,1557.64 645.5,1556C 649.239,1553.75 653.239,1552.25 657.5,1551.5 Z"/></g>
<g><path style="opacity:1" fill="#616161" d="M 1043.5,1561.5 C 1048.17,1566.83 1053.17,1571.83 1058.5,1576.5C 1051.83,1573.17 1046.83,1568.17 1043.5,1561.5 Z"/></g>
<g><path style="opacity:1" fill="#616161" d="M 543.5,1557.5 C 548.663,1562.83 553.663,1568.33 558.5,1574C 567.014,1579.89 575.348,1585.73 583.5,1591.5C 580.07,1590.29 576.736,1588.79 573.5,1587C 566.872,1582.01 560.205,1577.01 553.5,1572C 549.95,1567.29 546.617,1562.46 543.5,1557.5 Z"/></g>
<g><path style="opacity:1" fill="#575757" d="M 1081.5,1590.5 C 1088.07,1592.64 1094.41,1594.97 1100.5,1597.5C 1104.04,1599.27 1108.04,1600.1 1112.5,1600C 1121.83,1600.5 1131.16,1600.67 1140.5,1600.5C 1135.26,1602.18 1129.76,1603.18 1124,1603.5C 1112.96,1602.68 1102.13,1600.85 1091.5,1598C 1088.32,1595.25 1084.98,1592.75 1081.5,1590.5 Z"/></g>
<g><path style="opacity:1" fill="#626262" d="M 1155.5,1594.5 C 1155.39,1595.12 1155.06,1595.62 1154.5,1596C 1149.67,1597.38 1145,1598.88 1140.5,1600.5C 1131.16,1600.67 1121.83,1600.5 1112.5,1600C 1108.04,1600.1 1104.04,1599.27 1100.5,1597.5C 1119.06,1599.67 1137.39,1598.67 1155.5,1594.5 Z"/></g>
<g><path style="opacity:1" fill="#5f5f5f" d="M 672.5,1589.5 C 658.539,1598.02 643.206,1601.69 626.5,1600.5C 613.654,1601.29 601.321,1599.29 589.5,1594.5C 587.825,1594.13 586.825,1593.13 586.5,1591.5C 594.531,1595.01 602.865,1597.51 611.5,1599C 623.539,1599.84 635.539,1599.5 647.5,1598C 655.649,1594.71 663.982,1591.88 672.5,1589.5 Z"/></g>
</svg>
