<?xml version="1.0" encoding="UTF-8"?>
<!DOCTYPE svg PUBLIC "-//W3C//DTD SVG 1.1//EN" "http://www.w3.org/Graphics/SVG/1.1/DTD/svg11.dtd">
<svg xmlns="http://www.w3.org/2000/svg" version="1.1" width="2000px" height="2000px" style="shape-rendering:geometricPrecision; text-rendering:geometricPrecision; image-rendering:optimizeQuality; fill-rule:evenodd; clip-rule:evenodd" xmlns:xlink="http://www.w3.org/1999/xlink">
<g><path style="opacity:0.938" fill="#515151" d="M 1385.5,472.5 C 1386.17,471.5 1386.83,470.5 1387.5,469.5C 1387.96,454.252 1389.13,438.918 1391,423.5C 1392.75,418.123 1394.75,412.79 1397,407.5C 1397.49,405.866 1397.66,404.199 1397.5,402.5C 1402.6,395.562 1407.1,388.229 1411,380.5C 1413.38,376.62 1416.55,373.62 1420.5,371.5C 1420.83,371.5 1421.17,371.5 1421.5,371.5C 1423.47,370.745 1423.8,369.579 1422.5,368C 1168.67,367.167 915,367.334 661.5,368.5C 660.833,368.5 660.167,368.5 659.5,368.5C 643.168,373.427 632.335,384.093 627,400.5C 626.502,403.482 626.335,406.482 626.5,409.5C 625.667,530.666 625.167,651.999 625,773.5C 623.324,777.329 620.824,780.329 617.5,782.5C 614.813,782.336 612.146,782.503 609.5,783C 608.748,783.671 608.414,784.504 608.5,785.5C 604.284,783.785 600.784,781.119 598,777.5C 597.884,774.068 596.717,771.068 594.5,768.5C 595.832,649.012 595.832,529.512 594.5,410C 598.396,377.17 615.396,354.17 645.5,341C 645.167,340.667 644.833,340.333 644.5,340C 938.833,339.333 1233.17,339.333 1527.5,340C 1527.17,340.333 1526.83,340.667 1526.5,341C 1576.23,358.342 1603.73,392.842 1609,444.5C 1609.67,490.167 1609.67,535.833 1609,581.5C 1606.83,589.952 1601,594.786 1591.5,596C 1533.75,596.658 1476.09,596.658 1418.5,596C 1418.82,632.631 1418.49,669.465 1417.5,706.5C 1415.04,709.791 1412.04,712.624 1408.5,715C 1401.68,716.516 1395.51,715.349 1390,711.5C 1387.91,709.654 1386.57,707.321 1386,704.5C 1385.5,627.167 1385.33,549.834 1385.5,472.5 Z"/></g>
<g><path style="opacity:1" fill="#5a5a5a" d="M 661.5,368.5 C 915,367.334 1168.67,367.167 1422.5,368C 1423.8,369.579 1423.47,370.745 1421.5,371.5C 1421.5,370.5 1421.5,369.5 1421.5,368.5C 1168.17,368.5 914.833,368.5 661.5,368.5 Z"/></g>
<g><path style="opacity:1" fill="#646464" d="M 659.5,368.5 C 660.167,368.5 660.833,368.5 661.5,368.5C 914.833,368.5 1168.17,368.5 1421.5,368.5C 1421.5,369.5 1421.5,370.5 1421.5,371.5C 1421.17,371.5 1420.83,371.5 1420.5,371.5C 1294.5,370.167 1168.17,369.5 1041.5,369.5C 914.139,369.503 786.806,369.836 659.5,370.5C 659.5,369.833 659.5,369.167 659.5,368.5 Z"/></g>
<g><path style="opacity:0.981" fill="#6e6e6e" d="M 1420.5,371.5 C 1416.55,373.62 1413.38,376.62 1411,380.5C 1407.1,388.229 1402.6,395.562 1397.5,402.5C 1393.29,410.958 1390.12,419.958 1388,429.5C 1387.5,442.829 1387.33,456.163 1387.5,469.5C 1386.83,470.5 1386.17,471.5 1385.5,472.5C 1385.63,471.761 1385.46,471.094 1385,470.5C 1164.65,473.021 944.481,475.354 724.5,477.5C 724.274,480.249 724.607,482.916 725.5,485.5C 722.921,573.788 720.755,662.122 719,750.5C 715.753,781.746 698.92,801.246 668.5,809C 644.107,811.956 624.107,804.123 608.5,785.5C 608.414,784.504 608.748,783.671 609.5,783C 612.146,782.503 614.813,782.336 617.5,782.5C 621.796,781.2 624.796,778.533 626.5,774.5C 627.222,774.082 627.722,773.416 628,772.5C 628.5,648.834 628.667,525.167 628.5,401.5C 633.203,385.464 643.536,375.131 659.5,370.5C 786.806,369.836 914.139,369.503 1041.5,369.5C 1168.17,369.5 1294.5,370.167 1420.5,371.5 Z"/></g>
<g><path style="opacity:1" fill="#6e6e6e" d="M 1533.5,376.5 C 1547.64,384.132 1559.14,394.799 1568,408.5C 1568.5,410.518 1569,412.518 1569.5,414.5C 1572.76,423.198 1574.92,432.198 1576,441.5C 1576.5,482.165 1576.67,522.832 1576.5,563.5C 1523.5,563.5 1470.5,563.5 1417.5,563.5C 1417.5,521.5 1417.5,479.5 1417.5,437.5C 1419.02,433.348 1419.85,429.015 1420,424.5C 1423.46,417.94 1426.63,411.273 1429.5,404.5C 1430.8,401.559 1432.8,399.225 1435.5,397.5C 1443.28,390.039 1451.62,383.372 1460.5,377.5C 1474.68,370.377 1489.68,367.877 1505.5,370C 1510.1,371.061 1514.77,371.727 1519.5,372C 1524.22,373.628 1528.88,375.128 1533.5,376.5 Z"/></g>
<g><path style="opacity:1" fill="#606060" d="M 1533.5,376.5 C 1528.88,375.128 1524.22,373.628 1519.5,372C 1514.77,371.727 1510.1,371.061 1505.5,370C 1489.68,367.877 1474.68,370.377 1460.5,377.5C 1451.62,383.372 1443.28,390.039 1435.5,397.5C 1446.46,381.998 1461.46,372.498 1480.5,369C 1494.26,367.946 1507.93,368.612 1521.5,371C 1525.81,372.372 1529.81,374.205 1533.5,376.5 Z"/></g>
<g><path style="opacity:1" fill="#676767" d="M 628.5,401.5 C 628.667,525.167 628.5,648.834 628,772.5C 627.722,773.416 627.222,774.082 626.5,774.5C 626.5,773.5 626.5,772.5 626.5,771.5C 627.167,648.167 627.833,524.833 628.5,401.5 Z"/></g>
<g><path style="opacity:1" fill="#606060" d="M 659.5,368.5 C 659.5,369.167 659.5,369.833 659.5,370.5C 643.536,375.131 633.203,385.464 628.5,401.5C 627.833,524.833 627.167,648.167 626.5,771.5C 626.5,650.833 626.5,530.167 626.5,409.5C 626.335,406.482 626.502,403.482 627,400.5C 632.335,384.093 643.168,373.427 659.5,368.5 Z"/></g>
<g><path style="opacity:1" fill="#585858" d="M 626.5,409.5 C 626.5,530.167 626.5,650.833 626.5,771.5C 626.5,772.5 626.5,773.5 626.5,774.5C 624.796,778.533 621.796,781.2 617.5,782.5C 620.824,780.329 623.324,777.329 625,773.5C 625.167,651.999 625.667,530.666 626.5,409.5 Z"/></g>
<g><path style="opacity:1" fill="#686868" d="M 1569.5,414.5 C 1573.56,420.686 1575.9,427.686 1576.5,435.5C 1577.81,478.317 1577.81,520.984 1576.5,563.5C 1576.67,522.832 1576.5,482.165 1576,441.5C 1574.92,432.198 1572.76,423.198 1569.5,414.5 Z"/></g>
<g><path style="opacity:1" fill="#555555" d="M 1533.5,376.5 C 1535.8,377.06 1538.13,377.56 1540.5,378C 1562.13,392.632 1575.3,412.798 1580,438.5C 1580.67,480.833 1580.67,523.167 1580,565.5C 1579.5,566 1579,566.5 1578.5,567C 1524.6,567.169 1470.76,567.669 1417,568.5C 1416,567.167 1415,565.833 1414,564.5C 1413.33,525.833 1413.33,487.167 1414,448.5C 1414.17,442.141 1414.67,435.807 1415.5,429.5C 1416.69,424.468 1418.69,419.802 1421.5,415.5C 1419.53,422.431 1417.7,429.431 1416,436.5C 1415.17,479.002 1415.34,521.335 1416.5,563.5C 1416.5,563.833 1416.5,564.167 1416.5,564.5C 1470.33,565.499 1524.33,565.832 1578.5,565.5C 1578.67,522.499 1578.5,479.499 1578,436.5C 1577.62,435.944 1577.12,435.611 1576.5,435.5C 1575.9,427.686 1573.56,420.686 1569.5,414.5C 1569,412.518 1568.5,410.518 1568,408.5C 1559.14,394.799 1547.64,384.132 1533.5,376.5 Z"/></g>
<g><path style="opacity:1" fill="#606060" d="M 1397.5,402.5 C 1397.66,404.199 1397.49,405.866 1397,407.5C 1394.75,412.79 1392.75,418.123 1391,423.5C 1389.13,438.918 1387.96,454.252 1387.5,469.5C 1387.33,456.163 1387.5,442.829 1388,429.5C 1390.12,419.958 1393.29,410.958 1397.5,402.5 Z"/></g>
<g><path style="opacity:1" fill="#696969" d="M 1417.5,437.5 C 1417.5,479.5 1417.5,521.5 1417.5,563.5C 1470.5,563.5 1523.5,563.5 1576.5,563.5C 1523.34,564.499 1470,564.832 1416.5,564.5C 1416.5,564.167 1416.5,563.833 1416.5,563.5C 1416.17,521.33 1416.5,479.33 1417.5,437.5 Z"/></g>
<g><path style="opacity:1" fill="#5f5f5f" d="M 1429.5,404.5 C 1426.63,411.273 1423.46,417.94 1420,424.5C 1419.85,429.015 1419.02,433.348 1417.5,437.5C 1416.5,479.33 1416.17,521.33 1416.5,563.5C 1415.34,521.335 1415.17,479.002 1416,436.5C 1417.7,429.431 1419.53,422.431 1421.5,415.5C 1424.14,411.855 1426.8,408.188 1429.5,404.5 Z"/></g>
<g><path style="opacity:0.8" fill="#d53446" d="M 742.5,532.5 C 737.578,518.834 742.244,510 756.5,506C 924.833,505.333 1093.17,505.333 1261.5,506C 1271.45,507.769 1276.45,513.602 1276.5,523.5C 1276.47,527.918 1275.47,531.918 1273.5,535.5C 1270.54,536.979 1267.54,538.479 1264.5,540C 1094.17,540.667 923.833,540.667 753.5,540C 749.127,538.448 745.461,535.948 742.5,532.5 Z"/></g>
<g><path style="opacity:0.004" fill="#d53446" d="M 742.5,532.5 C 741.833,533.167 741.833,533.167 742.5,532.5 Z"/></g>
<g><path style="opacity:1" fill="#616161" d="M 1576.5,435.5 C 1577.12,435.611 1577.62,435.944 1578,436.5C 1578.5,479.499 1578.67,522.499 1578.5,565.5C 1524.33,565.832 1470.33,565.499 1416.5,564.5C 1470,564.832 1523.34,564.499 1576.5,563.5C 1577.81,520.984 1577.81,478.317 1576.5,435.5 Z"/></g>
<g><path style="opacity:0.852" fill="#d53446" d="M 922.5,740.5 C 912.403,751.429 901.736,761.929 890.5,772C 879.535,779.305 868.869,786.972 858.5,795C 862.709,801.431 866.209,807.931 869,814.5C 878.27,824.532 889.77,829.532 903.5,829.5C 916.077,830.245 927.41,827.079 937.5,820C 944.891,813.172 948.391,804.672 948,794.5C 950.089,784.671 956.089,779.338 966,778.5C 967.833,778.667 969.667,778.833 971.5,779C 973.977,780.643 976.31,782.476 978.5,784.5C 985.476,797.28 994.476,808.446 1005.5,818C 1011.09,822.638 1017.43,824.971 1024.5,825C 1032.32,821.835 1038.49,816.668 1043,809.5C 1045.45,804.756 1048.29,800.256 1051.5,796C 1050.97,793.864 1051.8,792.03 1054,790.5C 1056.04,783.215 1058.54,776.215 1061.5,769.5C 1065.69,766.937 1070.36,765.271 1075.5,764.5C 1078.59,765.21 1081.59,766.21 1084.5,767.5C 1091.87,777.709 1100.2,787.209 1109.5,796C 1112.4,798.184 1115.4,800.184 1118.5,802C 1128.59,805.514 1137.09,803.014 1144,794.5C 1147.7,789.362 1151.04,784.029 1154,778.5C 1156.16,773.865 1158.33,769.199 1160.5,764.5C 1169.64,756.16 1178.3,756.66 1186.5,766C 1193.22,771.546 1200.89,775.046 1209.5,776.5C 1213.57,775.635 1217.57,774.468 1221.5,773C 1226.98,769.355 1231.65,764.855 1235.5,759.5C 1237.66,758.965 1239.66,758.132 1241.5,757C 1256.81,757.332 1262.98,765.166 1260,780.5C 1244.41,802.999 1222.91,812.166 1195.5,808C 1189.8,806.097 1184.47,803.597 1179.5,800.5C 1151.27,845.422 1117.93,849.422 1079.5,812.5C 1073.62,825.217 1065.29,836.383 1054.5,846C 1038.65,858.116 1021.15,860.949 1002,854.5C 990.216,848.383 979.882,840.383 971,830.5C 964.258,840.901 955.258,848.901 944,854.5C 926.087,862.221 907.254,864.721 887.5,862C 869.577,858.005 854.744,848.838 843,834.5C 837.408,826.987 832.575,818.987 828.5,810.5C 805.542,820.968 781.876,829.801 757.5,837C 748.8,838.291 742.3,835.124 738,827.5C 737.667,827.833 737.333,828.167 737,828.5C 736.333,823.167 736.333,817.833 737,812.5C 737.333,812.833 737.667,813.167 738,813.5C 740.969,808.215 745.469,804.715 751.5,803C 772.827,797.328 793.493,789.994 813.5,781C 814.99,780.255 815.99,779.088 816.5,777.5C 810.436,760.038 808.269,741.704 810,722.5C 811.174,717.25 811.841,711.916 812,706.5C 812.333,706.833 812.667,707.167 813,707.5C 814.594,697.977 817.76,689.144 822.5,681C 821.391,679.187 822.058,678.354 824.5,678.5C 824.343,677.127 824.51,675.793 825,674.5C 837.488,653.349 854.655,636.849 876.5,625C 896.713,615.12 915.713,617.454 933.5,632C 956.354,653.643 959.687,677.977 943.5,705C 943.833,705.333 944.167,705.667 944.5,706C 938.51,714.823 933.177,723.99 928.5,733.5C 927.5,733.5 926.5,733.5 925.5,733.5C 924.989,736.022 923.989,738.355 922.5,740.5 Z M 907.5,702.5 C 906.155,704.697 904.989,707.03 904,709.5C 888.301,730.503 868.968,748.503 846,763.5C 842.667,744.833 842.667,726.167 846,707.5C 853.711,682.919 869.211,665.085 892.5,654C 908.254,652.189 917.254,659.022 919.5,674.5C 919.094,678.272 918.261,681.939 917,685.5C 914.888,688.943 913.222,692.61 912,696.5C 910.432,698.575 908.932,700.575 907.5,702.5 Z"/></g>
<g><path style="opacity:0.436" fill="#5c5c5c" d="M 598.5,686.5 C 599.663,710.33 599.83,734.33 599,758.5C 597.956,757.377 597.29,756.044 597,754.5C 596.023,731.777 596.523,709.11 598.5,686.5 Z"/></g>
<g><path style="opacity:0.004" fill="#d53446" d="M 922.5,740.5 C 923.833,741.167 923.833,741.167 922.5,740.5 Z"/></g>
<g><path style="opacity:0.77" fill="#505150" d="M 1393.5,753.5 C 1412.36,750.891 1422.2,758.891 1423,777.5C 1417.78,791.377 1407.95,796.543 1393.5,793C 1376.23,779.995 1376.23,766.828 1393.5,753.5 Z"/></g>
<g><path style="opacity:0.875" fill="#515151" d="M 1497.5,915.5 C 1499.46,920.079 1501.96,924.413 1505,928.5C 1505.49,929.793 1505.66,931.127 1505.5,932.5C 1506.5,932.5 1507.5,932.5 1508.5,932.5C 1508.34,933.873 1508.51,935.207 1509,936.5C 1513.11,944.455 1517.77,952.122 1523,959.5C 1523.49,960.793 1523.66,962.127 1523.5,963.5C 1524.5,963.5 1525.5,963.5 1526.5,963.5C 1526.58,966.407 1527.41,969.073 1529,971.5C 1549.52,1005.05 1568.52,1037.72 1586,1069.5C 1586.67,1070.83 1587.33,1070.83 1588,1069.5C 1590.45,1075.59 1592.95,1081.59 1595.5,1087.5C 1596.5,1087.5 1597.5,1087.5 1598.5,1087.5C 1598.58,1090.41 1599.41,1093.07 1601,1095.5C 1606.75,1105.06 1612.92,1114.89 1619.5,1125C 1619.17,1125.33 1618.83,1125.67 1618.5,1126C 1620.91,1130.09 1623.75,1133.92 1627,1137.5C 1627.55,1141.2 1629.22,1144.2 1632,1146.5C 1638.81,1159.96 1646.31,1172.96 1654.5,1185.5C 1665.33,1211.35 1660.66,1233.52 1640.5,1252C 1607.71,1270.72 1575.04,1289.39 1542.5,1308C 1527.08,1313.74 1512.41,1312.41 1498.5,1304C 1497.5,1303.33 1496.5,1303.33 1495.5,1304C 1469.4,1331.76 1439.06,1353.76 1404.5,1370C 1392.92,1370.06 1386.59,1364.4 1385.5,1353C 1385.36,1347.62 1387.36,1343.29 1391.5,1340C 1423.82,1325 1451.48,1304 1474.5,1277C 1459.24,1251.3 1444.41,1225.47 1430,1199.5C 1428.26,1198.28 1427.26,1196.62 1427,1194.5C 1426.33,1193.17 1425.67,1193.17 1425,1194.5C 1424.38,1193.55 1424.55,1192.72 1425.5,1192C 1417.68,1179.82 1410.51,1167.32 1404,1154.5C 1403.33,1153.17 1402.67,1153.17 1402,1154.5C 1400.87,1151.55 1400.04,1148.55 1399.5,1145.5C 1398.5,1145.5 1397.5,1145.5 1396.5,1145.5C 1396.42,1142.59 1395.59,1139.93 1394,1137.5C 1385.03,1121.87 1375.69,1106.53 1366,1091.5C 1364.06,1087.15 1362.22,1082.82 1360.5,1078.5C 1359.5,1078.5 1358.5,1078.5 1357.5,1078.5C 1357.66,1077.13 1357.49,1075.79 1357,1074.5C 1351.32,1065.59 1345.82,1056.59 1340.5,1047.5C 1337.67,1041.81 1335.01,1036.15 1332.5,1030.5C 1331.5,1030.5 1330.5,1030.5 1329.5,1030.5C 1329.79,1028.71 1329.45,1027.05 1328.5,1025.5C 1325.07,1019.92 1321.9,1014.25 1319,1008.5C 1318.33,1007.17 1317.67,1007.17 1317,1008.5C 1316.23,1005.42 1315.23,1002.42 1314,999.5C 1313.33,998.167 1312.67,998.167 1312,999.5C 1309.66,993.669 1306.99,988.002 1304,982.5C 1302.25,981.33 1301.25,979.663 1301,977.5C 1300.28,976.941 1299.44,976.608 1298.5,976.5C 1268.61,984.506 1238.61,992.006 1208.5,999C 1197.17,999.667 1185.83,999.667 1174.5,999C 1164.37,997.5 1154.53,995 1145,991.5C 1107.39,976.874 1069.22,963.374 1030.5,951C 1004.61,947.444 980.608,952.444 958.5,966C 910.368,996.16 862.035,1025.83 813.5,1055C 810.26,1057.9 807.426,1061.07 805,1064.5C 790.826,1085.51 776.16,1106.18 761,1126.5C 759.589,1128.65 758.755,1130.98 758.5,1133.5C 757.5,1133.5 756.5,1133.5 755.5,1133.5C 754.957,1136.04 753.957,1138.37 752.5,1140.5C 741.956,1153.23 732.623,1166.89 724.5,1181.5C 723.275,1182.15 722.608,1183.32 722.5,1185C 723.31,1188.28 724.644,1191.28 726.5,1194C 745.319,1203.52 765.319,1207.86 786.5,1207C 816.468,1202.7 841.301,1189.2 861,1166.5C 877.943,1144.39 895.443,1122.89 913.5,1102C 915.332,1101.25 916.999,1100.25 918.5,1099C 944.538,1092.28 970.204,1084.62 995.5,1076C 1002.18,1074.48 1008.18,1075.81 1013.5,1080C 1123.14,1174.3 1232.81,1268.64 1342.5,1363C 1348.68,1368.34 1354.68,1373.84 1360.5,1379.5C 1362.03,1381.29 1363.03,1383.29 1363.5,1385.5C 1364.5,1385.5 1365.5,1385.5 1366.5,1385.5C 1370.29,1394.29 1373.62,1403.29 1376.5,1412.5C 1377.61,1420.8 1377.77,1429.14 1377,1437.5C 1373.79,1447.04 1370.29,1456.37 1366.5,1465.5C 1365.5,1465.5 1364.5,1465.5 1363.5,1465.5C 1363.03,1467.71 1362.03,1469.71 1360.5,1471.5C 1340.74,1493.52 1316.41,1500.86 1287.5,1493.5C 1285.04,1527.74 1266.7,1550.24 1232.5,1561C 1214.74,1563.88 1198.07,1561.21 1182.5,1553C 1180.24,1551.29 1178.07,1549.45 1176,1547.5C 1173.47,1568.61 1162.64,1585.94 1143.5,1599.5C 1133.99,1604.54 1123.99,1608.04 1113.5,1610C 1108.5,1610.67 1103.5,1610.67 1098.5,1610C 1092.24,1608.25 1085.91,1606.59 1079.5,1605C 1076.32,1603.44 1073.32,1601.61 1070.5,1599.5C 1069.76,1600.91 1068.92,1602.24 1068,1603.5C 1067.87,1608.75 1066.87,1613.75 1065,1618.5C 1061.4,1624.47 1057.9,1630.47 1054.5,1636.5C 1048.65,1642.51 1042.32,1648.01 1035.5,1653C 1031.57,1654.96 1027.57,1656.96 1023.5,1659C 1008.49,1659.83 993.489,1659.67 978.5,1658.5C 974.763,1656.63 971.096,1654.8 967.5,1653C 944.95,1634.96 921.95,1617.46 898.5,1600.5C 877.038,1632.44 848.038,1642.28 811.5,1630C 794.749,1622.2 783.083,1609.86 776.5,1593C 737.803,1610.88 705.803,1602.71 680.5,1568.5C 679.158,1564.64 677.491,1560.97 675.5,1557.5C 674.893,1552.29 673.559,1547.29 671.5,1542.5C 642.382,1548.23 618.716,1539.57 600.5,1516.5C 598.86,1513.11 596.86,1509.94 594.5,1507C 594.833,1506.67 595.167,1506.33 595.5,1506C 593.515,1502.2 591.682,1498.37 590,1494.5C 588.664,1484.83 588.331,1475.17 589,1465.5C 569.319,1466.39 552.486,1459.72 538.5,1445.5C 536.365,1442.19 533.865,1439.19 531,1436.5C 522.765,1421.72 519.265,1405.72 520.5,1388.5C 521.117,1388.39 521.617,1388.06 522,1387.5C 522.333,1384.83 522.667,1382.17 523,1379.5C 529.678,1365.06 538.178,1351.73 548.5,1339.5C 529.43,1326.6 512.763,1311.1 498.5,1293C 491.96,1296.07 484.96,1298.41 477.5,1300C 464.965,1301.14 453.298,1298.64 442.5,1292.5C 412.806,1272.32 383.139,1252.16 353.5,1232C 348.133,1226.48 343.8,1220.32 340.5,1213.5C 339.167,1200.17 339.167,1186.83 340.5,1173.5C 342.496,1170.5 344.496,1167.5 346.5,1164.5C 348.048,1164.18 348.715,1163.18 348.5,1161.5C 349.675,1161.72 350.675,1161.39 351.5,1160.5C 355.505,1154.67 359.672,1149 364,1143.5C 365.81,1139.58 367.31,1135.58 368.5,1131.5C 369.552,1131.65 370.552,1131.48 371.5,1131C 373.702,1126.99 376.369,1123.49 379.5,1120.5C 390.887,1105.37 401.554,1089.71 411.5,1073.5C 411.043,1072.7 410.376,1072.37 409.5,1072.5C 430.347,1039.92 451.847,1008.26 474,977.5C 475.118,975.235 475.951,972.901 476.5,970.5C 477.5,970.5 478.5,970.5 479.5,970.5C 482.57,965.548 485.07,960.214 487,954.5C 487.414,954.957 487.914,955.291 488.5,955.5C 495.689,944.55 503.022,933.716 510.5,923C 510.167,922.667 509.833,922.333 509.5,922C 510.448,921.517 511.448,921.351 512.5,921.5C 513.043,918.962 514.043,916.628 515.5,914.5C 525.699,899.946 536.033,885.446 546.5,871C 546.167,870.667 545.833,870.333 545.5,870C 551.5,862.333 557.5,854.667 563.5,847C 582.88,831.229 603.547,829.396 625.5,841.5C 654.285,861.642 683.285,881.309 712.5,900.5C 729.679,916.085 734.679,935.085 727.5,957.5C 727.833,957.833 728.167,958.167 728.5,958.5C 753.129,969.525 779.129,976.025 806.5,978C 816.104,980.79 825.771,983.456 835.5,986C 840.596,989.071 846.096,991.238 852,992.5C 884.075,973.432 915.908,953.932 947.5,934C 970.487,921.386 995.154,915.386 1021.5,916C 1030.92,917.607 1040.25,919.274 1049.5,921C 1085.6,934.771 1121.93,947.771 1158.5,960C 1159.17,960.667 1159.83,961.333 1160.5,962C 1171.01,963.834 1181.51,965.667 1192,967.5C 1202.13,965.503 1212.3,963.67 1222.5,962C 1235.21,959.185 1247.71,955.685 1260,951.5C 1260.41,951.957 1260.91,952.291 1261.5,952.5C 1269.25,949.352 1277.25,947.352 1285.5,946.5C 1282.97,925.897 1289.64,909.063 1305.5,896C 1336.48,878.146 1367.48,860.146 1398.5,842C 1419.24,832.549 1438.41,835.049 1456,849.5C 1459.9,853.648 1463.57,857.981 1467,862.5C 1476.71,880.644 1486.88,898.311 1497.5,915.5 Z M 709.5,986.5 C 736.824,999.969 765.824,1007.8 796.5,1010C 803.175,1011.83 809.842,1013.5 816.5,1015C 804.252,1021.08 793.252,1028.91 783.5,1038.5C 775.164,1050.67 766.997,1062.34 759,1073.5C 751.707,1083.47 744.373,1093.47 737,1103.5C 735.441,1105.22 734.608,1107.22 734.5,1109.5C 733.5,1109.5 732.5,1109.5 731.5,1109.5C 731.246,1112.01 730.413,1114.35 729,1116.5C 716.999,1133.17 704.999,1149.83 693,1166.5C 685.666,1189.27 691.166,1208.11 709.5,1223C 741.693,1239.24 775.693,1243.57 811.5,1236C 836.083,1228.7 857.75,1216.2 876.5,1198.5C 895.422,1176.4 913.755,1153.9 931.5,1131C 935.833,1129.33 940.167,1127.67 944.5,1126C 958.164,1122.23 971.83,1118.56 985.5,1115C 986.167,1114.33 986.833,1113.67 987.5,1113C 991.37,1112.6 995.037,1111.93 998.5,1111C 1110.12,1207.25 1221.95,1303.42 1334,1399.5C 1345.89,1415.41 1346.72,1431.75 1336.5,1448.5C 1325.81,1461.23 1312.15,1465.73 1295.5,1462C 1291.9,1460.18 1288.23,1458.52 1284.5,1457C 1225.68,1408.76 1166.68,1360.76 1107.5,1313C 1099.85,1309.28 1092.51,1309.78 1085.5,1314.5C 1080.35,1322.06 1080.19,1329.73 1085,1337.5C 1136.22,1378.73 1187.38,1419.89 1238.5,1461C 1252.59,1473.25 1257.09,1488.41 1252,1506.5C 1240.83,1525.9 1224.33,1532.4 1202.5,1526C 1192.17,1518.34 1181.84,1510.67 1171.5,1503C 1120.46,1460.95 1069.12,1419.29 1017.5,1378C 1000.52,1376.14 993.19,1383.64 995.5,1400.5C 999.658,1405.49 1004.32,1409.99 1009.5,1414C 1051.05,1447.37 1092.55,1480.87 1134,1514.5C 1136.48,1518.52 1138.82,1522.52 1141,1526.5C 1145.67,1543.76 1141.5,1558.26 1128.5,1570C 1124.98,1571.92 1121.32,1573.59 1117.5,1575C 1103.72,1577.9 1091.39,1575.23 1080.5,1567C 1049.84,1541.35 1018.84,1516.02 987.5,1491C 976.864,1487.51 969.031,1490.68 964,1500.5C 963.833,1502.33 963.667,1504.17 963.5,1506C 963.511,1510.16 964.511,1513.99 966.5,1517.5C 986.447,1532.49 1006.11,1547.99 1025.5,1564C 1035.32,1575.36 1038.32,1588.52 1034.5,1603.5C 1025.84,1625.24 1010.18,1632.74 987.5,1626C 964.333,1608.01 941,1590.17 917.5,1572.5C 927.35,1559.37 936.183,1546.04 944,1532.5C 946.474,1518.96 947.141,1505.3 946,1491.5C 945.667,1491.83 945.333,1492.17 945,1492.5C 941.317,1478.57 934.15,1466.74 923.5,1457C 912.059,1448.93 899.726,1443.76 886.5,1441.5C 892.594,1431.07 895.927,1419.73 896.5,1407.5C 893.968,1373.27 876.301,1351.1 843.5,1341C 827.406,1338.22 812.073,1340.22 797.5,1347C 795.91,1348.05 794.41,1349.21 793,1350.5C 785.577,1330.08 771.744,1315.91 751.5,1308C 719.6,1299.06 693.6,1307.89 673.5,1334.5C 657.685,1303.92 631.685,1291.75 595.5,1298C 585.355,1301.49 576.189,1306.66 568,1313.5C 550.462,1300.63 534.795,1285.63 521,1268.5C 520.333,1267.17 520.333,1265.83 521,1264.5C 545.158,1230.18 568.991,1195.52 592.5,1160.5C 594.009,1158.34 595.009,1156.01 595.5,1153.5C 596.5,1153.5 597.5,1153.5 598.5,1153.5C 598.343,1152.13 598.51,1150.79 599,1149.5C 608.298,1137.04 616.631,1124.71 624,1112.5C 636.883,1094.78 649.217,1076.78 661,1058.5C 668.26,1048.86 674.76,1038.86 680.5,1028.5C 681.5,1028.5 682.5,1028.5 683.5,1028.5C 683.343,1027.13 683.51,1025.79 684,1024.5C 693.443,1011.92 701.943,999.251 709.5,986.5 Z M 604.5,1329.5 C 635.186,1328.4 649.019,1343.07 646,1373.5C 634.566,1390.84 622.733,1408.01 610.5,1425C 590.213,1438.67 572.713,1435.83 558,1416.5C 557.887,1414.03 556.887,1412.03 555,1410.5C 554.333,1403.17 554.333,1395.83 555,1388.5C 556.748,1386.86 557.915,1384.86 558.5,1382.5C 559.086,1382.71 559.586,1383.04 560,1383.5C 560.353,1382.33 560.187,1381.16 559.5,1380C 569.112,1366.6 578.612,1353.1 588,1339.5C 593.116,1335.21 598.616,1331.87 604.5,1329.5 Z M 667.5,1401.5 C 669.543,1397.58 672.043,1393.91 675,1390.5C 675.483,1389.55 675.649,1388.55 675.5,1387.5C 676.5,1387.5 677.5,1387.5 678.5,1387.5C 678.884,1385.07 679.551,1382.74 680.5,1380.5C 681.5,1380.5 682.5,1380.5 683.5,1380.5C 683.755,1377.98 684.589,1375.65 686,1373.5C 691.168,1367.67 695.668,1361.33 699.5,1354.5C 712.911,1337.99 729.244,1334.16 748.5,1343C 761.605,1353.34 765.938,1366.84 761.5,1383.5C 754.636,1395.11 747.302,1406.77 739.5,1418.5C 738.5,1418.5 737.5,1418.5 736.5,1418.5C 736.246,1421.01 735.413,1423.35 734,1425.5C 716.031,1450.81 698.031,1476.14 680,1501.5C 664.817,1513.43 649.317,1514.1 633.5,1503.5C 619.912,1489.68 617.912,1474.35 627.5,1457.5C 640.874,1438.71 654.207,1420.04 667.5,1401.5 Z M 845.5,1442.5 C 837.433,1455.02 828.933,1467.35 820,1479.5C 819.517,1480.45 819.351,1481.45 819.5,1482.5C 818.5,1482.5 817.5,1482.5 816.5,1482.5C 815.951,1484.9 815.118,1487.23 814,1489.5C 797.371,1512.28 781.038,1535.28 765,1558.5C 754.44,1567.6 742.273,1570.44 728.5,1567C 718.414,1563.25 711.247,1556.41 707,1546.5C 706.95,1542.14 706.117,1537.97 704.5,1534C 706.024,1529.59 707.191,1525.09 708,1520.5C 737.539,1476.72 767.539,1433.39 798,1390.5C 809.546,1374.78 824.713,1369.94 843.5,1376C 858.636,1384.85 864.802,1398.01 862,1415.5C 860.871,1419.92 859.038,1423.92 856.5,1427.5C 852.652,1432.42 848.985,1437.42 845.5,1442.5 Z M 907.5,1528.5 C 906.801,1530.99 905.801,1533.33 904.5,1535.5C 903.5,1535.5 902.5,1535.5 901.5,1535.5C 901.519,1538.66 900.352,1541.33 898,1543.5C 897.667,1543.17 897.333,1542.83 897,1542.5C 896.342,1545.28 895.509,1547.95 894.5,1550.5C 893.5,1550.5 892.5,1550.5 891.5,1550.5C 891.649,1551.55 891.483,1552.55 891,1553.5C 882.378,1565.27 874.045,1577.27 866,1589.5C 861.302,1594.54 855.802,1598.37 849.5,1601C 833.345,1604.82 820.178,1600.32 810,1587.5C 809.405,1586.1 809.572,1584.77 810.5,1583.5C 810.062,1582.49 809.396,1582.49 808.5,1583.5C 807.885,1580.56 806.718,1577.9 805,1575.5C 804.833,1573 804.667,1570.5 804.5,1568C 804.572,1563.16 805.739,1558.66 808,1554.5C 824.436,1531.27 840.602,1507.94 856.5,1484.5C 871.79,1472.88 887.457,1472.55 903.5,1483.5C 914.6,1495.07 917.267,1508.4 911.5,1523.5C 910.311,1525.36 908.978,1527.03 907.5,1528.5 Z"/></g>
<g><path style="opacity:1" fill="#616161" d="M 604.5,866.5 C 596.84,865.368 589.84,866.868 583.5,871C 580.667,875.5 577.833,880 575,884.5C 573.951,886.384 572.451,887.718 570.5,888.5C 573.639,881.359 577.972,875.026 583.5,869.5C 588.849,864.553 595.182,862.72 602.5,864C 603.381,864.708 604.047,865.542 604.5,866.5 Z"/></g>
<g><path style="opacity:1" fill="#6e6e6e" d="M 604.5,866.5 C 611.043,868.769 617.043,871.769 622.5,875.5C 622.351,876.552 622.517,877.552 623,878.5C 625.675,880.158 628.175,881.991 630.5,884C 637.697,885.424 643.363,889.091 647.5,895C 652.167,898.333 656.833,901.667 661.5,905C 667.647,907.907 673.647,911.074 679.5,914.5C 684.158,917.831 688.825,921.164 693.5,924.5C 694.728,927.889 696.561,930.889 699,933.5C 699.667,937.833 699.667,942.167 699,946.5C 691.817,955.536 685.65,965.203 680.5,975.5C 656.294,1013.37 631.294,1050.7 605.5,1087.5C 603.983,1087.51 602.816,1088.18 602,1089.5C 599.81,1095.19 596.976,1100.52 593.5,1105.5C 586.693,1113.14 580.86,1121.48 576,1130.5C 573.739,1131.68 571.905,1133.35 570.5,1135.5C 559.564,1151.72 548.897,1168.05 538.5,1184.5C 537.876,1186.75 536.543,1188.42 534.5,1189.5C 527.685,1198.16 521.851,1207.5 517,1217.5C 511.837,1221.83 508.171,1227.17 506,1233.5C 501.881,1238.1 498.548,1243.1 496,1248.5C 490.684,1253.28 486.184,1258.78 482.5,1265C 468.395,1272.29 456.729,1269.62 447.5,1257C 444.401,1254.87 441.068,1253.37 437.5,1252.5C 436.167,1251.17 434.833,1249.83 433.5,1248.5C 426.007,1242.58 418.007,1237.42 409.5,1233C 406.793,1230.66 404.126,1228.32 401.5,1226C 400.207,1225.51 398.873,1225.34 397.5,1225.5C 394.681,1223.59 391.681,1221.92 388.5,1220.5C 388.703,1218.61 388.037,1217.11 386.5,1216C 379.995,1214.66 374.995,1211.16 371.5,1205.5C 370.366,1202.06 369.366,1198.56 368.5,1195C 369.322,1191.19 369.988,1187.36 370.5,1183.5C 374.602,1177.41 378.435,1171.08 382,1164.5C 384.144,1163.35 385.977,1161.85 387.5,1160C 392.869,1150.76 398.369,1141.6 404,1132.5C 407.414,1131.26 409.581,1128.92 410.5,1125.5C 422.127,1109.06 433.461,1092.39 444.5,1075.5C 444.961,1072.7 446.295,1070.36 448.5,1068.5C 450.634,1066.31 452.801,1063.98 455,1061.5C 456.672,1057.48 458.839,1053.81 461.5,1050.5C 461.491,1048.69 461.991,1047.02 463,1045.5C 467.784,1040.04 471.784,1034.04 475,1027.5C 476.468,1026.01 477.968,1024.68 479.5,1023.5C 482.879,1019.78 486.046,1015.78 489,1011.5C 499.086,996.597 508.92,981.597 518.5,966.5C 518.343,965.127 518.51,963.793 519,962.5C 526.431,952.265 533.931,942.265 541.5,932.5C 547.824,923.284 554.157,913.951 560.5,904.5C 561.044,902.42 561.878,900.42 563,898.5C 565.774,895.242 568.274,891.909 570.5,888.5C 572.451,887.718 573.951,886.384 575,884.5C 577.833,880 580.667,875.5 583.5,871C 589.84,866.868 596.84,865.368 604.5,866.5 Z"/></g>
<g><path style="opacity:1" fill="#626262" d="M 1433.5,871.5 C 1426.62,868.361 1419.62,868.028 1412.5,870.5C 1408.98,873.451 1404.98,875.451 1400.5,876.5C 1404.48,873.216 1408.81,870.383 1413.5,868C 1418.83,867.333 1424.17,867.333 1429.5,868C 1431.54,868.498 1432.88,869.665 1433.5,871.5 Z"/></g>
<g><path style="opacity:1" fill="#6e6e6e" d="M 1433.5,871.5 C 1435.56,873.936 1437.39,876.603 1439,879.5C 1444.26,883.68 1447.76,889.013 1449.5,895.5C 1449.35,896.552 1449.52,897.552 1450,898.5C 1459.93,914.813 1469.76,931.147 1479.5,947.5C 1483.71,951.257 1486.38,955.924 1487.5,961.5C 1492.95,972.791 1499.45,983.457 1507,993.5C 1509.8,1000.44 1513.13,1007.1 1517,1013.5C 1517.91,1015.44 1519.41,1016.44 1521.5,1016.5C 1521.26,1019.79 1522.09,1022.79 1524,1025.5C 1531.29,1037.16 1538.29,1049.16 1545,1061.5C 1546.7,1064.02 1548.53,1066.35 1550.5,1068.5C 1552.48,1070.67 1554.31,1073 1556,1075.5C 1556.48,1076.45 1556.65,1077.45 1556.5,1078.5C 1557.18,1081.71 1558.35,1084.71 1560,1087.5C 1564.1,1093.53 1567.77,1099.87 1571,1106.5C 1572.55,1110.22 1575.05,1113.22 1578.5,1115.5C 1578.5,1116.17 1578.5,1116.83 1578.5,1117.5C 1582.46,1124.62 1586.62,1131.62 1591,1138.5C 1591.85,1142.22 1593.68,1145.22 1596.5,1147.5C 1598.24,1149.86 1600.08,1152.2 1602,1154.5C 1602.16,1158.13 1603.16,1161.47 1605,1164.5C 1606.04,1165.71 1607.21,1166.71 1608.5,1167.5C 1608.37,1169.65 1608.87,1171.65 1610,1173.5C 1613.4,1179.68 1617.23,1185.35 1621.5,1190.5C 1621.9,1194.74 1624.06,1197.74 1628,1199.5C 1630.39,1205.28 1631.06,1211.28 1630,1217.5C 1628.73,1220.94 1626.56,1223.6 1623.5,1225.5C 1620.41,1226.74 1617.41,1228.24 1614.5,1230C 1610.45,1233.71 1606.12,1237.05 1601.5,1240C 1595.21,1242.81 1589.21,1246.15 1583.5,1250C 1580.5,1251 1577.5,1252 1574.5,1253C 1570.75,1257.05 1566.41,1260.38 1561.5,1263C 1551.08,1268.14 1540.75,1273.47 1530.5,1279C 1513.81,1279.67 1503.31,1271.83 1499,1255.5C 1496.26,1251.09 1493.42,1246.76 1490.5,1242.5C 1487.42,1238.14 1484.26,1233.81 1481,1229.5C 1479.45,1221.79 1475.95,1215.12 1470.5,1209.5C 1467.93,1206.35 1466.43,1202.68 1466,1198.5C 1458.02,1187.22 1450.52,1175.55 1443.5,1163.5C 1440.24,1154.23 1435.58,1145.73 1429.5,1138C 1428.3,1133.76 1426.46,1129.93 1424,1126.5C 1423.33,1125.75 1422.5,1125.41 1421.5,1125.5C 1418.75,1120.33 1416.25,1115 1414,1109.5C 1412.67,1106.83 1410.67,1104.83 1408,1103.5C 1407.48,1100.72 1406.31,1098.39 1404.5,1096.5C 1402.98,1093.66 1401.98,1090.66 1401.5,1087.5C 1400.5,1087.5 1399.5,1087.5 1398.5,1087.5C 1396.5,1079.17 1392.67,1071.83 1387,1065.5C 1386.03,1063.61 1385.36,1061.61 1385,1059.5C 1384.33,1058.75 1383.5,1058.41 1382.5,1058.5C 1382.66,1057.13 1382.49,1055.79 1382,1054.5C 1376.46,1046 1371.46,1037.34 1367,1028.5C 1366.33,1027.75 1365.5,1027.41 1364.5,1027.5C 1362.8,1021.77 1360.3,1016.43 1357,1011.5C 1350.38,1005.49 1345.88,998.154 1343.5,989.5C 1338.59,980.073 1333.42,970.74 1328,961.5C 1327,959.833 1325.67,958.5 1324,957.5C 1322.12,951.959 1319.79,946.626 1317,941.5C 1316.27,936.314 1316.94,931.314 1319,926.5C 1324,922.601 1328.83,918.601 1333.5,914.5C 1336.11,914.723 1337.78,913.556 1338.5,911C 1351.58,904.136 1364.24,896.802 1376.5,889C 1384.65,885.093 1392.65,880.926 1400.5,876.5C 1404.98,875.451 1408.98,873.451 1412.5,870.5C 1419.62,868.028 1426.62,868.361 1433.5,871.5 Z"/></g>
<g><path style="opacity:1" fill="#585858" d="M 679.5,914.5 C 673.647,911.074 667.647,907.907 661.5,905C 656.833,901.667 652.167,898.333 647.5,895C 643.363,889.091 637.697,885.424 630.5,884C 628.175,881.991 625.675,880.158 623,878.5C 622.517,877.552 622.351,876.552 622.5,875.5C 617.043,871.769 611.043,868.769 604.5,866.5C 604.047,865.542 603.381,864.708 602.5,864C 595.182,862.72 588.849,864.553 583.5,869.5C 583.859,867.629 584.859,866.129 586.5,865C 591.236,862.452 596.236,861.452 601.5,862C 604.298,863.598 607.298,864.765 610.5,865.5C 627.644,878.241 645.311,890.241 663.5,901.5C 667.69,905.24 672.357,908.406 677.5,911C 678.823,911.816 679.489,912.983 679.5,914.5 Z"/></g>
<g><path style="opacity:0.004" fill="#505150" d="M 515.5,914.5 C 514.475,914.103 514.308,913.437 515,912.5C 515.464,913.094 515.631,913.761 515.5,914.5 Z"/></g>
<g><path style="opacity:0.004" fill="#505150" d="M 1497.5,914.5 C 1498.83,915.167 1498.83,915.167 1497.5,914.5 Z"/></g>
<g><path style="opacity:1" fill="#616161" d="M 1449.5,895.5 C 1450.79,896.29 1451.96,897.29 1453,898.5C 1455.42,904.842 1458.75,910.509 1463,915.5C 1469.28,925.724 1474.78,936.39 1479.5,947.5C 1469.76,931.147 1459.93,914.813 1450,898.5C 1449.52,897.552 1449.35,896.552 1449.5,895.5 Z"/></g>
<g><path style="opacity:1" fill="#5e5e5e" d="M 560.5,904.5 C 554.157,913.951 547.824,923.284 541.5,932.5C 543.608,926.554 546.775,921.22 551,916.5C 551.333,914.833 551.667,913.167 552,911.5C 555.066,909.249 557.9,906.915 560.5,904.5 Z"/></g>
<g><path style="opacity:1" fill="#5b5b5b" d="M 1333.5,914.5 C 1328.83,918.601 1324,922.601 1319,926.5C 1316.94,931.314 1316.27,936.314 1317,941.5C 1319.79,946.626 1322.12,951.959 1324,957.5C 1325.67,958.5 1327,959.833 1328,961.5C 1333.42,970.74 1338.59,980.073 1343.5,989.5C 1338.07,983.358 1333.74,976.358 1330.5,968.5C 1327.95,964.013 1324.78,960.013 1321,956.5C 1319.99,954.975 1319.49,953.308 1319.5,951.5C 1318.5,951.5 1317.5,951.5 1316.5,951.5C 1314.72,943.943 1314.22,936.276 1315,928.5C 1318.2,922.303 1323.03,917.803 1329.5,915C 1330.79,914.51 1332.13,914.343 1333.5,914.5 Z"/></g>
<g><path style="opacity:1" fill="#606060" d="M 693.5,924.5 C 696.366,926.546 698.533,929.213 700,932.5C 700.667,937.5 700.667,942.5 700,947.5C 693.976,957.324 687.476,966.658 680.5,975.5C 685.65,965.203 691.817,955.536 699,946.5C 699.667,942.167 699.667,937.833 699,933.5C 696.561,930.889 694.728,927.889 693.5,924.5 Z"/></g>
<g><path style="opacity:1" fill="#626262" d="M 518.5,966.5 C 508.92,981.597 499.086,996.597 489,1011.5C 486.046,1015.78 482.879,1019.78 479.5,1023.5C 481.385,1019.4 483.552,1015.4 486,1011.5C 494.558,999.405 502.891,987.072 511,974.5C 513,971.334 515.5,968.668 518.5,966.5 Z"/></g>
<g><path style="opacity:1" fill="#5c5c5c" d="M 1487.5,961.5 C 1493.81,968.75 1498.98,976.75 1503,985.5C 1504.03,987.361 1505.53,988.695 1507.5,989.5C 1511.97,998.829 1517.14,1007.83 1523,1016.5C 1523.33,1018.17 1523.67,1019.83 1524,1021.5C 1527.01,1025.51 1530.01,1029.51 1533,1033.5C 1533.33,1035.17 1533.67,1036.83 1534,1038.5C 1539.61,1048.55 1545.11,1058.55 1550.5,1068.5C 1548.53,1066.35 1546.7,1064.02 1545,1061.5C 1538.29,1049.16 1531.29,1037.16 1524,1025.5C 1522.09,1022.79 1521.26,1019.79 1521.5,1016.5C 1519.41,1016.44 1517.91,1015.44 1517,1013.5C 1513.13,1007.1 1509.8,1000.44 1507,993.5C 1499.45,983.457 1492.95,972.791 1487.5,961.5 Z"/></g>
<g><path style="opacity:1" fill="#606060" d="M 1364.5,1027.5 C 1365.5,1027.41 1366.33,1027.75 1367,1028.5C 1371.46,1037.34 1376.46,1046 1382,1054.5C 1382.49,1055.79 1382.66,1057.13 1382.5,1058.5C 1376.25,1048.34 1370.25,1038.01 1364.5,1027.5 Z"/></g>
<g><path style="opacity:1" fill="#626262" d="M 461.5,1050.5 C 458.839,1053.81 456.672,1057.48 455,1061.5C 452.801,1063.98 450.634,1066.31 448.5,1068.5C 451.09,1063.73 453.923,1059.06 457,1054.5C 458.371,1052.96 459.871,1051.63 461.5,1050.5 Z"/></g>
<g><path style="opacity:0.004" fill="#505150" d="M 407.5,1073.5 C 406.833,1072.17 406.833,1072.17 407.5,1073.5 Z"/></g>
<g><path style="opacity:1" fill="#606060" d="M 1556.5,1078.5 C 1564.06,1090.61 1571.4,1102.95 1578.5,1115.5C 1575.05,1113.22 1572.55,1110.22 1571,1106.5C 1567.77,1099.87 1564.1,1093.53 1560,1087.5C 1558.35,1084.71 1557.18,1081.71 1556.5,1078.5 Z"/></g>
<g><path style="opacity:1" fill="#5a5a5a" d="M 1382.5,1058.5 C 1383.5,1058.41 1384.33,1058.75 1385,1059.5C 1385.36,1061.61 1386.03,1063.61 1387,1065.5C 1392.67,1071.83 1396.5,1079.17 1398.5,1087.5C 1399.5,1087.5 1400.5,1087.5 1401.5,1087.5C 1401.98,1090.66 1402.98,1093.66 1404.5,1096.5C 1402.98,1095.83 1401.64,1094.83 1400.5,1093.5C 1396.72,1087.19 1393.55,1080.52 1391,1073.5C 1389.71,1070.57 1387.71,1068.24 1385,1066.5C 1384.72,1063.59 1383.89,1060.92 1382.5,1058.5 Z"/></g>
<g><path style="opacity:1" fill="#626262" d="M 444.5,1075.5 C 433.461,1092.39 422.127,1109.06 410.5,1125.5C 410.446,1122.03 411.946,1119.37 415,1117.5C 422.576,1104.92 430.576,1092.58 439,1080.5C 440.839,1078.8 442.673,1077.13 444.5,1075.5 Z"/></g>
<g><path style="opacity:0.531" fill="#5f5f5f" d="M 409.5,1072.5 C 410.376,1072.37 411.043,1072.7 411.5,1073.5C 401.554,1089.71 390.887,1105.37 379.5,1120.5C 381.078,1118.63 380.745,1117.29 378.5,1116.5C 388.626,1102.39 398.292,1088.06 407.5,1073.5C 408.167,1073.17 408.833,1072.83 409.5,1072.5 Z"/></g>
<g><path style="opacity:1" fill="#585858" d="M 605.5,1087.5 C 604.951,1089.9 604.118,1092.23 603,1094.5C 585.238,1119.04 568.238,1144.04 552,1169.5C 549.34,1172.16 547.174,1175.16 545.5,1178.5C 543.362,1180.73 541.029,1182.73 538.5,1184.5C 548.897,1168.05 559.564,1151.72 570.5,1135.5C 571.905,1133.35 573.739,1131.68 576,1130.5C 580.86,1121.48 586.693,1113.14 593.5,1105.5C 596.976,1100.52 599.81,1095.19 602,1089.5C 602.816,1088.18 603.983,1087.51 605.5,1087.5 Z"/></g>
<g><path style="opacity:0.247" fill="#6b6b6b" d="M 378.5,1116.5 C 380.745,1117.29 381.078,1118.63 379.5,1120.5C 376.369,1123.49 373.702,1126.99 371.5,1131C 370.552,1131.48 369.552,1131.65 368.5,1131.5C 367.31,1135.58 365.81,1139.58 364,1143.5C 359.672,1149 355.505,1154.67 351.5,1160.5C 350.675,1161.39 349.675,1161.72 348.5,1161.5C 348.715,1163.18 348.048,1164.18 346.5,1164.5C 348.475,1159.22 350.975,1154.22 354,1149.5C 362.176,1138.47 370.342,1127.47 378.5,1116.5 Z"/></g>
<g><path style="opacity:1" fill="#616161" d="M 1578.5,1117.5 C 1579.64,1117.91 1580.64,1118.57 1581.5,1119.5C 1586.5,1128.82 1591.5,1138.16 1596.5,1147.5C 1593.68,1145.22 1591.85,1142.22 1591,1138.5C 1586.62,1131.62 1582.46,1124.62 1578.5,1117.5 Z"/></g>
<g><path style="opacity:1" fill="#595959" d="M 1421.5,1125.5 C 1422.5,1125.41 1423.33,1125.75 1424,1126.5C 1426.46,1129.93 1428.3,1133.76 1429.5,1138C 1435.58,1145.73 1440.24,1154.23 1443.5,1163.5C 1441.55,1162.72 1440.05,1161.38 1439,1159.5C 1437,1156.13 1435,1152.8 1433,1149.5C 1431.41,1147.07 1430.58,1144.41 1430.5,1141.5C 1429.5,1141.5 1428.5,1141.5 1427.5,1141.5C 1425.04,1136.36 1423.04,1131.03 1421.5,1125.5 Z"/></g>
<g><path style="opacity:0.004" fill="#505150" d="M 752.5,1140.5 C 753.833,1141.17 753.833,1141.17 752.5,1140.5 Z"/></g>
<g><path style="opacity:1" fill="#7a686a" d="M 465.5,1153.5 C 460.167,1152.17 454.833,1152.17 449.5,1153.5C 453.817,1150.33 458.651,1149.66 464,1151.5C 465.03,1151.84 465.53,1152.5 465.5,1153.5 Z"/></g>
<g><path style="opacity:1" fill="#8a5f64" d="M 449.5,1153.5 C 447.924,1154.14 446.59,1155.14 445.5,1156.5C 445.167,1156.5 444.833,1156.5 444.5,1156.5C 444.167,1156.5 443.833,1156.5 443.5,1156.5C 444.687,1154.02 446.687,1153.02 449.5,1153.5 Z"/></g>
<g><path style="opacity:1" fill="#816467" d="M 465.5,1154.5 C 465.5,1154.17 465.5,1153.83 465.5,1153.5C 468.313,1153.02 470.313,1154.02 471.5,1156.5C 469.833,1155.83 468.167,1155.17 466.5,1154.5C 466.167,1154.5 465.833,1154.5 465.5,1154.5 Z"/></g>
<g><path style="opacity:1" fill="#a84e58" d="M 465.5,1153.5 C 465.5,1153.83 465.5,1154.17 465.5,1154.5C 458.683,1154.06 452.016,1154.73 445.5,1156.5C 446.59,1155.14 447.924,1154.14 449.5,1153.5C 454.833,1152.17 460.167,1152.17 465.5,1153.5 Z"/></g>
<g><path style="opacity:1" fill="#d53447" d="M 465.5,1154.5 C 465.833,1154.5 466.167,1154.5 466.5,1154.5C 468.662,1156.9 471.329,1158.56 474.5,1159.5C 475.833,1161.5 477.5,1163.17 479.5,1164.5C 480.179,1167.71 481.346,1170.71 483,1173.5C 483.499,1177.82 483.666,1182.15 483.5,1186.5C 483.043,1189.41 482.043,1192.07 480.5,1194.5C 480.5,1194.83 480.5,1195.17 480.5,1195.5C 478.167,1195.83 476.833,1197.17 476.5,1199.5C 475.833,1199.5 475.5,1199.83 475.5,1200.5C 473.596,1200.74 472.262,1201.74 471.5,1203.5C 467.235,1205.19 462.735,1206.19 458,1206.5C 452.388,1206.23 447.221,1204.9 442.5,1202.5C 441.415,1200.41 439.749,1199.08 437.5,1198.5C 436.833,1197.5 436.167,1196.5 435.5,1195.5C 435.392,1193.22 434.559,1191.22 433,1189.5C 432.5,1182.84 432.334,1176.17 432.5,1169.5C 432.5,1168.83 432.833,1168.5 433.5,1168.5C 437.157,1164.54 440.824,1160.54 444.5,1156.5C 444.833,1156.5 445.167,1156.5 445.5,1156.5C 452.016,1154.73 458.683,1154.06 465.5,1154.5 Z"/></g>
<g><path style="opacity:1" fill="#a5505a" d="M 466.5,1154.5 C 468.167,1155.17 469.833,1155.83 471.5,1156.5C 472.833,1157.17 473.833,1158.17 474.5,1159.5C 471.329,1158.56 468.662,1156.9 466.5,1154.5 Z"/></g>
<g><path style="opacity:1" fill="#905c62" d="M 440.5,1158.5 C 440.167,1159.5 439.5,1160.17 438.5,1160.5C 438.5,1159.17 439.167,1158.5 440.5,1158.5 Z"/></g>
<g><path style="opacity:1" fill="#9c555d" d="M 474.5,1159.5 C 477.167,1160.17 478.833,1161.83 479.5,1164.5C 477.5,1163.17 475.833,1161.5 474.5,1159.5 Z"/></g>
<g><path style="opacity:1" fill="#9b565d" d="M 438.5,1160.5 C 437.557,1163.11 435.89,1165.11 433.5,1166.5C 434.473,1163.87 436.14,1161.87 438.5,1160.5 Z"/></g>
<g><path style="opacity:1" fill="#be4250" d="M 443.5,1156.5 C 443.833,1156.5 444.167,1156.5 444.5,1156.5C 440.824,1160.54 437.157,1164.54 433.5,1168.5C 433.5,1167.83 433.5,1167.17 433.5,1166.5C 435.89,1165.11 437.557,1163.11 438.5,1160.5C 439.5,1160.17 440.167,1159.5 440.5,1158.5C 441.5,1157.83 442.5,1157.17 443.5,1156.5 Z"/></g>
<g><path style="opacity:1" fill="#7b676a" d="M 1551.5,1166.5 C 1550.83,1166.5 1550.17,1166.5 1549.5,1166.5C 1549.08,1165.78 1548.42,1165.28 1547.5,1165C 1542.83,1164.33 1538.17,1164.33 1533.5,1165C 1532.94,1165.38 1532.61,1165.88 1532.5,1166.5C 1531.29,1167.23 1529.96,1167.57 1528.5,1167.5C 1528.17,1167.5 1527.83,1167.5 1527.5,1167.5C 1528.74,1165.9 1530.4,1164.74 1532.5,1164C 1538.5,1163.33 1544.5,1163.33 1550.5,1164C 1551.25,1164.67 1551.59,1165.5 1551.5,1166.5 Z"/></g>
<g><path style="opacity:1" fill="#99565e" d="M 1549.5,1166.5 C 1543.82,1165.22 1538.15,1165.22 1532.5,1166.5C 1532.61,1165.88 1532.94,1165.38 1533.5,1165C 1538.17,1164.33 1542.83,1164.33 1547.5,1165C 1548.42,1165.28 1549.08,1165.78 1549.5,1166.5 Z"/></g>
<g><path style="opacity:1" fill="#826367" d="M 481.5,1165.5 C 483.818,1167.19 484.818,1169.52 484.5,1172.5C 483.088,1170.4 482.088,1168.06 481.5,1165.5 Z"/></g>
<g><path style="opacity:1" fill="#b54753" d="M 1549.5,1166.5 C 1550.17,1166.5 1550.83,1166.5 1551.5,1166.5C 1553.08,1167.14 1554.41,1168.14 1555.5,1169.5C 1545.59,1165.2 1535.92,1165.53 1526.5,1170.5C 1527.17,1169.5 1527.83,1168.5 1528.5,1167.5C 1529.96,1167.57 1531.29,1167.23 1532.5,1166.5C 1538.15,1165.22 1543.82,1165.22 1549.5,1166.5 Z"/></g>
<g><path style="opacity:1" fill="#d53447" d="M 1555.5,1169.5 C 1555.97,1170.91 1556.97,1171.57 1558.5,1171.5C 1559.83,1173.5 1561.5,1175.17 1563.5,1176.5C 1564.51,1178.54 1565.51,1180.54 1566.5,1182.5C 1566.5,1182.83 1566.5,1183.17 1566.5,1183.5C 1567.4,1188.77 1567.73,1194.11 1567.5,1199.5C 1565.79,1200.64 1565.12,1202.3 1565.5,1204.5C 1565.17,1205.17 1564.83,1205.83 1564.5,1206.5C 1562.47,1207.54 1561.14,1209.21 1560.5,1211.5C 1558.09,1212.7 1556.09,1214.37 1554.5,1216.5C 1553.17,1216.5 1551.83,1216.5 1550.5,1216.5C 1544.89,1217.41 1539.23,1217.74 1533.5,1217.5C 1529.93,1216.25 1526.59,1214.58 1523.5,1212.5C 1523.5,1210.5 1522.5,1209.5 1520.5,1209.5C 1520.27,1207.94 1519.6,1206.6 1518.5,1205.5C 1517.15,1201.29 1516.15,1196.96 1515.5,1192.5C 1517.48,1187.05 1519.15,1181.39 1520.5,1175.5C 1521.17,1175.17 1521.83,1174.83 1522.5,1174.5C 1524.17,1173.5 1525.5,1172.17 1526.5,1170.5C 1535.92,1165.53 1545.59,1165.2 1555.5,1169.5 Z"/></g>
<g><path style="opacity:1" fill="#826467" d="M 1551.5,1166.5 C 1554.32,1166.09 1556.32,1167.09 1557.5,1169.5C 1556.83,1169.5 1556.17,1169.5 1555.5,1169.5C 1554.41,1168.14 1553.08,1167.14 1551.5,1166.5 Z"/></g>
<g><path style="opacity:1" fill="#915b61" d="M 433.5,1166.5 C 433.5,1167.17 433.5,1167.83 433.5,1168.5C 432.833,1168.5 432.5,1168.83 432.5,1169.5C 432.167,1169.5 431.833,1169.5 431.5,1169.5C 431.427,1167.97 432.094,1166.97 433.5,1166.5 Z"/></g>
<g><path style="opacity:1" fill="#585858" d="M 1443.5,1163.5 C 1450.52,1175.55 1458.02,1187.22 1466,1198.5C 1466.43,1202.68 1467.93,1206.35 1470.5,1209.5C 1469.1,1209.03 1467.77,1208.36 1466.5,1207.5C 1465.77,1204.38 1464.27,1201.71 1462,1199.5C 1461.67,1197.83 1461.33,1196.17 1461,1194.5C 1456.09,1189.8 1452.92,1184.13 1451.5,1177.5C 1450.5,1177.5 1449.5,1177.5 1448.5,1177.5C 1446.44,1172.99 1444.77,1168.32 1443.5,1163.5 Z"/></g>
<g><path style="opacity:1" fill="#915b62" d="M 1527.5,1167.5 C 1527.83,1167.5 1528.17,1167.5 1528.5,1167.5C 1527.83,1168.5 1527.17,1169.5 1526.5,1170.5C 1525.39,1170.56 1524.39,1170.89 1523.5,1171.5C 1524.33,1169.74 1525.66,1168.4 1527.5,1167.5 Z"/></g>
<g><path style="opacity:1" fill="#ab4d57" d="M 479.5,1164.5 C 480.167,1164.83 480.833,1165.17 481.5,1165.5C 482.088,1168.06 483.088,1170.4 484.5,1172.5C 484.5,1172.83 484.5,1173.17 484.5,1173.5C 484.5,1177.5 484.5,1181.5 484.5,1185.5C 484.5,1185.83 484.5,1186.17 484.5,1186.5C 484.167,1186.5 483.833,1186.5 483.5,1186.5C 483.666,1182.15 483.499,1177.82 483,1173.5C 481.346,1170.71 480.179,1167.71 479.5,1164.5 Z"/></g>
<g><path style="opacity:1" fill="#a84e58" d="M 1555.5,1169.5 C 1556.17,1169.5 1556.83,1169.5 1557.5,1169.5C 1557.83,1170.17 1558.17,1170.83 1558.5,1171.5C 1556.97,1171.57 1555.97,1170.91 1555.5,1169.5 Z"/></g>
<g><path style="opacity:1" fill="#be414f" d="M 1526.5,1170.5 C 1525.5,1172.17 1524.17,1173.5 1522.5,1174.5C 1522.56,1173.39 1522.89,1172.39 1523.5,1171.5C 1524.39,1170.89 1525.39,1170.56 1526.5,1170.5 Z"/></g>
<g><path style="opacity:1" fill="#9c555d" d="M 1558.5,1171.5 C 1561.17,1172.17 1562.83,1173.83 1563.5,1176.5C 1561.5,1175.17 1559.83,1173.5 1558.5,1171.5 Z"/></g>
<g><path style="opacity:1" fill="#626262" d="M 1608.5,1167.5 C 1613.61,1174.72 1617.94,1182.38 1621.5,1190.5C 1617.23,1185.35 1613.4,1179.68 1610,1173.5C 1608.87,1171.65 1608.37,1169.65 1608.5,1167.5 Z"/></g>
<g><path style="opacity:1" fill="#99575e" d="M 1523.5,1171.5 C 1522.89,1172.39 1522.56,1173.39 1522.5,1174.5C 1521.83,1174.83 1521.17,1175.17 1520.5,1175.5C 1519.53,1177.14 1518.19,1178.47 1516.5,1179.5C 1517.8,1175.87 1520.14,1173.2 1523.5,1171.5 Z"/></g>
<g><path style="opacity:1" fill="#a1535b" d="M 1563.5,1176.5 C 1565.73,1177.4 1566.73,1179.07 1566.5,1181.5C 1566.5,1181.83 1566.5,1182.17 1566.5,1182.5C 1565.51,1180.54 1564.51,1178.54 1563.5,1176.5 Z"/></g>
<g><path style="opacity:1" fill="#c1404e" d="M 431.5,1169.5 C 431.833,1169.5 432.167,1169.5 432.5,1169.5C 432.334,1176.17 432.5,1182.84 433,1189.5C 434.559,1191.22 435.392,1193.22 435.5,1195.5C 432.4,1192.85 430.733,1189.52 430.5,1185.5C 430.283,1180.77 430.617,1176.1 431.5,1171.5C 431.5,1170.83 431.5,1170.17 431.5,1169.5 Z"/></g>
<g><path style="opacity:1" fill="#8e5d62" d="M 431.5,1171.5 C 430.617,1176.1 430.283,1180.77 430.5,1185.5C 430.5,1186.17 430.5,1186.83 430.5,1187.5C 429.883,1187.39 429.383,1187.06 429,1186.5C 428.333,1182.17 428.333,1177.83 429,1173.5C 429.708,1172.62 430.542,1171.95 431.5,1171.5 Z"/></g>
<g><path style="opacity:1" fill="#886065" d="M 484.5,1173.5 C 485.997,1175.29 486.664,1177.46 486.5,1180C 486.333,1181.5 486.167,1183 486,1184.5C 485.617,1185.06 485.117,1185.39 484.5,1185.5C 484.5,1181.5 484.5,1177.5 484.5,1173.5 Z"/></g>
<g><path style="opacity:0.004" fill="#505150" d="M 724.5,1181.5 C 725.525,1181.9 725.692,1182.56 725,1183.5C 724.536,1182.91 724.369,1182.24 724.5,1181.5 Z"/></g>
<g><path style="opacity:1" fill="#8b5f64" d="M 1516.5,1180.5 C 1515.25,1183.01 1514.58,1185.67 1514.5,1188.5C 1514.17,1188.5 1513.83,1188.5 1513.5,1188.5C 1512.9,1185.05 1513.9,1182.39 1516.5,1180.5 Z"/></g>
<g><path style="opacity:1" fill="#8a5f64" d="M 1566.5,1181.5 C 1567.46,1181.95 1568.29,1182.62 1569,1183.5C 1569.67,1189.5 1569.67,1195.5 1569,1201.5C 1568.58,1202.76 1567.75,1203.42 1566.5,1203.5C 1566.83,1202.17 1567.17,1200.83 1567.5,1199.5C 1568.65,1194.68 1568.82,1189.68 1568,1184.5C 1567.62,1183.94 1567.12,1183.61 1566.5,1183.5C 1566.5,1183.17 1566.5,1182.83 1566.5,1182.5C 1566.5,1182.17 1566.5,1181.83 1566.5,1181.5 Z"/></g>
<g><path style="opacity:1" fill="#616161" d="M 370.5,1183.5 C 369.988,1187.36 369.322,1191.19 368.5,1195C 369.366,1198.56 370.366,1202.06 371.5,1205.5C 369.978,1204.81 368.978,1203.64 368.5,1202C 367.408,1196.87 367.241,1191.71 368,1186.5C 368.377,1185.06 369.21,1184.06 370.5,1183.5 Z"/></g>
<g><path style="opacity:1" fill="#b24854" d="M 1566.5,1183.5 C 1567.12,1183.61 1567.62,1183.94 1568,1184.5C 1568.82,1189.68 1568.65,1194.68 1567.5,1199.5C 1567.73,1194.11 1567.4,1188.77 1566.5,1183.5 Z"/></g>
<g><path style="opacity:1" fill="#935b61" d="M 430.5,1185.5 C 430.733,1189.52 432.4,1192.85 435.5,1195.5C 436.167,1196.5 436.833,1197.5 437.5,1198.5C 437.5,1198.83 437.5,1199.17 437.5,1199.5C 434.73,1197.77 432.564,1195.44 431,1192.5C 430.506,1190.87 430.34,1189.2 430.5,1187.5C 430.5,1186.83 430.5,1186.17 430.5,1185.5 Z"/></g>
<g><path style="opacity:1" fill="#97585e" d="M 483.5,1186.5 C 483.833,1186.5 484.167,1186.5 484.5,1186.5C 484.483,1188.56 484.15,1190.56 483.5,1192.5C 482.5,1193.17 481.5,1193.83 480.5,1194.5C 482.043,1192.07 483.043,1189.41 483.5,1186.5 Z"/></g>
<g><path style="opacity:1" fill="#c33f4e" d="M 1520.5,1175.5 C 1519.15,1181.39 1517.48,1187.05 1515.5,1192.5C 1516.15,1196.96 1517.15,1201.29 1518.5,1205.5C 1518.17,1205.5 1517.83,1205.5 1517.5,1205.5C 1514.89,1200.18 1513.89,1194.51 1514.5,1188.5C 1514.58,1185.67 1515.25,1183.01 1516.5,1180.5C 1516.5,1180.17 1516.5,1179.83 1516.5,1179.5C 1518.19,1178.47 1519.53,1177.14 1520.5,1175.5 Z"/></g>
<g><path style="opacity:1" fill="#b04a56" d="M 480.5,1195.5 C 479.5,1197.17 478.167,1198.5 476.5,1199.5C 476.833,1197.17 478.167,1195.83 480.5,1195.5 Z"/></g>
<g><path style="opacity:1" fill="#bc4250" d="M 437.5,1199.5 C 437.5,1199.17 437.5,1198.83 437.5,1198.5C 439.749,1199.08 441.415,1200.41 442.5,1202.5C 441.833,1202.5 441.167,1202.5 440.5,1202.5C 439.833,1201.17 438.833,1200.17 437.5,1199.5 Z"/></g>
<g><path style="opacity:1" fill="#905c61" d="M 437.5,1199.5 C 438.833,1200.17 439.833,1201.17 440.5,1202.5C 438.5,1202.5 437.5,1201.5 437.5,1199.5 Z"/></g>
<g><path style="opacity:1" fill="#ac4c57" d="M 475.5,1200.5 C 474.738,1202.26 473.404,1203.26 471.5,1203.5C 472.262,1201.74 473.596,1200.74 475.5,1200.5 Z"/></g>
<g><path style="opacity:1" fill="#b24954" d="M 1567.5,1199.5 C 1567.17,1200.83 1566.83,1202.17 1566.5,1203.5C 1566.5,1203.83 1566.5,1204.17 1566.5,1204.5C 1566.17,1204.5 1565.83,1204.5 1565.5,1204.5C 1565.12,1202.3 1565.79,1200.64 1567.5,1199.5 Z"/></g>
<g><path style="opacity:1" fill="#856266" d="M 483.5,1192.5 C 481.104,1198.23 477.104,1202.23 471.5,1204.5C 471.5,1204.17 471.5,1203.83 471.5,1203.5C 473.404,1203.26 474.738,1202.26 475.5,1200.5C 475.5,1199.83 475.833,1199.5 476.5,1199.5C 478.167,1198.5 479.5,1197.17 480.5,1195.5C 480.5,1195.17 480.5,1194.83 480.5,1194.5C 481.5,1193.83 482.5,1193.17 483.5,1192.5 Z"/></g>
<g><path style="opacity:1" fill="#925b61" d="M 1513.5,1188.5 C 1513.83,1188.5 1514.17,1188.5 1514.5,1188.5C 1513.89,1194.51 1514.89,1200.18 1517.5,1205.5C 1517.5,1205.83 1517.5,1206.17 1517.5,1206.5C 1516.12,1205.43 1514.95,1204.09 1514,1202.5C 1513.5,1197.85 1513.33,1193.18 1513.5,1188.5 Z"/></g>
<g><path style="opacity:1" fill="#97575f" d="M 440.5,1202.5 C 441.167,1202.5 441.833,1202.5 442.5,1202.5C 442.833,1203.17 443.167,1203.83 443.5,1204.5C 441.973,1204.57 440.973,1203.91 440.5,1202.5 Z"/></g>
<g><path style="opacity:1" fill="#925a60" d="M 443.5,1204.5 C 445.027,1204.43 446.027,1205.09 446.5,1206.5C 444.973,1206.57 443.973,1205.91 443.5,1204.5 Z"/></g>
<g><path style="opacity:1" fill="#b64653" d="M 442.5,1202.5 C 447.221,1204.9 452.388,1206.23 458,1206.5C 462.735,1206.19 467.235,1205.19 471.5,1203.5C 471.5,1203.83 471.5,1204.17 471.5,1204.5C 468.868,1205.75 466.201,1206.75 463.5,1207.5C 458.463,1207.59 453.463,1207.25 448.5,1206.5C 447.833,1206.5 447.167,1206.5 446.5,1206.5C 446.027,1205.09 445.027,1204.43 443.5,1204.5C 443.167,1203.83 442.833,1203.17 442.5,1202.5 Z"/></g>
<g><path style="opacity:1" fill="#7f6568" d="M 471.5,1204.5 C 471.5,1205.5 471.5,1206.5 471.5,1207.5C 464.627,1209.39 457.627,1209.89 450.5,1209C 449.944,1208.62 449.611,1208.12 449.5,1207.5C 454.298,1208.74 458.965,1208.74 463.5,1207.5C 466.201,1206.75 468.868,1205.75 471.5,1204.5 Z"/></g>
<g><path style="opacity:1" fill="#96585f" d="M 1565.5,1204.5 C 1565.83,1204.5 1566.17,1204.5 1566.5,1204.5C 1566.5,1205.17 1566.5,1205.83 1566.5,1206.5C 1565.83,1206.83 1565.17,1207.17 1564.5,1207.5C 1564.5,1207.17 1564.5,1206.83 1564.5,1206.5C 1564.83,1205.83 1565.17,1205.17 1565.5,1204.5 Z"/></g>
<g><path style="opacity:1" fill="#9b555d" d="M 448.5,1206.5 C 453.463,1207.25 458.463,1207.59 463.5,1207.5C 458.965,1208.74 454.298,1208.74 449.5,1207.5C 448.833,1207.5 448.5,1207.17 448.5,1206.5 Z"/></g>
<g><path style="opacity:1" fill="#aa4d57" d="M 1517.5,1205.5 C 1517.83,1205.5 1518.17,1205.5 1518.5,1205.5C 1519.6,1206.6 1520.27,1207.94 1520.5,1209.5C 1519.83,1209.17 1519.17,1208.83 1518.5,1208.5C 1518.17,1207.83 1517.83,1207.17 1517.5,1206.5C 1517.5,1206.17 1517.5,1205.83 1517.5,1205.5 Z"/></g>
<g><path style="opacity:1" fill="#8f5c62" d="M 1518.5,1208.5 C 1519.17,1208.83 1519.83,1209.17 1520.5,1209.5C 1521.17,1210.83 1522.17,1211.83 1523.5,1212.5C 1523.83,1213.17 1524.17,1213.83 1524.5,1214.5C 1521.5,1213.5 1519.5,1211.5 1518.5,1208.5 Z"/></g>
<g><path style="opacity:1" fill="#bd4250" d="M 1520.5,1209.5 C 1522.5,1209.5 1523.5,1210.5 1523.5,1212.5C 1522.17,1211.83 1521.17,1210.83 1520.5,1209.5 Z"/></g>
<g><path style="opacity:1" fill="#b24955" d="M 1564.5,1206.5 C 1564.5,1206.83 1564.5,1207.17 1564.5,1207.5C 1563.51,1208.8 1562.51,1210.13 1561.5,1211.5C 1561.17,1211.5 1560.83,1211.5 1560.5,1211.5C 1561.14,1209.21 1562.47,1207.54 1564.5,1206.5 Z"/></g>
<g><path style="opacity:1" fill="#7d6769" d="M 1566.5,1206.5 C 1565.2,1210.13 1562.86,1212.8 1559.5,1214.5C 1560.17,1213.5 1560.83,1212.5 1561.5,1211.5C 1562.51,1210.13 1563.51,1208.8 1564.5,1207.5C 1565.17,1207.17 1565.83,1206.83 1566.5,1206.5 Z"/></g>
<g><path style="opacity:1" fill="#a0535c" d="M 1560.5,1211.5 C 1560.83,1211.5 1561.17,1211.5 1561.5,1211.5C 1560.83,1212.5 1560.17,1213.5 1559.5,1214.5C 1557.83,1215.17 1556.17,1215.83 1554.5,1216.5C 1556.09,1214.37 1558.09,1212.7 1560.5,1211.5 Z"/></g>
<g><path style="opacity:1" fill="#ab4d57" d="M 1523.5,1212.5 C 1526.59,1214.58 1529.93,1216.25 1533.5,1217.5C 1537.97,1218.49 1542.64,1218.82 1547.5,1218.5C 1542.36,1219.49 1537.03,1219.82 1531.5,1219.5C 1528.99,1218.08 1526.66,1216.41 1524.5,1214.5C 1524.17,1213.83 1523.83,1213.17 1523.5,1212.5 Z"/></g>
<g><path style="opacity:1" fill="#c93b4b" d="M 1550.5,1216.5 C 1550.03,1217.91 1549.03,1218.57 1547.5,1218.5C 1542.64,1218.82 1537.97,1218.49 1533.5,1217.5C 1539.23,1217.74 1544.89,1217.41 1550.5,1216.5 Z"/></g>
<g><path style="opacity:1" fill="#915b61" d="M 1550.5,1216.5 C 1551.83,1216.5 1553.17,1216.5 1554.5,1216.5C 1552.85,1217.55 1551.18,1218.71 1549.5,1220C 1543.32,1220.82 1537.32,1220.65 1531.5,1219.5C 1537.03,1219.82 1542.36,1219.49 1547.5,1218.5C 1549.03,1218.57 1550.03,1217.91 1550.5,1216.5 Z"/></g>
<g><path style="opacity:1" fill="#5a5a5a" d="M 397.5,1225.5 C 398.873,1225.34 400.207,1225.51 401.5,1226C 404.126,1228.32 406.793,1230.66 409.5,1233C 418.007,1237.42 426.007,1242.58 433.5,1248.5C 432.127,1248.66 430.793,1248.49 429.5,1248C 425.195,1244.75 420.528,1242.08 415.5,1240C 410.778,1236.28 405.778,1232.95 400.5,1230C 399.117,1228.73 398.117,1227.23 397.5,1225.5 Z"/></g>
<g><path style="opacity:1" fill="#575757" d="M 1623.5,1225.5 C 1620.69,1227.48 1618.36,1229.98 1616.5,1233C 1587.91,1249.3 1559.24,1265.63 1530.5,1282C 1526.51,1282.5 1522.51,1282.67 1518.5,1282.5C 1518.5,1281.5 1518.5,1280.5 1518.5,1279.5C 1513.75,1278.42 1509.42,1276.42 1505.5,1273.5C 1501.77,1266.25 1497.6,1259.25 1493,1252.5C 1492.44,1249.07 1491.61,1245.73 1490.5,1242.5C 1493.42,1246.76 1496.26,1251.09 1499,1255.5C 1503.31,1271.83 1513.81,1279.67 1530.5,1279C 1540.75,1273.47 1551.08,1268.14 1561.5,1263C 1566.41,1260.38 1570.75,1257.05 1574.5,1253C 1577.5,1252 1580.5,1251 1583.5,1250C 1589.21,1246.15 1595.21,1242.81 1601.5,1240C 1606.12,1237.05 1610.45,1233.71 1614.5,1230C 1617.41,1228.24 1620.41,1226.74 1623.5,1225.5 Z"/></g>
<g><path style="opacity:1" fill="#595959" d="M 534.5,1189.5 C 533.473,1193.22 531.639,1196.55 529,1199.5C 527.516,1205.13 524.516,1209.8 520,1213.5C 519.027,1215.39 518.36,1217.39 518,1219.5C 507.88,1233.11 498.38,1247.11 489.5,1261.5C 487.338,1264.49 484.672,1266.99 481.5,1269C 473.833,1271 466.167,1271 458.5,1269C 452.331,1264.42 445.997,1260.08 439.5,1256C 438.177,1255.18 437.511,1254.02 437.5,1252.5C 441.068,1253.37 444.401,1254.87 447.5,1257C 456.729,1269.62 468.395,1272.29 482.5,1265C 486.184,1258.78 490.684,1253.28 496,1248.5C 498.548,1243.1 501.881,1238.1 506,1233.5C 508.171,1227.17 511.837,1221.83 517,1217.5C 521.851,1207.5 527.685,1198.16 534.5,1189.5 Z"/></g>
<g><path style="opacity:0.004" fill="#505150" d="M 1247.5,1279.5 C 1248.83,1280.17 1248.83,1280.17 1247.5,1279.5 Z"/></g>
<g><path style="opacity:0.004" fill="#505150" d="M 520.5,1388.5 C 519.475,1388.1 519.308,1387.44 520,1386.5C 520.464,1387.09 520.631,1387.76 520.5,1388.5 Z"/></g>
<g><path style="opacity:0.004" fill="#505150" d="M 519.5,1411.5 C 520.525,1411.9 520.692,1412.56 520,1413.5C 519.536,1412.91 519.369,1412.24 519.5,1411.5 Z"/></g>
<g><path style="opacity:0.004" fill="#505150" d="M 600.5,1516.5 C 600.631,1517.24 600.464,1517.91 600,1518.5C 599.308,1517.56 599.475,1516.9 600.5,1516.5 Z"/></g>
<g><path style="opacity:0.004" fill="#505150" d="M 680.5,1568.5 C 679.833,1569.17 679.833,1569.17 680.5,1568.5 Z"/></g>
<g><path style="opacity:0.004" fill="#505150" d="M 1054.5,1636.5 C 1055.53,1636.9 1055.69,1637.56 1055,1638.5C 1054.54,1637.91 1054.37,1637.24 1054.5,1636.5 Z"/></g>
</svg>
